G75*
%MOIN*%
%OFA0B0*%
%FSLAX25Y25*%
%IPPOS*%
%LPD*%
%AMOC8*
5,1,8,0,0,1.08239X$1,22.5*
%
%ADD10C,0.00000*%
%ADD11R,0.04731X0.04337*%
%ADD12R,0.04337X0.04731*%
%ADD13R,0.05124X0.04337*%
%ADD14R,0.08274X0.05715*%
%ADD15R,0.01778X0.02369*%
%ADD16R,0.06400X0.16400*%
%ADD17R,0.05912X0.04337*%
%ADD18C,0.06400*%
%ADD19C,0.04337*%
D10*
X0026800Y0048050D02*
X0026800Y0245501D01*
X0146800Y0245501D01*
X0146800Y0048050D01*
X0026800Y0048050D01*
D11*
X0054300Y0098454D03*
X0054300Y0105146D03*
X0054300Y0113454D03*
X0054300Y0120146D03*
X0079300Y0120146D03*
X0079300Y0113454D03*
X0079300Y0105146D03*
X0079300Y0098454D03*
X0101054Y0127000D03*
X0107746Y0127000D03*
X0107546Y0151200D03*
X0100854Y0151200D03*
X0100854Y0167300D03*
X0107546Y0167300D03*
D12*
X0107546Y0159200D03*
X0100854Y0159200D03*
X0100900Y0175354D03*
X0100900Y0182046D03*
X0100954Y0143200D03*
X0107646Y0143200D03*
X0107646Y0135100D03*
X0100954Y0135100D03*
D13*
X0091800Y0140383D03*
X0091800Y0145383D03*
X0091800Y0150383D03*
X0091800Y0155383D03*
X0091800Y0160383D03*
X0091800Y0165383D03*
X0091800Y0170383D03*
X0091800Y0175383D03*
D14*
X0047706Y0185146D03*
X0047706Y0128454D03*
D15*
X0117841Y0158266D03*
X0120400Y0158266D03*
X0122959Y0158266D03*
X0122959Y0166534D03*
X0120400Y0166534D03*
X0117841Y0166534D03*
D16*
X0113200Y0236300D03*
X0133200Y0236300D03*
X0076300Y0236300D03*
X0056300Y0236300D03*
D17*
X0071131Y0120540D03*
X0071131Y0113060D03*
X0071131Y0105540D03*
X0071131Y0098060D03*
X0062469Y0101800D03*
X0062469Y0116800D03*
D18*
X0061800Y0058300D02*
X0061800Y0052300D01*
X0071800Y0052300D02*
X0071800Y0058300D01*
X0081800Y0058300D02*
X0081800Y0052300D01*
X0091800Y0052300D02*
X0091800Y0058300D01*
X0101800Y0058300D02*
X0101800Y0052300D01*
X0111800Y0052300D02*
X0111800Y0058300D01*
X0121800Y0058300D02*
X0121800Y0052300D01*
X0051800Y0052300D02*
X0051800Y0058300D01*
D19*
X0059550Y0126800D03*
X0066800Y0126800D03*
X0059800Y0196050D03*
M02*
