G75*
%MOIN*%
%OFA0B0*%
%FSLAX25Y25*%
%IPPOS*%
%LPD*%
%AMOC8*
5,1,8,0,0,1.08239X$1,22.5*
%
%ADD10C,0.00000*%
%ADD11R,0.04331X0.03937*%
%ADD12R,0.03937X0.04331*%
%ADD13R,0.04724X0.03937*%
%ADD14R,0.07874X0.05315*%
%ADD15R,0.01378X0.01969*%
%ADD16R,0.06000X0.16000*%
%ADD17R,0.05512X0.03937*%
%ADD18C,0.06000*%
%ADD19C,0.03937*%
%ADD20C,0.01600*%
%ADD21OC8,0.02381*%
%ADD22C,0.01200*%
%ADD23C,0.02400*%
%ADD24C,0.08600*%
%ADD25C,0.00600*%
D10*
X0026800Y0048050D02*
X0026800Y0245501D01*
X0146800Y0245501D01*
X0146800Y0048050D01*
X0026800Y0048050D01*
D11*
X0054300Y0098454D03*
X0054300Y0105146D03*
X0054300Y0113454D03*
X0054300Y0120146D03*
X0079300Y0120146D03*
X0079300Y0113454D03*
X0079300Y0105146D03*
X0079300Y0098454D03*
X0101054Y0127000D03*
X0107746Y0127000D03*
X0107546Y0151200D03*
X0100854Y0151200D03*
X0100854Y0167300D03*
X0107546Y0167300D03*
D12*
X0107546Y0159200D03*
X0100854Y0159200D03*
X0100900Y0175354D03*
X0100900Y0182046D03*
X0100954Y0143200D03*
X0107646Y0143200D03*
X0107646Y0135100D03*
X0100954Y0135100D03*
D13*
X0091800Y0140383D03*
X0091800Y0145383D03*
X0091800Y0150383D03*
X0091800Y0155383D03*
X0091800Y0160383D03*
X0091800Y0165383D03*
X0091800Y0170383D03*
X0091800Y0175383D03*
D14*
X0047706Y0185146D03*
X0047706Y0128454D03*
D15*
X0117841Y0158266D03*
X0120400Y0158266D03*
X0122959Y0158266D03*
X0122959Y0166534D03*
X0120400Y0166534D03*
X0117841Y0166534D03*
D16*
X0113200Y0236300D03*
X0133200Y0236300D03*
X0076300Y0236300D03*
X0056300Y0236300D03*
D17*
X0071131Y0120540D03*
X0071131Y0113060D03*
X0071131Y0105540D03*
X0071131Y0098060D03*
X0062469Y0101800D03*
X0062469Y0116800D03*
D18*
X0061800Y0058300D02*
X0061800Y0052300D01*
X0071800Y0052300D02*
X0071800Y0058300D01*
X0081800Y0058300D02*
X0081800Y0052300D01*
X0091800Y0052300D02*
X0091800Y0058300D01*
X0101800Y0058300D02*
X0101800Y0052300D01*
X0111800Y0052300D02*
X0111800Y0058300D01*
X0121800Y0058300D02*
X0121800Y0052300D01*
X0051800Y0052300D02*
X0051800Y0058300D01*
D19*
X0059550Y0126800D03*
X0066800Y0126800D03*
X0059800Y0196050D03*
D20*
X0057223Y0193863D02*
X0028600Y0193863D01*
X0028600Y0192265D02*
X0131100Y0192265D01*
X0131100Y0193863D02*
X0062377Y0193863D01*
X0062656Y0194142D02*
X0063168Y0195380D01*
X0063168Y0196720D01*
X0062656Y0197958D01*
X0061708Y0198906D01*
X0060470Y0199418D01*
X0059130Y0199418D01*
X0058922Y0199332D01*
X0058641Y0199614D01*
X0058641Y0201123D01*
X0057123Y0202641D01*
X0054977Y0202641D01*
X0053459Y0201123D01*
X0053459Y0198977D01*
X0054977Y0197459D01*
X0055986Y0197459D01*
X0056518Y0196928D01*
X0056431Y0196720D01*
X0056431Y0195380D01*
X0056944Y0194142D01*
X0057892Y0193194D01*
X0059130Y0192681D01*
X0060470Y0192681D01*
X0061708Y0193194D01*
X0062656Y0194142D01*
X0063168Y0195462D02*
X0131100Y0195462D01*
X0131100Y0197060D02*
X0063028Y0197060D01*
X0061955Y0198659D02*
X0131100Y0198659D01*
X0131100Y0200257D02*
X0058641Y0200257D01*
X0057908Y0201856D02*
X0130383Y0201856D01*
X0131100Y0201139D02*
X0131100Y0184564D01*
X0130473Y0185191D01*
X0128800Y0185191D01*
X0128800Y0185336D01*
X0129391Y0185927D01*
X0129391Y0188073D01*
X0127873Y0189591D01*
X0125727Y0189591D01*
X0124209Y0188073D01*
X0124209Y0185927D01*
X0124800Y0185336D01*
X0124800Y0172628D01*
X0122600Y0174828D01*
X0121428Y0176000D01*
X0118864Y0176000D01*
X0118273Y0176591D01*
X0117721Y0176591D01*
X0116758Y0177554D01*
X0104268Y0177554D01*
X0104268Y0178099D01*
X0103944Y0178423D01*
X0103974Y0178441D01*
X0104309Y0178776D01*
X0104546Y0179186D01*
X0104668Y0179644D01*
X0104668Y0181862D01*
X0101084Y0181862D01*
X0101084Y0182231D01*
X0100716Y0182231D01*
X0100716Y0186012D01*
X0098695Y0186012D01*
X0098237Y0185889D01*
X0097826Y0185652D01*
X0097491Y0185317D01*
X0097254Y0184907D01*
X0097131Y0184449D01*
X0097131Y0182231D01*
X0100716Y0182231D01*
X0100716Y0181862D01*
X0097131Y0181862D01*
X0097131Y0179644D01*
X0097254Y0179186D01*
X0097491Y0178776D01*
X0097826Y0178441D01*
X0097856Y0178423D01*
X0097531Y0178099D01*
X0097531Y0177583D01*
X0095562Y0177583D01*
X0095562Y0177931D01*
X0094742Y0178751D01*
X0088858Y0178751D01*
X0088038Y0177931D01*
X0088038Y0173497D01*
X0087997Y0173456D01*
X0087760Y0173046D01*
X0087638Y0172588D01*
X0087638Y0170567D01*
X0091616Y0170567D01*
X0091616Y0170198D01*
X0087638Y0170198D01*
X0087638Y0168177D01*
X0087760Y0167719D01*
X0087997Y0167309D01*
X0088038Y0167269D01*
X0088038Y0137834D01*
X0088858Y0137014D01*
X0094700Y0137014D01*
X0094700Y0135189D01*
X0095700Y0134189D01*
X0096989Y0132900D01*
X0097585Y0132900D01*
X0097585Y0132355D01*
X0098405Y0131535D01*
X0098800Y0131535D01*
X0098800Y0130368D01*
X0098308Y0130368D01*
X0097488Y0129548D01*
X0097488Y0126275D01*
X0096373Y0127391D01*
X0094227Y0127391D01*
X0093636Y0126800D01*
X0079472Y0126800D01*
X0079062Y0126391D01*
X0078227Y0126391D01*
X0076709Y0124873D01*
X0076709Y0123515D01*
X0076555Y0123515D01*
X0075780Y0122740D01*
X0075287Y0122740D01*
X0075287Y0123089D01*
X0074467Y0123909D01*
X0068622Y0123909D01*
X0068708Y0123944D01*
X0069656Y0124892D01*
X0070168Y0126130D01*
X0070168Y0127470D01*
X0069656Y0128708D01*
X0068708Y0129656D01*
X0067470Y0130168D01*
X0066130Y0130168D01*
X0064892Y0129656D01*
X0063944Y0128708D01*
X0063431Y0127470D01*
X0063431Y0126391D01*
X0062918Y0126391D01*
X0062918Y0127470D01*
X0062406Y0128708D01*
X0061458Y0129656D01*
X0060220Y0130168D01*
X0058880Y0130168D01*
X0057642Y0129656D01*
X0057000Y0129014D01*
X0056623Y0129391D01*
X0054477Y0129391D01*
X0053011Y0127925D01*
X0048234Y0127925D01*
X0048234Y0123996D01*
X0051879Y0123996D01*
X0052337Y0124119D01*
X0052748Y0124356D01*
X0053083Y0124691D01*
X0053320Y0125101D01*
X0053376Y0125311D01*
X0054477Y0124209D01*
X0056623Y0124209D01*
X0057000Y0124586D01*
X0057642Y0123944D01*
X0058880Y0123431D01*
X0060209Y0123431D01*
X0060209Y0122727D01*
X0060590Y0122346D01*
X0060542Y0122346D01*
X0057865Y0122346D01*
X0057865Y0122695D01*
X0057045Y0123515D01*
X0051555Y0123515D01*
X0050735Y0122695D01*
X0050735Y0121639D01*
X0049850Y0120754D01*
X0048350Y0119254D01*
X0048350Y0107254D01*
X0045346Y0104250D01*
X0039264Y0104250D01*
X0038373Y0105141D01*
X0036227Y0105141D01*
X0034709Y0103623D01*
X0034709Y0103502D01*
X0034000Y0104211D01*
X0034000Y0135889D01*
X0043321Y0145209D01*
X0043573Y0145209D01*
X0043600Y0145236D01*
X0043600Y0136583D01*
X0043709Y0136319D01*
X0043709Y0135927D01*
X0043986Y0135650D01*
X0043996Y0135627D01*
X0044827Y0134796D01*
X0044850Y0134786D01*
X0045227Y0134409D01*
X0045760Y0134409D01*
X0045783Y0134400D01*
X0046817Y0134400D01*
X0046840Y0134409D01*
X0047373Y0134409D01*
X0047750Y0134786D01*
X0047773Y0134796D01*
X0048504Y0135527D01*
X0048514Y0135550D01*
X0048891Y0135927D01*
X0048891Y0136460D01*
X0048900Y0136483D01*
X0048900Y0137517D01*
X0048891Y0137540D01*
X0048891Y0138073D01*
X0048800Y0138164D01*
X0048800Y0160717D01*
X0048404Y0161673D01*
X0047673Y0162404D01*
X0043773Y0166304D01*
X0043579Y0166384D01*
X0043273Y0166691D01*
X0042840Y0166691D01*
X0042817Y0166700D01*
X0041683Y0166700D01*
X0041660Y0166691D01*
X0041127Y0166691D01*
X0040750Y0166314D01*
X0040727Y0166304D01*
X0039996Y0165573D01*
X0039986Y0165550D01*
X0039609Y0165173D01*
X0039609Y0164640D01*
X0039600Y0164617D01*
X0039600Y0163583D01*
X0039609Y0163560D01*
X0039609Y0163027D01*
X0039986Y0162650D01*
X0039996Y0162627D01*
X0040727Y0161896D01*
X0040750Y0161886D01*
X0041127Y0161509D01*
X0041214Y0161509D01*
X0043600Y0159123D01*
X0043600Y0150364D01*
X0043573Y0150391D01*
X0041427Y0150391D01*
X0039909Y0148873D01*
X0039909Y0148021D01*
X0030889Y0139000D01*
X0029600Y0137711D01*
X0029600Y0102389D01*
X0035909Y0096079D01*
X0035909Y0095527D01*
X0036886Y0094550D01*
X0035709Y0093373D01*
X0035709Y0091227D01*
X0037227Y0089709D01*
X0039373Y0089709D01*
X0040264Y0090600D01*
X0043004Y0090600D01*
X0044364Y0091959D01*
X0045623Y0091959D01*
X0046300Y0092636D01*
X0046300Y0078417D01*
X0046100Y0077934D01*
X0046100Y0054166D01*
X0046968Y0052071D01*
X0047400Y0051639D01*
X0047400Y0051425D01*
X0048052Y0049850D01*
X0028600Y0049850D01*
X0028600Y0243701D01*
X0051500Y0243701D01*
X0051500Y0237000D01*
X0055600Y0237000D01*
X0055600Y0235600D01*
X0057000Y0235600D01*
X0057000Y0237000D01*
X0061100Y0237000D01*
X0061100Y0243701D01*
X0071500Y0243701D01*
X0071500Y0237000D01*
X0075600Y0237000D01*
X0075600Y0235600D01*
X0077000Y0235600D01*
X0077000Y0237000D01*
X0081100Y0237000D01*
X0081100Y0243701D01*
X0108400Y0243701D01*
X0108400Y0237000D01*
X0112500Y0237000D01*
X0112500Y0235600D01*
X0113900Y0235600D01*
X0113900Y0237000D01*
X0118000Y0237000D01*
X0118000Y0243701D01*
X0128400Y0243701D01*
X0128400Y0237000D01*
X0132500Y0237000D01*
X0132500Y0235600D01*
X0133900Y0235600D01*
X0133900Y0237000D01*
X0138000Y0237000D01*
X0138000Y0243701D01*
X0145000Y0243701D01*
X0145000Y0049850D01*
X0125548Y0049850D01*
X0126200Y0051425D01*
X0126200Y0059175D01*
X0125530Y0060792D01*
X0124292Y0062030D01*
X0123800Y0062234D01*
X0123800Y0063128D01*
X0122300Y0064628D01*
X0121128Y0065800D01*
X0113878Y0065800D01*
X0113050Y0066628D01*
X0111878Y0067800D01*
X0086611Y0067800D01*
X0088511Y0069700D01*
X0110811Y0069700D01*
X0112221Y0071109D01*
X0112773Y0071109D01*
X0114291Y0072627D01*
X0114291Y0074700D01*
X0116311Y0074700D01*
X0118621Y0077009D01*
X0119173Y0077009D01*
X0120691Y0078527D01*
X0120691Y0080673D01*
X0120264Y0081100D01*
X0127934Y0081100D01*
X0130029Y0081968D01*
X0138929Y0090868D01*
X0140029Y0091968D01*
X0141632Y0093571D01*
X0142500Y0095666D01*
X0142500Y0204634D01*
X0141632Y0206729D01*
X0140029Y0208332D01*
X0140029Y0208332D01*
X0131232Y0217129D01*
X0129629Y0218732D01*
X0127534Y0219600D01*
X0101466Y0219600D01*
X0099371Y0218732D01*
X0097768Y0217129D01*
X0096900Y0215034D01*
X0096900Y0212766D01*
X0097768Y0210671D01*
X0099371Y0209068D01*
X0101466Y0208200D01*
X0124039Y0208200D01*
X0131100Y0201139D01*
X0128785Y0203454D02*
X0028600Y0203454D01*
X0028600Y0201856D02*
X0054192Y0201856D01*
X0053459Y0200257D02*
X0028600Y0200257D01*
X0028600Y0198659D02*
X0053778Y0198659D01*
X0056386Y0197060D02*
X0028600Y0197060D01*
X0028600Y0195462D02*
X0056431Y0195462D01*
X0052748Y0189244D02*
X0052337Y0189481D01*
X0051879Y0189604D01*
X0048234Y0189604D01*
X0048234Y0185675D01*
X0047177Y0185675D01*
X0047177Y0184618D01*
X0048234Y0184618D01*
X0048234Y0185675D01*
X0053443Y0185675D01*
X0053443Y0188041D01*
X0053320Y0188499D01*
X0053083Y0188909D01*
X0052748Y0189244D01*
X0052925Y0189068D02*
X0125204Y0189068D01*
X0124209Y0187469D02*
X0053443Y0187469D01*
X0053443Y0185870D02*
X0098204Y0185870D01*
X0097131Y0184272D02*
X0053443Y0184272D01*
X0053442Y0184618D02*
X0048234Y0184618D01*
X0048234Y0180689D01*
X0051879Y0180689D01*
X0052337Y0180812D01*
X0052748Y0181049D01*
X0053083Y0181384D01*
X0053320Y0181794D01*
X0053443Y0182252D01*
X0053442Y0184618D01*
X0053443Y0182673D02*
X0097131Y0182673D01*
X0097131Y0181075D02*
X0052774Y0181075D01*
X0048234Y0181075D02*
X0047177Y0181075D01*
X0047177Y0180689D02*
X0047177Y0184618D01*
X0041969Y0184618D01*
X0041969Y0182252D01*
X0042091Y0181794D01*
X0042328Y0181384D01*
X0042663Y0181049D01*
X0043074Y0180812D01*
X0043532Y0180689D01*
X0047177Y0180689D01*
X0047177Y0182673D02*
X0048234Y0182673D01*
X0048234Y0184272D02*
X0047177Y0184272D01*
X0047177Y0185675D02*
X0041969Y0185675D01*
X0041969Y0188041D01*
X0042091Y0188499D01*
X0042328Y0188909D01*
X0042663Y0189244D01*
X0043074Y0189481D01*
X0043532Y0189604D01*
X0047177Y0189604D01*
X0047177Y0185675D01*
X0047177Y0185870D02*
X0048234Y0185870D01*
X0048234Y0187469D02*
X0047177Y0187469D01*
X0047177Y0189068D02*
X0048234Y0189068D01*
X0042486Y0189068D02*
X0028600Y0189068D01*
X0028600Y0190666D02*
X0131100Y0190666D01*
X0131100Y0189068D02*
X0128396Y0189068D01*
X0129391Y0187469D02*
X0131100Y0187469D01*
X0131100Y0185870D02*
X0129334Y0185870D01*
X0124800Y0184272D02*
X0104668Y0184272D01*
X0104668Y0184449D02*
X0104546Y0184907D01*
X0104309Y0185317D01*
X0103974Y0185652D01*
X0103563Y0185889D01*
X0103105Y0186012D01*
X0101084Y0186012D01*
X0101084Y0182231D01*
X0104668Y0182231D01*
X0104668Y0184449D01*
X0104668Y0182673D02*
X0124800Y0182673D01*
X0124800Y0181075D02*
X0104668Y0181075D01*
X0104624Y0179476D02*
X0124800Y0179476D01*
X0124800Y0177878D02*
X0104268Y0177878D01*
X0100900Y0175354D02*
X0115846Y0175354D01*
X0117200Y0174000D01*
X0118864Y0172000D02*
X0119772Y0172000D01*
X0120959Y0170813D01*
X0120959Y0169318D01*
X0120400Y0169318D01*
X0120400Y0166534D01*
X0120400Y0166534D01*
X0120400Y0169318D01*
X0119810Y0169318D01*
X0117719Y0171409D01*
X0118273Y0171409D01*
X0118864Y0172000D01*
X0118347Y0171484D02*
X0120288Y0171484D01*
X0120959Y0169885D02*
X0119243Y0169885D01*
X0120400Y0168287D02*
X0120400Y0168287D01*
X0120400Y0166688D02*
X0120400Y0166688D01*
X0120400Y0166534D02*
X0120400Y0163750D01*
X0121326Y0163750D01*
X0121784Y0163872D01*
X0122194Y0164109D01*
X0122235Y0164150D01*
X0124228Y0164150D01*
X0124800Y0164722D01*
X0124800Y0160078D01*
X0124228Y0160650D01*
X0121690Y0160650D01*
X0121680Y0160640D01*
X0121669Y0160650D01*
X0119131Y0160650D01*
X0119120Y0160640D01*
X0119110Y0160650D01*
X0116572Y0160650D01*
X0116443Y0160521D01*
X0116264Y0160700D01*
X0116391Y0160827D01*
X0116391Y0162973D01*
X0114873Y0164491D01*
X0112727Y0164491D01*
X0111209Y0162973D01*
X0111209Y0162138D01*
X0110915Y0161843D01*
X0110915Y0161945D01*
X0110095Y0162765D01*
X0104998Y0162765D01*
X0104200Y0161967D01*
X0103402Y0162765D01*
X0103054Y0162765D01*
X0103054Y0163931D01*
X0103599Y0163931D01*
X0103923Y0164256D01*
X0103941Y0164226D01*
X0104276Y0163891D01*
X0104686Y0163654D01*
X0105144Y0163531D01*
X0107362Y0163531D01*
X0107362Y0167116D01*
X0107731Y0167116D01*
X0107731Y0167484D01*
X0111512Y0167484D01*
X0111512Y0169505D01*
X0111433Y0169800D01*
X0113672Y0169800D01*
X0115752Y0167720D01*
X0115752Y0164970D01*
X0116572Y0164150D01*
X0118565Y0164150D01*
X0118606Y0164109D01*
X0119016Y0163872D01*
X0119474Y0163750D01*
X0120400Y0163750D01*
X0120400Y0166534D01*
X0120400Y0166534D01*
X0120400Y0165090D02*
X0120400Y0165090D01*
X0124800Y0163491D02*
X0115872Y0163491D01*
X0115752Y0165090D02*
X0111511Y0165090D01*
X0111512Y0165095D02*
X0111512Y0167116D01*
X0107731Y0167116D01*
X0107731Y0163531D01*
X0109949Y0163531D01*
X0110407Y0163654D01*
X0110817Y0163891D01*
X0111152Y0164226D01*
X0111389Y0164637D01*
X0111512Y0165095D01*
X0111512Y0166688D02*
X0115752Y0166688D01*
X0115185Y0168287D02*
X0111512Y0168287D01*
X0111728Y0163491D02*
X0103054Y0163491D01*
X0100854Y0164046D02*
X0100854Y0167300D01*
X0100854Y0159200D01*
X0099900Y0154900D02*
X0096700Y0154900D01*
X0096217Y0155383D01*
X0091800Y0155383D01*
X0088038Y0155499D02*
X0048800Y0155499D01*
X0048800Y0157097D02*
X0088038Y0157097D01*
X0088038Y0158696D02*
X0048800Y0158696D01*
X0048800Y0160294D02*
X0088038Y0160294D01*
X0088038Y0161893D02*
X0048184Y0161893D01*
X0046586Y0163491D02*
X0088038Y0163491D01*
X0088038Y0165090D02*
X0044987Y0165090D01*
X0043275Y0166688D02*
X0088038Y0166688D01*
X0087638Y0168287D02*
X0028600Y0168287D01*
X0028600Y0169885D02*
X0087638Y0169885D01*
X0087638Y0171484D02*
X0028600Y0171484D01*
X0028600Y0173082D02*
X0087782Y0173082D01*
X0088038Y0174681D02*
X0028600Y0174681D01*
X0028600Y0176279D02*
X0088038Y0176279D01*
X0088038Y0177878D02*
X0028600Y0177878D01*
X0028600Y0179476D02*
X0097176Y0179476D01*
X0097531Y0177878D02*
X0095562Y0177878D01*
X0091800Y0175383D02*
X0100871Y0175383D01*
X0100900Y0175354D01*
X0099260Y0171788D02*
X0098352Y0171788D01*
X0097531Y0172608D01*
X0097531Y0173183D01*
X0095761Y0173183D01*
X0095840Y0173046D01*
X0095962Y0172588D01*
X0095962Y0170567D01*
X0091984Y0170567D01*
X0091984Y0170198D01*
X0095962Y0170198D01*
X0095962Y0168973D01*
X0096489Y0169500D01*
X0097288Y0169500D01*
X0097288Y0169848D01*
X0098108Y0170668D01*
X0098800Y0170668D01*
X0098800Y0171328D01*
X0099260Y0171788D01*
X0098955Y0171484D02*
X0095962Y0171484D01*
X0095962Y0169885D02*
X0097325Y0169885D01*
X0097400Y0167300D02*
X0100854Y0167300D01*
X0097400Y0167300D02*
X0095483Y0165383D01*
X0091800Y0165383D01*
X0095818Y0173082D02*
X0097531Y0173082D01*
X0100716Y0182673D02*
X0101084Y0182673D01*
X0101084Y0184272D02*
X0100716Y0184272D01*
X0100716Y0185870D02*
X0101084Y0185870D01*
X0103596Y0185870D02*
X0124266Y0185870D01*
X0130700Y0180236D02*
X0131100Y0180636D01*
X0131100Y0099161D01*
X0130868Y0098929D01*
X0124439Y0092500D01*
X0116664Y0092500D01*
X0116891Y0092727D01*
X0116891Y0093260D01*
X0116900Y0093283D01*
X0116900Y0094317D01*
X0116891Y0094340D01*
X0116891Y0094873D01*
X0116514Y0095250D01*
X0116504Y0095273D01*
X0108900Y0102877D01*
X0108900Y0109536D01*
X0109227Y0109209D01*
X0111373Y0109209D01*
X0112891Y0110727D01*
X0112891Y0112873D01*
X0111373Y0114391D01*
X0110538Y0114391D01*
X0109878Y0115050D01*
X0109628Y0115300D01*
X0097628Y0115300D01*
X0101628Y0119300D01*
X0113628Y0119300D01*
X0118900Y0124572D01*
X0118900Y0122164D01*
X0118309Y0121573D01*
X0118309Y0119427D01*
X0119827Y0117909D01*
X0121973Y0117909D01*
X0123491Y0119427D01*
X0123491Y0121573D01*
X0122900Y0122164D01*
X0122900Y0125772D01*
X0127238Y0130109D01*
X0128073Y0130109D01*
X0129591Y0131627D01*
X0129591Y0133773D01*
X0128073Y0135291D01*
X0126300Y0135291D01*
X0126300Y0146472D01*
X0128538Y0148709D01*
X0129373Y0148709D01*
X0130891Y0150227D01*
X0130891Y0152373D01*
X0129373Y0153891D01*
X0129319Y0153891D01*
X0130700Y0155272D01*
X0130700Y0180236D01*
X0130700Y0179476D02*
X0131100Y0179476D01*
X0131100Y0177878D02*
X0130700Y0177878D01*
X0130700Y0176279D02*
X0131100Y0176279D01*
X0131100Y0174681D02*
X0130700Y0174681D01*
X0130700Y0173082D02*
X0131100Y0173082D01*
X0131100Y0171484D02*
X0130700Y0171484D01*
X0130700Y0169885D02*
X0131100Y0169885D01*
X0131100Y0168287D02*
X0130700Y0168287D01*
X0130700Y0166688D02*
X0131100Y0166688D01*
X0131100Y0165090D02*
X0130700Y0165090D01*
X0130700Y0163491D02*
X0131100Y0163491D01*
X0131100Y0161893D02*
X0130700Y0161893D01*
X0130700Y0160294D02*
X0131100Y0160294D01*
X0131100Y0158696D02*
X0130700Y0158696D01*
X0130700Y0157097D02*
X0131100Y0157097D01*
X0131100Y0155499D02*
X0130700Y0155499D01*
X0131100Y0153900D02*
X0129329Y0153900D01*
X0130891Y0152302D02*
X0131100Y0152302D01*
X0131100Y0150703D02*
X0130891Y0150703D01*
X0131100Y0149105D02*
X0129768Y0149105D01*
X0131100Y0147506D02*
X0127335Y0147506D01*
X0126300Y0145908D02*
X0131100Y0145908D01*
X0131100Y0144309D02*
X0126300Y0144309D01*
X0126300Y0142711D02*
X0131100Y0142711D01*
X0131100Y0141112D02*
X0126300Y0141112D01*
X0126300Y0139514D02*
X0131100Y0139514D01*
X0131100Y0137915D02*
X0126300Y0137915D01*
X0126300Y0136317D02*
X0131100Y0136317D01*
X0131100Y0134718D02*
X0128645Y0134718D01*
X0129591Y0133120D02*
X0131100Y0133120D01*
X0131100Y0131521D02*
X0129485Y0131521D01*
X0131100Y0129923D02*
X0127051Y0129923D01*
X0125452Y0128324D02*
X0131100Y0128324D01*
X0131100Y0126726D02*
X0123854Y0126726D01*
X0122900Y0125127D02*
X0131100Y0125127D01*
X0131100Y0123529D02*
X0122900Y0123529D01*
X0123134Y0121930D02*
X0131100Y0121930D01*
X0131100Y0120332D02*
X0123491Y0120332D01*
X0122797Y0118733D02*
X0131100Y0118733D01*
X0131100Y0117134D02*
X0099463Y0117134D01*
X0097864Y0115536D02*
X0131100Y0115536D01*
X0131100Y0113937D02*
X0111826Y0113937D01*
X0112891Y0112339D02*
X0131100Y0112339D01*
X0131100Y0110740D02*
X0112891Y0110740D01*
X0108900Y0109142D02*
X0131100Y0109142D01*
X0131100Y0107543D02*
X0108900Y0107543D01*
X0108900Y0105945D02*
X0131100Y0105945D01*
X0131100Y0104346D02*
X0108900Y0104346D01*
X0109029Y0102748D02*
X0131100Y0102748D01*
X0131100Y0101149D02*
X0110628Y0101149D01*
X0112226Y0099551D02*
X0131100Y0099551D01*
X0129891Y0097952D02*
X0113825Y0097952D01*
X0115423Y0096354D02*
X0128293Y0096354D01*
X0126694Y0094755D02*
X0116891Y0094755D01*
X0116891Y0093157D02*
X0125096Y0093157D01*
X0133225Y0085164D02*
X0145000Y0085164D01*
X0145000Y0083566D02*
X0131627Y0083566D01*
X0130028Y0081967D02*
X0145000Y0081967D01*
X0145000Y0080369D02*
X0120691Y0080369D01*
X0120691Y0078770D02*
X0145000Y0078770D01*
X0145000Y0077172D02*
X0119335Y0077172D01*
X0117184Y0075573D02*
X0145000Y0075573D01*
X0145000Y0073975D02*
X0114291Y0073975D01*
X0114040Y0072376D02*
X0145000Y0072376D01*
X0145000Y0070778D02*
X0111889Y0070778D01*
X0109900Y0071900D02*
X0111700Y0073700D01*
X0109900Y0071900D02*
X0087600Y0071900D01*
X0081800Y0066100D01*
X0081800Y0055300D01*
X0071800Y0055300D02*
X0071800Y0065900D01*
X0065800Y0071900D01*
X0058000Y0071900D01*
X0057900Y0072000D01*
X0057500Y0069409D02*
X0058973Y0069409D01*
X0059264Y0069700D01*
X0064889Y0069700D01*
X0069600Y0064989D01*
X0069600Y0062151D01*
X0069308Y0062030D01*
X0068070Y0060792D01*
X0067400Y0059175D01*
X0067400Y0051425D01*
X0068052Y0049850D01*
X0065939Y0049850D01*
X0066248Y0050457D01*
X0066482Y0051176D01*
X0066600Y0051922D01*
X0066600Y0055100D01*
X0062000Y0055100D01*
X0062000Y0055500D01*
X0061600Y0055500D01*
X0061600Y0063100D01*
X0061422Y0063100D01*
X0060676Y0062982D01*
X0059957Y0062748D01*
X0059284Y0062405D01*
X0058673Y0061961D01*
X0058139Y0061427D01*
X0057695Y0060816D01*
X0057500Y0060434D01*
X0057500Y0069409D01*
X0057500Y0069179D02*
X0065410Y0069179D01*
X0067008Y0067581D02*
X0057500Y0067581D01*
X0057500Y0065982D02*
X0068607Y0065982D01*
X0069600Y0064384D02*
X0057500Y0064384D01*
X0057500Y0062785D02*
X0060071Y0062785D01*
X0061600Y0062785D02*
X0062000Y0062785D01*
X0062000Y0063100D02*
X0062000Y0055500D01*
X0066600Y0055500D01*
X0066600Y0058678D01*
X0066482Y0059424D01*
X0066248Y0060143D01*
X0065905Y0060816D01*
X0065461Y0061427D01*
X0064927Y0061961D01*
X0064316Y0062405D01*
X0063643Y0062748D01*
X0062924Y0062982D01*
X0062178Y0063100D01*
X0062000Y0063100D01*
X0063529Y0062785D02*
X0069600Y0062785D01*
X0068464Y0061187D02*
X0065636Y0061187D01*
X0066428Y0059588D02*
X0067571Y0059588D01*
X0067400Y0057990D02*
X0066600Y0057990D01*
X0066600Y0056391D02*
X0067400Y0056391D01*
X0067400Y0054793D02*
X0066600Y0054793D01*
X0066600Y0053194D02*
X0067400Y0053194D01*
X0067400Y0051596D02*
X0066548Y0051596D01*
X0066014Y0049997D02*
X0067991Y0049997D01*
X0062000Y0056391D02*
X0061600Y0056391D01*
X0061600Y0057990D02*
X0062000Y0057990D01*
X0062000Y0059588D02*
X0061600Y0059588D01*
X0061600Y0061187D02*
X0062000Y0061187D01*
X0057964Y0061187D02*
X0057500Y0061187D01*
X0046503Y0053194D02*
X0028600Y0053194D01*
X0028600Y0051596D02*
X0047400Y0051596D01*
X0047991Y0049997D02*
X0028600Y0049997D01*
X0028600Y0054793D02*
X0046100Y0054793D01*
X0046100Y0056391D02*
X0028600Y0056391D01*
X0028600Y0057990D02*
X0046100Y0057990D01*
X0046100Y0059588D02*
X0028600Y0059588D01*
X0028600Y0061187D02*
X0046100Y0061187D01*
X0046100Y0062785D02*
X0028600Y0062785D01*
X0028600Y0064384D02*
X0046100Y0064384D01*
X0046100Y0065982D02*
X0028600Y0065982D01*
X0028600Y0067581D02*
X0046100Y0067581D01*
X0046100Y0069179D02*
X0028600Y0069179D01*
X0028600Y0070778D02*
X0046100Y0070778D01*
X0046100Y0072376D02*
X0028600Y0072376D01*
X0028600Y0073975D02*
X0046100Y0073975D01*
X0046100Y0075573D02*
X0028600Y0075573D01*
X0028600Y0077172D02*
X0046100Y0077172D01*
X0046300Y0078770D02*
X0028600Y0078770D01*
X0028600Y0080369D02*
X0046300Y0080369D01*
X0046300Y0081967D02*
X0028600Y0081967D01*
X0028600Y0083566D02*
X0046300Y0083566D01*
X0046300Y0085164D02*
X0028600Y0085164D01*
X0028600Y0086763D02*
X0046300Y0086763D01*
X0046300Y0088361D02*
X0028600Y0088361D01*
X0028600Y0089960D02*
X0036977Y0089960D01*
X0035709Y0091558D02*
X0028600Y0091558D01*
X0028600Y0093157D02*
X0035709Y0093157D01*
X0036681Y0094755D02*
X0028600Y0094755D01*
X0028600Y0096354D02*
X0035635Y0096354D01*
X0034036Y0097952D02*
X0028600Y0097952D01*
X0028600Y0099551D02*
X0032438Y0099551D01*
X0030839Y0101149D02*
X0028600Y0101149D01*
X0028600Y0102748D02*
X0029600Y0102748D01*
X0029600Y0104346D02*
X0028600Y0104346D01*
X0028600Y0105945D02*
X0029600Y0105945D01*
X0029600Y0107543D02*
X0028600Y0107543D01*
X0028600Y0109142D02*
X0029600Y0109142D01*
X0029600Y0110740D02*
X0028600Y0110740D01*
X0028600Y0112339D02*
X0029600Y0112339D01*
X0029600Y0113937D02*
X0028600Y0113937D01*
X0028600Y0115536D02*
X0029600Y0115536D01*
X0029600Y0117134D02*
X0028600Y0117134D01*
X0028600Y0118733D02*
X0029600Y0118733D01*
X0029600Y0120332D02*
X0028600Y0120332D01*
X0028600Y0121930D02*
X0029600Y0121930D01*
X0029600Y0123529D02*
X0028600Y0123529D01*
X0028600Y0125127D02*
X0029600Y0125127D01*
X0029600Y0126726D02*
X0028600Y0126726D01*
X0028600Y0128324D02*
X0029600Y0128324D01*
X0029600Y0129923D02*
X0028600Y0129923D01*
X0028600Y0131521D02*
X0029600Y0131521D01*
X0029600Y0133120D02*
X0028600Y0133120D01*
X0028600Y0134718D02*
X0029600Y0134718D01*
X0029600Y0136317D02*
X0028600Y0136317D01*
X0028600Y0137915D02*
X0029804Y0137915D01*
X0028600Y0139514D02*
X0031402Y0139514D01*
X0033001Y0141112D02*
X0028600Y0141112D01*
X0028600Y0142711D02*
X0034599Y0142711D01*
X0036198Y0144309D02*
X0028600Y0144309D01*
X0028600Y0145908D02*
X0037796Y0145908D01*
X0039395Y0147506D02*
X0028600Y0147506D01*
X0028600Y0149105D02*
X0040141Y0149105D01*
X0042500Y0147800D02*
X0042500Y0147500D01*
X0031800Y0136800D01*
X0031800Y0103300D01*
X0038500Y0096600D01*
X0039623Y0089960D02*
X0046300Y0089960D01*
X0046300Y0091558D02*
X0043962Y0091558D01*
X0050300Y0091558D02*
X0058497Y0091558D01*
X0058571Y0091632D02*
X0056968Y0090029D01*
X0052168Y0085229D01*
X0050300Y0083361D01*
X0050300Y0101472D01*
X0051081Y0102252D01*
X0051533Y0101800D01*
X0050735Y0101002D01*
X0050735Y0095905D01*
X0051555Y0095085D01*
X0057045Y0095085D01*
X0057865Y0095905D01*
X0057865Y0096254D01*
X0061865Y0096254D01*
X0063211Y0097600D01*
X0064043Y0098431D01*
X0065805Y0098431D01*
X0066625Y0099252D01*
X0066625Y0104348D01*
X0065805Y0105168D01*
X0059133Y0105168D01*
X0058313Y0104348D01*
X0058313Y0100654D01*
X0057865Y0100654D01*
X0057865Y0101002D01*
X0057067Y0101800D01*
X0057865Y0102598D01*
X0057865Y0107695D01*
X0057045Y0108515D01*
X0056900Y0108515D01*
X0056900Y0110085D01*
X0057045Y0110085D01*
X0057865Y0110905D01*
X0057865Y0116002D01*
X0057067Y0116800D01*
X0057865Y0117598D01*
X0057865Y0117946D01*
X0058313Y0117946D01*
X0058313Y0114252D01*
X0059133Y0113431D01*
X0065805Y0113431D01*
X0066625Y0114252D01*
X0066625Y0119348D01*
X0065805Y0120168D01*
X0064500Y0120168D01*
X0064500Y0120211D01*
X0063502Y0121209D01*
X0063873Y0121209D01*
X0065391Y0122727D01*
X0065391Y0122986D01*
X0065922Y0123518D01*
X0066130Y0123431D01*
X0067318Y0123431D01*
X0066975Y0123089D01*
X0066975Y0117992D01*
X0067795Y0117172D01*
X0074467Y0117172D01*
X0075287Y0117992D01*
X0075287Y0118340D01*
X0075735Y0118340D01*
X0075735Y0117598D01*
X0076533Y0116800D01*
X0075735Y0116002D01*
X0075735Y0115260D01*
X0075287Y0115260D01*
X0075287Y0115608D01*
X0074467Y0116428D01*
X0067795Y0116428D01*
X0066975Y0115608D01*
X0066975Y0110511D01*
X0067795Y0109691D01*
X0074467Y0109691D01*
X0075287Y0110511D01*
X0075287Y0110860D01*
X0075780Y0110860D01*
X0076555Y0110085D01*
X0082045Y0110085D01*
X0082209Y0110249D01*
X0082209Y0109727D01*
X0082800Y0109136D01*
X0082800Y0108128D01*
X0082616Y0107944D01*
X0082045Y0108515D01*
X0076555Y0108515D01*
X0075780Y0107740D01*
X0075287Y0107740D01*
X0075287Y0108089D01*
X0074467Y0108909D01*
X0067795Y0108909D01*
X0066975Y0108089D01*
X0066975Y0102992D01*
X0067795Y0102172D01*
X0074467Y0102172D01*
X0075287Y0102992D01*
X0075287Y0103340D01*
X0075735Y0103340D01*
X0075735Y0102598D01*
X0076533Y0101800D01*
X0075735Y0101002D01*
X0075735Y0100260D01*
X0075287Y0100260D01*
X0075287Y0100608D01*
X0074467Y0101428D01*
X0067795Y0101428D01*
X0066975Y0100608D01*
X0066975Y0095511D01*
X0067795Y0094691D01*
X0074467Y0094691D01*
X0075287Y0095511D01*
X0075287Y0095860D01*
X0075780Y0095860D01*
X0076555Y0095085D01*
X0082045Y0095085D01*
X0082865Y0095905D01*
X0082865Y0096454D01*
X0086282Y0096454D01*
X0087382Y0097554D01*
X0088627Y0096309D01*
X0090773Y0096309D01*
X0091364Y0096900D01*
X0098528Y0096900D01*
X0099838Y0098209D01*
X0100673Y0098209D01*
X0102191Y0099727D01*
X0102191Y0101873D01*
X0100673Y0103391D01*
X0100154Y0103391D01*
X0100391Y0103627D01*
X0100391Y0105773D01*
X0099800Y0106364D01*
X0099800Y0110628D01*
X0099391Y0111038D01*
X0099391Y0111300D01*
X0103700Y0111300D01*
X0103700Y0101283D01*
X0104096Y0100327D01*
X0111923Y0092500D01*
X0060666Y0092500D01*
X0058571Y0091632D01*
X0056899Y0089960D02*
X0050300Y0089960D01*
X0050300Y0088361D02*
X0055300Y0088361D01*
X0053702Y0086763D02*
X0050300Y0086763D01*
X0050300Y0085164D02*
X0052103Y0085164D01*
X0050505Y0083566D02*
X0050300Y0083566D01*
X0050300Y0093157D02*
X0111266Y0093157D01*
X0109668Y0094755D02*
X0074531Y0094755D01*
X0071131Y0098060D02*
X0078906Y0098060D01*
X0079300Y0098454D01*
X0082865Y0096354D02*
X0088583Y0096354D01*
X0090817Y0096354D02*
X0108069Y0096354D01*
X0106471Y0097952D02*
X0099581Y0097952D01*
X0102014Y0099551D02*
X0104872Y0099551D01*
X0103755Y0101149D02*
X0102191Y0101149D01*
X0101316Y0102748D02*
X0103700Y0102748D01*
X0103700Y0104346D02*
X0100391Y0104346D01*
X0100219Y0105945D02*
X0103700Y0105945D01*
X0103700Y0107543D02*
X0099800Y0107543D01*
X0099800Y0109142D02*
X0103700Y0109142D01*
X0103700Y0110740D02*
X0099688Y0110740D01*
X0101061Y0118733D02*
X0119003Y0118733D01*
X0118309Y0120332D02*
X0114660Y0120332D01*
X0116258Y0121930D02*
X0118666Y0121930D01*
X0118900Y0123529D02*
X0117857Y0123529D01*
X0115397Y0126726D02*
X0111712Y0126726D01*
X0111712Y0126816D02*
X0107931Y0126816D01*
X0107931Y0127184D01*
X0111712Y0127184D01*
X0111712Y0129205D01*
X0111589Y0129663D01*
X0111352Y0130074D01*
X0111017Y0130409D01*
X0110607Y0130646D01*
X0110149Y0130768D01*
X0107931Y0130768D01*
X0107931Y0127184D01*
X0107562Y0127184D01*
X0107562Y0130768D01*
X0105344Y0130768D01*
X0104886Y0130646D01*
X0104476Y0130409D01*
X0104141Y0130074D01*
X0104123Y0130044D01*
X0103799Y0130368D01*
X0103200Y0130368D01*
X0103200Y0131535D01*
X0103502Y0131535D01*
X0104300Y0132333D01*
X0105098Y0131535D01*
X0110195Y0131535D01*
X0111015Y0132355D01*
X0111015Y0133100D01*
X0111928Y0133100D01*
X0118328Y0139500D01*
X0119500Y0140672D01*
X0119500Y0144072D01*
X0122300Y0146872D01*
X0122300Y0133628D01*
X0111972Y0123300D01*
X0110404Y0123300D01*
X0110607Y0123354D01*
X0111017Y0123591D01*
X0111352Y0123926D01*
X0111589Y0124337D01*
X0111712Y0124795D01*
X0111712Y0126816D01*
X0111712Y0128324D02*
X0116996Y0128324D01*
X0118594Y0129923D02*
X0111439Y0129923D01*
X0111948Y0133120D02*
X0121791Y0133120D01*
X0122300Y0134718D02*
X0113547Y0134718D01*
X0115145Y0136317D02*
X0122300Y0136317D01*
X0122300Y0137915D02*
X0116744Y0137915D01*
X0118342Y0139514D02*
X0122300Y0139514D01*
X0122300Y0141112D02*
X0119500Y0141112D01*
X0119500Y0142711D02*
X0122300Y0142711D01*
X0122300Y0144309D02*
X0119738Y0144309D01*
X0121336Y0145908D02*
X0122300Y0145908D01*
X0117875Y0150703D02*
X0111512Y0150703D01*
X0111512Y0151016D02*
X0107731Y0151016D01*
X0107731Y0151384D01*
X0111512Y0151384D01*
X0111512Y0153200D01*
X0119628Y0153200D01*
X0120800Y0154372D01*
X0122310Y0155882D01*
X0123053Y0155882D01*
X0114172Y0147000D01*
X0113272Y0147000D01*
X0112100Y0145828D01*
X0111472Y0145200D01*
X0111015Y0145200D01*
X0111015Y0145945D01*
X0110195Y0146765D01*
X0105098Y0146765D01*
X0104300Y0145967D01*
X0103502Y0146765D01*
X0103054Y0146765D01*
X0103054Y0147831D01*
X0103599Y0147831D01*
X0103923Y0148156D01*
X0103941Y0148126D01*
X0104276Y0147791D01*
X0104686Y0147554D01*
X0105144Y0147431D01*
X0107362Y0147431D01*
X0107362Y0151016D01*
X0107731Y0151016D01*
X0107731Y0147431D01*
X0109949Y0147431D01*
X0110407Y0147554D01*
X0110817Y0147791D01*
X0111152Y0148126D01*
X0111389Y0148537D01*
X0111512Y0148995D01*
X0111512Y0151016D01*
X0111512Y0152302D02*
X0119473Y0152302D01*
X0120329Y0153900D02*
X0121072Y0153900D01*
X0121927Y0155499D02*
X0122670Y0155499D01*
X0124584Y0160294D02*
X0124800Y0160294D01*
X0124800Y0161893D02*
X0116391Y0161893D01*
X0110964Y0161893D02*
X0110915Y0161893D01*
X0107731Y0165090D02*
X0107362Y0165090D01*
X0107362Y0166688D02*
X0107731Y0166688D01*
X0099900Y0154900D02*
X0100900Y0153900D01*
X0100900Y0151246D01*
X0100854Y0151200D01*
X0100854Y0143300D01*
X0100954Y0143200D01*
X0103054Y0147506D02*
X0104865Y0147506D01*
X0107362Y0147506D02*
X0107731Y0147506D01*
X0107731Y0149105D02*
X0107362Y0149105D01*
X0107362Y0150703D02*
X0107731Y0150703D01*
X0110228Y0147506D02*
X0114678Y0147506D01*
X0116276Y0149105D02*
X0111512Y0149105D01*
X0111015Y0145908D02*
X0112179Y0145908D01*
X0101000Y0135146D02*
X0101000Y0127054D01*
X0101054Y0127000D01*
X0097488Y0126726D02*
X0097038Y0126726D01*
X0097488Y0128324D02*
X0069815Y0128324D01*
X0070168Y0126726D02*
X0079397Y0126726D01*
X0076963Y0125127D02*
X0069753Y0125127D01*
X0066975Y0121930D02*
X0064594Y0121930D01*
X0064380Y0120332D02*
X0066975Y0120332D01*
X0066975Y0118733D02*
X0066625Y0118733D01*
X0066625Y0117134D02*
X0076198Y0117134D01*
X0075735Y0115536D02*
X0075287Y0115536D01*
X0078906Y0113060D02*
X0071131Y0113060D01*
X0075287Y0110740D02*
X0075899Y0110740D01*
X0078906Y0113060D02*
X0079300Y0113454D01*
X0082794Y0109142D02*
X0056900Y0109142D01*
X0057701Y0110740D02*
X0066975Y0110740D01*
X0066975Y0112339D02*
X0057865Y0112339D01*
X0057865Y0113937D02*
X0058627Y0113937D01*
X0058313Y0115536D02*
X0057865Y0115536D01*
X0058313Y0117134D02*
X0057402Y0117134D01*
X0054300Y0120146D02*
X0061454Y0120146D01*
X0062300Y0119300D01*
X0062300Y0116969D01*
X0062469Y0116800D01*
X0066625Y0115536D02*
X0066975Y0115536D01*
X0066975Y0113937D02*
X0066311Y0113937D01*
X0066975Y0107543D02*
X0057865Y0107543D01*
X0057865Y0105945D02*
X0066975Y0105945D01*
X0066975Y0104346D02*
X0066625Y0104346D01*
X0066625Y0102748D02*
X0067219Y0102748D01*
X0067516Y0101149D02*
X0066625Y0101149D01*
X0066625Y0099551D02*
X0066975Y0099551D01*
X0066975Y0097952D02*
X0063564Y0097952D01*
X0062300Y0099800D02*
X0060954Y0098454D01*
X0056300Y0098454D01*
X0054300Y0098454D01*
X0050735Y0097952D02*
X0050300Y0097952D01*
X0050300Y0096354D02*
X0050735Y0096354D01*
X0050300Y0094755D02*
X0067731Y0094755D01*
X0066975Y0096354D02*
X0061965Y0096354D01*
X0062300Y0099800D02*
X0062300Y0101631D01*
X0062469Y0101800D01*
X0058313Y0101149D02*
X0057718Y0101149D01*
X0057865Y0102748D02*
X0058313Y0102748D01*
X0058313Y0104346D02*
X0057865Y0104346D01*
X0050882Y0101149D02*
X0050300Y0101149D01*
X0050300Y0099551D02*
X0050735Y0099551D01*
X0045442Y0104346D02*
X0039167Y0104346D01*
X0035433Y0104346D02*
X0034000Y0104346D01*
X0034000Y0105945D02*
X0047041Y0105945D01*
X0048350Y0107543D02*
X0034000Y0107543D01*
X0034000Y0109142D02*
X0048350Y0109142D01*
X0048350Y0110740D02*
X0034000Y0110740D01*
X0034000Y0112339D02*
X0048350Y0112339D01*
X0048350Y0113937D02*
X0034000Y0113937D01*
X0034000Y0115536D02*
X0048350Y0115536D01*
X0048350Y0117134D02*
X0034000Y0117134D01*
X0034000Y0118733D02*
X0048350Y0118733D01*
X0049427Y0120332D02*
X0034000Y0120332D01*
X0034000Y0121930D02*
X0050735Y0121930D01*
X0048234Y0125127D02*
X0047177Y0125127D01*
X0047177Y0123996D02*
X0047177Y0127925D01*
X0048234Y0127925D01*
X0048234Y0128982D01*
X0053443Y0128982D01*
X0053443Y0131348D01*
X0053320Y0131806D01*
X0053083Y0132216D01*
X0052748Y0132551D01*
X0052337Y0132788D01*
X0051879Y0132911D01*
X0048234Y0132911D01*
X0048234Y0128982D01*
X0047177Y0128982D01*
X0047177Y0127925D01*
X0041969Y0127925D01*
X0041969Y0125559D01*
X0042091Y0125101D01*
X0042328Y0124691D01*
X0042663Y0124356D01*
X0043074Y0124119D01*
X0043532Y0123996D01*
X0047177Y0123996D01*
X0047177Y0126726D02*
X0048234Y0126726D01*
X0048234Y0128324D02*
X0053410Y0128324D01*
X0053443Y0129923D02*
X0058286Y0129923D01*
X0060814Y0129923D02*
X0065536Y0129923D01*
X0063785Y0128324D02*
X0062565Y0128324D01*
X0062918Y0126726D02*
X0063431Y0126726D01*
X0058646Y0123529D02*
X0034000Y0123529D01*
X0034000Y0125127D02*
X0042084Y0125127D01*
X0041969Y0126726D02*
X0034000Y0126726D01*
X0034000Y0128324D02*
X0047177Y0128324D01*
X0047177Y0128982D02*
X0041969Y0128982D01*
X0041969Y0131348D01*
X0042091Y0131806D01*
X0042328Y0132216D01*
X0042663Y0132551D01*
X0043074Y0132788D01*
X0043532Y0132911D01*
X0047177Y0132911D01*
X0047177Y0128982D01*
X0047177Y0129923D02*
X0048234Y0129923D01*
X0048234Y0131521D02*
X0047177Y0131521D01*
X0047682Y0134718D02*
X0095171Y0134718D01*
X0094700Y0136317D02*
X0048891Y0136317D01*
X0048891Y0137915D02*
X0088038Y0137915D01*
X0088038Y0139514D02*
X0048800Y0139514D01*
X0048800Y0141112D02*
X0088038Y0141112D01*
X0088038Y0142711D02*
X0048800Y0142711D01*
X0048800Y0144309D02*
X0088038Y0144309D01*
X0088038Y0145908D02*
X0048800Y0145908D01*
X0048800Y0147506D02*
X0088038Y0147506D01*
X0088038Y0149105D02*
X0048800Y0149105D01*
X0048800Y0150703D02*
X0088038Y0150703D01*
X0088038Y0152302D02*
X0048800Y0152302D01*
X0048800Y0153900D02*
X0088038Y0153900D01*
X0091800Y0150383D02*
X0095717Y0150383D01*
X0096900Y0149200D01*
X0096900Y0136100D01*
X0097900Y0135100D01*
X0100954Y0135100D01*
X0098800Y0131521D02*
X0053396Y0131521D01*
X0053327Y0125127D02*
X0053559Y0125127D01*
X0044918Y0134718D02*
X0034000Y0134718D01*
X0034000Y0133120D02*
X0096769Y0133120D01*
X0097862Y0129923D02*
X0068064Y0129923D01*
X0074847Y0123529D02*
X0076709Y0123529D01*
X0078906Y0120540D02*
X0071131Y0120540D01*
X0078906Y0120540D02*
X0079300Y0120146D01*
X0078906Y0105540D02*
X0071131Y0105540D01*
X0075043Y0102748D02*
X0075735Y0102748D01*
X0075882Y0101149D02*
X0074745Y0101149D01*
X0078906Y0105540D02*
X0079300Y0105146D01*
X0073800Y0079900D02*
X0093900Y0079900D01*
X0096900Y0076900D01*
X0115400Y0076900D01*
X0118100Y0079600D01*
X0112098Y0067581D02*
X0145000Y0067581D01*
X0145000Y0069179D02*
X0087990Y0069179D01*
X0113696Y0065982D02*
X0145000Y0065982D01*
X0145000Y0064384D02*
X0122545Y0064384D01*
X0123800Y0062785D02*
X0145000Y0062785D01*
X0145000Y0061187D02*
X0125136Y0061187D01*
X0126029Y0059588D02*
X0145000Y0059588D01*
X0145000Y0057990D02*
X0126200Y0057990D01*
X0126200Y0056391D02*
X0145000Y0056391D01*
X0145000Y0054793D02*
X0126200Y0054793D01*
X0126200Y0053194D02*
X0145000Y0053194D01*
X0145000Y0051596D02*
X0126200Y0051596D01*
X0125609Y0049997D02*
X0145000Y0049997D01*
X0145000Y0086763D02*
X0134824Y0086763D01*
X0136422Y0088361D02*
X0145000Y0088361D01*
X0145000Y0089960D02*
X0138021Y0089960D01*
X0139619Y0091558D02*
X0145000Y0091558D01*
X0145000Y0093157D02*
X0141218Y0093157D01*
X0142123Y0094755D02*
X0145000Y0094755D01*
X0145000Y0096354D02*
X0142500Y0096354D01*
X0142500Y0097952D02*
X0145000Y0097952D01*
X0145000Y0099551D02*
X0142500Y0099551D01*
X0142500Y0101149D02*
X0145000Y0101149D01*
X0145000Y0102748D02*
X0142500Y0102748D01*
X0142500Y0104346D02*
X0145000Y0104346D01*
X0145000Y0105945D02*
X0142500Y0105945D01*
X0142500Y0107543D02*
X0145000Y0107543D01*
X0145000Y0109142D02*
X0142500Y0109142D01*
X0142500Y0110740D02*
X0145000Y0110740D01*
X0145000Y0112339D02*
X0142500Y0112339D01*
X0142500Y0113937D02*
X0145000Y0113937D01*
X0145000Y0115536D02*
X0142500Y0115536D01*
X0142500Y0117134D02*
X0145000Y0117134D01*
X0145000Y0118733D02*
X0142500Y0118733D01*
X0142500Y0120332D02*
X0145000Y0120332D01*
X0145000Y0121930D02*
X0142500Y0121930D01*
X0142500Y0123529D02*
X0145000Y0123529D01*
X0145000Y0125127D02*
X0142500Y0125127D01*
X0142500Y0126726D02*
X0145000Y0126726D01*
X0145000Y0128324D02*
X0142500Y0128324D01*
X0142500Y0129923D02*
X0145000Y0129923D01*
X0145000Y0131521D02*
X0142500Y0131521D01*
X0142500Y0133120D02*
X0145000Y0133120D01*
X0145000Y0134718D02*
X0142500Y0134718D01*
X0142500Y0136317D02*
X0145000Y0136317D01*
X0145000Y0137915D02*
X0142500Y0137915D01*
X0142500Y0139514D02*
X0145000Y0139514D01*
X0145000Y0141112D02*
X0142500Y0141112D01*
X0142500Y0142711D02*
X0145000Y0142711D01*
X0145000Y0144309D02*
X0142500Y0144309D01*
X0142500Y0145908D02*
X0145000Y0145908D01*
X0145000Y0147506D02*
X0142500Y0147506D01*
X0142500Y0149105D02*
X0145000Y0149105D01*
X0145000Y0150703D02*
X0142500Y0150703D01*
X0142500Y0152302D02*
X0145000Y0152302D01*
X0145000Y0153900D02*
X0142500Y0153900D01*
X0142500Y0155499D02*
X0145000Y0155499D01*
X0145000Y0157097D02*
X0142500Y0157097D01*
X0142500Y0158696D02*
X0145000Y0158696D01*
X0145000Y0160294D02*
X0142500Y0160294D01*
X0142500Y0161893D02*
X0145000Y0161893D01*
X0145000Y0163491D02*
X0142500Y0163491D01*
X0142500Y0165090D02*
X0145000Y0165090D01*
X0145000Y0166688D02*
X0142500Y0166688D01*
X0142500Y0168287D02*
X0145000Y0168287D01*
X0145000Y0169885D02*
X0142500Y0169885D01*
X0142500Y0171484D02*
X0145000Y0171484D01*
X0145000Y0173082D02*
X0142500Y0173082D01*
X0142500Y0174681D02*
X0145000Y0174681D01*
X0145000Y0176279D02*
X0142500Y0176279D01*
X0142500Y0177878D02*
X0145000Y0177878D01*
X0145000Y0179476D02*
X0142500Y0179476D01*
X0142500Y0181075D02*
X0145000Y0181075D01*
X0145000Y0182673D02*
X0142500Y0182673D01*
X0142500Y0184272D02*
X0145000Y0184272D01*
X0145000Y0185870D02*
X0142500Y0185870D01*
X0142500Y0187469D02*
X0145000Y0187469D01*
X0145000Y0189068D02*
X0142500Y0189068D01*
X0142500Y0190666D02*
X0145000Y0190666D01*
X0145000Y0192265D02*
X0142500Y0192265D01*
X0142500Y0193863D02*
X0145000Y0193863D01*
X0145000Y0195462D02*
X0142500Y0195462D01*
X0142500Y0197060D02*
X0145000Y0197060D01*
X0145000Y0198659D02*
X0142500Y0198659D01*
X0142500Y0200257D02*
X0145000Y0200257D01*
X0145000Y0201856D02*
X0142500Y0201856D01*
X0142500Y0203454D02*
X0145000Y0203454D01*
X0145000Y0205053D02*
X0142327Y0205053D01*
X0141664Y0206651D02*
X0145000Y0206651D01*
X0145000Y0208250D02*
X0140111Y0208250D01*
X0138513Y0209848D02*
X0145000Y0209848D01*
X0145000Y0211447D02*
X0136914Y0211447D01*
X0135316Y0213045D02*
X0145000Y0213045D01*
X0145000Y0214644D02*
X0133717Y0214644D01*
X0132119Y0216242D02*
X0145000Y0216242D01*
X0145000Y0217841D02*
X0130520Y0217841D01*
X0131232Y0217129D02*
X0131232Y0217129D01*
X0127922Y0219439D02*
X0145000Y0219439D01*
X0145000Y0221038D02*
X0028600Y0221038D01*
X0028600Y0222636D02*
X0145000Y0222636D01*
X0145000Y0224235D02*
X0028600Y0224235D01*
X0028600Y0225833D02*
X0145000Y0225833D01*
X0145000Y0227432D02*
X0137777Y0227432D01*
X0137877Y0227605D02*
X0138000Y0228063D01*
X0138000Y0235600D01*
X0133900Y0235600D01*
X0133900Y0226500D01*
X0136437Y0226500D01*
X0136895Y0226623D01*
X0137305Y0226860D01*
X0137640Y0227195D01*
X0137877Y0227605D01*
X0138000Y0229030D02*
X0145000Y0229030D01*
X0145000Y0230629D02*
X0138000Y0230629D01*
X0138000Y0232227D02*
X0145000Y0232227D01*
X0145000Y0233826D02*
X0138000Y0233826D01*
X0138000Y0235424D02*
X0145000Y0235424D01*
X0145000Y0237023D02*
X0138000Y0237023D01*
X0138000Y0238621D02*
X0145000Y0238621D01*
X0145000Y0240220D02*
X0138000Y0240220D01*
X0138000Y0241818D02*
X0145000Y0241818D01*
X0145000Y0243417D02*
X0138000Y0243417D01*
X0133900Y0235424D02*
X0132500Y0235424D01*
X0132500Y0235600D02*
X0132500Y0226500D01*
X0129963Y0226500D01*
X0129505Y0226623D01*
X0129095Y0226860D01*
X0128760Y0227195D01*
X0128523Y0227605D01*
X0128400Y0228063D01*
X0128400Y0235600D01*
X0132500Y0235600D01*
X0132500Y0233826D02*
X0133900Y0233826D01*
X0133900Y0232227D02*
X0132500Y0232227D01*
X0132500Y0230629D02*
X0133900Y0230629D01*
X0133900Y0229030D02*
X0132500Y0229030D01*
X0132500Y0227432D02*
X0133900Y0227432D01*
X0128623Y0227432D02*
X0117777Y0227432D01*
X0117877Y0227605D02*
X0118000Y0228063D01*
X0118000Y0235600D01*
X0113900Y0235600D01*
X0113900Y0226500D01*
X0116437Y0226500D01*
X0116895Y0226623D01*
X0117305Y0226860D01*
X0117640Y0227195D01*
X0117877Y0227605D01*
X0118000Y0229030D02*
X0128400Y0229030D01*
X0128400Y0230629D02*
X0118000Y0230629D01*
X0118000Y0232227D02*
X0128400Y0232227D01*
X0128400Y0233826D02*
X0118000Y0233826D01*
X0118000Y0235424D02*
X0128400Y0235424D01*
X0128400Y0237023D02*
X0118000Y0237023D01*
X0118000Y0238621D02*
X0128400Y0238621D01*
X0128400Y0240220D02*
X0118000Y0240220D01*
X0118000Y0241818D02*
X0128400Y0241818D01*
X0128400Y0243417D02*
X0118000Y0243417D01*
X0113900Y0235424D02*
X0112500Y0235424D01*
X0112500Y0235600D02*
X0112500Y0226500D01*
X0109963Y0226500D01*
X0109505Y0226623D01*
X0109095Y0226860D01*
X0108760Y0227195D01*
X0108523Y0227605D01*
X0108400Y0228063D01*
X0108400Y0235600D01*
X0112500Y0235600D01*
X0112500Y0233826D02*
X0113900Y0233826D01*
X0113900Y0232227D02*
X0112500Y0232227D01*
X0112500Y0230629D02*
X0113900Y0230629D01*
X0113900Y0229030D02*
X0112500Y0229030D01*
X0112500Y0227432D02*
X0113900Y0227432D01*
X0108623Y0227432D02*
X0080877Y0227432D01*
X0080977Y0227605D02*
X0081100Y0228063D01*
X0081100Y0235600D01*
X0077000Y0235600D01*
X0077000Y0226500D01*
X0079537Y0226500D01*
X0079995Y0226623D01*
X0080405Y0226860D01*
X0080740Y0227195D01*
X0080977Y0227605D01*
X0081100Y0229030D02*
X0108400Y0229030D01*
X0108400Y0230629D02*
X0081100Y0230629D01*
X0081100Y0232227D02*
X0108400Y0232227D01*
X0108400Y0233826D02*
X0081100Y0233826D01*
X0081100Y0235424D02*
X0108400Y0235424D01*
X0108400Y0237023D02*
X0081100Y0237023D01*
X0081100Y0238621D02*
X0108400Y0238621D01*
X0108400Y0240220D02*
X0081100Y0240220D01*
X0081100Y0241818D02*
X0108400Y0241818D01*
X0108400Y0243417D02*
X0081100Y0243417D01*
X0077000Y0235424D02*
X0075600Y0235424D01*
X0075600Y0235600D02*
X0075600Y0226500D01*
X0073063Y0226500D01*
X0072605Y0226623D01*
X0072195Y0226860D01*
X0071860Y0227195D01*
X0071623Y0227605D01*
X0071500Y0228063D01*
X0071500Y0235600D01*
X0075600Y0235600D01*
X0075600Y0233826D02*
X0077000Y0233826D01*
X0077000Y0232227D02*
X0075600Y0232227D01*
X0075600Y0230629D02*
X0077000Y0230629D01*
X0077000Y0229030D02*
X0075600Y0229030D01*
X0075600Y0227432D02*
X0077000Y0227432D01*
X0071723Y0227432D02*
X0060877Y0227432D01*
X0060977Y0227605D02*
X0061100Y0228063D01*
X0061100Y0235600D01*
X0057000Y0235600D01*
X0057000Y0226500D01*
X0059537Y0226500D01*
X0059995Y0226623D01*
X0060405Y0226860D01*
X0060740Y0227195D01*
X0060977Y0227605D01*
X0061100Y0229030D02*
X0071500Y0229030D01*
X0071500Y0230629D02*
X0061100Y0230629D01*
X0061100Y0232227D02*
X0071500Y0232227D01*
X0071500Y0233826D02*
X0061100Y0233826D01*
X0061100Y0235424D02*
X0071500Y0235424D01*
X0071500Y0237023D02*
X0061100Y0237023D01*
X0061100Y0238621D02*
X0071500Y0238621D01*
X0071500Y0240220D02*
X0061100Y0240220D01*
X0061100Y0241818D02*
X0071500Y0241818D01*
X0071500Y0243417D02*
X0061100Y0243417D01*
X0057000Y0235424D02*
X0055600Y0235424D01*
X0055600Y0235600D02*
X0055600Y0226500D01*
X0053063Y0226500D01*
X0052605Y0226623D01*
X0052195Y0226860D01*
X0051860Y0227195D01*
X0051623Y0227605D01*
X0051500Y0228063D01*
X0051500Y0235600D01*
X0055600Y0235600D01*
X0055600Y0233826D02*
X0057000Y0233826D01*
X0057000Y0232227D02*
X0055600Y0232227D01*
X0055600Y0230629D02*
X0057000Y0230629D01*
X0057000Y0229030D02*
X0055600Y0229030D01*
X0055600Y0227432D02*
X0057000Y0227432D01*
X0051723Y0227432D02*
X0028600Y0227432D01*
X0028600Y0229030D02*
X0051500Y0229030D01*
X0051500Y0230629D02*
X0028600Y0230629D01*
X0028600Y0232227D02*
X0051500Y0232227D01*
X0051500Y0233826D02*
X0028600Y0233826D01*
X0028600Y0235424D02*
X0051500Y0235424D01*
X0051500Y0237023D02*
X0028600Y0237023D01*
X0028600Y0238621D02*
X0051500Y0238621D01*
X0051500Y0240220D02*
X0028600Y0240220D01*
X0028600Y0241818D02*
X0051500Y0241818D01*
X0051500Y0243417D02*
X0028600Y0243417D01*
X0028600Y0219439D02*
X0101078Y0219439D01*
X0098480Y0217841D02*
X0028600Y0217841D01*
X0028600Y0216242D02*
X0097401Y0216242D01*
X0096900Y0214644D02*
X0028600Y0214644D01*
X0028600Y0213045D02*
X0096900Y0213045D01*
X0097447Y0211447D02*
X0028600Y0211447D01*
X0028600Y0209848D02*
X0098591Y0209848D01*
X0101346Y0208250D02*
X0028600Y0208250D01*
X0028600Y0206651D02*
X0125588Y0206651D01*
X0127186Y0205053D02*
X0028600Y0205053D01*
X0028600Y0187469D02*
X0041969Y0187469D01*
X0041969Y0185870D02*
X0028600Y0185870D01*
X0028600Y0184272D02*
X0041969Y0184272D01*
X0041969Y0182673D02*
X0028600Y0182673D01*
X0028600Y0181075D02*
X0042637Y0181075D01*
X0041125Y0166688D02*
X0028600Y0166688D01*
X0028600Y0165090D02*
X0039609Y0165090D01*
X0039609Y0163491D02*
X0028600Y0163491D01*
X0028600Y0161893D02*
X0040734Y0161893D01*
X0042429Y0160294D02*
X0028600Y0160294D01*
X0028600Y0158696D02*
X0043600Y0158696D01*
X0043600Y0157097D02*
X0028600Y0157097D01*
X0028600Y0155499D02*
X0043600Y0155499D01*
X0043600Y0153900D02*
X0028600Y0153900D01*
X0028600Y0152302D02*
X0043600Y0152302D01*
X0043600Y0150703D02*
X0028600Y0150703D01*
X0039223Y0141112D02*
X0043600Y0141112D01*
X0043600Y0139514D02*
X0037625Y0139514D01*
X0036026Y0137915D02*
X0043600Y0137915D01*
X0043709Y0136317D02*
X0034428Y0136317D01*
X0034000Y0131521D02*
X0042015Y0131521D01*
X0041969Y0129923D02*
X0034000Y0129923D01*
X0040822Y0142711D02*
X0043600Y0142711D01*
X0043600Y0144309D02*
X0042420Y0144309D01*
X0103200Y0131521D02*
X0120193Y0131521D01*
X0113799Y0125127D02*
X0111712Y0125127D01*
X0112200Y0123529D02*
X0110909Y0123529D01*
X0107931Y0128324D02*
X0107562Y0128324D01*
X0107562Y0129923D02*
X0107931Y0129923D01*
X0124346Y0173082D02*
X0124800Y0173082D01*
X0124800Y0174681D02*
X0122748Y0174681D01*
X0124800Y0176279D02*
X0118584Y0176279D01*
D21*
X0117200Y0174000D03*
X0118700Y0171200D03*
X0113800Y0161900D03*
X0115000Y0158300D03*
X0114100Y0151900D03*
X0115000Y0142400D03*
X0127000Y0132700D03*
X0120900Y0120500D03*
X0114200Y0127200D03*
X0110300Y0111800D03*
X0106300Y0110900D03*
X0115200Y0111700D03*
X0115200Y0108200D03*
X0125200Y0108200D03*
X0125200Y0111700D03*
X0136400Y0110900D03*
X0136400Y0119500D03*
X0136800Y0101400D03*
X0135700Y0095700D03*
X0118100Y0079600D03*
X0114300Y0079600D03*
X0111700Y0073700D03*
X0106800Y0086800D03*
X0114300Y0093800D03*
X0099600Y0100800D03*
X0097800Y0104700D03*
X0096800Y0110800D03*
X0089700Y0098900D03*
X0084800Y0110800D03*
X0079300Y0123800D03*
X0067200Y0135200D03*
X0063450Y0135200D03*
X0063450Y0138950D03*
X0067200Y0138950D03*
X0055550Y0126800D03*
X0062800Y0123800D03*
X0059700Y0109450D03*
X0054300Y0098454D03*
X0054000Y0093800D03*
X0044550Y0094550D03*
X0038500Y0096600D03*
X0038300Y0092300D03*
X0045250Y0086300D03*
X0057000Y0082000D03*
X0057900Y0072000D03*
X0066500Y0062550D03*
X0073800Y0079900D03*
X0080500Y0087000D03*
X0097000Y0080600D03*
X0089300Y0063300D03*
X0085050Y0063300D03*
X0039000Y0057550D03*
X0039000Y0052550D03*
X0037300Y0102550D03*
X0047200Y0115200D03*
X0042200Y0135200D03*
X0046300Y0137000D03*
X0042500Y0147800D03*
X0042200Y0164100D03*
X0075600Y0178850D03*
X0079350Y0178850D03*
X0083100Y0178850D03*
X0085600Y0170100D03*
X0056050Y0200050D03*
X0102600Y0213900D03*
X0126800Y0187000D03*
X0129400Y0182600D03*
X0128300Y0151300D03*
X0095300Y0124800D03*
D22*
X0080300Y0124800D01*
X0079300Y0123800D01*
X0079300Y0120146D01*
X0079300Y0113454D02*
X0092954Y0113454D01*
X0100800Y0121300D01*
X0112800Y0121300D01*
X0124300Y0132800D01*
X0124300Y0147300D01*
X0128300Y0151300D01*
X0128700Y0156100D02*
X0128700Y0181900D01*
X0129400Y0182600D01*
X0126800Y0187000D02*
X0126800Y0156800D01*
X0115000Y0145000D01*
X0114100Y0145000D01*
X0112300Y0143200D01*
X0107646Y0143200D01*
X0111300Y0139100D02*
X0102300Y0139100D01*
X0101000Y0137800D01*
X0101000Y0135146D01*
X0100954Y0135100D01*
X0107646Y0135100D02*
X0111100Y0135100D01*
X0117500Y0141500D01*
X0117500Y0144900D01*
X0128700Y0156100D01*
X0120400Y0156800D02*
X0118800Y0155200D01*
X0102200Y0155200D01*
X0100900Y0153900D01*
X0107546Y0159200D02*
X0111100Y0159200D01*
X0113800Y0161900D01*
X0115000Y0158300D02*
X0115034Y0158266D01*
X0117841Y0158266D01*
X0120400Y0158266D02*
X0120400Y0156800D01*
X0117841Y0166534D02*
X0117841Y0168459D01*
X0114500Y0171800D01*
X0102100Y0171800D01*
X0100800Y0170500D01*
X0100800Y0167354D01*
X0100854Y0167300D01*
X0117200Y0174000D02*
X0120600Y0174000D01*
X0122959Y0171641D01*
X0122959Y0166534D01*
X0115000Y0142800D02*
X0111300Y0139100D01*
X0115000Y0142400D02*
X0115000Y0142800D01*
X0127000Y0132700D02*
X0120900Y0126600D01*
X0120900Y0120500D01*
X0110300Y0111800D02*
X0109050Y0113050D01*
X0108800Y0113300D01*
X0095800Y0113300D01*
X0088300Y0105800D01*
X0088300Y0101300D01*
X0085454Y0098454D01*
X0079300Y0098454D01*
X0078906Y0105540D02*
X0083040Y0105540D01*
X0084800Y0107300D01*
X0084800Y0110800D01*
X0089700Y0098900D02*
X0097700Y0098900D01*
X0099600Y0100800D01*
X0097800Y0104700D02*
X0097800Y0109800D01*
X0096800Y0110800D01*
X0086550Y0065800D02*
X0085050Y0064300D01*
X0085050Y0063300D01*
X0086550Y0065800D02*
X0111050Y0065800D01*
X0113050Y0063800D01*
X0120300Y0063800D01*
X0121800Y0062300D01*
X0121800Y0055300D01*
X0111800Y0055300D02*
X0111800Y0062300D01*
X0110300Y0063800D01*
X0089800Y0063800D01*
X0089300Y0063300D01*
X0051800Y0076800D02*
X0048300Y0077800D01*
X0048300Y0102300D01*
X0051146Y0105146D01*
X0054300Y0105146D01*
D23*
X0054300Y0113454D01*
X0046300Y0137000D02*
X0046200Y0137100D01*
X0046200Y0160200D01*
X0042300Y0164100D01*
X0042200Y0164100D01*
X0106300Y0110900D02*
X0106300Y0101800D01*
X0114300Y0093800D01*
X0114300Y0079600D02*
X0098000Y0079600D01*
X0097000Y0080600D01*
X0080500Y0087000D02*
X0080300Y0086800D01*
X0061800Y0086800D01*
D24*
X0106800Y0086800D01*
X0126800Y0086800D01*
X0135700Y0095700D01*
X0136800Y0096800D01*
X0136800Y0101400D01*
X0136800Y0203500D01*
X0126400Y0213900D01*
X0102600Y0213900D01*
X0061800Y0086800D02*
X0057000Y0082000D01*
X0051800Y0076800D01*
X0051800Y0055300D01*
D25*
X0042300Y0092300D02*
X0038300Y0092300D01*
X0042300Y0092300D02*
X0044550Y0094550D01*
X0046050Y0102550D02*
X0037300Y0102550D01*
X0046050Y0102550D02*
X0050050Y0106550D01*
X0050050Y0118550D01*
X0051550Y0120050D01*
X0054204Y0120050D01*
X0054300Y0120146D01*
X0055550Y0126800D02*
X0059550Y0126800D01*
X0062800Y0123800D02*
X0063800Y0123800D01*
X0066800Y0126800D01*
X0059800Y0196050D02*
X0056050Y0199800D01*
X0056050Y0200050D01*
M02*
