G75*
%MOIN*%
%OFA0B0*%
%FSLAX25Y25*%
%IPPOS*%
%LPD*%
%AMOC8*
5,1,8,0,0,1.08239X$1,22.5*
%
%ADD10C,0.00000*%
%ADD11C,0.00200*%
%ADD12C,0.00500*%
%ADD13C,0.00400*%
%ADD14R,0.00787X0.00787*%
%ADD15C,0.00787*%
%ADD16C,0.00600*%
D10*
X0026800Y0048050D02*
X0026800Y0245501D01*
X0146800Y0245501D01*
X0146800Y0048050D01*
X0026800Y0048050D01*
D11*
X0048585Y0065134D02*
X0049319Y0064400D01*
X0050053Y0065134D01*
X0050053Y0066602D01*
X0050795Y0066235D02*
X0050795Y0064767D01*
X0051162Y0064400D01*
X0051896Y0064400D01*
X0052263Y0064767D01*
X0053005Y0064767D02*
X0053372Y0064400D01*
X0054106Y0064400D01*
X0054473Y0064767D01*
X0054473Y0066235D02*
X0054106Y0066602D01*
X0053372Y0066602D01*
X0053005Y0066235D01*
X0053005Y0064767D01*
X0052263Y0066235D02*
X0051896Y0066602D01*
X0051162Y0066602D01*
X0050795Y0066235D01*
X0048585Y0066602D02*
X0048585Y0065134D01*
X0058585Y0064767D02*
X0058952Y0064400D01*
X0059686Y0064400D01*
X0060053Y0064767D01*
X0060053Y0065501D01*
X0059319Y0065501D01*
X0058585Y0066235D02*
X0058952Y0066602D01*
X0059686Y0066602D01*
X0060053Y0066235D01*
X0060795Y0066602D02*
X0062263Y0064400D01*
X0062263Y0066602D01*
X0063005Y0066602D02*
X0064106Y0066602D01*
X0064473Y0066235D01*
X0064473Y0064767D01*
X0064106Y0064400D01*
X0063005Y0064400D01*
X0063005Y0066602D01*
X0060795Y0066602D02*
X0060795Y0064400D01*
X0058585Y0064767D02*
X0058585Y0066235D01*
X0069690Y0066602D02*
X0071158Y0066602D01*
X0070424Y0066602D02*
X0070424Y0064400D01*
X0071900Y0064400D02*
X0073368Y0066602D01*
X0071900Y0066602D02*
X0073368Y0064400D01*
X0079690Y0064400D02*
X0079690Y0066602D01*
X0080791Y0066602D01*
X0081158Y0066235D01*
X0081158Y0065501D01*
X0080791Y0065134D01*
X0079690Y0065134D01*
X0080424Y0065134D02*
X0081158Y0064400D01*
X0081900Y0064400D02*
X0083368Y0066602D01*
X0081900Y0066602D02*
X0083368Y0064400D01*
X0088585Y0064400D02*
X0088585Y0066602D01*
X0089686Y0066602D01*
X0090053Y0066235D01*
X0090053Y0065501D01*
X0089686Y0065134D01*
X0088585Y0065134D01*
X0090795Y0064400D02*
X0091529Y0065134D01*
X0092263Y0064400D01*
X0092263Y0066602D01*
X0093005Y0066602D02*
X0094106Y0066602D01*
X0094473Y0066235D01*
X0094473Y0065501D01*
X0094106Y0065134D01*
X0093005Y0065134D01*
X0093739Y0065134D02*
X0094473Y0064400D01*
X0093005Y0064400D02*
X0093005Y0066602D01*
X0090795Y0066602D02*
X0090795Y0064400D01*
X0098585Y0064400D02*
X0098585Y0066602D01*
X0099686Y0066602D01*
X0100053Y0066235D01*
X0100053Y0065501D01*
X0099686Y0065134D01*
X0098585Y0065134D01*
X0099319Y0065134D02*
X0100053Y0064400D01*
X0100795Y0064400D02*
X0102263Y0064400D01*
X0103005Y0064767D02*
X0103372Y0064400D01*
X0104106Y0064400D01*
X0104473Y0064767D01*
X0104473Y0065134D01*
X0104106Y0065501D01*
X0103372Y0065501D01*
X0103005Y0065868D01*
X0103005Y0066235D01*
X0103372Y0066602D01*
X0104106Y0066602D01*
X0104473Y0066235D01*
X0102263Y0066602D02*
X0100795Y0066602D01*
X0100795Y0064400D01*
X0100795Y0065501D02*
X0101529Y0065501D01*
X0108585Y0066602D02*
X0109686Y0066602D01*
X0110053Y0066235D01*
X0110053Y0064767D01*
X0109686Y0064400D01*
X0108585Y0064400D01*
X0108585Y0066602D01*
X0110795Y0066602D02*
X0112263Y0066602D01*
X0111529Y0066602D02*
X0111529Y0064400D01*
X0113005Y0064400D02*
X0113005Y0066602D01*
X0114106Y0066602D01*
X0114473Y0066235D01*
X0114473Y0065501D01*
X0114106Y0065134D01*
X0113005Y0065134D01*
X0113739Y0065134D02*
X0114473Y0064400D01*
X0120058Y0064400D02*
X0120058Y0066602D01*
X0121159Y0066602D01*
X0121526Y0066235D01*
X0121526Y0065501D01*
X0121159Y0065134D01*
X0120058Y0065134D01*
X0120792Y0065134D02*
X0121526Y0064400D01*
X0122268Y0064400D02*
X0123002Y0064400D01*
X0122635Y0064400D02*
X0122635Y0066602D01*
X0122268Y0066602D02*
X0123002Y0066602D01*
X0111200Y0083700D02*
X0108998Y0083700D01*
X0108998Y0084801D01*
X0109365Y0085168D01*
X0110099Y0085168D01*
X0110466Y0084801D01*
X0110466Y0083700D01*
X0110466Y0084434D02*
X0111200Y0085168D01*
X0111200Y0085910D02*
X0111200Y0087378D01*
X0111200Y0086644D02*
X0108998Y0086644D01*
X0109732Y0085910D01*
X0107600Y0086177D02*
X0107233Y0085810D01*
X0107600Y0086177D02*
X0107600Y0086911D01*
X0107233Y0087278D01*
X0106866Y0087278D01*
X0106499Y0086911D01*
X0106499Y0086544D01*
X0106499Y0086911D02*
X0106132Y0087278D01*
X0105765Y0087278D01*
X0105398Y0086911D01*
X0105398Y0086177D01*
X0105765Y0085810D01*
X0105765Y0085068D02*
X0107233Y0085068D01*
X0107600Y0084701D01*
X0107600Y0083967D01*
X0107233Y0083600D01*
X0105765Y0083600D01*
X0105398Y0083967D01*
X0105398Y0084701D01*
X0105765Y0085068D01*
X0106866Y0084334D02*
X0107600Y0085068D01*
X0109365Y0088120D02*
X0108998Y0088487D01*
X0108998Y0089221D01*
X0109365Y0089588D01*
X0110833Y0088120D01*
X0111200Y0088487D01*
X0111200Y0089221D01*
X0110833Y0089588D01*
X0109365Y0089588D01*
X0109365Y0088120D02*
X0110833Y0088120D01*
X0103800Y0086911D02*
X0103433Y0087278D01*
X0101965Y0087278D01*
X0101598Y0086911D01*
X0101598Y0086177D01*
X0101965Y0085810D01*
X0102332Y0085810D01*
X0102699Y0086177D01*
X0102699Y0087278D01*
X0103800Y0086911D02*
X0103800Y0086177D01*
X0103433Y0085810D01*
X0103800Y0085068D02*
X0103066Y0084334D01*
X0103066Y0084701D02*
X0103066Y0083600D01*
X0103800Y0083600D02*
X0101598Y0083600D01*
X0101598Y0084701D01*
X0101965Y0085068D01*
X0102699Y0085068D01*
X0103066Y0084701D01*
X0112700Y0099400D02*
X0114168Y0099400D01*
X0114910Y0099400D02*
X0114910Y0101602D01*
X0116378Y0101602D01*
X0117120Y0101602D02*
X0118221Y0101602D01*
X0118588Y0101235D01*
X0118588Y0099767D01*
X0118221Y0099400D01*
X0117120Y0099400D01*
X0117120Y0101602D01*
X0117020Y0103300D02*
X0118121Y0103300D01*
X0118488Y0103667D01*
X0118488Y0105135D01*
X0118121Y0105502D01*
X0117020Y0105502D01*
X0117020Y0103300D01*
X0116278Y0103300D02*
X0114810Y0103300D01*
X0114810Y0105502D01*
X0116278Y0105502D01*
X0115544Y0104401D02*
X0114810Y0104401D01*
X0114068Y0103300D02*
X0112600Y0103300D01*
X0112600Y0105502D01*
X0112700Y0101602D02*
X0112700Y0099400D01*
X0114910Y0099400D02*
X0116378Y0099400D01*
X0115644Y0100501D02*
X0114910Y0100501D01*
X0119330Y0100501D02*
X0120431Y0100501D01*
X0120798Y0100134D01*
X0120798Y0099767D01*
X0120431Y0099400D01*
X0119697Y0099400D01*
X0119330Y0099767D01*
X0119330Y0100501D01*
X0120064Y0101235D01*
X0120798Y0101602D01*
X0122300Y0101702D02*
X0123401Y0101702D01*
X0123768Y0101335D01*
X0123768Y0100601D01*
X0123401Y0100234D01*
X0122300Y0100234D01*
X0123034Y0100234D02*
X0123768Y0099500D01*
X0124510Y0100601D02*
X0125978Y0100601D01*
X0126720Y0099867D02*
X0126720Y0099500D01*
X0126720Y0099867D02*
X0128188Y0101335D01*
X0128188Y0101702D01*
X0126720Y0101702D01*
X0125611Y0101702D02*
X0124510Y0100601D01*
X0125611Y0099500D02*
X0125611Y0101702D01*
X0125611Y0103400D02*
X0125611Y0105602D01*
X0124510Y0104501D01*
X0125978Y0104501D01*
X0126720Y0104868D02*
X0126720Y0105235D01*
X0127087Y0105602D01*
X0127821Y0105602D01*
X0128188Y0105235D01*
X0128188Y0103767D01*
X0127821Y0103400D01*
X0127087Y0103400D01*
X0126720Y0103767D01*
X0127087Y0104501D02*
X0128188Y0104501D01*
X0127087Y0104501D02*
X0126720Y0104868D01*
X0123768Y0105235D02*
X0123768Y0104501D01*
X0123401Y0104134D01*
X0122300Y0104134D01*
X0123034Y0104134D02*
X0123768Y0103400D01*
X0122300Y0103400D02*
X0122300Y0105602D01*
X0123401Y0105602D01*
X0123768Y0105235D01*
X0120698Y0105502D02*
X0119230Y0105502D01*
X0119230Y0104401D01*
X0119964Y0104768D01*
X0120331Y0104768D01*
X0120698Y0104401D01*
X0120698Y0103667D01*
X0120331Y0103300D01*
X0119597Y0103300D01*
X0119230Y0103667D01*
X0122300Y0101702D02*
X0122300Y0099500D01*
X0122400Y0098002D02*
X0123501Y0098002D01*
X0123868Y0097635D01*
X0123868Y0096901D01*
X0123501Y0096534D01*
X0122400Y0096534D01*
X0123134Y0096534D02*
X0123868Y0095800D01*
X0124610Y0096901D02*
X0126078Y0096901D01*
X0126820Y0097268D02*
X0126820Y0097635D01*
X0127187Y0098002D01*
X0127921Y0098002D01*
X0128288Y0097635D01*
X0128288Y0097268D01*
X0127921Y0096901D01*
X0127187Y0096901D01*
X0126820Y0097268D01*
X0127187Y0096901D02*
X0126820Y0096534D01*
X0126820Y0096167D01*
X0127187Y0095800D01*
X0127921Y0095800D01*
X0128288Y0096167D01*
X0128288Y0096534D01*
X0127921Y0096901D01*
X0125711Y0098002D02*
X0124610Y0096901D01*
X0125711Y0095800D02*
X0125711Y0098002D01*
X0122400Y0098002D02*
X0122400Y0095800D01*
X0130534Y0099400D02*
X0130534Y0101602D01*
X0129800Y0101602D02*
X0131268Y0101602D01*
X0132010Y0100868D02*
X0132744Y0101602D01*
X0132744Y0099400D01*
X0132010Y0099400D02*
X0133478Y0099400D01*
X0141919Y0095272D02*
X0141919Y0094538D01*
X0142286Y0094171D01*
X0143020Y0094905D02*
X0143020Y0095272D01*
X0143387Y0095639D01*
X0143754Y0095639D01*
X0144121Y0095272D01*
X0144121Y0094538D01*
X0143754Y0094171D01*
X0144121Y0093429D02*
X0144121Y0091961D01*
X0144121Y0092695D02*
X0141919Y0092695D01*
X0142653Y0091961D01*
X0142286Y0091219D02*
X0141919Y0090853D01*
X0141919Y0090119D01*
X0142286Y0089752D01*
X0143754Y0089752D01*
X0144121Y0090119D01*
X0144121Y0090853D01*
X0143754Y0091219D01*
X0143020Y0095272D02*
X0142653Y0095639D01*
X0142286Y0095639D01*
X0141919Y0095272D01*
X0138711Y0130700D02*
X0137977Y0130700D01*
X0137610Y0131067D01*
X0137610Y0131434D01*
X0137977Y0131801D01*
X0138711Y0131801D01*
X0139078Y0131434D01*
X0139078Y0131067D01*
X0138711Y0130700D01*
X0138711Y0131801D02*
X0139078Y0132168D01*
X0139078Y0132535D01*
X0138711Y0132902D01*
X0137977Y0132902D01*
X0137610Y0132535D01*
X0137610Y0132168D01*
X0137977Y0131801D01*
X0136868Y0132535D02*
X0136501Y0132902D01*
X0135767Y0132902D01*
X0135400Y0132535D01*
X0135400Y0131067D01*
X0135767Y0130700D01*
X0136501Y0130700D01*
X0136868Y0131067D01*
X0136401Y0134500D02*
X0135667Y0134500D01*
X0135300Y0134867D01*
X0135300Y0136335D01*
X0135667Y0136702D01*
X0136401Y0136702D01*
X0136768Y0136335D01*
X0137510Y0136335D02*
X0137510Y0135968D01*
X0137877Y0135601D01*
X0138978Y0135601D01*
X0138978Y0136335D02*
X0138611Y0136702D01*
X0137877Y0136702D01*
X0137510Y0136335D01*
X0138978Y0136335D02*
X0138978Y0134867D01*
X0138611Y0134500D01*
X0137877Y0134500D01*
X0137510Y0134867D01*
X0136768Y0134867D02*
X0136401Y0134500D01*
X0136401Y0138400D02*
X0135667Y0138400D01*
X0135300Y0138767D01*
X0135300Y0140235D01*
X0135667Y0140602D01*
X0136401Y0140602D01*
X0136768Y0140235D01*
X0137510Y0139868D02*
X0138244Y0140602D01*
X0138244Y0138400D01*
X0137510Y0138400D02*
X0138978Y0138400D01*
X0139720Y0138767D02*
X0141188Y0140235D01*
X0141188Y0138767D01*
X0140821Y0138400D01*
X0140087Y0138400D01*
X0139720Y0138767D01*
X0139720Y0140235D01*
X0140087Y0140602D01*
X0140821Y0140602D01*
X0141188Y0140235D01*
X0136768Y0138767D02*
X0136401Y0138400D01*
X0087690Y0217000D02*
X0087690Y0217367D01*
X0089158Y0218835D01*
X0089158Y0219202D01*
X0087690Y0219202D01*
X0086948Y0218835D02*
X0086581Y0219202D01*
X0085847Y0219202D01*
X0085480Y0218835D01*
X0085480Y0217367D01*
X0085847Y0217000D01*
X0086581Y0217000D01*
X0086948Y0217367D01*
X0086581Y0221000D02*
X0085847Y0221000D01*
X0085480Y0221367D01*
X0085480Y0222835D01*
X0085847Y0223202D01*
X0086581Y0223202D01*
X0086948Y0222835D01*
X0087690Y0222101D02*
X0088791Y0222101D01*
X0089158Y0221734D01*
X0089158Y0221367D01*
X0088791Y0221000D01*
X0088057Y0221000D01*
X0087690Y0221367D01*
X0087690Y0222101D01*
X0088424Y0222835D01*
X0089158Y0223202D01*
X0088691Y0225000D02*
X0087957Y0225000D01*
X0087590Y0225367D01*
X0087590Y0226101D02*
X0088324Y0226468D01*
X0088691Y0226468D01*
X0089058Y0226101D01*
X0089058Y0225367D01*
X0088691Y0225000D01*
X0087590Y0226101D02*
X0087590Y0227202D01*
X0089058Y0227202D01*
X0086848Y0226835D02*
X0086481Y0227202D01*
X0085747Y0227202D01*
X0085380Y0226835D01*
X0085380Y0225367D01*
X0085747Y0225000D01*
X0086481Y0225000D01*
X0086848Y0225367D01*
X0086948Y0221367D02*
X0086581Y0221000D01*
X0049700Y0224400D02*
X0047498Y0225868D01*
X0048232Y0226610D02*
X0047498Y0227344D01*
X0049700Y0227344D01*
X0049700Y0226610D02*
X0049700Y0228078D01*
X0049700Y0225868D02*
X0047498Y0224400D01*
X0046100Y0225088D02*
X0046100Y0225822D01*
X0045733Y0226189D01*
X0046100Y0226931D02*
X0046100Y0228399D01*
X0046100Y0229141D02*
X0046100Y0230609D01*
X0046100Y0231351D02*
X0046100Y0232818D01*
X0045733Y0233560D02*
X0046100Y0233927D01*
X0046100Y0234661D01*
X0045733Y0235028D01*
X0043898Y0235028D01*
X0043898Y0235770D02*
X0046100Y0235770D01*
X0046100Y0237238D01*
X0046100Y0237980D02*
X0044632Y0237980D01*
X0043898Y0238714D01*
X0044632Y0239448D01*
X0046100Y0239448D01*
X0046100Y0240190D02*
X0043898Y0240190D01*
X0043898Y0241291D01*
X0044265Y0241658D01*
X0044999Y0241658D01*
X0045366Y0241291D01*
X0045366Y0240190D01*
X0045366Y0240924D02*
X0046100Y0241658D01*
X0047498Y0241658D02*
X0047498Y0240190D01*
X0047498Y0240924D02*
X0049700Y0240924D01*
X0049700Y0239448D02*
X0047498Y0239448D01*
X0047498Y0237980D02*
X0049700Y0239448D01*
X0049700Y0237980D02*
X0047498Y0237980D01*
X0048232Y0237238D02*
X0049700Y0237238D01*
X0048599Y0237238D02*
X0048599Y0235770D01*
X0048232Y0235770D02*
X0047498Y0236504D01*
X0048232Y0237238D01*
X0048232Y0235770D02*
X0049700Y0235770D01*
X0045733Y0233560D02*
X0043898Y0233560D01*
X0043898Y0231351D02*
X0046100Y0231351D01*
X0046100Y0229141D02*
X0043898Y0229141D01*
X0043898Y0228399D02*
X0043898Y0226931D01*
X0046100Y0226931D01*
X0044999Y0226931D02*
X0044999Y0227665D01*
X0044265Y0226189D02*
X0043898Y0225822D01*
X0043898Y0225088D01*
X0044265Y0224721D01*
X0045733Y0224721D01*
X0046100Y0225088D01*
X0045209Y0218656D02*
X0045209Y0216454D01*
X0044475Y0216454D02*
X0045943Y0216454D01*
X0044475Y0217922D02*
X0045209Y0218656D01*
X0043733Y0218656D02*
X0043733Y0216821D01*
X0043366Y0216454D01*
X0042632Y0216454D01*
X0042265Y0216821D01*
X0042265Y0218656D01*
X0031744Y0203202D02*
X0031744Y0201000D01*
X0031010Y0201000D02*
X0032478Y0201000D01*
X0032211Y0199402D02*
X0032578Y0199035D01*
X0032578Y0198668D01*
X0032211Y0198301D01*
X0032578Y0197934D01*
X0032578Y0197567D01*
X0032211Y0197200D01*
X0031477Y0197200D01*
X0031110Y0197567D01*
X0031844Y0198301D02*
X0032211Y0198301D01*
X0032211Y0199402D02*
X0031477Y0199402D01*
X0031110Y0199035D01*
X0030368Y0199402D02*
X0028900Y0199402D01*
X0029634Y0199402D02*
X0029634Y0197200D01*
X0030001Y0195502D02*
X0030368Y0195135D01*
X0030368Y0194401D01*
X0030001Y0194034D01*
X0028900Y0194034D01*
X0029634Y0194034D02*
X0030368Y0193300D01*
X0031110Y0193667D02*
X0031477Y0193300D01*
X0032211Y0193300D01*
X0032578Y0193667D01*
X0032578Y0194401D01*
X0032211Y0194768D01*
X0031844Y0194768D01*
X0031110Y0194401D01*
X0031110Y0195502D01*
X0032578Y0195502D01*
X0033320Y0194401D02*
X0034421Y0194401D01*
X0034788Y0194034D01*
X0034788Y0193667D01*
X0034421Y0193300D01*
X0033687Y0193300D01*
X0033320Y0193667D01*
X0033320Y0194401D01*
X0034054Y0195135D01*
X0034788Y0195502D01*
X0034788Y0191602D02*
X0033320Y0191602D01*
X0032578Y0191602D02*
X0031110Y0191602D01*
X0031110Y0190501D01*
X0031844Y0190868D01*
X0032211Y0190868D01*
X0032578Y0190501D01*
X0032578Y0189767D01*
X0032211Y0189400D01*
X0031477Y0189400D01*
X0031110Y0189767D01*
X0030368Y0189400D02*
X0029634Y0190134D01*
X0030001Y0190134D02*
X0028900Y0190134D01*
X0028900Y0189400D02*
X0028900Y0191602D01*
X0030001Y0191602D01*
X0030368Y0191235D01*
X0030368Y0190501D01*
X0030001Y0190134D01*
X0029734Y0187702D02*
X0029734Y0185500D01*
X0030001Y0183702D02*
X0030368Y0183335D01*
X0030368Y0182601D01*
X0030001Y0182234D01*
X0028900Y0182234D01*
X0029634Y0182234D02*
X0030368Y0181500D01*
X0031110Y0181500D02*
X0032578Y0182968D01*
X0032578Y0183335D01*
X0032211Y0183702D01*
X0031477Y0183702D01*
X0031110Y0183335D01*
X0030001Y0183702D02*
X0028900Y0183702D01*
X0028900Y0181500D01*
X0028900Y0179702D02*
X0030001Y0179702D01*
X0030368Y0179335D01*
X0030368Y0178601D01*
X0030001Y0178234D01*
X0028900Y0178234D01*
X0029634Y0178234D02*
X0030368Y0177500D01*
X0031110Y0177500D02*
X0032578Y0177500D01*
X0031844Y0177500D02*
X0031844Y0179702D01*
X0031110Y0178968D01*
X0028900Y0179702D02*
X0028900Y0177500D01*
X0031110Y0181500D02*
X0032578Y0181500D01*
X0032311Y0185500D02*
X0032311Y0187702D01*
X0031210Y0186601D01*
X0032678Y0186601D01*
X0030468Y0187702D02*
X0029000Y0187702D01*
X0033320Y0189400D02*
X0033320Y0189767D01*
X0034788Y0191235D01*
X0034788Y0191602D01*
X0028900Y0193300D02*
X0028900Y0195502D01*
X0030001Y0195502D01*
X0029901Y0201000D02*
X0030268Y0201367D01*
X0029901Y0201000D02*
X0029167Y0201000D01*
X0028800Y0201367D01*
X0028800Y0202835D01*
X0029167Y0203202D01*
X0029901Y0203202D01*
X0030268Y0202835D01*
X0031010Y0202468D02*
X0031744Y0203202D01*
X0044999Y0237980D02*
X0044999Y0239448D01*
X0138998Y0239158D02*
X0138998Y0237690D01*
X0138998Y0238424D02*
X0141200Y0238424D01*
X0141200Y0236948D02*
X0138998Y0236948D01*
X0138998Y0235480D02*
X0141200Y0236948D01*
X0141200Y0235480D02*
X0138998Y0235480D01*
X0139732Y0234738D02*
X0141200Y0234738D01*
X0140099Y0234738D02*
X0140099Y0233270D01*
X0139732Y0233270D02*
X0138998Y0234004D01*
X0139732Y0234738D01*
X0139732Y0233270D02*
X0141200Y0233270D01*
X0140833Y0230318D02*
X0141200Y0229951D01*
X0141200Y0229218D01*
X0140833Y0228851D01*
X0140099Y0229218D02*
X0140099Y0229951D01*
X0140466Y0230318D01*
X0140833Y0230318D01*
X0140099Y0229218D02*
X0139732Y0228851D01*
X0139365Y0228851D01*
X0138998Y0229218D01*
X0138998Y0229951D01*
X0139365Y0230318D01*
X0139365Y0228109D02*
X0140099Y0228109D01*
X0140466Y0227742D01*
X0140466Y0226641D01*
X0141200Y0226641D02*
X0138998Y0226641D01*
X0138998Y0227742D01*
X0139365Y0228109D01*
X0139365Y0225899D02*
X0138998Y0225532D01*
X0138998Y0224798D01*
X0139365Y0224431D01*
X0140833Y0224431D01*
X0141200Y0224798D01*
X0141200Y0225532D01*
X0140833Y0225899D01*
X0140099Y0225899D01*
X0140099Y0225165D01*
X0142898Y0225868D02*
X0145100Y0224400D01*
X0145100Y0225868D02*
X0142898Y0224400D01*
X0143265Y0226610D02*
X0142898Y0226977D01*
X0142898Y0227711D01*
X0143265Y0228078D01*
X0143632Y0228078D01*
X0145100Y0226610D01*
X0145100Y0228078D01*
X0039391Y0100402D02*
X0039758Y0100035D01*
X0038290Y0098567D01*
X0038657Y0098200D01*
X0039391Y0098200D01*
X0039758Y0098567D01*
X0039758Y0100035D01*
X0039391Y0100402D02*
X0038657Y0100402D01*
X0038290Y0100035D01*
X0038290Y0098567D01*
X0037548Y0098567D02*
X0037181Y0098200D01*
X0036447Y0098200D01*
X0036080Y0098567D01*
X0036080Y0099301D02*
X0036814Y0099668D01*
X0037181Y0099668D01*
X0037548Y0099301D01*
X0037548Y0098567D01*
X0036080Y0099301D02*
X0036080Y0100402D01*
X0037548Y0100402D01*
X0035338Y0100035D02*
X0035338Y0099301D01*
X0034971Y0098934D01*
X0033870Y0098934D01*
X0033870Y0098200D02*
X0033870Y0100402D01*
X0034971Y0100402D01*
X0035338Y0100035D01*
X0034604Y0098934D02*
X0035338Y0098200D01*
X0035071Y0096702D02*
X0035438Y0096335D01*
X0035438Y0095601D01*
X0035071Y0095234D01*
X0033970Y0095234D01*
X0033970Y0094500D02*
X0033970Y0096702D01*
X0035071Y0096702D01*
X0036180Y0096702D02*
X0036180Y0095601D01*
X0036914Y0095968D01*
X0037281Y0095968D01*
X0037648Y0095601D01*
X0037648Y0094867D01*
X0037281Y0094500D01*
X0036547Y0094500D01*
X0036180Y0094867D01*
X0035438Y0094500D02*
X0034704Y0095234D01*
X0036180Y0096702D02*
X0037648Y0096702D01*
X0038390Y0095601D02*
X0039858Y0095601D01*
X0039491Y0096702D02*
X0038390Y0095601D01*
X0039491Y0094500D02*
X0039491Y0096702D01*
X0039858Y0093102D02*
X0038390Y0093102D01*
X0038390Y0092001D01*
X0039124Y0092368D01*
X0039491Y0092368D01*
X0039858Y0092001D01*
X0039858Y0091267D01*
X0039491Y0090900D01*
X0038757Y0090900D01*
X0038390Y0091267D01*
X0037648Y0091267D02*
X0037281Y0090900D01*
X0036547Y0090900D01*
X0036180Y0091267D01*
X0036180Y0092001D02*
X0036914Y0092368D01*
X0037281Y0092368D01*
X0037648Y0092001D01*
X0037648Y0091267D01*
X0036180Y0092001D02*
X0036180Y0093102D01*
X0037648Y0093102D01*
X0035438Y0092735D02*
X0035438Y0092001D01*
X0035071Y0091634D01*
X0033970Y0091634D01*
X0033970Y0090900D02*
X0033970Y0093102D01*
X0035071Y0093102D01*
X0035438Y0092735D01*
X0034704Y0091634D02*
X0035438Y0090900D01*
X0031758Y0098200D02*
X0030290Y0098200D01*
X0031758Y0099668D01*
X0031758Y0100035D01*
X0031391Y0100402D01*
X0030657Y0100402D01*
X0030290Y0100035D01*
X0029548Y0100402D02*
X0028080Y0100402D01*
X0028814Y0100402D02*
X0028814Y0098200D01*
X0029699Y0078178D02*
X0029699Y0076710D01*
X0028598Y0077811D01*
X0030800Y0077811D01*
X0032098Y0077444D02*
X0034300Y0077444D01*
X0034300Y0076710D02*
X0034300Y0078178D01*
X0035798Y0077811D02*
X0036165Y0078178D01*
X0036532Y0078178D01*
X0036899Y0077811D01*
X0037266Y0078178D01*
X0037633Y0078178D01*
X0038000Y0077811D01*
X0038000Y0077077D01*
X0037633Y0076710D01*
X0038000Y0075968D02*
X0037266Y0075234D01*
X0037266Y0075601D02*
X0037266Y0074500D01*
X0038000Y0074500D02*
X0035798Y0074500D01*
X0035798Y0075601D01*
X0036165Y0075968D01*
X0036899Y0075968D01*
X0037266Y0075601D01*
X0036165Y0076710D02*
X0035798Y0077077D01*
X0035798Y0077811D01*
X0036899Y0077811D02*
X0036899Y0077444D01*
X0034300Y0075968D02*
X0033566Y0075234D01*
X0033933Y0075968D02*
X0034300Y0075601D01*
X0034300Y0074867D01*
X0033933Y0074500D01*
X0032465Y0074500D01*
X0032098Y0074867D01*
X0032098Y0075601D01*
X0032465Y0075968D01*
X0033933Y0075968D01*
X0032832Y0076710D02*
X0032098Y0077444D01*
X0030800Y0075968D02*
X0030066Y0075234D01*
X0030066Y0075601D02*
X0030066Y0074500D01*
X0030800Y0074500D02*
X0028598Y0074500D01*
X0028598Y0075601D01*
X0028965Y0075968D01*
X0029699Y0075968D01*
X0030066Y0075601D01*
D12*
X0042509Y0109635D02*
X0042509Y0210028D01*
X0046446Y0213965D01*
X0131091Y0213965D01*
X0131091Y0109635D01*
X0042509Y0109635D01*
X0116558Y0085440D02*
X0116558Y0065558D01*
X0125219Y0065558D01*
X0133881Y0065558D02*
X0142542Y0065558D01*
X0142542Y0085440D01*
X0136440Y0091542D01*
X0133881Y0091542D01*
X0125219Y0091542D02*
X0122660Y0091542D01*
X0116558Y0085440D01*
D13*
X0134962Y0094852D02*
X0138032Y0094852D01*
X0136497Y0093317D02*
X0136497Y0096386D01*
D14*
X0076694Y0102800D03*
X0075906Y0094800D03*
D15*
X0040693Y0199595D02*
X0040695Y0199634D01*
X0040701Y0199673D01*
X0040711Y0199711D01*
X0040724Y0199748D01*
X0040741Y0199783D01*
X0040761Y0199817D01*
X0040785Y0199848D01*
X0040812Y0199877D01*
X0040841Y0199903D01*
X0040873Y0199926D01*
X0040907Y0199946D01*
X0040943Y0199962D01*
X0040980Y0199974D01*
X0041019Y0199983D01*
X0041058Y0199988D01*
X0041097Y0199989D01*
X0041136Y0199986D01*
X0041175Y0199979D01*
X0041212Y0199968D01*
X0041249Y0199954D01*
X0041284Y0199936D01*
X0041317Y0199915D01*
X0041348Y0199890D01*
X0041376Y0199863D01*
X0041401Y0199833D01*
X0041423Y0199800D01*
X0041442Y0199766D01*
X0041457Y0199730D01*
X0041469Y0199692D01*
X0041477Y0199654D01*
X0041481Y0199615D01*
X0041481Y0199575D01*
X0041477Y0199536D01*
X0041469Y0199498D01*
X0041457Y0199460D01*
X0041442Y0199424D01*
X0041423Y0199390D01*
X0041401Y0199357D01*
X0041376Y0199327D01*
X0041348Y0199300D01*
X0041317Y0199275D01*
X0041284Y0199254D01*
X0041249Y0199236D01*
X0041212Y0199222D01*
X0041175Y0199211D01*
X0041136Y0199204D01*
X0041097Y0199201D01*
X0041058Y0199202D01*
X0041019Y0199207D01*
X0040980Y0199216D01*
X0040943Y0199228D01*
X0040907Y0199244D01*
X0040873Y0199264D01*
X0040841Y0199287D01*
X0040812Y0199313D01*
X0040785Y0199342D01*
X0040761Y0199373D01*
X0040741Y0199407D01*
X0040724Y0199442D01*
X0040711Y0199479D01*
X0040701Y0199517D01*
X0040695Y0199556D01*
X0040693Y0199595D01*
D16*
X0049300Y0060300D02*
X0046800Y0057800D01*
X0046800Y0052800D01*
X0049300Y0050300D01*
X0054300Y0050300D01*
X0056800Y0052800D01*
X0059300Y0050300D01*
X0064300Y0050300D01*
X0066800Y0052800D01*
X0066800Y0057800D01*
X0064300Y0060300D01*
X0059300Y0060300D01*
X0056800Y0057800D01*
X0056800Y0052800D01*
X0056800Y0057800D02*
X0054300Y0060300D01*
X0049300Y0060300D01*
X0066800Y0057800D02*
X0069300Y0060300D01*
X0074300Y0060300D01*
X0076800Y0057800D01*
X0079300Y0060300D01*
X0084300Y0060300D01*
X0086800Y0057800D01*
X0089300Y0060300D01*
X0094300Y0060300D01*
X0096800Y0057800D01*
X0096800Y0052800D01*
X0094300Y0050300D01*
X0089300Y0050300D01*
X0086800Y0052800D01*
X0084300Y0050300D01*
X0079300Y0050300D01*
X0076800Y0052800D01*
X0074300Y0050300D01*
X0069300Y0050300D01*
X0066800Y0052800D01*
X0076800Y0052800D02*
X0076800Y0057800D01*
X0086800Y0057800D02*
X0086800Y0052800D01*
X0096800Y0052800D02*
X0099300Y0050300D01*
X0104300Y0050300D01*
X0106800Y0052800D01*
X0109300Y0050300D01*
X0114300Y0050300D01*
X0116800Y0052800D01*
X0119300Y0050300D01*
X0124300Y0050300D01*
X0126800Y0052800D01*
X0126800Y0057800D01*
X0124300Y0060300D01*
X0119300Y0060300D01*
X0116800Y0057800D01*
X0116800Y0052800D01*
X0116800Y0057800D02*
X0114300Y0060300D01*
X0109300Y0060300D01*
X0106800Y0057800D01*
X0106800Y0052800D01*
X0106800Y0057800D02*
X0104300Y0060300D01*
X0099300Y0060300D01*
X0096800Y0057800D01*
M02*
