G75*
%MOIN*%
%OFA0B0*%
%FSLAX25Y25*%
%IPPOS*%
%LPD*%
%AMOC8*
5,1,8,0,0,1.08239X$1,22.5*
%
%ADD10C,0.00000*%
%ADD11R,0.04331X0.03937*%
%ADD12R,0.06299X0.13780*%
%ADD13R,0.04724X0.04724*%
%ADD14R,0.05512X0.03937*%
%ADD15R,0.03937X0.04331*%
%ADD16R,0.03937X0.05512*%
%ADD17R,0.04528X0.02756*%
%ADD18R,0.02756X0.04528*%
%ADD19R,0.03937X0.03937*%
%ADD20R,0.06000X0.16000*%
%ADD21R,0.04000X0.08000*%
%ADD22C,0.00800*%
%ADD23C,0.06000*%
%ADD24C,0.01600*%
%ADD25OC8,0.02381*%
%ADD26C,0.03200*%
%ADD27C,0.02400*%
%ADD28C,0.00600*%
%ADD29C,0.01200*%
%ADD30C,0.05600*%
%ADD31C,0.06063*%
D10*
X0026800Y0048050D02*
X0026800Y0245501D01*
X0146800Y0245501D01*
X0146800Y0048050D01*
X0026800Y0048050D01*
D11*
X0046300Y0072454D03*
X0046300Y0079146D03*
X0068800Y0079146D03*
X0068800Y0072454D03*
X0082300Y0072454D03*
X0082300Y0079146D03*
X0106800Y0078646D03*
X0106800Y0071954D03*
X0136454Y0106800D03*
X0143146Y0106800D03*
X0143146Y0115300D03*
X0136454Y0115300D03*
X0136454Y0123800D03*
X0143146Y0123800D03*
X0102146Y0220300D03*
X0102146Y0228300D03*
X0102046Y0236300D03*
X0095354Y0236300D03*
X0095454Y0228300D03*
X0095454Y0220300D03*
X0037646Y0171800D03*
X0030954Y0171800D03*
D12*
X0129550Y0089574D03*
X0129550Y0067526D03*
D13*
X0080434Y0094800D03*
X0080434Y0102800D03*
X0072166Y0102800D03*
X0072166Y0094800D03*
D14*
X0062631Y0079540D03*
X0062631Y0072060D03*
X0053969Y0075800D03*
X0089969Y0072060D03*
X0089969Y0079540D03*
X0098631Y0075800D03*
D15*
X0093146Y0086800D03*
X0086454Y0086800D03*
X0086454Y0094800D03*
X0093146Y0094800D03*
X0093146Y0102800D03*
X0086454Y0102800D03*
X0065646Y0102800D03*
X0058954Y0102800D03*
X0058954Y0094800D03*
X0065646Y0094800D03*
X0065646Y0086800D03*
X0058954Y0086800D03*
X0037146Y0107300D03*
X0030454Y0107300D03*
X0030454Y0115300D03*
X0037146Y0115300D03*
X0037646Y0139800D03*
X0030954Y0139800D03*
X0030954Y0147800D03*
X0037646Y0147800D03*
D16*
X0038040Y0155469D03*
X0030560Y0155469D03*
X0034300Y0164131D03*
X0033800Y0131631D03*
X0030060Y0122969D03*
X0037540Y0122969D03*
X0045060Y0103131D03*
X0052540Y0103131D03*
X0048800Y0094469D03*
X0100560Y0094969D03*
X0104300Y0103631D03*
X0108040Y0094969D03*
D17*
X0122922Y0124005D03*
X0122922Y0128335D03*
X0122922Y0132666D03*
X0122922Y0136997D03*
X0122922Y0141328D03*
X0122922Y0145658D03*
X0122922Y0149989D03*
X0122922Y0154320D03*
X0122922Y0161013D03*
X0122922Y0165343D03*
X0122922Y0169674D03*
X0122922Y0174005D03*
X0122922Y0178335D03*
X0122922Y0182666D03*
X0122922Y0186997D03*
X0122922Y0191328D03*
X0122922Y0195658D03*
X0122922Y0199989D03*
X0050678Y0199989D03*
X0050678Y0195658D03*
X0050678Y0191328D03*
X0050678Y0186997D03*
X0050678Y0182666D03*
X0050678Y0178335D03*
X0050678Y0174005D03*
X0050678Y0169674D03*
X0050678Y0165343D03*
X0050678Y0161013D03*
X0050678Y0154320D03*
X0050678Y0149989D03*
X0050678Y0145658D03*
X0050678Y0141328D03*
X0050678Y0136997D03*
X0050678Y0132666D03*
X0050678Y0128335D03*
X0050678Y0124005D03*
D18*
X0057469Y0118394D03*
X0061800Y0118394D03*
X0066131Y0118394D03*
X0070461Y0118394D03*
X0074792Y0118394D03*
X0079123Y0118394D03*
X0088965Y0118394D03*
X0093296Y0118394D03*
X0097627Y0118394D03*
X0101957Y0118394D03*
X0106288Y0118394D03*
X0110619Y0118394D03*
X0114950Y0118394D03*
X0114950Y0205206D03*
X0110619Y0205206D03*
X0106288Y0205206D03*
X0101957Y0205206D03*
X0097627Y0205206D03*
X0093296Y0205206D03*
X0088965Y0205206D03*
X0079123Y0205206D03*
X0074792Y0205206D03*
X0070461Y0205206D03*
X0066131Y0205206D03*
X0061800Y0205206D03*
X0057469Y0205206D03*
D19*
X0076761Y0191918D03*
X0076761Y0185225D03*
X0070068Y0178532D03*
X0070068Y0171839D03*
X0070068Y0165146D03*
X0070068Y0158454D03*
X0063375Y0158454D03*
X0063375Y0165146D03*
X0063375Y0171839D03*
X0063375Y0178532D03*
X0083454Y0185225D03*
X0090146Y0185225D03*
X0090146Y0191918D03*
X0083454Y0191918D03*
X0096839Y0191918D03*
X0096839Y0185225D03*
X0103532Y0178532D03*
X0103532Y0171839D03*
X0103532Y0165146D03*
X0103532Y0158454D03*
X0110225Y0158454D03*
X0110225Y0165146D03*
X0110225Y0171839D03*
X0110225Y0178532D03*
X0110225Y0151761D03*
X0103532Y0151761D03*
X0103532Y0145068D03*
X0110225Y0145068D03*
X0096839Y0138375D03*
X0090146Y0138375D03*
X0083454Y0138375D03*
X0083454Y0131682D03*
X0090146Y0131682D03*
X0096839Y0131682D03*
X0076761Y0131682D03*
X0076761Y0138375D03*
X0070068Y0145068D03*
X0070068Y0151761D03*
X0063375Y0151761D03*
X0063375Y0145068D03*
D20*
X0056300Y0236300D03*
X0076300Y0236300D03*
X0113200Y0236300D03*
X0133200Y0236300D03*
D21*
X0123200Y0232300D03*
X0066300Y0232300D03*
D22*
X0062106Y0232100D02*
X0062106Y0240300D01*
X0053800Y0240300D01*
X0053800Y0232100D01*
X0062106Y0232100D01*
X0062106Y0232853D02*
X0053800Y0232853D01*
X0053800Y0233652D02*
X0062106Y0233652D01*
X0062106Y0234450D02*
X0053800Y0234450D01*
X0053800Y0235249D02*
X0062106Y0235249D01*
X0062106Y0236047D02*
X0053800Y0236047D01*
X0053800Y0236846D02*
X0062106Y0236846D01*
X0062106Y0237644D02*
X0053800Y0237644D01*
X0053800Y0238443D02*
X0062106Y0238443D01*
X0062106Y0239241D02*
X0053800Y0239241D01*
X0053800Y0240040D02*
X0062106Y0240040D01*
X0070494Y0240040D02*
X0078800Y0240040D01*
X0078800Y0240300D02*
X0078800Y0232100D01*
X0070494Y0232100D01*
X0070494Y0240300D01*
X0078800Y0240300D01*
X0078800Y0239241D02*
X0070494Y0239241D01*
X0070494Y0238443D02*
X0078800Y0238443D01*
X0078800Y0237644D02*
X0070494Y0237644D01*
X0070494Y0236846D02*
X0078800Y0236846D01*
X0078800Y0236047D02*
X0070494Y0236047D01*
X0070494Y0235249D02*
X0078800Y0235249D01*
X0078800Y0234450D02*
X0070494Y0234450D01*
X0070494Y0233652D02*
X0078800Y0233652D01*
X0078800Y0232853D02*
X0070494Y0232853D01*
X0110700Y0232853D02*
X0119006Y0232853D01*
X0119006Y0232100D02*
X0119006Y0240300D01*
X0110700Y0240300D01*
X0110700Y0232100D01*
X0119006Y0232100D01*
X0119006Y0233652D02*
X0110700Y0233652D01*
X0110700Y0234450D02*
X0119006Y0234450D01*
X0119006Y0235249D02*
X0110700Y0235249D01*
X0110700Y0236047D02*
X0119006Y0236047D01*
X0119006Y0236846D02*
X0110700Y0236846D01*
X0110700Y0237644D02*
X0119006Y0237644D01*
X0119006Y0238443D02*
X0110700Y0238443D01*
X0110700Y0239241D02*
X0119006Y0239241D01*
X0119006Y0240040D02*
X0110700Y0240040D01*
X0127394Y0240040D02*
X0135700Y0240040D01*
X0135700Y0240300D02*
X0135700Y0232100D01*
X0127394Y0232100D01*
X0127394Y0240300D01*
X0135700Y0240300D01*
X0135700Y0239241D02*
X0127394Y0239241D01*
X0127394Y0238443D02*
X0135700Y0238443D01*
X0135700Y0237644D02*
X0127394Y0237644D01*
X0127394Y0236846D02*
X0135700Y0236846D01*
X0135700Y0236047D02*
X0127394Y0236047D01*
X0127394Y0235249D02*
X0135700Y0235249D01*
X0135700Y0234450D02*
X0127394Y0234450D01*
X0127394Y0233652D02*
X0135700Y0233652D01*
X0135700Y0232853D02*
X0127394Y0232853D01*
D23*
X0121800Y0058300D02*
X0121800Y0052300D01*
X0111800Y0052300D02*
X0111800Y0058300D01*
X0101800Y0058300D02*
X0101800Y0052300D01*
X0091800Y0052300D02*
X0091800Y0058300D01*
X0081800Y0058300D02*
X0081800Y0052300D01*
X0071800Y0052300D02*
X0071800Y0058300D01*
X0061800Y0058300D02*
X0061800Y0052300D01*
X0051800Y0052300D02*
X0051800Y0058300D01*
D24*
X0047400Y0057990D02*
X0028600Y0057990D01*
X0028600Y0059588D02*
X0047571Y0059588D01*
X0047400Y0059175D02*
X0047400Y0051425D01*
X0048052Y0049850D01*
X0028600Y0049850D01*
X0028600Y0103735D01*
X0033002Y0103735D01*
X0033800Y0104533D01*
X0034598Y0103735D01*
X0034821Y0103735D01*
X0034709Y0103623D01*
X0034709Y0102364D01*
X0034350Y0102004D01*
X0034350Y0100596D01*
X0034350Y0090596D01*
X0035346Y0089600D01*
X0036600Y0088346D01*
X0036600Y0068096D01*
X0037596Y0067100D01*
X0041346Y0063350D01*
X0082459Y0063350D01*
X0082459Y0062700D01*
X0080925Y0062700D01*
X0079308Y0062030D01*
X0078070Y0060792D01*
X0077400Y0059175D01*
X0077400Y0051425D01*
X0078052Y0049850D01*
X0075548Y0049850D01*
X0076200Y0051425D01*
X0076200Y0059175D01*
X0075530Y0060792D01*
X0074292Y0062030D01*
X0072675Y0062700D01*
X0070925Y0062700D01*
X0069308Y0062030D01*
X0068070Y0060792D01*
X0067400Y0059175D01*
X0067400Y0051425D01*
X0068052Y0049850D01*
X0065939Y0049850D01*
X0066248Y0050457D01*
X0066482Y0051176D01*
X0066600Y0051922D01*
X0066600Y0055100D01*
X0062000Y0055100D01*
X0062000Y0055500D01*
X0061600Y0055500D01*
X0061600Y0063100D01*
X0061422Y0063100D01*
X0060676Y0062982D01*
X0059957Y0062748D01*
X0059284Y0062405D01*
X0058673Y0061961D01*
X0058139Y0061427D01*
X0057695Y0060816D01*
X0057352Y0060143D01*
X0057118Y0059424D01*
X0057000Y0058678D01*
X0057000Y0055500D01*
X0061600Y0055500D01*
X0061600Y0055100D01*
X0057000Y0055100D01*
X0057000Y0051922D01*
X0057118Y0051176D01*
X0057352Y0050457D01*
X0057661Y0049850D01*
X0055548Y0049850D01*
X0056200Y0051425D01*
X0056200Y0059175D01*
X0055530Y0060792D01*
X0054292Y0062030D01*
X0052675Y0062700D01*
X0050925Y0062700D01*
X0049308Y0062030D01*
X0048070Y0060792D01*
X0047400Y0059175D01*
X0048464Y0061187D02*
X0028600Y0061187D01*
X0028600Y0062785D02*
X0060071Y0062785D01*
X0061600Y0062785D02*
X0062000Y0062785D01*
X0062000Y0063100D02*
X0062000Y0055500D01*
X0066600Y0055500D01*
X0066600Y0058678D01*
X0066482Y0059424D01*
X0066248Y0060143D01*
X0065905Y0060816D01*
X0065461Y0061427D01*
X0064927Y0061961D01*
X0064316Y0062405D01*
X0063643Y0062748D01*
X0062924Y0062982D01*
X0062178Y0063100D01*
X0062000Y0063100D01*
X0063529Y0062785D02*
X0082459Y0062785D01*
X0078464Y0061187D02*
X0075136Y0061187D01*
X0076029Y0059588D02*
X0077571Y0059588D01*
X0077400Y0057990D02*
X0076200Y0057990D01*
X0076200Y0056391D02*
X0077400Y0056391D01*
X0077400Y0054793D02*
X0076200Y0054793D01*
X0076200Y0053194D02*
X0077400Y0053194D01*
X0077400Y0051596D02*
X0076200Y0051596D01*
X0075609Y0049997D02*
X0077991Y0049997D01*
X0067991Y0049997D02*
X0066014Y0049997D01*
X0066548Y0051596D02*
X0067400Y0051596D01*
X0067400Y0053194D02*
X0066600Y0053194D01*
X0066600Y0054793D02*
X0067400Y0054793D01*
X0067400Y0056391D02*
X0066600Y0056391D01*
X0066600Y0057990D02*
X0067400Y0057990D01*
X0067571Y0059588D02*
X0066428Y0059588D01*
X0065636Y0061187D02*
X0068464Y0061187D01*
X0062000Y0061187D02*
X0061600Y0061187D01*
X0061600Y0059588D02*
X0062000Y0059588D01*
X0062000Y0057990D02*
X0061600Y0057990D01*
X0061600Y0056391D02*
X0062000Y0056391D01*
X0057000Y0056391D02*
X0056200Y0056391D01*
X0056200Y0054793D02*
X0057000Y0054793D01*
X0057000Y0053194D02*
X0056200Y0053194D01*
X0056200Y0051596D02*
X0057052Y0051596D01*
X0057586Y0049997D02*
X0055609Y0049997D01*
X0047991Y0049997D02*
X0028600Y0049997D01*
X0028600Y0051596D02*
X0047400Y0051596D01*
X0047400Y0053194D02*
X0028600Y0053194D01*
X0028600Y0054793D02*
X0047400Y0054793D01*
X0047400Y0056391D02*
X0028600Y0056391D01*
X0028600Y0064384D02*
X0040312Y0064384D01*
X0038714Y0065982D02*
X0028600Y0065982D01*
X0028600Y0067581D02*
X0037115Y0067581D01*
X0036600Y0069179D02*
X0028600Y0069179D01*
X0028600Y0070778D02*
X0036600Y0070778D01*
X0036600Y0072376D02*
X0028600Y0072376D01*
X0028600Y0073975D02*
X0036600Y0073975D01*
X0036600Y0075573D02*
X0028600Y0075573D01*
X0028600Y0077172D02*
X0036600Y0077172D01*
X0036600Y0078770D02*
X0028600Y0078770D01*
X0028600Y0080369D02*
X0036600Y0080369D01*
X0036600Y0081967D02*
X0028600Y0081967D01*
X0028600Y0083566D02*
X0036600Y0083566D01*
X0036600Y0085164D02*
X0028600Y0085164D01*
X0028600Y0086763D02*
X0036600Y0086763D01*
X0036585Y0088361D02*
X0028600Y0088361D01*
X0028600Y0089960D02*
X0034986Y0089960D01*
X0034350Y0091558D02*
X0028600Y0091558D01*
X0028600Y0093157D02*
X0034350Y0093157D01*
X0034350Y0094755D02*
X0028600Y0094755D01*
X0028600Y0096354D02*
X0034350Y0096354D01*
X0034350Y0097952D02*
X0028600Y0097952D01*
X0028600Y0099551D02*
X0034350Y0099551D01*
X0034350Y0101149D02*
X0028600Y0101149D01*
X0028600Y0102748D02*
X0034709Y0102748D01*
X0033986Y0104346D02*
X0033614Y0104346D01*
X0033800Y0110067D02*
X0033454Y0110414D01*
X0033454Y0112186D01*
X0033576Y0112309D01*
X0033738Y0112029D01*
X0034073Y0111694D01*
X0034483Y0111457D01*
X0034941Y0111335D01*
X0036962Y0111335D01*
X0036962Y0115116D01*
X0037331Y0115116D01*
X0037331Y0115484D01*
X0040915Y0115484D01*
X0040915Y0117702D01*
X0040792Y0118160D01*
X0040555Y0118571D01*
X0040448Y0118677D01*
X0040614Y0118773D01*
X0040949Y0119108D01*
X0041186Y0119519D01*
X0041309Y0119976D01*
X0041309Y0122785D01*
X0037724Y0122785D01*
X0037724Y0123154D01*
X0037356Y0123154D01*
X0037356Y0127525D01*
X0036399Y0127525D01*
X0037168Y0128295D01*
X0037168Y0129000D01*
X0038523Y0129000D01*
X0040090Y0127433D01*
X0039746Y0127525D01*
X0037724Y0127525D01*
X0037724Y0123154D01*
X0041309Y0123154D01*
X0041309Y0125962D01*
X0041216Y0126307D01*
X0041392Y0126131D01*
X0042347Y0125735D01*
X0047014Y0125735D01*
X0047014Y0122047D01*
X0047834Y0121227D01*
X0053522Y0121227D01*
X0054342Y0122047D01*
X0054342Y0122305D01*
X0055459Y0122305D01*
X0056254Y0123100D01*
X0057250Y0124096D01*
X0057250Y0124836D01*
X0058141Y0125727D01*
X0058141Y0127873D01*
X0056623Y0129391D01*
X0054477Y0129391D01*
X0054342Y0129255D01*
X0054342Y0130293D01*
X0054134Y0130501D01*
X0054342Y0130708D01*
X0054342Y0134624D01*
X0054134Y0134831D01*
X0054342Y0135039D01*
X0054342Y0138955D01*
X0054134Y0139162D01*
X0054342Y0139370D01*
X0054342Y0143285D01*
X0054134Y0143493D01*
X0054342Y0143700D01*
X0054342Y0147616D01*
X0054134Y0147824D01*
X0054342Y0148031D01*
X0054342Y0151947D01*
X0054134Y0152154D01*
X0054342Y0152362D01*
X0054342Y0156278D01*
X0053522Y0157098D01*
X0047834Y0157098D01*
X0047014Y0156278D01*
X0047014Y0152362D01*
X0047222Y0152154D01*
X0047014Y0151947D01*
X0047014Y0148031D01*
X0047222Y0147824D01*
X0047014Y0147616D01*
X0047014Y0143700D01*
X0047222Y0143493D01*
X0047014Y0143285D01*
X0047014Y0139600D01*
X0045783Y0139600D01*
X0045760Y0139591D01*
X0045227Y0139591D01*
X0044850Y0139214D01*
X0044827Y0139204D01*
X0044096Y0138473D01*
X0044086Y0138450D01*
X0043709Y0138073D01*
X0043709Y0137540D01*
X0043700Y0137517D01*
X0043700Y0136483D01*
X0043709Y0136460D01*
X0043709Y0135927D01*
X0044086Y0135550D01*
X0044096Y0135527D01*
X0044827Y0134796D01*
X0044850Y0134786D01*
X0045227Y0134409D01*
X0045760Y0134409D01*
X0045783Y0134400D01*
X0047014Y0134400D01*
X0047014Y0130935D01*
X0043942Y0130935D01*
X0041804Y0133073D01*
X0041073Y0133804D01*
X0040117Y0134200D01*
X0037168Y0134200D01*
X0037168Y0134967D01*
X0036348Y0135787D01*
X0031252Y0135787D01*
X0030431Y0134967D01*
X0030431Y0128295D01*
X0031252Y0127475D01*
X0035147Y0127475D01*
X0034877Y0127403D01*
X0034466Y0127166D01*
X0034131Y0126830D01*
X0033894Y0126420D01*
X0033772Y0125962D01*
X0033772Y0123154D01*
X0037356Y0123154D01*
X0037356Y0122785D01*
X0033772Y0122785D01*
X0033772Y0119976D01*
X0033894Y0119519D01*
X0034131Y0119108D01*
X0034238Y0119001D01*
X0034073Y0118906D01*
X0033738Y0118571D01*
X0033576Y0118291D01*
X0033060Y0118807D01*
X0033060Y0119265D01*
X0033428Y0119633D01*
X0033428Y0126305D01*
X0032608Y0127125D01*
X0028600Y0127125D01*
X0028600Y0136235D01*
X0033502Y0136235D01*
X0034076Y0136809D01*
X0034238Y0136529D01*
X0034573Y0136194D01*
X0034983Y0135957D01*
X0035441Y0135835D01*
X0037462Y0135835D01*
X0037462Y0139616D01*
X0037831Y0139616D01*
X0037831Y0139984D01*
X0041415Y0139984D01*
X0041415Y0142202D01*
X0041292Y0142660D01*
X0041055Y0143071D01*
X0040720Y0143406D01*
X0040310Y0143643D01*
X0039852Y0143765D01*
X0037831Y0143765D01*
X0037831Y0139984D01*
X0037462Y0139984D01*
X0037462Y0143765D01*
X0035441Y0143765D01*
X0034983Y0143643D01*
X0034573Y0143406D01*
X0034238Y0143071D01*
X0034076Y0142791D01*
X0033954Y0142914D01*
X0033954Y0144686D01*
X0034300Y0145033D01*
X0035098Y0144235D01*
X0040195Y0144235D01*
X0041015Y0145055D01*
X0041015Y0145600D01*
X0041036Y0145600D01*
X0041427Y0145209D01*
X0043573Y0145209D01*
X0045091Y0146727D01*
X0045091Y0148873D01*
X0043573Y0150391D01*
X0041427Y0150391D01*
X0041036Y0150000D01*
X0041015Y0150000D01*
X0041015Y0150545D01*
X0040562Y0150998D01*
X0040703Y0151036D01*
X0041114Y0151273D01*
X0041449Y0151608D01*
X0041686Y0152019D01*
X0041809Y0152476D01*
X0041809Y0155285D01*
X0038224Y0155285D01*
X0038224Y0155654D01*
X0037856Y0155654D01*
X0037856Y0160025D01*
X0036899Y0160025D01*
X0037668Y0160795D01*
X0037668Y0161531D01*
X0041106Y0161531D01*
X0041127Y0161509D01*
X0041660Y0161509D01*
X0041683Y0161500D01*
X0042717Y0161500D01*
X0042740Y0161509D01*
X0043273Y0161509D01*
X0043650Y0161886D01*
X0043673Y0161896D01*
X0044404Y0162627D01*
X0044414Y0162650D01*
X0044791Y0163027D01*
X0044791Y0163560D01*
X0044800Y0163583D01*
X0044800Y0164617D01*
X0044791Y0164640D01*
X0044791Y0165173D01*
X0044414Y0165550D01*
X0044404Y0165573D01*
X0043642Y0166335D01*
X0043619Y0166344D01*
X0043273Y0166691D01*
X0042783Y0166691D01*
X0042686Y0166731D01*
X0037668Y0166731D01*
X0037668Y0167467D01*
X0037104Y0168031D01*
X0037462Y0168031D01*
X0037462Y0171616D01*
X0037831Y0171616D01*
X0037831Y0171984D01*
X0041612Y0171984D01*
X0041612Y0174005D01*
X0041489Y0174463D01*
X0041252Y0174874D01*
X0040917Y0175209D01*
X0040507Y0175446D01*
X0040049Y0175568D01*
X0037831Y0175568D01*
X0037831Y0171984D01*
X0037462Y0171984D01*
X0037462Y0175568D01*
X0035244Y0175568D01*
X0034786Y0175446D01*
X0034376Y0175209D01*
X0034041Y0174874D01*
X0034023Y0174844D01*
X0033699Y0175168D01*
X0028600Y0175168D01*
X0028600Y0243701D01*
X0051500Y0243701D01*
X0051500Y0237000D01*
X0055600Y0237000D01*
X0055600Y0235600D01*
X0057000Y0235600D01*
X0062100Y0235600D01*
X0062100Y0237000D01*
X0057000Y0237000D01*
X0057000Y0235600D01*
X0057000Y0226500D01*
X0059537Y0226500D01*
X0059995Y0226623D01*
X0060405Y0226860D01*
X0060740Y0227195D01*
X0060977Y0227605D01*
X0061100Y0228063D01*
X0061100Y0229900D01*
X0061869Y0229900D01*
X0061869Y0209919D01*
X0062137Y0209269D01*
X0061800Y0209269D01*
X0060185Y0209269D01*
X0059727Y0209147D01*
X0059635Y0209093D01*
X0059542Y0209147D01*
X0059084Y0209269D01*
X0057469Y0209269D01*
X0055854Y0209269D01*
X0055397Y0209147D01*
X0054986Y0208910D01*
X0054651Y0208575D01*
X0054414Y0208164D01*
X0054291Y0207706D01*
X0054291Y0205206D01*
X0057469Y0205206D01*
X0057469Y0209269D01*
X0057469Y0205206D01*
X0057469Y0205206D01*
X0057469Y0205205D01*
X0054291Y0205205D01*
X0054291Y0202705D01*
X0054414Y0202247D01*
X0054476Y0202140D01*
X0054312Y0201976D01*
X0053522Y0202767D01*
X0047834Y0202767D01*
X0047014Y0201947D01*
X0047014Y0198031D01*
X0047222Y0197824D01*
X0047014Y0197616D01*
X0047014Y0193851D01*
X0046974Y0193811D01*
X0046737Y0193400D01*
X0046614Y0192942D01*
X0046614Y0191328D01*
X0050678Y0191328D01*
X0054742Y0191328D01*
X0054742Y0192942D01*
X0054619Y0193400D01*
X0054382Y0193811D01*
X0054342Y0193851D01*
X0054342Y0197616D01*
X0054134Y0197824D01*
X0054342Y0198031D01*
X0054342Y0198095D01*
X0054977Y0197459D01*
X0057123Y0197459D01*
X0058641Y0198977D01*
X0058641Y0201123D01*
X0058622Y0201142D01*
X0059084Y0201142D01*
X0059542Y0201264D01*
X0059635Y0201318D01*
X0059727Y0201264D01*
X0060185Y0201142D01*
X0061800Y0201142D01*
X0063415Y0201142D01*
X0063873Y0201264D01*
X0064283Y0201501D01*
X0064324Y0201542D01*
X0067938Y0201542D01*
X0067978Y0201501D01*
X0068389Y0201264D01*
X0068846Y0201142D01*
X0070461Y0201142D01*
X0070461Y0205205D01*
X0070461Y0205205D01*
X0070461Y0201142D01*
X0072076Y0201142D01*
X0072534Y0201264D01*
X0072627Y0201318D01*
X0072719Y0201264D01*
X0073177Y0201142D01*
X0074792Y0201142D01*
X0074792Y0205205D01*
X0074792Y0205205D01*
X0074792Y0201142D01*
X0076407Y0201142D01*
X0076865Y0201264D01*
X0077275Y0201501D01*
X0077316Y0201542D01*
X0081081Y0201542D01*
X0081901Y0202362D01*
X0081901Y0208049D01*
X0081081Y0208869D01*
X0077316Y0208869D01*
X0077275Y0208910D01*
X0076865Y0209147D01*
X0076407Y0209269D01*
X0074792Y0209269D01*
X0073177Y0209269D01*
X0072719Y0209147D01*
X0072627Y0209093D01*
X0072534Y0209147D01*
X0072076Y0209269D01*
X0070463Y0209269D01*
X0070731Y0209919D01*
X0070731Y0229900D01*
X0071500Y0229900D01*
X0071500Y0228063D01*
X0071623Y0227605D01*
X0071860Y0227195D01*
X0072195Y0226860D01*
X0072605Y0226623D01*
X0073063Y0226500D01*
X0075600Y0226500D01*
X0075600Y0235600D01*
X0070500Y0235600D01*
X0070500Y0237000D01*
X0075600Y0237000D01*
X0075600Y0235600D01*
X0077000Y0235600D01*
X0077000Y0237000D01*
X0081100Y0237000D01*
X0081100Y0243701D01*
X0108400Y0243701D01*
X0108400Y0237000D01*
X0112500Y0237000D01*
X0112500Y0235600D01*
X0113900Y0235600D01*
X0119000Y0235600D01*
X0119000Y0237000D01*
X0113900Y0237000D01*
X0113900Y0235600D01*
X0113900Y0226500D01*
X0116437Y0226500D01*
X0116895Y0226623D01*
X0117305Y0226860D01*
X0117640Y0227195D01*
X0117877Y0227605D01*
X0118000Y0228063D01*
X0118000Y0229900D01*
X0118869Y0229900D01*
X0118869Y0203919D01*
X0119543Y0202290D01*
X0119572Y0202261D01*
X0119258Y0201947D01*
X0119258Y0198182D01*
X0119218Y0198141D01*
X0118981Y0197731D01*
X0118858Y0197273D01*
X0118858Y0195658D01*
X0118858Y0194043D01*
X0118981Y0193586D01*
X0119034Y0193493D01*
X0118981Y0193400D01*
X0118858Y0192942D01*
X0118858Y0191328D01*
X0122922Y0191328D01*
X0122922Y0194505D01*
X0122922Y0195658D01*
X0122922Y0195658D01*
X0122922Y0191328D01*
X0122922Y0191328D01*
X0122922Y0191327D01*
X0118858Y0191327D01*
X0118858Y0189713D01*
X0118981Y0189255D01*
X0119218Y0188844D01*
X0119258Y0188804D01*
X0119258Y0185039D01*
X0119466Y0184831D01*
X0119258Y0184624D01*
X0119258Y0180708D01*
X0119466Y0180501D01*
X0119258Y0180293D01*
X0119258Y0180200D01*
X0115972Y0180200D01*
X0114800Y0179028D01*
X0113594Y0177822D01*
X0113594Y0181081D01*
X0112774Y0181901D01*
X0107677Y0181901D01*
X0106879Y0181103D01*
X0106081Y0181901D01*
X0100984Y0181901D01*
X0100164Y0181081D01*
X0100164Y0175984D01*
X0100962Y0175186D01*
X0100164Y0174388D01*
X0100164Y0169291D01*
X0100962Y0168493D01*
X0100164Y0167695D01*
X0100164Y0162598D01*
X0100962Y0161800D01*
X0100164Y0161002D01*
X0100164Y0155905D01*
X0100962Y0155107D01*
X0100164Y0154309D01*
X0100164Y0149212D01*
X0100962Y0148414D01*
X0100164Y0147616D01*
X0100164Y0142519D01*
X0100984Y0141699D01*
X0106081Y0141699D01*
X0106655Y0142273D01*
X0106816Y0141994D01*
X0107151Y0141659D01*
X0107562Y0141422D01*
X0108020Y0141299D01*
X0110041Y0141299D01*
X0110041Y0144883D01*
X0110409Y0144883D01*
X0110409Y0141299D01*
X0112431Y0141299D01*
X0112436Y0141301D01*
X0113927Y0139809D01*
X0116073Y0139809D01*
X0117591Y0141327D01*
X0117591Y0142062D01*
X0117628Y0142100D01*
X0118800Y0143272D01*
X0118800Y0157328D01*
X0117591Y0158538D01*
X0117591Y0159373D01*
X0116264Y0160700D01*
X0116391Y0160827D01*
X0116391Y0162973D01*
X0115800Y0163564D01*
X0115800Y0171736D01*
X0116127Y0171409D01*
X0118273Y0171409D01*
X0118664Y0171800D01*
X0119426Y0171800D01*
X0119258Y0171632D01*
X0119258Y0167716D01*
X0119466Y0167509D01*
X0119258Y0167301D01*
X0119258Y0163385D01*
X0119466Y0163178D01*
X0119258Y0162970D01*
X0119258Y0159055D01*
X0120078Y0158235D01*
X0125766Y0158235D01*
X0126586Y0159055D01*
X0126586Y0162970D01*
X0126378Y0163178D01*
X0126586Y0163385D01*
X0126586Y0167301D01*
X0126378Y0167509D01*
X0126586Y0167716D01*
X0126586Y0171632D01*
X0126378Y0171839D01*
X0126586Y0172047D01*
X0126586Y0175963D01*
X0126378Y0176170D01*
X0126586Y0176378D01*
X0126586Y0180293D01*
X0126378Y0180501D01*
X0126478Y0180600D01*
X0127736Y0180600D01*
X0128327Y0180009D01*
X0130473Y0180009D01*
X0131991Y0181527D01*
X0131991Y0183673D01*
X0130473Y0185191D01*
X0128654Y0185191D01*
X0129391Y0185927D01*
X0129391Y0188073D01*
X0127873Y0189591D01*
X0126953Y0189591D01*
X0126986Y0189713D01*
X0126986Y0191327D01*
X0122922Y0191327D01*
X0122922Y0191328D01*
X0126986Y0191328D01*
X0126986Y0192942D01*
X0126863Y0193400D01*
X0126810Y0193493D01*
X0126863Y0193586D01*
X0126986Y0194043D01*
X0126986Y0195658D01*
X0122922Y0195658D01*
X0118858Y0195658D01*
X0122922Y0195658D01*
X0122922Y0195658D01*
X0122922Y0195658D01*
X0126986Y0195658D01*
X0126986Y0197273D01*
X0126863Y0197731D01*
X0126626Y0198141D01*
X0126586Y0198182D01*
X0126586Y0201819D01*
X0127057Y0202290D01*
X0127731Y0203919D01*
X0127731Y0229900D01*
X0128400Y0229900D01*
X0128400Y0228063D01*
X0128523Y0227605D01*
X0128760Y0227195D01*
X0129095Y0226860D01*
X0129505Y0226623D01*
X0129963Y0226500D01*
X0132500Y0226500D01*
X0132500Y0235600D01*
X0133900Y0235600D01*
X0133900Y0237000D01*
X0138000Y0237000D01*
X0138000Y0243701D01*
X0145000Y0243701D01*
X0145000Y0127568D01*
X0143331Y0127568D01*
X0143331Y0123984D01*
X0142962Y0123984D01*
X0142962Y0127568D01*
X0140744Y0127568D01*
X0140286Y0127446D01*
X0139876Y0127209D01*
X0139541Y0126874D01*
X0139523Y0126844D01*
X0139199Y0127168D01*
X0133708Y0127168D01*
X0133545Y0127005D01*
X0126586Y0127005D01*
X0126586Y0130109D01*
X0128073Y0130109D01*
X0129591Y0131627D01*
X0129591Y0133773D01*
X0128073Y0135291D01*
X0126586Y0135291D01*
X0126586Y0138955D01*
X0126378Y0139162D01*
X0126586Y0139370D01*
X0126586Y0143285D01*
X0126378Y0143493D01*
X0126586Y0143700D01*
X0126586Y0147616D01*
X0126378Y0147824D01*
X0126586Y0148031D01*
X0126586Y0149351D01*
X0127227Y0148709D01*
X0129373Y0148709D01*
X0130891Y0150227D01*
X0130891Y0152373D01*
X0130300Y0152964D01*
X0130300Y0154128D01*
X0129300Y0155128D01*
X0128128Y0156300D01*
X0126563Y0156300D01*
X0125766Y0157098D01*
X0120078Y0157098D01*
X0119258Y0156278D01*
X0119258Y0152362D01*
X0119466Y0152154D01*
X0119258Y0151947D01*
X0119258Y0148031D01*
X0119466Y0147824D01*
X0119258Y0147616D01*
X0119258Y0143700D01*
X0119466Y0143493D01*
X0119258Y0143285D01*
X0119258Y0139370D01*
X0119466Y0139162D01*
X0119304Y0139000D01*
X0118772Y0139000D01*
X0116100Y0136328D01*
X0116100Y0122458D01*
X0114950Y0122458D01*
X0114950Y0118395D01*
X0114950Y0118395D01*
X0114950Y0122458D01*
X0113335Y0122458D01*
X0112877Y0122336D01*
X0112466Y0122099D01*
X0112426Y0122058D01*
X0108661Y0122058D01*
X0108454Y0121851D01*
X0108288Y0122016D01*
X0108288Y0124140D01*
X0106800Y0125628D01*
X0105628Y0126800D01*
X0096964Y0126800D01*
X0096373Y0127391D01*
X0094227Y0127391D01*
X0092709Y0125873D01*
X0092709Y0123727D01*
X0094227Y0122209D01*
X0096373Y0122209D01*
X0096964Y0122800D01*
X0103972Y0122800D01*
X0104288Y0122483D01*
X0104288Y0122016D01*
X0104123Y0121851D01*
X0103915Y0122058D01*
X0100000Y0122058D01*
X0099792Y0121851D01*
X0099585Y0122058D01*
X0095669Y0122058D01*
X0095461Y0121851D01*
X0095254Y0122058D01*
X0091338Y0122058D01*
X0091131Y0121851D01*
X0090923Y0122058D01*
X0087007Y0122058D01*
X0086187Y0121238D01*
X0086187Y0119741D01*
X0081891Y0124038D01*
X0081891Y0124873D01*
X0080373Y0126391D01*
X0078227Y0126391D01*
X0076709Y0124873D01*
X0076709Y0122727D01*
X0077378Y0122058D01*
X0077165Y0122058D01*
X0076957Y0121851D01*
X0076750Y0122058D01*
X0072834Y0122058D01*
X0072627Y0121851D01*
X0072419Y0122058D01*
X0068504Y0122058D01*
X0068296Y0121851D01*
X0068089Y0122058D01*
X0064722Y0122058D01*
X0065391Y0122727D01*
X0065391Y0124873D01*
X0063873Y0126391D01*
X0061727Y0126391D01*
X0060209Y0124873D01*
X0060209Y0124750D01*
X0058346Y0124750D01*
X0057350Y0123754D01*
X0055769Y0122173D01*
X0055769Y0122058D01*
X0055511Y0122058D01*
X0054691Y0121238D01*
X0054691Y0115551D01*
X0055511Y0114731D01*
X0059200Y0114731D01*
X0059200Y0113283D01*
X0059596Y0112327D01*
X0063046Y0108877D01*
X0063046Y0106314D01*
X0062300Y0105567D01*
X0061502Y0106365D01*
X0056405Y0106365D01*
X0056170Y0106131D01*
X0055909Y0106131D01*
X0055909Y0106467D01*
X0055089Y0107287D01*
X0049992Y0107287D01*
X0049172Y0106467D01*
X0049172Y0100250D01*
X0048828Y0100250D01*
X0048828Y0102946D01*
X0045244Y0102946D01*
X0045244Y0103315D01*
X0044876Y0103315D01*
X0044876Y0107687D01*
X0042854Y0107687D01*
X0042397Y0107564D01*
X0041986Y0107327D01*
X0041750Y0107091D01*
X0041750Y0107504D01*
X0041250Y0108004D01*
X0041250Y0108004D01*
X0040515Y0108739D01*
X0040515Y0110045D01*
X0039695Y0110865D01*
X0034598Y0110865D01*
X0033800Y0110067D01*
X0033454Y0110740D02*
X0034473Y0110740D01*
X0037331Y0111335D02*
X0037331Y0115116D01*
X0040915Y0115116D01*
X0040915Y0112898D01*
X0040792Y0112440D01*
X0040555Y0112029D01*
X0040220Y0111694D01*
X0039810Y0111457D01*
X0039352Y0111335D01*
X0037331Y0111335D01*
X0037331Y0112339D02*
X0036962Y0112339D01*
X0036962Y0113937D02*
X0037331Y0113937D01*
X0040915Y0113937D02*
X0059200Y0113937D01*
X0059591Y0112339D02*
X0040734Y0112339D01*
X0039820Y0110740D02*
X0061183Y0110740D01*
X0062781Y0109142D02*
X0040515Y0109142D01*
X0041711Y0107543D02*
X0042361Y0107543D01*
X0044876Y0107543D02*
X0045244Y0107543D01*
X0045244Y0107687D02*
X0045244Y0103315D01*
X0048828Y0103315D01*
X0048828Y0106124D01*
X0048706Y0106581D01*
X0048469Y0106992D01*
X0048134Y0107327D01*
X0047723Y0107564D01*
X0047265Y0107687D01*
X0045244Y0107687D01*
X0045244Y0105945D02*
X0044876Y0105945D01*
X0044876Y0104346D02*
X0045244Y0104346D01*
X0048828Y0104346D02*
X0049172Y0104346D01*
X0049172Y0102748D02*
X0048828Y0102748D01*
X0048828Y0101149D02*
X0049172Y0101149D01*
X0052168Y0096850D02*
X0052240Y0096850D01*
X0053227Y0095863D01*
X0055373Y0095863D01*
X0055585Y0096075D01*
X0055585Y0092055D01*
X0056405Y0091235D01*
X0061502Y0091235D01*
X0062076Y0091809D01*
X0062238Y0091529D01*
X0062573Y0091194D01*
X0062983Y0090957D01*
X0063441Y0090835D01*
X0065462Y0090835D01*
X0065462Y0094616D01*
X0065831Y0094616D01*
X0065831Y0090835D01*
X0067852Y0090835D01*
X0068310Y0090957D01*
X0068720Y0091194D01*
X0068894Y0091368D01*
X0069224Y0091038D01*
X0069566Y0091038D01*
X0069566Y0090343D01*
X0068892Y0089669D01*
X0068195Y0090365D01*
X0063098Y0090365D01*
X0062300Y0089567D01*
X0061502Y0090365D01*
X0056405Y0090365D01*
X0055585Y0089545D01*
X0055585Y0089400D01*
X0052877Y0089400D01*
X0051656Y0090621D01*
X0052168Y0091133D01*
X0052168Y0096850D01*
X0052168Y0096354D02*
X0052736Y0096354D01*
X0052168Y0094755D02*
X0055585Y0094755D01*
X0055585Y0093157D02*
X0052168Y0093157D01*
X0052168Y0091558D02*
X0056081Y0091558D01*
X0056000Y0089960D02*
X0052317Y0089960D01*
X0048160Y0086763D02*
X0043800Y0086763D01*
X0043800Y0088361D02*
X0046582Y0088361D01*
X0046596Y0088327D02*
X0049596Y0085327D01*
X0049923Y0085000D01*
X0047483Y0085000D01*
X0046527Y0084604D01*
X0045796Y0083873D01*
X0044438Y0082515D01*
X0043800Y0082515D01*
X0043800Y0091959D01*
X0045431Y0091959D01*
X0045431Y0091133D01*
X0046200Y0090365D01*
X0046200Y0089283D01*
X0046596Y0088327D01*
X0046200Y0089960D02*
X0043800Y0089960D01*
X0043800Y0091558D02*
X0045431Y0091558D01*
X0043800Y0085164D02*
X0049759Y0085164D01*
X0045489Y0083566D02*
X0043800Y0083566D01*
X0053300Y0073600D02*
X0054900Y0072000D01*
X0057900Y0072000D01*
X0057964Y0061187D02*
X0055136Y0061187D01*
X0056029Y0059588D02*
X0057172Y0059588D01*
X0057000Y0057990D02*
X0056200Y0057990D01*
X0068800Y0072454D02*
X0073854Y0072454D01*
X0075600Y0074200D01*
X0075600Y0077100D01*
X0077600Y0079100D01*
X0082254Y0079100D01*
X0073800Y0079900D02*
X0073046Y0079146D01*
X0068800Y0079146D01*
X0068600Y0089960D02*
X0069183Y0089960D01*
X0065831Y0091558D02*
X0065462Y0091558D01*
X0065462Y0093157D02*
X0065831Y0093157D01*
X0065831Y0094984D02*
X0065462Y0094984D01*
X0065462Y0098765D01*
X0063441Y0098765D01*
X0062983Y0098643D01*
X0062573Y0098406D01*
X0062238Y0098071D01*
X0062076Y0097791D01*
X0061954Y0097914D01*
X0061954Y0099686D01*
X0062300Y0100033D01*
X0063098Y0099235D01*
X0068195Y0099235D01*
X0068611Y0099651D01*
X0069224Y0099038D01*
X0070334Y0099038D01*
X0070809Y0098562D01*
X0069224Y0098562D01*
X0068894Y0098232D01*
X0068720Y0098406D01*
X0068310Y0098643D01*
X0067852Y0098765D01*
X0065831Y0098765D01*
X0065831Y0094984D01*
X0065831Y0096354D02*
X0065462Y0096354D01*
X0065462Y0097952D02*
X0065831Y0097952D01*
X0068511Y0099551D02*
X0068711Y0099551D01*
X0062782Y0099551D02*
X0061954Y0099551D01*
X0061954Y0097952D02*
X0062169Y0097952D01*
X0062221Y0091558D02*
X0061826Y0091558D01*
X0061907Y0089960D02*
X0062693Y0089960D01*
X0062678Y0105945D02*
X0061922Y0105945D01*
X0063046Y0107543D02*
X0047759Y0107543D01*
X0048828Y0105945D02*
X0049172Y0105945D01*
X0054706Y0115536D02*
X0040915Y0115536D01*
X0040915Y0117134D02*
X0054691Y0117134D01*
X0054691Y0118733D02*
X0040545Y0118733D01*
X0041309Y0120332D02*
X0054691Y0120332D01*
X0054225Y0121930D02*
X0055383Y0121930D01*
X0056683Y0123529D02*
X0057124Y0123529D01*
X0057541Y0125127D02*
X0060463Y0125127D01*
X0058141Y0126726D02*
X0093562Y0126726D01*
X0094176Y0128036D02*
X0094634Y0127913D01*
X0096655Y0127913D01*
X0096655Y0131498D01*
X0093071Y0131498D01*
X0090331Y0131498D01*
X0090331Y0131866D01*
X0096655Y0131866D01*
X0096655Y0131498D01*
X0097024Y0131498D01*
X0097024Y0131866D01*
X0100608Y0131866D01*
X0100608Y0133887D01*
X0100485Y0134345D01*
X0100248Y0134756D01*
X0099913Y0135091D01*
X0099634Y0135252D01*
X0100208Y0135826D01*
X0100208Y0140923D01*
X0099388Y0141743D01*
X0094291Y0141743D01*
X0093717Y0141169D01*
X0093555Y0141449D01*
X0093220Y0141784D01*
X0092810Y0142021D01*
X0092352Y0142143D01*
X0090331Y0142143D01*
X0090331Y0138559D01*
X0089962Y0138559D01*
X0089962Y0138191D01*
X0086378Y0138191D01*
X0083638Y0138191D01*
X0083638Y0138559D01*
X0089962Y0138559D01*
X0089962Y0142143D01*
X0087941Y0142143D01*
X0087483Y0142021D01*
X0087073Y0141784D01*
X0086800Y0141511D01*
X0086527Y0141784D01*
X0086117Y0142021D01*
X0085659Y0142143D01*
X0083638Y0142143D01*
X0083638Y0138559D01*
X0083269Y0138559D01*
X0083269Y0138191D01*
X0079685Y0138191D01*
X0076945Y0138191D01*
X0076945Y0138559D01*
X0083269Y0138559D01*
X0083269Y0142143D01*
X0081248Y0142143D01*
X0080790Y0142021D01*
X0080380Y0141784D01*
X0080107Y0141511D01*
X0079834Y0141784D01*
X0079424Y0142021D01*
X0078966Y0142143D01*
X0076945Y0142143D01*
X0076945Y0138559D01*
X0076576Y0138559D01*
X0076576Y0138191D01*
X0072992Y0138191D01*
X0072992Y0136169D01*
X0073115Y0135712D01*
X0073352Y0135301D01*
X0073624Y0135028D01*
X0073352Y0134756D01*
X0073115Y0134345D01*
X0072992Y0133887D01*
X0072992Y0131866D01*
X0076576Y0131866D01*
X0076576Y0131498D01*
X0072992Y0131498D01*
X0072992Y0129476D01*
X0073115Y0129019D01*
X0073352Y0128608D01*
X0073687Y0128273D01*
X0074097Y0128036D01*
X0074555Y0127913D01*
X0076576Y0127913D01*
X0076576Y0131498D01*
X0076945Y0131498D01*
X0076945Y0131866D01*
X0083269Y0131866D01*
X0083269Y0131498D01*
X0079685Y0131498D01*
X0076945Y0131498D01*
X0076945Y0127913D01*
X0078966Y0127913D01*
X0079424Y0128036D01*
X0079834Y0128273D01*
X0080107Y0128546D01*
X0080380Y0128273D01*
X0080790Y0128036D01*
X0081248Y0127913D01*
X0083269Y0127913D01*
X0083269Y0131498D01*
X0083638Y0131498D01*
X0083638Y0131866D01*
X0089962Y0131866D01*
X0089962Y0131498D01*
X0086378Y0131498D01*
X0083638Y0131498D01*
X0083638Y0127913D01*
X0085659Y0127913D01*
X0086117Y0128036D01*
X0086527Y0128273D01*
X0086800Y0128546D01*
X0087073Y0128273D01*
X0087483Y0128036D01*
X0087941Y0127913D01*
X0089962Y0127913D01*
X0089962Y0131498D01*
X0090331Y0131498D01*
X0090331Y0127913D01*
X0092352Y0127913D01*
X0092810Y0128036D01*
X0093220Y0128273D01*
X0093493Y0128546D01*
X0093766Y0128273D01*
X0094176Y0128036D01*
X0093715Y0128324D02*
X0093271Y0128324D01*
X0090331Y0128324D02*
X0089962Y0128324D01*
X0089962Y0129923D02*
X0090331Y0129923D01*
X0090331Y0131521D02*
X0096655Y0131521D01*
X0097024Y0131521D02*
X0116100Y0131521D01*
X0116100Y0129923D02*
X0100608Y0129923D01*
X0100608Y0129476D02*
X0100608Y0131498D01*
X0097024Y0131498D01*
X0097024Y0127913D01*
X0099045Y0127913D01*
X0099503Y0128036D01*
X0099913Y0128273D01*
X0100248Y0128608D01*
X0100485Y0129019D01*
X0100608Y0129476D01*
X0099964Y0128324D02*
X0116100Y0128324D01*
X0116100Y0126726D02*
X0105703Y0126726D01*
X0107301Y0125127D02*
X0116100Y0125127D01*
X0116100Y0123529D02*
X0108288Y0123529D01*
X0108374Y0121930D02*
X0108533Y0121930D01*
X0104202Y0121930D02*
X0104044Y0121930D01*
X0099871Y0121930D02*
X0099713Y0121930D01*
X0097024Y0128324D02*
X0096655Y0128324D01*
X0096655Y0129923D02*
X0097024Y0129923D01*
X0100608Y0133120D02*
X0116100Y0133120D01*
X0116100Y0134718D02*
X0100270Y0134718D01*
X0100208Y0136317D02*
X0116100Y0136317D01*
X0117687Y0137915D02*
X0100208Y0137915D01*
X0100208Y0139514D02*
X0119258Y0139514D01*
X0119258Y0141112D02*
X0117376Y0141112D01*
X0118239Y0142711D02*
X0119258Y0142711D01*
X0119258Y0144309D02*
X0118800Y0144309D01*
X0118800Y0145908D02*
X0119258Y0145908D01*
X0119258Y0147506D02*
X0118800Y0147506D01*
X0118800Y0149105D02*
X0119258Y0149105D01*
X0119258Y0150703D02*
X0118800Y0150703D01*
X0118800Y0152302D02*
X0119318Y0152302D01*
X0119258Y0153900D02*
X0118800Y0153900D01*
X0118800Y0155499D02*
X0119258Y0155499D01*
X0118800Y0157097D02*
X0120078Y0157097D01*
X0119617Y0158696D02*
X0117591Y0158696D01*
X0116669Y0160294D02*
X0119258Y0160294D01*
X0119258Y0161893D02*
X0116391Y0161893D01*
X0115872Y0163491D02*
X0119258Y0163491D01*
X0119258Y0165090D02*
X0115800Y0165090D01*
X0115800Y0166688D02*
X0119258Y0166688D01*
X0119258Y0168287D02*
X0115800Y0168287D01*
X0115800Y0169885D02*
X0119258Y0169885D01*
X0119258Y0171484D02*
X0118347Y0171484D01*
X0116053Y0171484D02*
X0115800Y0171484D01*
X0117200Y0174000D02*
X0122917Y0174000D01*
X0122922Y0174005D01*
X0126488Y0176279D02*
X0145000Y0176279D01*
X0145000Y0174681D02*
X0126586Y0174681D01*
X0126586Y0173082D02*
X0145000Y0173082D01*
X0145000Y0171484D02*
X0126586Y0171484D01*
X0126586Y0169885D02*
X0145000Y0169885D01*
X0145000Y0168287D02*
X0126586Y0168287D01*
X0126586Y0166688D02*
X0145000Y0166688D01*
X0145000Y0165090D02*
X0126586Y0165090D01*
X0126586Y0163491D02*
X0145000Y0163491D01*
X0145000Y0161893D02*
X0126586Y0161893D01*
X0126586Y0160294D02*
X0145000Y0160294D01*
X0145000Y0158696D02*
X0126227Y0158696D01*
X0125766Y0157097D02*
X0145000Y0157097D01*
X0145000Y0155499D02*
X0128930Y0155499D01*
X0130300Y0153900D02*
X0145000Y0153900D01*
X0145000Y0152302D02*
X0130891Y0152302D01*
X0130891Y0150703D02*
X0145000Y0150703D01*
X0145000Y0149105D02*
X0129768Y0149105D01*
X0126832Y0149105D02*
X0126586Y0149105D01*
X0126586Y0147506D02*
X0145000Y0147506D01*
X0145000Y0145908D02*
X0126586Y0145908D01*
X0126586Y0144309D02*
X0145000Y0144309D01*
X0145000Y0142711D02*
X0126586Y0142711D01*
X0126586Y0141112D02*
X0145000Y0141112D01*
X0145000Y0139514D02*
X0126586Y0139514D01*
X0126586Y0137915D02*
X0145000Y0137915D01*
X0145000Y0136317D02*
X0126586Y0136317D01*
X0128645Y0134718D02*
X0145000Y0134718D01*
X0145000Y0133120D02*
X0129591Y0133120D01*
X0129485Y0131521D02*
X0145000Y0131521D01*
X0145000Y0129923D02*
X0126586Y0129923D01*
X0126586Y0128324D02*
X0145000Y0128324D01*
X0143331Y0126726D02*
X0142962Y0126726D01*
X0142962Y0125127D02*
X0143331Y0125127D01*
X0143331Y0123616D02*
X0143331Y0120031D01*
X0145000Y0120031D01*
X0145000Y0119068D01*
X0143331Y0119068D01*
X0143331Y0115484D01*
X0142962Y0115484D01*
X0142962Y0119068D01*
X0140744Y0119068D01*
X0140286Y0118946D01*
X0139876Y0118709D01*
X0139541Y0118374D01*
X0139523Y0118344D01*
X0139454Y0118414D01*
X0139454Y0120686D01*
X0139523Y0120756D01*
X0139541Y0120726D01*
X0139876Y0120391D01*
X0140286Y0120154D01*
X0140744Y0120031D01*
X0142962Y0120031D01*
X0142962Y0123616D01*
X0143331Y0123616D01*
X0143331Y0123529D02*
X0142962Y0123529D01*
X0142962Y0121930D02*
X0143331Y0121930D01*
X0143331Y0120332D02*
X0142962Y0120332D01*
X0142962Y0118733D02*
X0143331Y0118733D01*
X0143331Y0117134D02*
X0142962Y0117134D01*
X0142962Y0115536D02*
X0143331Y0115536D01*
X0143331Y0115116D02*
X0143331Y0111531D01*
X0145000Y0111531D01*
X0145000Y0110568D01*
X0143331Y0110568D01*
X0143331Y0106984D01*
X0142962Y0106984D01*
X0142962Y0110568D01*
X0140744Y0110568D01*
X0140286Y0110446D01*
X0139876Y0110209D01*
X0139541Y0109874D01*
X0139523Y0109844D01*
X0139454Y0109914D01*
X0139454Y0112186D01*
X0139523Y0112256D01*
X0139541Y0112226D01*
X0139876Y0111891D01*
X0140286Y0111654D01*
X0140744Y0111531D01*
X0142962Y0111531D01*
X0142962Y0115116D01*
X0143331Y0115116D01*
X0143331Y0113937D02*
X0142962Y0113937D01*
X0142962Y0112339D02*
X0143331Y0112339D01*
X0145000Y0110740D02*
X0139454Y0110740D01*
X0142962Y0109142D02*
X0143331Y0109142D01*
X0143331Y0107543D02*
X0142962Y0107543D01*
X0142962Y0106616D02*
X0143331Y0106616D01*
X0143331Y0103031D01*
X0145000Y0103031D01*
X0145000Y0049850D01*
X0125548Y0049850D01*
X0126200Y0051425D01*
X0126200Y0058837D01*
X0128775Y0058837D01*
X0128775Y0066751D01*
X0130325Y0066751D01*
X0130325Y0058837D01*
X0132937Y0058837D01*
X0133394Y0058959D01*
X0133805Y0059196D01*
X0134140Y0059531D01*
X0134377Y0059942D01*
X0134500Y0060400D01*
X0134500Y0066752D01*
X0130325Y0066752D01*
X0130325Y0068301D01*
X0134500Y0068301D01*
X0134500Y0074653D01*
X0134377Y0075111D01*
X0134140Y0075521D01*
X0133805Y0075856D01*
X0133394Y0076093D01*
X0132937Y0076216D01*
X0130325Y0076216D01*
X0130325Y0068301D01*
X0128775Y0068301D01*
X0128775Y0066752D01*
X0124600Y0066752D01*
X0124600Y0061722D01*
X0124292Y0062030D01*
X0122675Y0062700D01*
X0120925Y0062700D01*
X0119308Y0062030D01*
X0118070Y0060792D01*
X0117400Y0059175D01*
X0117400Y0051425D01*
X0118052Y0049850D01*
X0115548Y0049850D01*
X0116200Y0051425D01*
X0116200Y0059175D01*
X0115530Y0060792D01*
X0114292Y0062030D01*
X0112675Y0062700D01*
X0110925Y0062700D01*
X0109308Y0062030D01*
X0108070Y0060792D01*
X0107400Y0059175D01*
X0107400Y0051425D01*
X0108052Y0049850D01*
X0105548Y0049850D01*
X0106200Y0051425D01*
X0106200Y0059175D01*
X0105530Y0060792D01*
X0104292Y0062030D01*
X0103500Y0062358D01*
X0103500Y0065204D01*
X0102504Y0066200D01*
X0102004Y0066700D01*
X0111528Y0066700D01*
X0121428Y0076600D01*
X0122600Y0077772D01*
X0122600Y0081428D01*
X0122000Y0082028D01*
X0122000Y0117936D01*
X0123491Y0119427D01*
X0123491Y0121005D01*
X0133135Y0121005D01*
X0133454Y0120686D01*
X0133454Y0120226D01*
X0133400Y0120097D01*
X0133400Y0118360D01*
X0132888Y0117848D01*
X0132888Y0112752D01*
X0133454Y0112186D01*
X0133454Y0111626D01*
X0133400Y0111497D01*
X0133400Y0109860D01*
X0132888Y0109348D01*
X0132888Y0104252D01*
X0133454Y0103686D01*
X0133454Y0101150D01*
X0133910Y0100047D01*
X0134291Y0099667D01*
X0133264Y0099222D01*
X0131948Y0097863D01*
X0125820Y0097863D01*
X0125000Y0097043D01*
X0125000Y0082104D01*
X0125820Y0081284D01*
X0133280Y0081284D01*
X0134100Y0082104D01*
X0134100Y0088011D01*
X0139298Y0093378D01*
X0139913Y0094932D01*
X0139886Y0096603D01*
X0139222Y0098136D01*
X0138484Y0098850D01*
X0138499Y0098857D01*
X0139343Y0099701D01*
X0139800Y0100803D01*
X0139800Y0101997D01*
X0139454Y0102833D01*
X0139454Y0103686D01*
X0139523Y0103756D01*
X0139541Y0103726D01*
X0139876Y0103391D01*
X0140286Y0103154D01*
X0140744Y0103031D01*
X0142962Y0103031D01*
X0142962Y0106616D01*
X0142962Y0105945D02*
X0143331Y0105945D01*
X0143331Y0104346D02*
X0142962Y0104346D01*
X0145000Y0102748D02*
X0139489Y0102748D01*
X0139800Y0101149D02*
X0145000Y0101149D01*
X0145000Y0099551D02*
X0139194Y0099551D01*
X0139301Y0097952D02*
X0145000Y0097952D01*
X0145000Y0096354D02*
X0139890Y0096354D01*
X0139843Y0094755D02*
X0145000Y0094755D01*
X0145000Y0093157D02*
X0139084Y0093157D01*
X0137536Y0091558D02*
X0145000Y0091558D01*
X0145000Y0089960D02*
X0135987Y0089960D01*
X0134439Y0088361D02*
X0145000Y0088361D01*
X0145000Y0086763D02*
X0134100Y0086763D01*
X0134100Y0085164D02*
X0145000Y0085164D01*
X0145000Y0083566D02*
X0134100Y0083566D01*
X0133963Y0081967D02*
X0145000Y0081967D01*
X0145000Y0080369D02*
X0122600Y0080369D01*
X0122600Y0078770D02*
X0145000Y0078770D01*
X0145000Y0077172D02*
X0122000Y0077172D01*
X0120402Y0075573D02*
X0125012Y0075573D01*
X0124960Y0075521D02*
X0124723Y0075111D01*
X0124600Y0074653D01*
X0124600Y0068301D01*
X0128775Y0068301D01*
X0128775Y0076216D01*
X0126163Y0076216D01*
X0125706Y0076093D01*
X0125295Y0075856D01*
X0124960Y0075521D01*
X0124600Y0073975D02*
X0118803Y0073975D01*
X0117205Y0072376D02*
X0124600Y0072376D01*
X0124600Y0070778D02*
X0115606Y0070778D01*
X0114008Y0069179D02*
X0124600Y0069179D01*
X0124600Y0065982D02*
X0102722Y0065982D01*
X0103500Y0064384D02*
X0124600Y0064384D01*
X0124600Y0062785D02*
X0103500Y0062785D01*
X0105136Y0061187D02*
X0108464Y0061187D01*
X0107571Y0059588D02*
X0106029Y0059588D01*
X0106200Y0057990D02*
X0107400Y0057990D01*
X0107400Y0056391D02*
X0106200Y0056391D01*
X0106200Y0054793D02*
X0107400Y0054793D01*
X0107400Y0053194D02*
X0106200Y0053194D01*
X0106200Y0051596D02*
X0107400Y0051596D01*
X0107991Y0049997D02*
X0105609Y0049997D01*
X0115609Y0049997D02*
X0117991Y0049997D01*
X0117400Y0051596D02*
X0116200Y0051596D01*
X0116200Y0053194D02*
X0117400Y0053194D01*
X0117400Y0054793D02*
X0116200Y0054793D01*
X0116200Y0056391D02*
X0117400Y0056391D01*
X0117400Y0057990D02*
X0116200Y0057990D01*
X0116029Y0059588D02*
X0117571Y0059588D01*
X0118464Y0061187D02*
X0115136Y0061187D01*
X0112409Y0067581D02*
X0128775Y0067581D01*
X0130325Y0067581D02*
X0145000Y0067581D01*
X0145000Y0069179D02*
X0134500Y0069179D01*
X0134500Y0070778D02*
X0145000Y0070778D01*
X0145000Y0072376D02*
X0134500Y0072376D01*
X0134500Y0073975D02*
X0145000Y0073975D01*
X0145000Y0075573D02*
X0134088Y0075573D01*
X0130325Y0075573D02*
X0128775Y0075573D01*
X0128775Y0073975D02*
X0130325Y0073975D01*
X0130325Y0072376D02*
X0128775Y0072376D01*
X0128775Y0070778D02*
X0130325Y0070778D01*
X0130325Y0069179D02*
X0128775Y0069179D01*
X0128775Y0065982D02*
X0130325Y0065982D01*
X0130325Y0064384D02*
X0128775Y0064384D01*
X0128775Y0062785D02*
X0130325Y0062785D01*
X0130325Y0061187D02*
X0128775Y0061187D01*
X0128775Y0059588D02*
X0130325Y0059588D01*
X0134173Y0059588D02*
X0145000Y0059588D01*
X0145000Y0057990D02*
X0126200Y0057990D01*
X0126200Y0056391D02*
X0145000Y0056391D01*
X0145000Y0054793D02*
X0126200Y0054793D01*
X0126200Y0053194D02*
X0145000Y0053194D01*
X0145000Y0051596D02*
X0126200Y0051596D01*
X0125609Y0049997D02*
X0145000Y0049997D01*
X0145000Y0061187D02*
X0134500Y0061187D01*
X0134500Y0062785D02*
X0145000Y0062785D01*
X0145000Y0064384D02*
X0134500Y0064384D01*
X0134500Y0065982D02*
X0145000Y0065982D01*
X0125137Y0081967D02*
X0122061Y0081967D01*
X0122000Y0083566D02*
X0125000Y0083566D01*
X0125000Y0085164D02*
X0122000Y0085164D01*
X0122000Y0086763D02*
X0125000Y0086763D01*
X0125000Y0088361D02*
X0122000Y0088361D01*
X0122000Y0089960D02*
X0125000Y0089960D01*
X0125000Y0091558D02*
X0122000Y0091558D01*
X0122000Y0093157D02*
X0125000Y0093157D01*
X0125000Y0094755D02*
X0122000Y0094755D01*
X0122000Y0096354D02*
X0125000Y0096354D01*
X0122000Y0097952D02*
X0132035Y0097952D01*
X0134023Y0099551D02*
X0122000Y0099551D01*
X0122000Y0101149D02*
X0133454Y0101149D01*
X0133454Y0102748D02*
X0122000Y0102748D01*
X0122000Y0104346D02*
X0132888Y0104346D01*
X0132888Y0105945D02*
X0122000Y0105945D01*
X0122000Y0107543D02*
X0132888Y0107543D01*
X0132888Y0109142D02*
X0122000Y0109142D01*
X0122000Y0110740D02*
X0133400Y0110740D01*
X0133301Y0112339D02*
X0122000Y0112339D01*
X0122000Y0113937D02*
X0132888Y0113937D01*
X0132888Y0115536D02*
X0122000Y0115536D01*
X0122000Y0117134D02*
X0132888Y0117134D01*
X0133400Y0118733D02*
X0122797Y0118733D01*
X0123491Y0120332D02*
X0133454Y0120332D01*
X0139454Y0120332D02*
X0139979Y0120332D01*
X0139918Y0118733D02*
X0139454Y0118733D01*
X0116100Y0114331D02*
X0116100Y0095677D01*
X0115773Y0096004D01*
X0115750Y0096014D01*
X0115373Y0096391D01*
X0114840Y0096391D01*
X0114817Y0096400D01*
X0113783Y0096400D01*
X0113760Y0096391D01*
X0113227Y0096391D01*
X0112850Y0096014D01*
X0112827Y0096004D01*
X0112096Y0095273D01*
X0112086Y0095250D01*
X0111709Y0094873D01*
X0111709Y0094785D01*
X0108224Y0094785D01*
X0108224Y0090413D01*
X0110246Y0090413D01*
X0110703Y0090536D01*
X0111114Y0090773D01*
X0111449Y0091108D01*
X0111686Y0091519D01*
X0111700Y0091571D01*
X0111700Y0079083D01*
X0111709Y0079060D01*
X0111709Y0078527D01*
X0112086Y0078150D01*
X0112096Y0078127D01*
X0112827Y0077396D01*
X0112850Y0077386D01*
X0113227Y0077009D01*
X0113760Y0077009D01*
X0113783Y0077000D01*
X0114817Y0077000D01*
X0114840Y0077009D01*
X0115373Y0077009D01*
X0115750Y0077386D01*
X0115773Y0077396D01*
X0116207Y0077830D01*
X0116604Y0077432D01*
X0114118Y0074946D01*
X0112773Y0076291D01*
X0110627Y0076291D01*
X0109602Y0075265D01*
X0109567Y0075300D01*
X0110365Y0076098D01*
X0110365Y0081195D01*
X0109545Y0082015D01*
X0109400Y0082015D01*
X0109400Y0087317D01*
X0109391Y0087340D01*
X0109391Y0087873D01*
X0109014Y0088250D01*
X0109004Y0088273D01*
X0108273Y0089004D01*
X0108250Y0089014D01*
X0107873Y0089391D01*
X0107340Y0089391D01*
X0107317Y0089400D01*
X0106283Y0089400D01*
X0106260Y0089391D01*
X0105727Y0089391D01*
X0105350Y0089014D01*
X0105327Y0089004D01*
X0104596Y0088273D01*
X0104586Y0088250D01*
X0104209Y0087873D01*
X0104209Y0087340D01*
X0104200Y0087317D01*
X0104200Y0082015D01*
X0104055Y0082015D01*
X0103235Y0081195D01*
X0103235Y0076098D01*
X0104033Y0075300D01*
X0103333Y0074600D01*
X0102787Y0074600D01*
X0102787Y0078348D01*
X0101967Y0079168D01*
X0099232Y0079168D01*
X0099591Y0079527D01*
X0099591Y0080060D01*
X0099600Y0080083D01*
X0099600Y0081117D01*
X0099591Y0081140D01*
X0099591Y0081673D01*
X0099214Y0082050D01*
X0099204Y0082073D01*
X0098473Y0082804D01*
X0098450Y0082814D01*
X0098073Y0083191D01*
X0097540Y0083191D01*
X0097517Y0083200D01*
X0096226Y0083200D01*
X0096555Y0083529D01*
X0096792Y0083940D01*
X0096915Y0084398D01*
X0096915Y0086616D01*
X0093331Y0086616D01*
X0093331Y0086984D01*
X0096915Y0086984D01*
X0096915Y0089202D01*
X0096792Y0089660D01*
X0096555Y0090071D01*
X0096220Y0090406D01*
X0095810Y0090643D01*
X0095352Y0090765D01*
X0093331Y0090765D01*
X0093331Y0086984D01*
X0092962Y0086984D01*
X0092962Y0090765D01*
X0090941Y0090765D01*
X0090483Y0090643D01*
X0090073Y0090406D01*
X0089738Y0090071D01*
X0089576Y0089791D01*
X0089054Y0090314D01*
X0089054Y0091286D01*
X0089800Y0092033D01*
X0090598Y0091235D01*
X0095695Y0091235D01*
X0096515Y0092055D01*
X0096515Y0097087D01*
X0097191Y0097763D01*
X0097191Y0091633D01*
X0098011Y0090813D01*
X0103108Y0090813D01*
X0103928Y0091633D01*
X0103928Y0098305D01*
X0103108Y0099125D01*
X0102500Y0099125D01*
X0102500Y0099475D01*
X0105647Y0099475D01*
X0105377Y0099403D01*
X0104966Y0099166D01*
X0104631Y0098830D01*
X0104394Y0098420D01*
X0104272Y0097962D01*
X0104272Y0095154D01*
X0107856Y0095154D01*
X0107856Y0099525D01*
X0106899Y0099525D01*
X0107668Y0100295D01*
X0107668Y0106967D01*
X0106848Y0107787D01*
X0105842Y0107787D01*
X0105319Y0108309D01*
X0105760Y0108309D01*
X0105783Y0108300D01*
X0106817Y0108300D01*
X0106840Y0108309D01*
X0107373Y0108309D01*
X0107750Y0108686D01*
X0107773Y0108696D01*
X0108504Y0109427D01*
X0108514Y0109450D01*
X0108750Y0109686D01*
X0109227Y0109209D01*
X0111373Y0109209D01*
X0112891Y0110727D01*
X0112891Y0112873D01*
X0112619Y0113145D01*
X0112619Y0114602D01*
X0112877Y0114453D01*
X0113335Y0114331D01*
X0114950Y0114331D01*
X0116100Y0114331D01*
X0116100Y0113937D02*
X0112619Y0113937D01*
X0112891Y0112339D02*
X0116100Y0112339D01*
X0116100Y0110740D02*
X0112891Y0110740D01*
X0116100Y0109142D02*
X0108219Y0109142D01*
X0107092Y0107543D02*
X0116100Y0107543D01*
X0116100Y0105945D02*
X0107668Y0105945D01*
X0107668Y0104346D02*
X0116100Y0104346D01*
X0116100Y0102748D02*
X0107668Y0102748D01*
X0107668Y0101149D02*
X0116100Y0101149D01*
X0116100Y0099551D02*
X0106924Y0099551D01*
X0108224Y0099525D02*
X0108224Y0095154D01*
X0107856Y0095154D01*
X0107856Y0094785D01*
X0108224Y0094785D01*
X0108224Y0095154D01*
X0111809Y0095154D01*
X0111809Y0097962D01*
X0111686Y0098420D01*
X0111449Y0098830D01*
X0111114Y0099166D01*
X0110703Y0099403D01*
X0110246Y0099525D01*
X0108224Y0099525D01*
X0108224Y0097952D02*
X0107856Y0097952D01*
X0107856Y0096354D02*
X0108224Y0096354D01*
X0108224Y0094755D02*
X0107856Y0094755D01*
X0107856Y0094785D02*
X0107856Y0090413D01*
X0105835Y0090413D01*
X0105377Y0090536D01*
X0104966Y0090773D01*
X0104631Y0091108D01*
X0104394Y0091519D01*
X0104272Y0091976D01*
X0104272Y0094785D01*
X0107856Y0094785D01*
X0107856Y0093157D02*
X0108224Y0093157D01*
X0108224Y0091558D02*
X0107856Y0091558D01*
X0108916Y0088361D02*
X0111700Y0088361D01*
X0111700Y0086763D02*
X0109400Y0086763D01*
X0109400Y0085164D02*
X0111700Y0085164D01*
X0111700Y0083566D02*
X0109400Y0083566D01*
X0109593Y0081967D02*
X0111700Y0081967D01*
X0111700Y0080369D02*
X0110365Y0080369D01*
X0110365Y0078770D02*
X0111709Y0078770D01*
X0110365Y0077172D02*
X0113065Y0077172D01*
X0113490Y0075573D02*
X0114745Y0075573D01*
X0115535Y0077172D02*
X0116343Y0077172D01*
X0111700Y0073700D02*
X0109900Y0071900D01*
X0106854Y0071900D01*
X0106800Y0071954D01*
X0109841Y0075573D02*
X0109910Y0075573D01*
X0103759Y0075573D02*
X0102787Y0075573D01*
X0102787Y0077172D02*
X0103235Y0077172D01*
X0103235Y0078770D02*
X0102365Y0078770D01*
X0103235Y0080369D02*
X0099600Y0080369D01*
X0099296Y0081967D02*
X0104007Y0081967D01*
X0104200Y0083566D02*
X0096576Y0083566D01*
X0096915Y0085164D02*
X0104200Y0085164D01*
X0104200Y0086763D02*
X0093331Y0086763D01*
X0093331Y0088361D02*
X0092962Y0088361D01*
X0092962Y0089960D02*
X0093331Y0089960D01*
X0096019Y0091558D02*
X0097266Y0091558D01*
X0097191Y0093157D02*
X0096515Y0093157D01*
X0096515Y0094755D02*
X0097191Y0094755D01*
X0097191Y0096354D02*
X0096515Y0096354D01*
X0093146Y0095446D02*
X0093146Y0094800D01*
X0090274Y0091558D02*
X0089326Y0091558D01*
X0089407Y0089960D02*
X0089674Y0089960D01*
X0096619Y0089960D02*
X0111700Y0089960D01*
X0111697Y0091558D02*
X0111700Y0091558D01*
X0111809Y0096354D02*
X0113190Y0096354D01*
X0111809Y0097952D02*
X0116100Y0097952D01*
X0116100Y0096354D02*
X0115410Y0096354D01*
X0104272Y0096354D02*
X0103928Y0096354D01*
X0103928Y0097952D02*
X0104272Y0097952D01*
X0104272Y0094755D02*
X0103928Y0094755D01*
X0103928Y0093157D02*
X0104272Y0093157D01*
X0104384Y0091558D02*
X0103853Y0091558D01*
X0104684Y0088361D02*
X0096915Y0088361D01*
X0103469Y0102800D02*
X0104300Y0103631D01*
X0114950Y0114331D02*
X0114950Y0118394D01*
X0114950Y0114331D01*
X0114950Y0115536D02*
X0114950Y0115536D01*
X0114950Y0117134D02*
X0114950Y0117134D01*
X0114950Y0118394D02*
X0114950Y0118394D01*
X0114950Y0118733D02*
X0114950Y0118733D01*
X0114950Y0120332D02*
X0114950Y0120332D01*
X0114950Y0121930D02*
X0114950Y0121930D01*
X0112624Y0141112D02*
X0100019Y0141112D01*
X0100164Y0142711D02*
X0073436Y0142711D01*
X0073436Y0142519D02*
X0073436Y0147616D01*
X0072638Y0148414D01*
X0073436Y0149212D01*
X0073436Y0154309D01*
X0072638Y0155107D01*
X0073436Y0155905D01*
X0073436Y0161002D01*
X0072638Y0161800D01*
X0073436Y0162598D01*
X0073436Y0167695D01*
X0072638Y0168493D01*
X0073436Y0169291D01*
X0073436Y0174388D01*
X0072638Y0175186D01*
X0073436Y0175984D01*
X0073436Y0181081D01*
X0072616Y0181901D01*
X0067519Y0181901D01*
X0066721Y0181103D01*
X0065923Y0181901D01*
X0060826Y0181901D01*
X0060006Y0181081D01*
X0060006Y0175984D01*
X0060804Y0175186D01*
X0060006Y0174388D01*
X0060006Y0169291D01*
X0060804Y0168493D01*
X0060006Y0167695D01*
X0060006Y0162598D01*
X0060804Y0161800D01*
X0060006Y0161002D01*
X0060006Y0155905D01*
X0060581Y0155331D01*
X0060301Y0155169D01*
X0059966Y0154834D01*
X0059729Y0154424D01*
X0059606Y0153966D01*
X0059606Y0151945D01*
X0063190Y0151945D01*
X0063190Y0151576D01*
X0059606Y0151576D01*
X0059606Y0149555D01*
X0059729Y0149097D01*
X0059966Y0148687D01*
X0060239Y0148414D01*
X0059966Y0148141D01*
X0059729Y0147731D01*
X0059606Y0147273D01*
X0059606Y0145252D01*
X0063190Y0145252D01*
X0063190Y0144883D01*
X0059606Y0144883D01*
X0059606Y0142862D01*
X0059729Y0142404D01*
X0059966Y0141994D01*
X0060301Y0141659D01*
X0060712Y0141422D01*
X0061169Y0141299D01*
X0063191Y0141299D01*
X0063191Y0144883D01*
X0063559Y0144883D01*
X0063559Y0141299D01*
X0065580Y0141299D01*
X0066038Y0141422D01*
X0066449Y0141659D01*
X0066784Y0141994D01*
X0066945Y0142273D01*
X0067519Y0141699D01*
X0072616Y0141699D01*
X0073436Y0142519D01*
X0073687Y0141784D02*
X0073352Y0141449D01*
X0073115Y0141038D01*
X0072992Y0140580D01*
X0072992Y0138559D01*
X0076576Y0138559D01*
X0076576Y0142143D01*
X0074555Y0142143D01*
X0074097Y0142021D01*
X0073687Y0141784D01*
X0073158Y0141112D02*
X0054342Y0141112D01*
X0054342Y0139514D02*
X0072992Y0139514D01*
X0072992Y0137915D02*
X0054342Y0137915D01*
X0054342Y0136317D02*
X0072992Y0136317D01*
X0073330Y0134718D02*
X0054248Y0134718D01*
X0054342Y0133120D02*
X0072992Y0133120D01*
X0072992Y0129923D02*
X0054342Y0129923D01*
X0054342Y0131521D02*
X0076576Y0131521D01*
X0076576Y0131866D02*
X0076576Y0138190D01*
X0076945Y0138190D01*
X0076945Y0134606D01*
X0076945Y0131866D01*
X0076576Y0131866D01*
X0076945Y0131521D02*
X0083269Y0131521D01*
X0083269Y0131866D02*
X0083269Y0138190D01*
X0083638Y0138190D01*
X0083638Y0134606D01*
X0083638Y0131866D01*
X0083269Y0131866D01*
X0083638Y0131521D02*
X0089962Y0131521D01*
X0089962Y0131866D02*
X0089962Y0138190D01*
X0090331Y0138190D01*
X0090331Y0135450D01*
X0090331Y0131866D01*
X0089962Y0131866D01*
X0089962Y0133120D02*
X0090331Y0133120D01*
X0090331Y0134718D02*
X0089962Y0134718D01*
X0089962Y0136317D02*
X0090331Y0136317D01*
X0090331Y0137915D02*
X0089962Y0137915D01*
X0089962Y0139514D02*
X0090331Y0139514D01*
X0090331Y0141112D02*
X0089962Y0141112D01*
X0083638Y0141112D02*
X0083269Y0141112D01*
X0083269Y0139514D02*
X0083638Y0139514D01*
X0083638Y0137915D02*
X0083269Y0137915D01*
X0083269Y0136317D02*
X0083638Y0136317D01*
X0083638Y0134718D02*
X0083269Y0134718D01*
X0083269Y0133120D02*
X0083638Y0133120D01*
X0083638Y0129923D02*
X0083269Y0129923D01*
X0083269Y0128324D02*
X0083638Y0128324D01*
X0086578Y0128324D02*
X0087022Y0128324D01*
X0086879Y0121930D02*
X0083998Y0121930D01*
X0082400Y0123529D02*
X0092908Y0123529D01*
X0092709Y0125127D02*
X0081637Y0125127D01*
X0080329Y0128324D02*
X0079885Y0128324D01*
X0076945Y0128324D02*
X0076576Y0128324D01*
X0076576Y0129923D02*
X0076945Y0129923D01*
X0076945Y0133120D02*
X0076576Y0133120D01*
X0076576Y0134718D02*
X0076945Y0134718D01*
X0076945Y0136317D02*
X0076576Y0136317D01*
X0076576Y0137915D02*
X0076945Y0137915D01*
X0076945Y0139514D02*
X0076576Y0139514D01*
X0076576Y0141112D02*
X0076945Y0141112D01*
X0073436Y0144309D02*
X0100164Y0144309D01*
X0100164Y0145908D02*
X0073436Y0145908D01*
X0073436Y0147506D02*
X0100164Y0147506D01*
X0100271Y0149105D02*
X0073329Y0149105D01*
X0073436Y0150703D02*
X0100164Y0150703D01*
X0100164Y0152302D02*
X0073436Y0152302D01*
X0073436Y0153900D02*
X0100164Y0153900D01*
X0100570Y0155499D02*
X0073030Y0155499D01*
X0073436Y0157097D02*
X0100164Y0157097D01*
X0100164Y0158696D02*
X0073436Y0158696D01*
X0073436Y0160294D02*
X0100164Y0160294D01*
X0100869Y0161893D02*
X0072731Y0161893D01*
X0073436Y0163491D02*
X0100164Y0163491D01*
X0100164Y0165090D02*
X0073436Y0165090D01*
X0073436Y0166688D02*
X0100164Y0166688D01*
X0100756Y0168287D02*
X0072844Y0168287D01*
X0073436Y0169885D02*
X0100164Y0169885D01*
X0100164Y0171484D02*
X0073436Y0171484D01*
X0073436Y0173082D02*
X0100164Y0173082D01*
X0100457Y0174681D02*
X0073143Y0174681D01*
X0073436Y0176279D02*
X0100164Y0176279D01*
X0100164Y0177878D02*
X0073436Y0177878D01*
X0073436Y0179476D02*
X0100164Y0179476D01*
X0100164Y0181075D02*
X0073436Y0181075D01*
X0073687Y0181816D02*
X0074097Y0181579D01*
X0074555Y0181457D01*
X0076576Y0181457D01*
X0076576Y0185041D01*
X0072992Y0185041D01*
X0072992Y0183020D01*
X0073115Y0182562D01*
X0073352Y0182151D01*
X0073687Y0181816D01*
X0073085Y0182673D02*
X0054342Y0182673D01*
X0054342Y0181075D02*
X0060006Y0181075D01*
X0060006Y0179476D02*
X0054342Y0179476D01*
X0054342Y0180293D02*
X0054134Y0180501D01*
X0054342Y0180708D01*
X0054342Y0184624D01*
X0054134Y0184831D01*
X0054342Y0185039D01*
X0054342Y0188804D01*
X0054382Y0188844D01*
X0054619Y0189255D01*
X0054742Y0189713D01*
X0054742Y0191327D01*
X0050678Y0191327D01*
X0050678Y0191328D01*
X0050678Y0191327D01*
X0046614Y0191327D01*
X0046614Y0189713D01*
X0046737Y0189255D01*
X0046974Y0188844D01*
X0047014Y0188804D01*
X0047014Y0185039D01*
X0047222Y0184831D01*
X0047014Y0184624D01*
X0047014Y0180708D01*
X0047222Y0180501D01*
X0047014Y0180293D01*
X0047014Y0176378D01*
X0047222Y0176170D01*
X0047014Y0175963D01*
X0047014Y0172047D01*
X0047222Y0171839D01*
X0047014Y0171632D01*
X0047014Y0167716D01*
X0047222Y0167509D01*
X0047014Y0167301D01*
X0047014Y0163385D01*
X0047222Y0163178D01*
X0047014Y0162970D01*
X0047014Y0159055D01*
X0047834Y0158235D01*
X0053522Y0158235D01*
X0054342Y0159055D01*
X0054342Y0162970D01*
X0054134Y0163178D01*
X0054342Y0163385D01*
X0054342Y0167301D01*
X0054134Y0167509D01*
X0054342Y0167716D01*
X0054342Y0171632D01*
X0054134Y0171839D01*
X0054342Y0172047D01*
X0054342Y0175963D01*
X0054134Y0176170D01*
X0054342Y0176378D01*
X0054342Y0180293D01*
X0054342Y0177878D02*
X0060006Y0177878D01*
X0060006Y0176279D02*
X0054244Y0176279D01*
X0054342Y0174681D02*
X0060299Y0174681D01*
X0060006Y0173082D02*
X0054342Y0173082D01*
X0054342Y0171484D02*
X0060006Y0171484D01*
X0060006Y0169885D02*
X0054342Y0169885D01*
X0054342Y0168287D02*
X0060598Y0168287D01*
X0060006Y0166688D02*
X0054342Y0166688D01*
X0054342Y0165090D02*
X0060006Y0165090D01*
X0060006Y0163491D02*
X0054342Y0163491D01*
X0054342Y0161893D02*
X0060712Y0161893D01*
X0060006Y0160294D02*
X0054342Y0160294D01*
X0053983Y0158696D02*
X0060006Y0158696D01*
X0060006Y0157097D02*
X0053522Y0157097D01*
X0054342Y0155499D02*
X0060413Y0155499D01*
X0059606Y0153900D02*
X0054342Y0153900D01*
X0054282Y0152302D02*
X0059606Y0152302D01*
X0059606Y0150703D02*
X0054342Y0150703D01*
X0054342Y0149105D02*
X0059727Y0149105D01*
X0059669Y0147506D02*
X0054342Y0147506D01*
X0054342Y0145908D02*
X0059606Y0145908D01*
X0059606Y0144309D02*
X0054342Y0144309D01*
X0054342Y0142711D02*
X0059647Y0142711D01*
X0063191Y0142711D02*
X0063559Y0142711D01*
X0063559Y0144309D02*
X0063191Y0144309D01*
X0063191Y0145252D02*
X0063191Y0148836D01*
X0063191Y0151576D01*
X0063559Y0151576D01*
X0063559Y0145252D01*
X0063191Y0145252D01*
X0063191Y0145908D02*
X0063559Y0145908D01*
X0063559Y0147506D02*
X0063191Y0147506D01*
X0063191Y0149105D02*
X0063559Y0149105D01*
X0063559Y0150703D02*
X0063191Y0150703D01*
X0047014Y0150703D02*
X0040857Y0150703D01*
X0041762Y0152302D02*
X0047074Y0152302D01*
X0047014Y0153900D02*
X0041809Y0153900D01*
X0041809Y0155654D02*
X0041809Y0158462D01*
X0041686Y0158920D01*
X0041449Y0159330D01*
X0041114Y0159666D01*
X0040703Y0159903D01*
X0040246Y0160025D01*
X0038224Y0160025D01*
X0038224Y0155654D01*
X0041809Y0155654D01*
X0041809Y0157097D02*
X0047834Y0157097D01*
X0047373Y0158696D02*
X0041746Y0158696D01*
X0038224Y0158696D02*
X0037856Y0158696D01*
X0037856Y0157097D02*
X0038224Y0157097D01*
X0037856Y0155654D02*
X0034272Y0155654D01*
X0034272Y0158462D01*
X0034394Y0158920D01*
X0034631Y0159330D01*
X0034966Y0159666D01*
X0035377Y0159903D01*
X0035647Y0159975D01*
X0031752Y0159975D01*
X0030931Y0160795D01*
X0030931Y0163257D01*
X0028600Y0165588D01*
X0028600Y0159625D01*
X0033108Y0159625D01*
X0033928Y0158805D01*
X0033928Y0152133D01*
X0033560Y0151765D01*
X0033560Y0151307D01*
X0034300Y0150567D01*
X0034991Y0151259D01*
X0034966Y0151273D01*
X0034631Y0151608D01*
X0034394Y0152019D01*
X0034272Y0152476D01*
X0034272Y0155285D01*
X0037856Y0155285D01*
X0037856Y0155654D01*
X0037856Y0155499D02*
X0033928Y0155499D01*
X0033928Y0157097D02*
X0034272Y0157097D01*
X0034334Y0158696D02*
X0033928Y0158696D01*
X0031432Y0160294D02*
X0028600Y0160294D01*
X0028600Y0161893D02*
X0030931Y0161893D01*
X0030697Y0163491D02*
X0028600Y0163491D01*
X0028600Y0165090D02*
X0029098Y0165090D01*
X0037462Y0168287D02*
X0037831Y0168287D01*
X0037831Y0168031D02*
X0040049Y0168031D01*
X0040507Y0168154D01*
X0040917Y0168391D01*
X0041252Y0168726D01*
X0041489Y0169137D01*
X0041612Y0169595D01*
X0041612Y0171616D01*
X0037831Y0171616D01*
X0037831Y0168031D01*
X0037831Y0169885D02*
X0037462Y0169885D01*
X0037462Y0171484D02*
X0037831Y0171484D01*
X0037831Y0173082D02*
X0037462Y0173082D01*
X0037462Y0174681D02*
X0037831Y0174681D01*
X0041363Y0174681D02*
X0047014Y0174681D01*
X0047014Y0173082D02*
X0041612Y0173082D01*
X0041612Y0171484D02*
X0047014Y0171484D01*
X0047014Y0169885D02*
X0041612Y0169885D01*
X0040736Y0168287D02*
X0047014Y0168287D01*
X0047014Y0166688D02*
X0043275Y0166688D01*
X0044791Y0165090D02*
X0047014Y0165090D01*
X0047014Y0163491D02*
X0044791Y0163491D01*
X0043665Y0161893D02*
X0047014Y0161893D01*
X0047014Y0160294D02*
X0037168Y0160294D01*
X0038224Y0155499D02*
X0047014Y0155499D01*
X0047014Y0149105D02*
X0044859Y0149105D01*
X0045091Y0147506D02*
X0047014Y0147506D01*
X0047014Y0145908D02*
X0044271Y0145908D01*
X0042500Y0147800D02*
X0037646Y0147800D01*
X0034436Y0150703D02*
X0034164Y0150703D01*
X0034318Y0152302D02*
X0033928Y0152302D01*
X0033928Y0153900D02*
X0034272Y0153900D01*
X0033954Y0144309D02*
X0035023Y0144309D01*
X0037462Y0142711D02*
X0037831Y0142711D01*
X0037831Y0141112D02*
X0037462Y0141112D01*
X0037831Y0139616D02*
X0041415Y0139616D01*
X0041415Y0137398D01*
X0041292Y0136940D01*
X0041055Y0136529D01*
X0040720Y0136194D01*
X0040310Y0135957D01*
X0039852Y0135835D01*
X0037831Y0135835D01*
X0037831Y0139616D01*
X0037831Y0139514D02*
X0037462Y0139514D01*
X0037462Y0137915D02*
X0037831Y0137915D01*
X0037831Y0136317D02*
X0037462Y0136317D01*
X0037168Y0134718D02*
X0044918Y0134718D01*
X0043709Y0136317D02*
X0040843Y0136317D01*
X0041415Y0137915D02*
X0043709Y0137915D01*
X0045150Y0139514D02*
X0041415Y0139514D01*
X0041415Y0141112D02*
X0047014Y0141112D01*
X0047014Y0142711D02*
X0041263Y0142711D01*
X0040269Y0144309D02*
X0047014Y0144309D01*
X0047014Y0133120D02*
X0041757Y0133120D01*
X0043356Y0131521D02*
X0047014Y0131521D01*
X0047014Y0125127D02*
X0041309Y0125127D01*
X0041309Y0123529D02*
X0047014Y0123529D01*
X0047131Y0121930D02*
X0041309Y0121930D01*
X0037724Y0123529D02*
X0037356Y0123529D01*
X0037356Y0125127D02*
X0037724Y0125127D01*
X0037724Y0126726D02*
X0037356Y0126726D01*
X0037168Y0128324D02*
X0039199Y0128324D01*
X0034071Y0126726D02*
X0033008Y0126726D01*
X0033428Y0125127D02*
X0033772Y0125127D01*
X0033772Y0123529D02*
X0033428Y0123529D01*
X0033428Y0121930D02*
X0033772Y0121930D01*
X0033772Y0120332D02*
X0033428Y0120332D01*
X0033134Y0118733D02*
X0033900Y0118733D01*
X0030431Y0128324D02*
X0028600Y0128324D01*
X0028600Y0129923D02*
X0030431Y0129923D01*
X0030431Y0131521D02*
X0028600Y0131521D01*
X0028600Y0133120D02*
X0030431Y0133120D01*
X0030431Y0134718D02*
X0028600Y0134718D01*
X0033584Y0136317D02*
X0034450Y0136317D01*
X0057689Y0128324D02*
X0073636Y0128324D01*
X0076963Y0125127D02*
X0065137Y0125127D01*
X0065391Y0123529D02*
X0076709Y0123529D01*
X0076878Y0121930D02*
X0077037Y0121930D01*
X0072706Y0121930D02*
X0072547Y0121930D01*
X0068375Y0121930D02*
X0068217Y0121930D01*
X0085597Y0120332D02*
X0086187Y0120332D01*
X0091051Y0121930D02*
X0091210Y0121930D01*
X0095382Y0121930D02*
X0095541Y0121930D01*
X0110041Y0142711D02*
X0110409Y0142711D01*
X0110409Y0144309D02*
X0110041Y0144309D01*
X0110410Y0144883D02*
X0110410Y0145252D01*
X0113994Y0145252D01*
X0113994Y0147273D01*
X0113871Y0147731D01*
X0113634Y0148141D01*
X0113361Y0148414D01*
X0113634Y0148687D01*
X0113871Y0149097D01*
X0113994Y0149555D01*
X0113994Y0151576D01*
X0110410Y0151576D01*
X0110410Y0151945D01*
X0113994Y0151945D01*
X0113994Y0153966D01*
X0113871Y0154424D01*
X0113634Y0154834D01*
X0113299Y0155169D01*
X0113019Y0155331D01*
X0113594Y0155905D01*
X0113594Y0156043D01*
X0113927Y0155709D01*
X0114762Y0155709D01*
X0114800Y0155672D01*
X0114800Y0144991D01*
X0113927Y0144991D01*
X0113820Y0144883D01*
X0110410Y0144883D01*
X0110409Y0145252D02*
X0110041Y0145252D01*
X0110041Y0151576D01*
X0110409Y0151576D01*
X0110409Y0147992D01*
X0110409Y0145252D01*
X0110409Y0145908D02*
X0110041Y0145908D01*
X0110041Y0147506D02*
X0110409Y0147506D01*
X0110409Y0149105D02*
X0110041Y0149105D01*
X0110041Y0150703D02*
X0110409Y0150703D01*
X0113994Y0150703D02*
X0114800Y0150703D01*
X0114800Y0149105D02*
X0113873Y0149105D01*
X0113931Y0147506D02*
X0114800Y0147506D01*
X0114800Y0145908D02*
X0113994Y0145908D01*
X0113994Y0152302D02*
X0114800Y0152302D01*
X0114800Y0153900D02*
X0113994Y0153900D01*
X0114800Y0155499D02*
X0113187Y0155499D01*
X0113594Y0177878D02*
X0113650Y0177878D01*
X0113594Y0179476D02*
X0115248Y0179476D01*
X0113594Y0181075D02*
X0119258Y0181075D01*
X0119258Y0182673D02*
X0100205Y0182673D01*
X0100208Y0182677D02*
X0100208Y0187774D01*
X0099634Y0188348D01*
X0099913Y0188509D01*
X0100248Y0188844D01*
X0100485Y0189255D01*
X0100608Y0189713D01*
X0100608Y0191734D01*
X0097024Y0191734D01*
X0097024Y0192102D01*
X0100608Y0192102D01*
X0100608Y0194124D01*
X0100485Y0194581D01*
X0100248Y0194992D01*
X0099913Y0195327D01*
X0099503Y0195564D01*
X0099045Y0195687D01*
X0097024Y0195687D01*
X0097024Y0192102D01*
X0096655Y0192102D01*
X0096655Y0191734D01*
X0090331Y0191734D01*
X0090331Y0192102D01*
X0093915Y0192102D01*
X0096655Y0192102D01*
X0096655Y0195687D01*
X0094634Y0195687D01*
X0094176Y0195564D01*
X0093766Y0195327D01*
X0093493Y0195054D01*
X0093220Y0195327D01*
X0092810Y0195564D01*
X0092352Y0195687D01*
X0090331Y0195687D01*
X0090331Y0192102D01*
X0089962Y0192102D01*
X0089962Y0191734D01*
X0083638Y0191734D01*
X0083638Y0192102D01*
X0087222Y0192102D01*
X0089962Y0192102D01*
X0089962Y0195687D01*
X0087941Y0195687D01*
X0087483Y0195564D01*
X0087073Y0195327D01*
X0086800Y0195054D01*
X0086527Y0195327D01*
X0086117Y0195564D01*
X0085659Y0195687D01*
X0083638Y0195687D01*
X0083638Y0192102D01*
X0083269Y0192102D01*
X0083269Y0191734D01*
X0076945Y0191734D01*
X0076945Y0192102D01*
X0080529Y0192102D01*
X0083269Y0192102D01*
X0083269Y0195687D01*
X0081248Y0195687D01*
X0080790Y0195564D01*
X0080380Y0195327D01*
X0080107Y0195054D01*
X0079834Y0195327D01*
X0079424Y0195564D01*
X0078966Y0195687D01*
X0076945Y0195687D01*
X0076945Y0192102D01*
X0076576Y0192102D01*
X0076576Y0191734D01*
X0072992Y0191734D01*
X0072992Y0189713D01*
X0073115Y0189255D01*
X0073352Y0188844D01*
X0073624Y0188572D01*
X0073352Y0188299D01*
X0073115Y0187888D01*
X0072992Y0187431D01*
X0072992Y0185409D01*
X0076576Y0185409D01*
X0076576Y0185041D01*
X0076945Y0185041D01*
X0076945Y0185409D01*
X0080529Y0185409D01*
X0083269Y0185409D01*
X0083269Y0185041D01*
X0076945Y0185041D01*
X0076945Y0181457D01*
X0078966Y0181457D01*
X0079424Y0181579D01*
X0079834Y0181816D01*
X0080107Y0182089D01*
X0080380Y0181816D01*
X0080790Y0181579D01*
X0081248Y0181457D01*
X0083269Y0181457D01*
X0083269Y0185041D01*
X0083638Y0185041D01*
X0083638Y0185409D01*
X0087222Y0185409D01*
X0089962Y0185409D01*
X0089962Y0185041D01*
X0083638Y0185041D01*
X0083638Y0181457D01*
X0085659Y0181457D01*
X0086117Y0181579D01*
X0086527Y0181816D01*
X0086800Y0182089D01*
X0087073Y0181816D01*
X0087483Y0181579D01*
X0087941Y0181457D01*
X0089962Y0181457D01*
X0089962Y0185041D01*
X0090331Y0185041D01*
X0090331Y0181457D01*
X0092352Y0181457D01*
X0092810Y0181579D01*
X0093220Y0181816D01*
X0093555Y0182151D01*
X0093717Y0182431D01*
X0094291Y0181857D01*
X0099388Y0181857D01*
X0100208Y0182677D01*
X0100208Y0184272D02*
X0119258Y0184272D01*
X0119258Y0185870D02*
X0100208Y0185870D01*
X0100208Y0187469D02*
X0119258Y0187469D01*
X0119089Y0189068D02*
X0100377Y0189068D01*
X0100608Y0190666D02*
X0118858Y0190666D01*
X0118858Y0192265D02*
X0100608Y0192265D01*
X0100608Y0193863D02*
X0118907Y0193863D01*
X0118858Y0195462D02*
X0099680Y0195462D01*
X0097024Y0195462D02*
X0096655Y0195462D01*
X0096655Y0193863D02*
X0097024Y0193863D01*
X0097024Y0192265D02*
X0096655Y0192265D01*
X0093999Y0195462D02*
X0092987Y0195462D01*
X0090331Y0195462D02*
X0089962Y0195462D01*
X0089962Y0193863D02*
X0090331Y0193863D01*
X0090331Y0192265D02*
X0089962Y0192265D01*
X0089962Y0191734D02*
X0090331Y0191734D01*
X0090331Y0185410D01*
X0089962Y0185410D01*
X0089962Y0188994D01*
X0089962Y0191734D01*
X0089962Y0190666D02*
X0090331Y0190666D01*
X0090331Y0189068D02*
X0089962Y0189068D01*
X0089962Y0187469D02*
X0090331Y0187469D01*
X0090331Y0185870D02*
X0089962Y0185870D01*
X0089962Y0184272D02*
X0090331Y0184272D01*
X0090331Y0182673D02*
X0089962Y0182673D01*
X0083638Y0182673D02*
X0083269Y0182673D01*
X0083269Y0184272D02*
X0083638Y0184272D01*
X0083638Y0185410D02*
X0083269Y0185410D01*
X0083269Y0188994D01*
X0083269Y0191734D01*
X0083638Y0191734D01*
X0083638Y0185410D01*
X0083638Y0185870D02*
X0083269Y0185870D01*
X0083269Y0187469D02*
X0083638Y0187469D01*
X0083638Y0189068D02*
X0083269Y0189068D01*
X0083269Y0190666D02*
X0083638Y0190666D01*
X0083638Y0192265D02*
X0083269Y0192265D01*
X0083269Y0193863D02*
X0083638Y0193863D01*
X0083638Y0195462D02*
X0083269Y0195462D01*
X0080613Y0195462D02*
X0079601Y0195462D01*
X0076945Y0195462D02*
X0076576Y0195462D01*
X0076576Y0195687D02*
X0074555Y0195687D01*
X0074097Y0195564D01*
X0073687Y0195327D01*
X0073352Y0194992D01*
X0073115Y0194581D01*
X0072992Y0194124D01*
X0072992Y0192102D01*
X0076576Y0192102D01*
X0076576Y0195687D01*
X0076576Y0193863D02*
X0076945Y0193863D01*
X0076945Y0192265D02*
X0076576Y0192265D01*
X0076576Y0191734D02*
X0076945Y0191734D01*
X0076945Y0185410D01*
X0076576Y0185410D01*
X0076576Y0188994D01*
X0076576Y0191734D01*
X0076576Y0190666D02*
X0076945Y0190666D01*
X0076945Y0189068D02*
X0076576Y0189068D01*
X0076576Y0187469D02*
X0076945Y0187469D01*
X0076945Y0185870D02*
X0076576Y0185870D01*
X0076576Y0184272D02*
X0076945Y0184272D01*
X0076945Y0182673D02*
X0076576Y0182673D01*
X0072992Y0184272D02*
X0054342Y0184272D01*
X0054342Y0185870D02*
X0072992Y0185870D01*
X0073002Y0187469D02*
X0054342Y0187469D01*
X0054511Y0189068D02*
X0073223Y0189068D01*
X0072992Y0190666D02*
X0054742Y0190666D01*
X0054742Y0192265D02*
X0072992Y0192265D01*
X0072992Y0193863D02*
X0054342Y0193863D01*
X0054342Y0195462D02*
X0073920Y0195462D01*
X0074792Y0201856D02*
X0074792Y0201856D01*
X0074792Y0203454D02*
X0074792Y0203454D01*
X0074792Y0205053D02*
X0074792Y0205053D01*
X0074792Y0205205D02*
X0071614Y0205205D01*
X0070462Y0205205D01*
X0070462Y0205206D01*
X0074792Y0205206D01*
X0074792Y0209269D01*
X0074792Y0205206D01*
X0074792Y0205206D01*
X0074792Y0205205D01*
X0074792Y0206651D02*
X0074792Y0206651D01*
X0074792Y0208250D02*
X0074792Y0208250D01*
X0070702Y0209848D02*
X0102409Y0209848D01*
X0103288Y0208969D02*
X0103288Y0208869D01*
X0100150Y0208869D01*
X0100110Y0208910D01*
X0099699Y0209147D01*
X0099242Y0209269D01*
X0097627Y0209269D01*
X0097627Y0205206D01*
X0097627Y0205206D01*
X0097627Y0209269D01*
X0096012Y0209269D01*
X0095554Y0209147D01*
X0095461Y0209093D01*
X0095369Y0209147D01*
X0094911Y0209269D01*
X0093296Y0209269D01*
X0091681Y0209269D01*
X0091223Y0209147D01*
X0090813Y0208910D01*
X0090773Y0208869D01*
X0087007Y0208869D01*
X0086187Y0208049D01*
X0086187Y0202362D01*
X0087007Y0201542D01*
X0090773Y0201542D01*
X0090813Y0201501D01*
X0091223Y0201264D01*
X0091681Y0201142D01*
X0093296Y0201142D01*
X0093296Y0205205D01*
X0093296Y0205205D01*
X0093296Y0201142D01*
X0094911Y0201142D01*
X0095369Y0201264D01*
X0095461Y0201318D01*
X0095554Y0201264D01*
X0096012Y0201142D01*
X0097627Y0201142D01*
X0099242Y0201142D01*
X0099699Y0201264D01*
X0100110Y0201501D01*
X0100150Y0201542D01*
X0103915Y0201542D01*
X0104123Y0201749D01*
X0104330Y0201542D01*
X0108246Y0201542D01*
X0108454Y0201749D01*
X0108661Y0201542D01*
X0112426Y0201542D01*
X0112466Y0201501D01*
X0112877Y0201264D01*
X0113335Y0201142D01*
X0114950Y0201142D01*
X0116565Y0201142D01*
X0117022Y0201264D01*
X0117433Y0201501D01*
X0117768Y0201837D01*
X0118005Y0202247D01*
X0118128Y0202705D01*
X0118128Y0205205D01*
X0114950Y0205205D01*
X0114950Y0201142D01*
X0114950Y0205205D01*
X0114950Y0205205D01*
X0114950Y0205206D01*
X0114950Y0205206D01*
X0114950Y0209269D01*
X0116565Y0209269D01*
X0117022Y0209147D01*
X0117433Y0208910D01*
X0117768Y0208575D01*
X0118005Y0208164D01*
X0118128Y0207706D01*
X0118128Y0205206D01*
X0114950Y0205206D01*
X0114950Y0209269D01*
X0113335Y0209269D01*
X0112877Y0209147D01*
X0112466Y0208910D01*
X0112426Y0208869D01*
X0109288Y0208869D01*
X0109288Y0210809D01*
X0108831Y0211911D01*
X0104800Y0215943D01*
X0104800Y0216931D01*
X0104892Y0216931D01*
X0105712Y0217752D01*
X0105712Y0222848D01*
X0105146Y0223414D01*
X0105146Y0225186D01*
X0105712Y0225752D01*
X0105712Y0230848D01*
X0105046Y0231514D01*
X0105046Y0233186D01*
X0105612Y0233752D01*
X0105612Y0238848D01*
X0104792Y0239668D01*
X0099301Y0239668D01*
X0098977Y0239344D01*
X0098959Y0239374D01*
X0098624Y0239709D01*
X0098214Y0239946D01*
X0097756Y0240068D01*
X0095538Y0240068D01*
X0095538Y0236484D01*
X0095169Y0236484D01*
X0095169Y0236116D01*
X0091388Y0236116D01*
X0091388Y0234095D01*
X0091511Y0233637D01*
X0091748Y0233226D01*
X0092083Y0232891D01*
X0092493Y0232654D01*
X0092951Y0232531D01*
X0095169Y0232531D01*
X0095169Y0236116D01*
X0095538Y0236116D01*
X0095538Y0232531D01*
X0097756Y0232531D01*
X0098214Y0232654D01*
X0098624Y0232891D01*
X0098959Y0233226D01*
X0098977Y0233256D01*
X0099046Y0233186D01*
X0099046Y0231387D01*
X0098724Y0231709D01*
X0098314Y0231946D01*
X0097856Y0232068D01*
X0095638Y0232068D01*
X0095638Y0228484D01*
X0095269Y0228484D01*
X0095269Y0228116D01*
X0091488Y0228116D01*
X0091488Y0226095D01*
X0091611Y0225637D01*
X0091848Y0225226D01*
X0092183Y0224891D01*
X0092593Y0224654D01*
X0093051Y0224531D01*
X0095269Y0224531D01*
X0095269Y0228116D01*
X0095638Y0228116D01*
X0095638Y0224531D01*
X0097856Y0224531D01*
X0098314Y0224654D01*
X0098724Y0224891D01*
X0099059Y0225226D01*
X0099077Y0225256D01*
X0099146Y0225186D01*
X0099146Y0223414D01*
X0099077Y0223344D01*
X0099059Y0223374D01*
X0098724Y0223709D01*
X0098314Y0223946D01*
X0097856Y0224068D01*
X0095638Y0224068D01*
X0095638Y0220484D01*
X0095269Y0220484D01*
X0095269Y0220116D01*
X0091488Y0220116D01*
X0091488Y0218095D01*
X0091611Y0217637D01*
X0091848Y0217226D01*
X0092183Y0216891D01*
X0092593Y0216654D01*
X0093051Y0216531D01*
X0095269Y0216531D01*
X0095269Y0220116D01*
X0095638Y0220116D01*
X0095638Y0216531D01*
X0097856Y0216531D01*
X0098314Y0216654D01*
X0098724Y0216891D01*
X0098800Y0216967D01*
X0098800Y0214103D01*
X0099257Y0213001D01*
X0100057Y0212201D01*
X0103288Y0208969D01*
X0100811Y0211447D02*
X0070731Y0211447D01*
X0070731Y0213045D02*
X0099238Y0213045D01*
X0098800Y0214644D02*
X0070731Y0214644D01*
X0070731Y0216242D02*
X0098800Y0216242D01*
X0104800Y0216242D02*
X0118869Y0216242D01*
X0118869Y0214644D02*
X0106099Y0214644D01*
X0107697Y0213045D02*
X0118869Y0213045D01*
X0118869Y0211447D02*
X0109024Y0211447D01*
X0109288Y0209848D02*
X0118869Y0209848D01*
X0118869Y0208250D02*
X0117955Y0208250D01*
X0118128Y0206651D02*
X0118869Y0206651D01*
X0118869Y0205053D02*
X0118128Y0205053D01*
X0118128Y0203454D02*
X0119061Y0203454D01*
X0119258Y0201856D02*
X0117779Y0201856D01*
X0119258Y0200257D02*
X0058641Y0200257D01*
X0058322Y0198659D02*
X0119258Y0198659D01*
X0118858Y0197060D02*
X0054342Y0197060D01*
X0054291Y0203454D02*
X0028600Y0203454D01*
X0028600Y0201856D02*
X0047014Y0201856D01*
X0047014Y0200257D02*
X0028600Y0200257D01*
X0028600Y0198659D02*
X0047014Y0198659D01*
X0047014Y0197060D02*
X0028600Y0197060D01*
X0028600Y0195462D02*
X0047014Y0195462D01*
X0047014Y0193863D02*
X0028600Y0193863D01*
X0028600Y0192265D02*
X0046614Y0192265D01*
X0046614Y0190666D02*
X0028600Y0190666D01*
X0028600Y0189068D02*
X0046845Y0189068D01*
X0047014Y0187469D02*
X0028600Y0187469D01*
X0028600Y0185870D02*
X0047014Y0185870D01*
X0047014Y0184272D02*
X0028600Y0184272D01*
X0028600Y0182673D02*
X0047014Y0182673D01*
X0047014Y0181075D02*
X0028600Y0181075D01*
X0028600Y0179476D02*
X0047014Y0179476D01*
X0047014Y0177878D02*
X0028600Y0177878D01*
X0028600Y0176279D02*
X0047112Y0176279D01*
X0061800Y0201142D02*
X0061800Y0205205D01*
X0061800Y0201142D01*
X0061800Y0201856D02*
X0061800Y0201856D01*
X0061800Y0203454D02*
X0061800Y0203454D01*
X0061800Y0205053D02*
X0061800Y0205053D01*
X0061800Y0205205D02*
X0061800Y0205205D01*
X0058622Y0205205D01*
X0057469Y0205205D01*
X0057469Y0205206D01*
X0061800Y0205206D01*
X0061800Y0209269D01*
X0061800Y0205206D01*
X0061800Y0205206D01*
X0061800Y0205205D01*
X0061800Y0206651D02*
X0061800Y0206651D01*
X0061800Y0208250D02*
X0061800Y0208250D01*
X0061898Y0209848D02*
X0028600Y0209848D01*
X0028600Y0208250D02*
X0054463Y0208250D01*
X0054291Y0206651D02*
X0028600Y0206651D01*
X0028600Y0205053D02*
X0054291Y0205053D01*
X0057469Y0206651D02*
X0057469Y0206651D01*
X0057469Y0208250D02*
X0057469Y0208250D01*
X0061869Y0211447D02*
X0028600Y0211447D01*
X0028600Y0213045D02*
X0061869Y0213045D01*
X0061869Y0214644D02*
X0028600Y0214644D01*
X0028600Y0216242D02*
X0061869Y0216242D01*
X0061869Y0217841D02*
X0028600Y0217841D01*
X0028600Y0219439D02*
X0061869Y0219439D01*
X0061869Y0221038D02*
X0028600Y0221038D01*
X0028600Y0222636D02*
X0061869Y0222636D01*
X0061869Y0224235D02*
X0028600Y0224235D01*
X0028600Y0225833D02*
X0061869Y0225833D01*
X0061869Y0227432D02*
X0060877Y0227432D01*
X0061100Y0229030D02*
X0061869Y0229030D01*
X0057000Y0229030D02*
X0055600Y0229030D01*
X0055600Y0227432D02*
X0057000Y0227432D01*
X0055600Y0226500D02*
X0053063Y0226500D01*
X0052605Y0226623D01*
X0052195Y0226860D01*
X0051860Y0227195D01*
X0051623Y0227605D01*
X0051500Y0228063D01*
X0051500Y0235600D01*
X0055600Y0235600D01*
X0055600Y0226500D01*
X0051723Y0227432D02*
X0028600Y0227432D01*
X0028600Y0229030D02*
X0051500Y0229030D01*
X0051500Y0230629D02*
X0028600Y0230629D01*
X0028600Y0232227D02*
X0051500Y0232227D01*
X0051500Y0233826D02*
X0028600Y0233826D01*
X0028600Y0235424D02*
X0051500Y0235424D01*
X0051500Y0237023D02*
X0028600Y0237023D01*
X0028600Y0238621D02*
X0051500Y0238621D01*
X0051500Y0240220D02*
X0028600Y0240220D01*
X0028600Y0241818D02*
X0051500Y0241818D01*
X0051500Y0243417D02*
X0028600Y0243417D01*
X0055600Y0235424D02*
X0057000Y0235424D01*
X0057000Y0233826D02*
X0055600Y0233826D01*
X0055600Y0232227D02*
X0057000Y0232227D01*
X0057000Y0230629D02*
X0055600Y0230629D01*
X0070731Y0229030D02*
X0071500Y0229030D01*
X0071723Y0227432D02*
X0070731Y0227432D01*
X0070731Y0225833D02*
X0091558Y0225833D01*
X0091488Y0227432D02*
X0080877Y0227432D01*
X0080977Y0227605D02*
X0081100Y0228063D01*
X0081100Y0235600D01*
X0077000Y0235600D01*
X0077000Y0226500D01*
X0079537Y0226500D01*
X0079995Y0226623D01*
X0080405Y0226860D01*
X0080740Y0227195D01*
X0080977Y0227605D01*
X0081100Y0229030D02*
X0091488Y0229030D01*
X0091488Y0228484D02*
X0095269Y0228484D01*
X0095269Y0232068D01*
X0093051Y0232068D01*
X0092593Y0231946D01*
X0092183Y0231709D01*
X0091848Y0231374D01*
X0091611Y0230963D01*
X0091488Y0230505D01*
X0091488Y0228484D01*
X0091521Y0230629D02*
X0081100Y0230629D01*
X0081100Y0232227D02*
X0099046Y0232227D01*
X0095638Y0230629D02*
X0095269Y0230629D01*
X0095269Y0229030D02*
X0095638Y0229030D01*
X0095638Y0227432D02*
X0095269Y0227432D01*
X0095269Y0225833D02*
X0095638Y0225833D01*
X0095269Y0224068D02*
X0093051Y0224068D01*
X0092593Y0223946D01*
X0092183Y0223709D01*
X0091848Y0223374D01*
X0091611Y0222963D01*
X0091488Y0222505D01*
X0091488Y0220484D01*
X0095269Y0220484D01*
X0095269Y0224068D01*
X0095269Y0222636D02*
X0095638Y0222636D01*
X0095638Y0221038D02*
X0095269Y0221038D01*
X0095269Y0219439D02*
X0095638Y0219439D01*
X0095638Y0217841D02*
X0095269Y0217841D01*
X0091556Y0217841D02*
X0070731Y0217841D01*
X0070731Y0219439D02*
X0091488Y0219439D01*
X0091488Y0221038D02*
X0070731Y0221038D01*
X0070731Y0222636D02*
X0091523Y0222636D01*
X0099146Y0224235D02*
X0070731Y0224235D01*
X0075600Y0227432D02*
X0077000Y0227432D01*
X0077000Y0229030D02*
X0075600Y0229030D01*
X0075600Y0230629D02*
X0077000Y0230629D01*
X0077000Y0232227D02*
X0075600Y0232227D01*
X0075600Y0233826D02*
X0077000Y0233826D01*
X0077000Y0235424D02*
X0075600Y0235424D01*
X0081100Y0235424D02*
X0091388Y0235424D01*
X0091388Y0236484D02*
X0095169Y0236484D01*
X0095169Y0240068D01*
X0092951Y0240068D01*
X0092493Y0239946D01*
X0092083Y0239709D01*
X0091748Y0239374D01*
X0091511Y0238963D01*
X0091388Y0238505D01*
X0091388Y0236484D01*
X0091388Y0237023D02*
X0081100Y0237023D01*
X0081100Y0238621D02*
X0091419Y0238621D01*
X0095169Y0238621D02*
X0095538Y0238621D01*
X0095538Y0237023D02*
X0095169Y0237023D01*
X0095169Y0235424D02*
X0095538Y0235424D01*
X0095538Y0233826D02*
X0095169Y0233826D01*
X0091460Y0233826D02*
X0081100Y0233826D01*
X0081100Y0240220D02*
X0108400Y0240220D01*
X0108400Y0241818D02*
X0081100Y0241818D01*
X0081100Y0243417D02*
X0108400Y0243417D01*
X0108400Y0238621D02*
X0105612Y0238621D01*
X0105612Y0237023D02*
X0108400Y0237023D01*
X0108400Y0235600D02*
X0108400Y0228063D01*
X0108523Y0227605D01*
X0108760Y0227195D01*
X0109095Y0226860D01*
X0109505Y0226623D01*
X0109963Y0226500D01*
X0112500Y0226500D01*
X0112500Y0235600D01*
X0108400Y0235600D01*
X0108400Y0235424D02*
X0105612Y0235424D01*
X0105612Y0233826D02*
X0108400Y0233826D01*
X0108400Y0232227D02*
X0105046Y0232227D01*
X0105712Y0230629D02*
X0108400Y0230629D01*
X0108400Y0229030D02*
X0105712Y0229030D01*
X0105712Y0227432D02*
X0108623Y0227432D01*
X0105712Y0225833D02*
X0118869Y0225833D01*
X0118869Y0224235D02*
X0105146Y0224235D01*
X0105712Y0222636D02*
X0118869Y0222636D01*
X0118869Y0221038D02*
X0105712Y0221038D01*
X0105712Y0219439D02*
X0118869Y0219439D01*
X0118869Y0217841D02*
X0105712Y0217841D01*
X0112500Y0227432D02*
X0113900Y0227432D01*
X0113900Y0229030D02*
X0112500Y0229030D01*
X0112500Y0230629D02*
X0113900Y0230629D01*
X0113900Y0232227D02*
X0112500Y0232227D01*
X0112500Y0233826D02*
X0113900Y0233826D01*
X0113900Y0235424D02*
X0112500Y0235424D01*
X0118000Y0229030D02*
X0118869Y0229030D01*
X0118869Y0227432D02*
X0117777Y0227432D01*
X0127731Y0227432D02*
X0128623Y0227432D01*
X0128400Y0229030D02*
X0127731Y0229030D01*
X0127731Y0225833D02*
X0145000Y0225833D01*
X0145000Y0224235D02*
X0127731Y0224235D01*
X0127731Y0222636D02*
X0145000Y0222636D01*
X0145000Y0221038D02*
X0127731Y0221038D01*
X0127731Y0219439D02*
X0145000Y0219439D01*
X0145000Y0217841D02*
X0127731Y0217841D01*
X0127731Y0216242D02*
X0145000Y0216242D01*
X0145000Y0214644D02*
X0127731Y0214644D01*
X0127731Y0213045D02*
X0145000Y0213045D01*
X0145000Y0211447D02*
X0127731Y0211447D01*
X0127731Y0209848D02*
X0145000Y0209848D01*
X0145000Y0208250D02*
X0127731Y0208250D01*
X0127731Y0206651D02*
X0145000Y0206651D01*
X0145000Y0205053D02*
X0127731Y0205053D01*
X0127539Y0203454D02*
X0145000Y0203454D01*
X0145000Y0201856D02*
X0126623Y0201856D01*
X0126586Y0200257D02*
X0145000Y0200257D01*
X0145000Y0198659D02*
X0126586Y0198659D01*
X0126986Y0197060D02*
X0145000Y0197060D01*
X0145000Y0195462D02*
X0126986Y0195462D01*
X0126937Y0193863D02*
X0145000Y0193863D01*
X0145000Y0192265D02*
X0126986Y0192265D01*
X0126986Y0190666D02*
X0145000Y0190666D01*
X0145000Y0189068D02*
X0128396Y0189068D01*
X0129391Y0187469D02*
X0145000Y0187469D01*
X0145000Y0185870D02*
X0129334Y0185870D01*
X0131392Y0184272D02*
X0145000Y0184272D01*
X0145000Y0182673D02*
X0131991Y0182673D01*
X0131539Y0181075D02*
X0145000Y0181075D01*
X0145000Y0179476D02*
X0126586Y0179476D01*
X0126586Y0177878D02*
X0145000Y0177878D01*
X0122922Y0192265D02*
X0122922Y0192265D01*
X0122922Y0193863D02*
X0122922Y0193863D01*
X0122922Y0195462D02*
X0122922Y0195462D01*
X0114950Y0201856D02*
X0114950Y0201856D01*
X0114950Y0203454D02*
X0114950Y0203454D01*
X0114950Y0205053D02*
X0114950Y0205053D01*
X0114950Y0206651D02*
X0114950Y0206651D01*
X0114950Y0208250D02*
X0114950Y0208250D01*
X0097627Y0208250D02*
X0097627Y0208250D01*
X0097627Y0206651D02*
X0097627Y0206651D01*
X0097627Y0205206D02*
X0093296Y0205206D01*
X0093296Y0209269D01*
X0093296Y0205206D01*
X0093296Y0205206D01*
X0093296Y0205205D01*
X0094449Y0205205D01*
X0097627Y0205205D01*
X0097627Y0201142D01*
X0097627Y0205205D01*
X0097627Y0205205D01*
X0097627Y0205206D01*
X0097627Y0205053D02*
X0097627Y0205053D01*
X0097627Y0203454D02*
X0097627Y0203454D01*
X0097627Y0201856D02*
X0097627Y0201856D01*
X0093296Y0201856D02*
X0093296Y0201856D01*
X0093296Y0203454D02*
X0093296Y0203454D01*
X0093296Y0205053D02*
X0093296Y0205053D01*
X0093296Y0206651D02*
X0093296Y0206651D01*
X0093296Y0208250D02*
X0093296Y0208250D01*
X0086694Y0201856D02*
X0081395Y0201856D01*
X0081901Y0203454D02*
X0086187Y0203454D01*
X0086187Y0205053D02*
X0081901Y0205053D01*
X0081901Y0206651D02*
X0086187Y0206651D01*
X0086388Y0208250D02*
X0081700Y0208250D01*
X0070461Y0205053D02*
X0070461Y0205053D01*
X0070461Y0203454D02*
X0070461Y0203454D01*
X0070461Y0201856D02*
X0070461Y0201856D01*
X0086294Y0195462D02*
X0087306Y0195462D01*
X0127400Y0235600D02*
X0127400Y0237000D01*
X0132500Y0237000D01*
X0132500Y0235600D01*
X0127400Y0235600D01*
X0132500Y0235424D02*
X0133900Y0235424D01*
X0133900Y0235600D02*
X0133900Y0226500D01*
X0136437Y0226500D01*
X0136895Y0226623D01*
X0137305Y0226860D01*
X0137640Y0227195D01*
X0137877Y0227605D01*
X0138000Y0228063D01*
X0138000Y0235600D01*
X0133900Y0235600D01*
X0133900Y0233826D02*
X0132500Y0233826D01*
X0132500Y0232227D02*
X0133900Y0232227D01*
X0133900Y0230629D02*
X0132500Y0230629D01*
X0132500Y0229030D02*
X0133900Y0229030D01*
X0133900Y0227432D02*
X0132500Y0227432D01*
X0137777Y0227432D02*
X0145000Y0227432D01*
X0145000Y0229030D02*
X0138000Y0229030D01*
X0138000Y0230629D02*
X0145000Y0230629D01*
X0145000Y0232227D02*
X0138000Y0232227D01*
X0138000Y0233826D02*
X0145000Y0233826D01*
X0145000Y0235424D02*
X0138000Y0235424D01*
X0138000Y0237023D02*
X0145000Y0237023D01*
X0145000Y0238621D02*
X0138000Y0238621D01*
X0138000Y0240220D02*
X0145000Y0240220D01*
X0145000Y0241818D02*
X0138000Y0241818D01*
X0138000Y0243417D02*
X0145000Y0243417D01*
D25*
X0102600Y0213900D03*
X0126800Y0187000D03*
X0129400Y0182600D03*
X0118700Y0171200D03*
X0117200Y0174000D03*
X0113800Y0161900D03*
X0115000Y0158300D03*
X0114100Y0151900D03*
X0115000Y0142400D03*
X0127000Y0132700D03*
X0120900Y0120500D03*
X0114200Y0127200D03*
X0110300Y0111800D03*
X0106300Y0110900D03*
X0115200Y0111700D03*
X0115200Y0108200D03*
X0125200Y0108200D03*
X0125200Y0111700D03*
X0136400Y0110900D03*
X0136400Y0119500D03*
X0136800Y0101400D03*
X0135700Y0095700D03*
X0118100Y0079600D03*
X0114300Y0079600D03*
X0111700Y0073700D03*
X0106800Y0086800D03*
X0114300Y0093800D03*
X0099600Y0100800D03*
X0097800Y0104700D03*
X0096800Y0110800D03*
X0089700Y0098900D03*
X0084800Y0110800D03*
X0079300Y0123800D03*
X0067200Y0135200D03*
X0063450Y0135200D03*
X0063450Y0138950D03*
X0067200Y0138950D03*
X0055550Y0126800D03*
X0062800Y0123800D03*
X0059700Y0109450D03*
X0054300Y0098454D03*
X0054000Y0093800D03*
X0044550Y0094550D03*
X0038500Y0096600D03*
X0038300Y0092300D03*
X0045250Y0086300D03*
X0057000Y0082000D03*
X0057900Y0072000D03*
X0066500Y0062550D03*
X0073800Y0079900D03*
X0080500Y0087000D03*
X0097000Y0080600D03*
X0089300Y0063300D03*
X0085050Y0063300D03*
X0039000Y0057550D03*
X0039000Y0052550D03*
X0037300Y0102550D03*
X0047200Y0115200D03*
X0042200Y0135200D03*
X0046300Y0137000D03*
X0042500Y0147800D03*
X0042200Y0164100D03*
X0075600Y0178850D03*
X0079350Y0178850D03*
X0083100Y0178850D03*
X0085600Y0170100D03*
X0056050Y0200050D03*
X0095300Y0124800D03*
X0128300Y0151300D03*
D26*
X0122922Y0124005D02*
X0136249Y0124005D01*
X0136454Y0123800D01*
X0136454Y0115300D01*
X0136400Y0115354D01*
X0136400Y0119500D01*
X0136454Y0115300D02*
X0136454Y0106800D01*
X0136454Y0101746D01*
X0136800Y0101400D01*
X0136454Y0106800D02*
X0136400Y0106854D01*
X0136400Y0110900D01*
X0058954Y0102800D02*
X0058954Y0094800D01*
X0058954Y0102800D02*
X0058623Y0103131D01*
X0052540Y0103131D01*
X0030454Y0107300D02*
X0030454Y0115300D01*
X0030060Y0115694D01*
X0030060Y0122969D01*
X0030954Y0139800D02*
X0030954Y0147800D01*
X0030560Y0148194D01*
X0030560Y0155469D01*
X0034300Y0164131D02*
X0030954Y0167477D01*
X0030954Y0171800D01*
X0101800Y0214700D02*
X0102600Y0213900D01*
X0106288Y0210212D01*
X0106288Y0205206D01*
X0101800Y0214700D02*
X0101800Y0221800D01*
X0102146Y0221454D01*
X0102146Y0220300D01*
X0102146Y0228300D01*
X0102046Y0228400D01*
X0102046Y0236300D01*
X0123300Y0204800D02*
X0122922Y0203678D01*
X0122922Y0199989D01*
D27*
X0106288Y0205206D02*
X0101957Y0205206D01*
X0066131Y0205206D02*
X0066131Y0209631D01*
X0066300Y0210800D01*
X0042169Y0164131D02*
X0034300Y0164131D01*
X0042169Y0164131D02*
X0042200Y0164100D01*
X0046300Y0137000D02*
X0050675Y0137000D01*
X0050678Y0136997D01*
X0050678Y0128335D02*
X0042865Y0128335D01*
X0039600Y0131600D01*
X0033831Y0131600D01*
X0033800Y0131631D01*
X0061800Y0118394D02*
X0061800Y0113800D01*
X0065646Y0109954D01*
X0065646Y0102800D01*
X0072800Y0107800D02*
X0089300Y0107800D01*
X0092300Y0110800D01*
X0096800Y0110800D01*
X0106288Y0110912D02*
X0106300Y0110900D01*
X0106288Y0110912D02*
X0106288Y0118394D01*
X0122922Y0124005D02*
X0122922Y0128335D01*
X0114300Y0093800D02*
X0114300Y0079600D01*
X0106800Y0078646D02*
X0106800Y0086800D01*
X0097000Y0080600D02*
X0095200Y0080600D01*
X0094100Y0079500D01*
X0090009Y0079500D01*
X0089969Y0079540D01*
X0089576Y0079146D01*
X0082300Y0079146D01*
X0082254Y0079100D01*
X0082300Y0072454D02*
X0089576Y0072454D01*
X0089969Y0072060D01*
X0098631Y0073869D02*
X0100500Y0072000D01*
X0106754Y0072000D01*
X0106800Y0071954D01*
X0098631Y0073869D02*
X0098631Y0075800D01*
X0086454Y0086800D02*
X0086454Y0094800D01*
X0080500Y0094734D02*
X0080500Y0087000D01*
X0080500Y0094734D02*
X0080434Y0094800D01*
X0080434Y0102800D02*
X0086454Y0102800D01*
X0072800Y0107800D02*
X0066131Y0114469D01*
X0066131Y0118394D01*
X0072166Y0094800D02*
X0072166Y0089266D01*
X0069700Y0086800D01*
X0065646Y0086800D01*
X0058954Y0086800D02*
X0051800Y0086800D01*
X0048800Y0089800D01*
X0048800Y0094469D01*
X0048000Y0082400D02*
X0056600Y0082400D01*
X0057000Y0082000D01*
X0062631Y0079540D02*
X0063024Y0079146D01*
X0068800Y0079146D01*
X0068800Y0072454D02*
X0063024Y0072454D01*
X0062631Y0072060D01*
X0053969Y0074269D02*
X0053300Y0073600D01*
X0052100Y0072400D01*
X0046354Y0072400D01*
X0046300Y0072454D01*
X0046300Y0079146D02*
X0046300Y0080700D01*
X0048000Y0082400D01*
X0053969Y0075800D02*
X0053969Y0074269D01*
D28*
X0043800Y0068800D02*
X0095700Y0068800D01*
X0098000Y0066500D01*
X0099800Y0066500D01*
X0101800Y0064500D01*
X0101800Y0055300D01*
X0091900Y0055400D02*
X0091900Y0064600D01*
X0088950Y0067550D01*
X0043050Y0067550D01*
X0040800Y0069800D01*
X0040800Y0094300D01*
X0038500Y0096600D01*
X0038300Y0092300D02*
X0039550Y0091050D01*
X0039550Y0069300D01*
X0042550Y0066300D01*
X0087800Y0066300D01*
X0089300Y0064800D01*
X0089300Y0063300D01*
X0085050Y0063300D02*
X0085050Y0063800D01*
X0083800Y0065050D01*
X0042050Y0065050D01*
X0038300Y0068800D01*
X0038300Y0089050D01*
X0036050Y0091300D01*
X0036050Y0101300D01*
X0037300Y0102550D01*
X0040050Y0101050D02*
X0040050Y0106800D01*
X0039550Y0107300D01*
X0037146Y0107300D01*
X0040050Y0101050D02*
X0042100Y0099000D01*
X0042100Y0070500D01*
X0043800Y0068800D01*
X0044550Y0094550D02*
X0044550Y0097300D01*
X0045800Y0098550D01*
X0054204Y0098550D01*
X0054300Y0098454D01*
X0057469Y0118394D02*
X0057469Y0121469D01*
X0059050Y0123050D01*
X0062050Y0123050D01*
X0062800Y0123800D01*
X0055550Y0124800D02*
X0055550Y0126800D01*
X0055550Y0124800D02*
X0054755Y0124005D01*
X0050678Y0124005D01*
X0091900Y0055400D02*
X0091800Y0055300D01*
X0055989Y0199989D02*
X0050678Y0199989D01*
X0055989Y0199989D02*
X0056050Y0200050D01*
D29*
X0113800Y0175200D02*
X0113800Y0161900D01*
X0115000Y0158300D02*
X0116800Y0156500D01*
X0116800Y0144100D01*
X0115100Y0142400D01*
X0115000Y0142400D01*
X0119600Y0137000D02*
X0122919Y0137000D01*
X0122922Y0136997D01*
X0119600Y0137000D02*
X0118100Y0135500D01*
X0118100Y0079600D01*
X0120000Y0081200D02*
X0120000Y0119600D01*
X0120900Y0120500D01*
X0110619Y0118394D02*
X0110619Y0112119D01*
X0110300Y0111800D01*
X0106288Y0118394D02*
X0106288Y0123312D01*
X0104800Y0124800D01*
X0095300Y0124800D01*
X0084800Y0118300D02*
X0079300Y0123800D01*
X0084800Y0118300D02*
X0084800Y0110800D01*
X0093146Y0106346D02*
X0093146Y0102800D01*
X0096600Y0103500D02*
X0096600Y0100000D01*
X0095500Y0098900D01*
X0094100Y0098900D01*
X0093146Y0097946D01*
X0093146Y0095446D01*
X0089700Y0098900D02*
X0087800Y0098900D01*
X0086454Y0097554D01*
X0086454Y0094800D01*
X0086454Y0095554D01*
X0080434Y0094800D02*
X0080400Y0094834D01*
X0080400Y0097900D01*
X0079300Y0099000D01*
X0073200Y0099000D01*
X0072166Y0100034D01*
X0072166Y0102800D01*
X0093146Y0106346D02*
X0094600Y0107800D01*
X0103000Y0107800D01*
X0104300Y0106500D01*
X0104300Y0103631D01*
X0100500Y0099900D02*
X0100500Y0095029D01*
X0100560Y0094969D01*
X0100500Y0099900D02*
X0099600Y0100800D01*
X0096600Y0103500D02*
X0097800Y0104700D01*
X0120000Y0081200D02*
X0120600Y0080600D01*
X0120600Y0078600D01*
X0110700Y0068700D01*
X0098900Y0068700D01*
X0095146Y0072454D01*
X0089576Y0072454D01*
X0122922Y0132666D02*
X0122956Y0132700D01*
X0127000Y0132700D01*
X0128300Y0151300D02*
X0128300Y0153300D01*
X0127300Y0154300D01*
X0122942Y0154300D01*
X0122922Y0154320D01*
X0122927Y0174000D02*
X0122922Y0174005D01*
X0122787Y0178200D02*
X0122922Y0178335D01*
X0122787Y0178200D02*
X0116800Y0178200D01*
X0113800Y0175200D01*
X0122922Y0182666D02*
X0122988Y0182600D01*
X0129400Y0182600D01*
X0126800Y0187000D02*
X0122925Y0187000D01*
X0122922Y0186997D01*
X0122956Y0182700D02*
X0122922Y0182666D01*
D30*
X0135700Y0095700D02*
X0129550Y0089350D01*
X0129550Y0089574D01*
D31*
X0123300Y0204800D02*
X0123300Y0232900D01*
X0123200Y0232300D01*
X0066300Y0232300D02*
X0066300Y0210800D01*
M02*
