G75*
%MOIN*%
%OFA0B0*%
%FSLAX25Y25*%
%IPPOS*%
%LPD*%
%AMOC8*
5,1,8,0,0,1.08239X$1,22.5*
%
%ADD10C,0.00000*%
%ADD11R,0.04331X0.03937*%
%ADD12R,0.06299X0.13780*%
%ADD13R,0.04724X0.04724*%
%ADD14R,0.05512X0.03937*%
%ADD15R,0.03937X0.04331*%
%ADD16R,0.03937X0.05512*%
%ADD17R,0.04528X0.02756*%
%ADD18R,0.02756X0.04528*%
%ADD19R,0.03937X0.03937*%
%ADD20R,0.03800X0.03000*%
%ADD21R,0.03200X0.08400*%
D10*
X0026800Y0048050D02*
X0026800Y0245501D01*
X0146800Y0245501D01*
X0146800Y0048050D01*
X0026800Y0048050D01*
D11*
X0046300Y0072454D03*
X0046300Y0079146D03*
X0068800Y0079146D03*
X0068800Y0072454D03*
X0082300Y0072454D03*
X0082300Y0079146D03*
X0106800Y0078646D03*
X0106800Y0071954D03*
X0136454Y0106800D03*
X0143146Y0106800D03*
X0143146Y0115300D03*
X0136454Y0115300D03*
X0136454Y0123800D03*
X0143146Y0123800D03*
X0102146Y0220300D03*
X0102146Y0228300D03*
X0102046Y0236300D03*
X0095354Y0236300D03*
X0095454Y0228300D03*
X0095454Y0220300D03*
X0037646Y0171800D03*
X0030954Y0171800D03*
D12*
X0129550Y0089574D03*
X0129550Y0067526D03*
D13*
X0080434Y0094800D03*
X0080434Y0102800D03*
X0072166Y0102800D03*
X0072166Y0094800D03*
D14*
X0062631Y0079540D03*
X0062631Y0072060D03*
X0053969Y0075800D03*
X0089969Y0072060D03*
X0089969Y0079540D03*
X0098631Y0075800D03*
D15*
X0093146Y0086800D03*
X0086454Y0086800D03*
X0086454Y0094800D03*
X0093146Y0094800D03*
X0093146Y0102800D03*
X0086454Y0102800D03*
X0065646Y0102800D03*
X0058954Y0102800D03*
X0058954Y0094800D03*
X0065646Y0094800D03*
X0065646Y0086800D03*
X0058954Y0086800D03*
X0037146Y0107300D03*
X0030454Y0107300D03*
X0030454Y0115300D03*
X0037146Y0115300D03*
X0037646Y0139800D03*
X0030954Y0139800D03*
X0030954Y0147800D03*
X0037646Y0147800D03*
D16*
X0038040Y0155469D03*
X0030560Y0155469D03*
X0034300Y0164131D03*
X0033800Y0131631D03*
X0030060Y0122969D03*
X0037540Y0122969D03*
X0045060Y0103131D03*
X0052540Y0103131D03*
X0048800Y0094469D03*
X0100560Y0094969D03*
X0104300Y0103631D03*
X0108040Y0094969D03*
D17*
X0122922Y0124005D03*
X0122922Y0128335D03*
X0122922Y0132666D03*
X0122922Y0136997D03*
X0122922Y0141328D03*
X0122922Y0145658D03*
X0122922Y0149989D03*
X0122922Y0154320D03*
X0122922Y0161013D03*
X0122922Y0165343D03*
X0122922Y0169674D03*
X0122922Y0174005D03*
X0122922Y0178335D03*
X0122922Y0182666D03*
X0122922Y0186997D03*
X0122922Y0191328D03*
X0122922Y0195658D03*
X0122922Y0199989D03*
X0050678Y0199989D03*
X0050678Y0195658D03*
X0050678Y0191328D03*
X0050678Y0186997D03*
X0050678Y0182666D03*
X0050678Y0178335D03*
X0050678Y0174005D03*
X0050678Y0169674D03*
X0050678Y0165343D03*
X0050678Y0161013D03*
X0050678Y0154320D03*
X0050678Y0149989D03*
X0050678Y0145658D03*
X0050678Y0141328D03*
X0050678Y0136997D03*
X0050678Y0132666D03*
X0050678Y0128335D03*
X0050678Y0124005D03*
D18*
X0057469Y0118394D03*
X0061800Y0118394D03*
X0066131Y0118394D03*
X0070461Y0118394D03*
X0074792Y0118394D03*
X0079123Y0118394D03*
X0088965Y0118394D03*
X0093296Y0118394D03*
X0097627Y0118394D03*
X0101957Y0118394D03*
X0106288Y0118394D03*
X0110619Y0118394D03*
X0114950Y0118394D03*
X0114950Y0205206D03*
X0110619Y0205206D03*
X0106288Y0205206D03*
X0101957Y0205206D03*
X0097627Y0205206D03*
X0093296Y0205206D03*
X0088965Y0205206D03*
X0079123Y0205206D03*
X0074792Y0205206D03*
X0070461Y0205206D03*
X0066131Y0205206D03*
X0061800Y0205206D03*
X0057469Y0205206D03*
D19*
X0076761Y0191918D03*
X0076761Y0185225D03*
X0070068Y0178532D03*
X0070068Y0171839D03*
X0070068Y0165146D03*
X0070068Y0158454D03*
X0063375Y0158454D03*
X0063375Y0165146D03*
X0063375Y0171839D03*
X0063375Y0178532D03*
X0083454Y0185225D03*
X0090146Y0185225D03*
X0090146Y0191918D03*
X0083454Y0191918D03*
X0096839Y0191918D03*
X0096839Y0185225D03*
X0103532Y0178532D03*
X0103532Y0171839D03*
X0103532Y0165146D03*
X0103532Y0158454D03*
X0110225Y0158454D03*
X0110225Y0165146D03*
X0110225Y0171839D03*
X0110225Y0178532D03*
X0110225Y0151761D03*
X0103532Y0151761D03*
X0103532Y0145068D03*
X0110225Y0145068D03*
X0096839Y0138375D03*
X0090146Y0138375D03*
X0083454Y0138375D03*
X0083454Y0131682D03*
X0090146Y0131682D03*
X0096839Y0131682D03*
X0076761Y0131682D03*
X0076761Y0138375D03*
X0070068Y0145068D03*
X0070068Y0151761D03*
X0063375Y0151761D03*
X0063375Y0145068D03*
D20*
X0066300Y0230200D03*
X0123200Y0230200D03*
D21*
X0117706Y0236200D03*
X0128694Y0236200D03*
X0071794Y0236200D03*
X0060806Y0236200D03*
M02*
