G75*
%MOIN*%
%OFA0B0*%
%FSLAX25Y25*%
%IPPOS*%
%LPD*%
%AMOC8*
5,1,8,0,0,1.08239X$1,22.5*
%
%ADD10C,0.00000*%
%ADD11R,0.01020X0.00030*%
%ADD12R,0.01800X0.00030*%
%ADD13R,0.02310X0.00030*%
%ADD14R,0.02730X0.00030*%
%ADD15R,0.03090X0.00030*%
%ADD16R,0.03450X0.00030*%
%ADD17R,0.03750X0.00030*%
%ADD18R,0.03990X0.00030*%
%ADD19R,0.04260X0.00030*%
%ADD20R,0.04500X0.00030*%
%ADD21R,0.04710X0.00030*%
%ADD22R,0.04950X0.00030*%
%ADD23R,0.05160X0.00030*%
%ADD24R,0.05340X0.00030*%
%ADD25R,0.05550X0.00030*%
%ADD26R,0.05730X0.00030*%
%ADD27R,0.05910X0.00030*%
%ADD28R,0.06090X0.00030*%
%ADD29R,0.06210X0.00030*%
%ADD30R,0.06390X0.00030*%
%ADD31R,0.06570X0.00030*%
%ADD32R,0.06690X0.00030*%
%ADD33R,0.06870X0.00030*%
%ADD34R,0.06990X0.00030*%
%ADD35R,0.07140X0.00030*%
%ADD36R,0.07290X0.00030*%
%ADD37R,0.07410X0.00030*%
%ADD38R,0.07530X0.00030*%
%ADD39R,0.07650X0.00030*%
%ADD40R,0.07770X0.00030*%
%ADD41R,0.07920X0.00030*%
%ADD42R,0.08040X0.00030*%
%ADD43R,0.08160X0.00030*%
%ADD44R,0.08280X0.00030*%
%ADD45R,0.08370X0.00030*%
%ADD46R,0.08490X0.00030*%
%ADD47R,0.08610X0.00030*%
%ADD48R,0.08730X0.00030*%
%ADD49R,0.08850X0.00030*%
%ADD50R,0.08910X0.00030*%
%ADD51R,0.09030X0.00030*%
%ADD52R,0.09150X0.00030*%
%ADD53R,0.09270X0.00030*%
%ADD54R,0.09330X0.00030*%
%ADD55R,0.09450X0.00030*%
%ADD56R,0.09540X0.00030*%
%ADD57R,0.09630X0.00030*%
%ADD58R,0.09750X0.00030*%
%ADD59R,0.09810X0.00030*%
%ADD60R,0.09930X0.00030*%
%ADD61R,0.09990X0.00030*%
%ADD62R,0.10110X0.00030*%
%ADD63R,0.10170X0.00030*%
%ADD64R,0.10290X0.00030*%
%ADD65R,0.10350X0.00030*%
%ADD66R,0.10440X0.00030*%
%ADD67R,0.10530X0.00030*%
%ADD68R,0.10590X0.00030*%
%ADD69R,0.10710X0.00030*%
%ADD70R,0.10770X0.00030*%
%ADD71R,0.10830X0.00030*%
%ADD72R,0.10950X0.00030*%
%ADD73R,0.11010X0.00030*%
%ADD74R,0.11070X0.00030*%
%ADD75R,0.11160X0.00030*%
%ADD76R,0.11250X0.00030*%
%ADD77R,0.11310X0.00030*%
%ADD78R,0.11370X0.00030*%
%ADD79R,0.11430X0.00030*%
%ADD80R,0.11550X0.00030*%
%ADD81R,0.11610X0.00030*%
%ADD82R,0.11670X0.00030*%
%ADD83R,0.11730X0.00030*%
%ADD84R,0.11790X0.00030*%
%ADD85R,0.11910X0.00030*%
%ADD86R,0.11970X0.00030*%
%ADD87R,0.12030X0.00030*%
%ADD88R,0.12090X0.00030*%
%ADD89R,0.12150X0.00030*%
%ADD90R,0.12210X0.00030*%
%ADD91R,0.12270X0.00030*%
%ADD92R,0.12330X0.00030*%
%ADD93R,0.12390X0.00030*%
%ADD94R,0.12450X0.00030*%
%ADD95R,0.12510X0.00030*%
%ADD96R,0.12570X0.00030*%
%ADD97R,0.12630X0.00030*%
%ADD98R,0.12690X0.00030*%
%ADD99R,0.12750X0.00030*%
%ADD100R,0.12810X0.00030*%
%ADD101R,0.12870X0.00030*%
%ADD102R,0.12930X0.00030*%
%ADD103R,0.12990X0.00030*%
%ADD104R,0.13050X0.00030*%
%ADD105R,0.13110X0.00030*%
%ADD106R,0.13170X0.00030*%
%ADD107R,0.13230X0.00030*%
%ADD108R,0.13290X0.00030*%
%ADD109R,0.13350X0.00030*%
%ADD110R,0.13410X0.00030*%
%ADD111R,0.13470X0.00030*%
%ADD112R,0.13530X0.00030*%
%ADD113R,0.13590X0.00030*%
%ADD114R,0.13650X0.00030*%
%ADD115R,0.13710X0.00030*%
%ADD116R,0.13770X0.00030*%
%ADD117R,0.13830X0.00030*%
%ADD118R,0.13890X0.00030*%
%ADD119R,0.13950X0.00030*%
%ADD120R,0.14010X0.00030*%
%ADD121R,0.14070X0.00030*%
%ADD122R,0.14130X0.00030*%
%ADD123R,0.14160X0.00030*%
%ADD124R,0.14190X0.00030*%
%ADD125R,0.14250X0.00030*%
%ADD126R,0.14310X0.00030*%
%ADD127R,0.14370X0.00030*%
%ADD128R,0.14430X0.00030*%
%ADD129R,0.14490X0.00030*%
%ADD130R,0.14550X0.00030*%
%ADD131R,0.14610X0.00030*%
%ADD132R,0.14670X0.00030*%
%ADD133R,0.14700X0.00030*%
%ADD134R,0.14730X0.00030*%
%ADD135R,0.14790X0.00030*%
%ADD136R,0.14850X0.00030*%
%ADD137R,0.14910X0.00030*%
%ADD138R,0.14970X0.00030*%
%ADD139R,0.15030X0.00030*%
%ADD140R,0.15090X0.00030*%
%ADD141R,0.15150X0.00030*%
%ADD142R,0.15210X0.00030*%
%ADD143R,0.15270X0.00030*%
%ADD144R,0.15330X0.00030*%
%ADD145R,0.15390X0.00030*%
%ADD146R,0.15450X0.00030*%
%ADD147R,0.15510X0.00030*%
%ADD148R,0.15570X0.00030*%
%ADD149R,0.15630X0.00030*%
%ADD150R,0.15690X0.00030*%
%ADD151R,0.15750X0.00030*%
%ADD152R,0.15810X0.00030*%
%ADD153R,0.15870X0.00030*%
%ADD154R,0.15930X0.00030*%
%ADD155R,0.01470X0.00030*%
%ADD156R,0.06090X0.00030*%
%ADD157R,0.06060X0.00030*%
%ADD158R,0.01500X0.00030*%
%ADD159R,0.01350X0.00030*%
%ADD160R,0.01260X0.00030*%
%ADD161R,0.05520X0.00030*%
%ADD162R,0.01200X0.00030*%
%ADD163R,0.05430X0.00030*%
%ADD164R,0.05400X0.00030*%
%ADD165R,0.01230X0.00030*%
%ADD166R,0.01170X0.00030*%
%ADD167R,0.05310X0.00030*%
%ADD168R,0.05280X0.00030*%
%ADD169R,0.01140X0.00030*%
%ADD170R,0.05220X0.00030*%
%ADD171R,0.01170X0.00030*%
%ADD172R,0.01110X0.00030*%
%ADD173R,0.05130X0.00030*%
%ADD174R,0.05070X0.00030*%
%ADD175R,0.05070X0.00030*%
%ADD176R,0.01080X0.00030*%
%ADD177R,0.05010X0.00030*%
%ADD178R,0.04980X0.00030*%
%ADD179R,0.01050X0.00030*%
%ADD180R,0.04890X0.00030*%
%ADD181R,0.04830X0.00030*%
%ADD182R,0.04800X0.00030*%
%ADD183R,0.04770X0.00030*%
%ADD184R,0.04740X0.00030*%
%ADD185R,0.04680X0.00030*%
%ADD186R,0.04620X0.00030*%
%ADD187R,0.01020X0.00030*%
%ADD188R,0.04590X0.00030*%
%ADD189R,0.04560X0.00030*%
%ADD190R,0.04530X0.00030*%
%ADD191R,0.04470X0.00030*%
%ADD192R,0.04440X0.00030*%
%ADD193R,0.04410X0.00030*%
%ADD194R,0.04380X0.00030*%
%ADD195R,0.04350X0.00030*%
%ADD196R,0.00030X0.00030*%
%ADD197R,0.04320X0.00030*%
%ADD198R,0.04290X0.00030*%
%ADD199R,0.00990X0.00030*%
%ADD200R,0.00060X0.00030*%
%ADD201R,0.00090X0.00030*%
%ADD202R,0.04230X0.00030*%
%ADD203R,0.00090X0.00030*%
%ADD204R,0.04200X0.00030*%
%ADD205R,0.00990X0.00030*%
%ADD206R,0.00120X0.00030*%
%ADD207R,0.04170X0.00030*%
%ADD208R,0.00120X0.00030*%
%ADD209R,0.00150X0.00030*%
%ADD210R,0.04140X0.00030*%
%ADD211R,0.04110X0.00030*%
%ADD212R,0.00180X0.00030*%
%ADD213R,0.04080X0.00030*%
%ADD214R,0.00210X0.00030*%
%ADD215R,0.04050X0.00030*%
%ADD216R,0.04020X0.00030*%
%ADD217R,0.00240X0.00030*%
%ADD218R,0.04020X0.00030*%
%ADD219R,0.03990X0.00030*%
%ADD220R,0.00270X0.00030*%
%ADD221R,0.03960X0.00030*%
%ADD222R,0.00270X0.00030*%
%ADD223R,0.00300X0.00030*%
%ADD224R,0.03930X0.00030*%
%ADD225R,0.03900X0.00030*%
%ADD226R,0.00330X0.00030*%
%ADD227R,0.00360X0.00030*%
%ADD228R,0.03870X0.00030*%
%ADD229R,0.03840X0.00030*%
%ADD230R,0.03840X0.00030*%
%ADD231R,0.03810X0.00030*%
%ADD232R,0.00390X0.00030*%
%ADD233R,0.03780X0.00030*%
%ADD234R,0.00390X0.00030*%
%ADD235R,0.00420X0.00030*%
%ADD236R,0.00420X0.00030*%
%ADD237R,0.00450X0.00030*%
%ADD238R,0.03720X0.00030*%
%ADD239R,0.00480X0.00030*%
%ADD240R,0.03690X0.00030*%
%ADD241R,0.03660X0.00030*%
%ADD242R,0.03630X0.00030*%
%ADD243R,0.00510X0.00030*%
%ADD244R,0.03600X0.00030*%
%ADD245R,0.00540X0.00030*%
%ADD246R,0.03570X0.00030*%
%ADD247R,0.03540X0.00030*%
%ADD248R,0.00570X0.00030*%
%ADD249R,0.00570X0.00030*%
%ADD250R,0.03510X0.00030*%
%ADD251R,0.00600X0.00030*%
%ADD252R,0.03480X0.00030*%
%ADD253R,0.00630X0.00030*%
%ADD254R,0.00660X0.00030*%
%ADD255R,0.03420X0.00030*%
%ADD256R,0.03390X0.00030*%
%ADD257R,0.03390X0.00030*%
%ADD258R,0.00690X0.00030*%
%ADD259R,0.03360X0.00030*%
%ADD260R,0.00690X0.00030*%
%ADD261R,0.00720X0.00030*%
%ADD262R,0.03330X0.00030*%
%ADD263R,0.00720X0.00030*%
%ADD264R,0.03300X0.00030*%
%ADD265R,0.00750X0.00030*%
%ADD266R,0.03270X0.00030*%
%ADD267R,0.00780X0.00030*%
%ADD268R,0.03240X0.00030*%
%ADD269R,0.03210X0.00030*%
%ADD270R,0.00810X0.00030*%
%ADD271R,0.03180X0.00030*%
%ADD272R,0.00840X0.00030*%
%ADD273R,0.03150X0.00030*%
%ADD274R,0.03120X0.00030*%
%ADD275R,0.00960X0.00030*%
%ADD276R,0.03120X0.00030*%
%ADD277R,0.00240X0.00030*%
%ADD278R,0.03090X0.00030*%
%ADD279R,0.00870X0.00030*%
%ADD280R,0.00870X0.00030*%
%ADD281R,0.03060X0.00030*%
%ADD282R,0.00900X0.00030*%
%ADD283R,0.03030X0.00030*%
%ADD284R,0.03000X0.00030*%
%ADD285R,0.00930X0.00030*%
%ADD286R,0.02970X0.00030*%
%ADD287R,0.02940X0.00030*%
%ADD288R,0.02940X0.00030*%
%ADD289R,0.02910X0.00030*%
%ADD290R,0.02880X0.00030*%
%ADD291R,0.02850X0.00030*%
%ADD292R,0.02820X0.00030*%
%ADD293R,0.02790X0.00030*%
%ADD294R,0.02760X0.00030*%
%ADD295R,0.02700X0.00030*%
%ADD296R,0.02670X0.00030*%
%ADD297R,0.02670X0.00030*%
%ADD298R,0.02640X0.00030*%
%ADD299R,0.02610X0.00030*%
%ADD300R,0.02580X0.00030*%
%ADD301R,0.02550X0.00030*%
%ADD302R,0.02520X0.00030*%
%ADD303R,0.02490X0.00030*%
%ADD304R,0.01290X0.00030*%
%ADD305R,0.02490X0.00030*%
%ADD306R,0.02460X0.00030*%
%ADD307R,0.02430X0.00030*%
%ADD308R,0.01290X0.00030*%
%ADD309R,0.01320X0.00030*%
%ADD310R,0.01320X0.00030*%
%ADD311R,0.02400X0.00030*%
%ADD312R,0.02370X0.00030*%
%ADD313R,0.02340X0.00030*%
%ADD314R,0.01380X0.00030*%
%ADD315R,0.01410X0.00030*%
%ADD316R,0.02280X0.00030*%
%ADD317R,0.01440X0.00030*%
%ADD318R,0.02250X0.00030*%
%ADD319R,0.00540X0.00030*%
%ADD320R,0.02220X0.00030*%
%ADD321R,0.02220X0.00030*%
%ADD322R,0.01470X0.00030*%
%ADD323R,0.02190X0.00030*%
%ADD324R,0.02160X0.00030*%
%ADD325R,0.02130X0.00030*%
%ADD326R,0.01530X0.00030*%
%ADD327R,0.02100X0.00030*%
%ADD328R,0.01560X0.00030*%
%ADD329R,0.02070X0.00030*%
%ADD330R,0.02040X0.00030*%
%ADD331R,0.02040X0.00030*%
%ADD332R,0.01590X0.00030*%
%ADD333R,0.02010X0.00030*%
%ADD334R,0.01590X0.00030*%
%ADD335R,0.01620X0.00030*%
%ADD336R,0.01980X0.00030*%
%ADD337R,0.01620X0.00030*%
%ADD338R,0.01950X0.00030*%
%ADD339R,0.01650X0.00030*%
%ADD340R,0.01920X0.00030*%
%ADD341R,0.01680X0.00030*%
%ADD342R,0.01890X0.00030*%
%ADD343R,0.01860X0.00030*%
%ADD344R,0.01710X0.00030*%
%ADD345R,0.01830X0.00030*%
%ADD346R,0.01740X0.00030*%
%ADD347R,0.01770X0.00030*%
%ADD348R,0.01770X0.00030*%
%ADD349R,0.01890X0.00030*%
%ADD350R,0.01920X0.00030*%
%ADD351R,0.00840X0.00030*%
%ADD352R,0.02070X0.00030*%
%ADD353R,0.01140X0.00030*%
%ADD354R,0.02190X0.00030*%
%ADD355R,0.02370X0.00030*%
%ADD356R,0.02520X0.00030*%
%ADD357R,0.02790X0.00030*%
%ADD358R,0.02820X0.00030*%
%ADD359R,0.02970X0.00030*%
%ADD360R,0.03270X0.00030*%
%ADD361R,0.03420X0.00030*%
%ADD362R,0.03690X0.00030*%
%ADD363R,0.04290X0.00030*%
%ADD364R,0.04650X0.00030*%
%ADD365R,0.04890X0.00030*%
%ADD366R,0.04920X0.00030*%
%ADD367R,0.05040X0.00030*%
%ADD368R,0.05100X0.00030*%
%ADD369R,0.05190X0.00030*%
%ADD370R,0.05250X0.00030*%
%ADD371R,0.05370X0.00030*%
%ADD372R,0.05490X0.00030*%
%ADD373R,0.04170X0.00030*%
%ADD374R,0.05640X0.00030*%
%ADD375R,0.05880X0.00030*%
%ADD376R,0.15360X0.00030*%
%ADD377R,0.14100X0.00030*%
%ADD378R,0.11850X0.00030*%
%ADD379R,0.11490X0.00030*%
%ADD380R,0.11130X0.00030*%
%ADD381R,0.10890X0.00030*%
%ADD382R,0.10650X0.00030*%
%ADD383R,0.10410X0.00030*%
%ADD384R,0.10230X0.00030*%
%ADD385R,0.09900X0.00030*%
%ADD386R,0.09690X0.00030*%
%ADD387R,0.09510X0.00030*%
%ADD388R,0.09210X0.00030*%
%ADD389R,0.08790X0.00030*%
%ADD390R,0.08250X0.00030*%
%ADD391R,0.08130X0.00030*%
%ADD392R,0.08010X0.00030*%
%ADD393R,0.07890X0.00030*%
%ADD394R,0.07260X0.00030*%
%ADD395R,0.07110X0.00030*%
%ADD396R,0.06810X0.00030*%
%ADD397R,0.06510X0.00030*%
%ADD398R,0.06030X0.00030*%
%ADD399R,0.05700X0.00030*%
%ADD400R,0.04470X0.00030*%
%ADD401R,0.00650X0.00050*%
%ADD402R,0.00800X0.00050*%
%ADD403R,0.01150X0.00050*%
%ADD404R,0.01400X0.00050*%
%ADD405R,0.00300X0.00050*%
%ADD406R,0.00200X0.00050*%
%ADD407R,0.00250X0.00050*%
%ADD408R,0.00350X0.00050*%
%ADD409R,0.01450X0.00050*%
%ADD410R,0.01700X0.00050*%
%ADD411R,0.01650X0.00050*%
%ADD412R,0.01850X0.00050*%
%ADD413R,0.01900X0.00050*%
%ADD414R,0.01950X0.00050*%
%ADD415R,0.02050X0.00050*%
%ADD416R,0.00600X0.00050*%
%ADD417R,0.00850X0.00050*%
%ADD418R,0.02150X0.00050*%
%ADD419R,0.00700X0.00050*%
%ADD420R,0.00400X0.00050*%
%ADD421R,0.00900X0.00050*%
%ADD422R,0.00550X0.00050*%
%ADD423R,0.00100X0.00050*%
%ADD424R,0.00450X0.00050*%
%ADD425R,0.00500X0.00050*%
%ADD426R,0.02350X0.00050*%
%ADD427R,0.02300X0.00050*%
%ADD428R,0.02250X0.00050*%
%ADD429R,0.02200X0.00050*%
%ADD430R,0.01800X0.00050*%
%ADD431R,0.00750X0.00050*%
%ADD432R,0.02000X0.00050*%
%ADD433R,0.02100X0.00050*%
%ADD434R,0.01750X0.00050*%
%ADD435R,0.01350X0.00050*%
%ADD436R,0.01500X0.00050*%
%ADD437R,0.01050X0.00050*%
%ADD438R,0.00150X0.00050*%
%ADD439C,0.00300*%
%ADD440C,0.00200*%
%ADD441C,0.00500*%
D10*
X0026800Y0048050D02*
X0026800Y0245501D01*
X0146800Y0245501D01*
X0146800Y0048050D01*
X0026800Y0048050D01*
D11*
X0109309Y0089905D03*
X0109309Y0089935D03*
X0109249Y0090055D03*
X0109219Y0090115D03*
X0109369Y0089815D03*
X0109399Y0089755D03*
X0113209Y0093715D03*
X0114409Y0094105D03*
X0114409Y0094135D03*
X0117019Y0091315D03*
X0117019Y0091285D03*
X0119599Y0094015D03*
X0120859Y0093745D03*
X0120859Y0093715D03*
X0120199Y0096295D03*
X0120199Y0096325D03*
X0125299Y0091465D03*
X0125269Y0091345D03*
X0125209Y0091165D03*
X0125209Y0091135D03*
X0125149Y0090955D03*
X0125149Y0090925D03*
X0125119Y0090865D03*
X0125119Y0090835D03*
X0125059Y0090685D03*
X0125059Y0090655D03*
X0124999Y0090505D03*
X0124969Y0090445D03*
X0124969Y0090415D03*
X0124909Y0090295D03*
X0124909Y0090265D03*
X0124849Y0090145D03*
X0124849Y0090115D03*
X0124819Y0090085D03*
X0124819Y0090055D03*
X0124759Y0089935D03*
X0117049Y0084595D03*
X0112399Y0097555D03*
D12*
X0113329Y0092665D03*
X0113329Y0092635D03*
X0110689Y0092755D03*
X0110689Y0092785D03*
X0110689Y0092815D03*
X0117019Y0092815D03*
X0117019Y0092785D03*
X0117019Y0092755D03*
X0117049Y0084625D03*
D13*
X0117034Y0084655D03*
X0120634Y0091945D03*
X0120634Y0091975D03*
X0123364Y0093805D03*
X0123364Y0093835D03*
X0123364Y0093865D03*
X0123364Y0093895D03*
X0123364Y0097135D03*
X0117034Y0093865D03*
X0117034Y0093835D03*
X0113404Y0091975D03*
X0110674Y0093835D03*
X0110674Y0093865D03*
X0112174Y0098095D03*
D14*
X0110674Y0094735D03*
X0113494Y0091465D03*
X0117034Y0094735D03*
X0120574Y0091465D03*
X0120574Y0091435D03*
X0123364Y0094675D03*
X0123364Y0094705D03*
X0123364Y0094735D03*
X0123364Y0094765D03*
X0123364Y0096835D03*
X0123364Y0096865D03*
X0117034Y0102505D03*
X0117034Y0084685D03*
D15*
X0117034Y0084715D03*
X0117034Y0095455D03*
X0117034Y0102475D03*
D16*
X0117034Y0102445D03*
X0117034Y0096115D03*
X0123364Y0096115D03*
X0123364Y0096145D03*
X0123364Y0096175D03*
X0123364Y0096265D03*
X0123364Y0096295D03*
X0123364Y0096085D03*
X0120454Y0090685D03*
X0117034Y0084745D03*
X0113614Y0090685D03*
X0110674Y0096115D03*
D17*
X0117034Y0096625D03*
X0120394Y0090415D03*
X0117034Y0084775D03*
X0113644Y0090415D03*
D18*
X0117034Y0084805D03*
X0117034Y0096985D03*
X0117034Y0102385D03*
D19*
X0117019Y0097345D03*
X0113749Y0090025D03*
X0117049Y0084835D03*
X0120319Y0090025D03*
D20*
X0117049Y0084865D03*
X0113779Y0089875D03*
X0117019Y0097585D03*
X0117019Y0097615D03*
D21*
X0117034Y0097795D03*
X0117034Y0102295D03*
X0117034Y0084895D03*
D22*
X0117034Y0084925D03*
X0113854Y0089665D03*
D23*
X0117049Y0084955D03*
X0120199Y0089575D03*
D24*
X0117049Y0084985D03*
D25*
X0117034Y0085015D03*
X0113854Y0089455D03*
D26*
X0113854Y0089425D03*
X0117034Y0085045D03*
X0120184Y0089425D03*
D27*
X0117034Y0085075D03*
X0117034Y0102115D03*
D28*
X0117034Y0085105D03*
D29*
X0117034Y0085135D03*
X0117034Y0102055D03*
D30*
X0117034Y0102025D03*
X0117034Y0085165D03*
D31*
X0117034Y0085195D03*
D32*
X0117034Y0085225D03*
X0117034Y0101965D03*
D33*
X0117034Y0085255D03*
D34*
X0117034Y0085285D03*
X0117034Y0101905D03*
D35*
X0117049Y0085315D03*
D36*
X0117034Y0085345D03*
D37*
X0117034Y0085375D03*
X0117034Y0101815D03*
D38*
X0117034Y0101785D03*
X0117034Y0085405D03*
D39*
X0117034Y0085435D03*
X0117034Y0101755D03*
D40*
X0117034Y0101725D03*
X0117034Y0085465D03*
D41*
X0117049Y0085495D03*
D42*
X0117049Y0085525D03*
D43*
X0117049Y0085555D03*
D44*
X0117049Y0085585D03*
D45*
X0117034Y0085615D03*
X0117034Y0101575D03*
D46*
X0117034Y0101545D03*
X0117034Y0085645D03*
D47*
X0117034Y0085675D03*
X0117034Y0101515D03*
D48*
X0117034Y0101485D03*
X0117034Y0085705D03*
D49*
X0117034Y0085735D03*
D50*
X0117034Y0085765D03*
X0117034Y0101425D03*
D51*
X0117034Y0101395D03*
X0117034Y0085795D03*
D52*
X0117034Y0085825D03*
X0117034Y0101365D03*
D53*
X0117034Y0085855D03*
D54*
X0117034Y0085885D03*
X0117034Y0101305D03*
D55*
X0117034Y0101275D03*
X0117034Y0085915D03*
D56*
X0117049Y0085945D03*
D57*
X0117034Y0085975D03*
X0117034Y0101215D03*
D58*
X0117034Y0086005D03*
D59*
X0117034Y0086035D03*
X0117034Y0101155D03*
D60*
X0117034Y0086065D03*
D61*
X0117034Y0086095D03*
X0117034Y0101095D03*
D62*
X0117034Y0101065D03*
X0117034Y0086125D03*
D63*
X0117034Y0086155D03*
X0117034Y0101035D03*
D64*
X0117034Y0086185D03*
D65*
X0117034Y0086215D03*
X0117034Y0100975D03*
D66*
X0117049Y0086245D03*
D67*
X0117034Y0086275D03*
X0117034Y0100915D03*
D68*
X0117034Y0100885D03*
X0117034Y0086305D03*
D69*
X0117034Y0086335D03*
D70*
X0117034Y0086365D03*
X0117034Y0100825D03*
D71*
X0117034Y0100795D03*
X0117034Y0086395D03*
D72*
X0117034Y0086425D03*
D73*
X0117034Y0086455D03*
X0117034Y0100735D03*
D74*
X0117034Y0100705D03*
X0117034Y0086485D03*
D75*
X0117049Y0086515D03*
D76*
X0117034Y0086545D03*
X0117034Y0100645D03*
D77*
X0117034Y0100615D03*
X0117034Y0086575D03*
D78*
X0117034Y0086605D03*
X0117034Y0100585D03*
D79*
X0117034Y0100555D03*
X0117034Y0086635D03*
D80*
X0117034Y0086665D03*
D81*
X0117034Y0086695D03*
X0117034Y0100495D03*
D82*
X0117034Y0100465D03*
X0117034Y0086725D03*
D83*
X0117034Y0086755D03*
X0117034Y0100435D03*
D84*
X0117034Y0100405D03*
X0117034Y0086785D03*
D85*
X0117034Y0086815D03*
X0117034Y0100345D03*
D86*
X0117034Y0086845D03*
D87*
X0117034Y0086875D03*
X0117034Y0100315D03*
D88*
X0117034Y0100285D03*
X0117034Y0086905D03*
D89*
X0117034Y0086935D03*
X0117034Y0100255D03*
D90*
X0117034Y0100225D03*
X0117034Y0086965D03*
D91*
X0117034Y0086995D03*
X0117034Y0100195D03*
D92*
X0117034Y0100165D03*
X0117034Y0087025D03*
D93*
X0117034Y0087055D03*
X0117034Y0100135D03*
D94*
X0117034Y0100105D03*
X0117034Y0087085D03*
D95*
X0117034Y0087115D03*
X0117034Y0100075D03*
D96*
X0117034Y0100045D03*
X0117034Y0087145D03*
D97*
X0117034Y0087175D03*
X0117034Y0100015D03*
D98*
X0117034Y0099985D03*
X0117034Y0087205D03*
D99*
X0117034Y0087235D03*
X0117034Y0099955D03*
D100*
X0117034Y0099925D03*
X0117034Y0087265D03*
D101*
X0117034Y0087295D03*
X0117034Y0099895D03*
D102*
X0117034Y0099865D03*
X0117034Y0087325D03*
D103*
X0117034Y0087355D03*
X0117034Y0099835D03*
D104*
X0117034Y0099805D03*
X0117034Y0087385D03*
D105*
X0117034Y0087415D03*
X0117034Y0099775D03*
D106*
X0117034Y0099745D03*
X0117034Y0087445D03*
D107*
X0117034Y0087475D03*
X0117034Y0099715D03*
D108*
X0117034Y0099685D03*
X0117034Y0087505D03*
D109*
X0117034Y0087535D03*
X0117034Y0099655D03*
D110*
X0117034Y0099625D03*
X0117034Y0087565D03*
D111*
X0117034Y0087595D03*
X0117034Y0099565D03*
X0117034Y0099595D03*
D112*
X0117034Y0099535D03*
X0117034Y0087625D03*
D113*
X0117034Y0087655D03*
X0117034Y0087685D03*
X0117034Y0099505D03*
D114*
X0117034Y0099475D03*
X0117034Y0087715D03*
D115*
X0117034Y0087745D03*
X0117034Y0099445D03*
D116*
X0117034Y0099415D03*
X0117034Y0087775D03*
D117*
X0117034Y0087805D03*
X0117034Y0099355D03*
X0117034Y0099385D03*
D118*
X0117034Y0099325D03*
X0117034Y0087865D03*
X0117034Y0087835D03*
D119*
X0117034Y0087895D03*
X0117034Y0099295D03*
D120*
X0117034Y0099265D03*
X0117034Y0087925D03*
D121*
X0117034Y0087955D03*
X0117034Y0099235D03*
D122*
X0117034Y0099175D03*
X0117034Y0087985D03*
D123*
X0117049Y0088015D03*
D124*
X0117034Y0088045D03*
X0117034Y0099145D03*
D125*
X0117034Y0099115D03*
X0117034Y0088075D03*
D126*
X0117034Y0088105D03*
X0117034Y0099055D03*
X0117034Y0099085D03*
D127*
X0117034Y0099025D03*
X0117034Y0088165D03*
X0117034Y0088135D03*
D128*
X0117034Y0088195D03*
X0117034Y0098995D03*
D129*
X0117034Y0098965D03*
X0117034Y0098935D03*
X0117034Y0088225D03*
D130*
X0117034Y0088255D03*
X0117034Y0088285D03*
X0117034Y0098905D03*
D131*
X0117034Y0098875D03*
X0117034Y0088315D03*
D132*
X0117034Y0088345D03*
X0117034Y0098815D03*
X0117034Y0098845D03*
D133*
X0117049Y0088375D03*
D134*
X0117034Y0088405D03*
X0117034Y0098785D03*
D135*
X0117034Y0098755D03*
X0117034Y0098725D03*
X0117034Y0088435D03*
D136*
X0117034Y0088465D03*
X0117034Y0088495D03*
X0117034Y0098695D03*
D137*
X0117034Y0098665D03*
X0117034Y0098635D03*
X0117034Y0088525D03*
D138*
X0117034Y0088555D03*
X0117034Y0088585D03*
X0117034Y0098605D03*
D139*
X0117034Y0098575D03*
X0117034Y0098545D03*
X0117034Y0088615D03*
D140*
X0117034Y0088645D03*
X0117034Y0088675D03*
X0117034Y0098515D03*
D141*
X0117034Y0098485D03*
X0117034Y0098455D03*
X0117034Y0088705D03*
D142*
X0117034Y0088735D03*
X0117034Y0088765D03*
X0117034Y0098425D03*
D143*
X0117034Y0098395D03*
X0117034Y0098365D03*
X0117034Y0088825D03*
X0117034Y0088795D03*
D144*
X0117034Y0088855D03*
X0117034Y0098335D03*
D145*
X0117034Y0098275D03*
X0117034Y0088915D03*
X0117034Y0088885D03*
D146*
X0117034Y0088945D03*
X0117034Y0098245D03*
D147*
X0117034Y0089005D03*
X0117034Y0088975D03*
D148*
X0117034Y0089035D03*
X0117034Y0089065D03*
D149*
X0117034Y0089095D03*
X0117034Y0089125D03*
D150*
X0117034Y0089155D03*
D151*
X0117034Y0089185D03*
X0117034Y0089215D03*
D152*
X0117034Y0089245D03*
X0117034Y0089275D03*
D153*
X0117034Y0089305D03*
X0117034Y0089335D03*
D154*
X0117034Y0089365D03*
D155*
X0123364Y0092095D03*
X0123364Y0092125D03*
X0123364Y0092155D03*
X0123364Y0092185D03*
X0123364Y0097615D03*
X0109804Y0089395D03*
D156*
X0113854Y0089395D03*
D157*
X0120199Y0089395D03*
D158*
X0120769Y0093025D03*
X0120769Y0093055D03*
X0121729Y0097825D03*
X0117019Y0092215D03*
X0117019Y0092185D03*
X0117019Y0092155D03*
X0113269Y0093055D03*
X0110689Y0092215D03*
X0110689Y0092185D03*
X0110689Y0092155D03*
X0124249Y0089395D03*
D159*
X0124354Y0089425D03*
X0123364Y0091855D03*
X0123364Y0091885D03*
X0123364Y0091915D03*
X0123364Y0091945D03*
X0120094Y0095365D03*
X0120124Y0095425D03*
X0120124Y0095455D03*
X0120154Y0095515D03*
X0120184Y0095725D03*
X0121714Y0097765D03*
X0123364Y0097675D03*
X0117034Y0091915D03*
X0117034Y0091885D03*
X0113254Y0093235D03*
X0113254Y0093265D03*
X0113944Y0095395D03*
X0113944Y0095425D03*
X0113914Y0095455D03*
X0113914Y0095485D03*
X0113854Y0095695D03*
X0113854Y0095725D03*
X0113854Y0095755D03*
X0110674Y0091915D03*
X0110674Y0091885D03*
X0109714Y0089425D03*
D160*
X0109669Y0089455D03*
X0110689Y0091705D03*
X0110689Y0091735D03*
X0110689Y0091765D03*
X0113239Y0093355D03*
X0113239Y0093385D03*
X0113239Y0093415D03*
X0114079Y0095035D03*
X0114079Y0095065D03*
X0114049Y0095095D03*
X0114049Y0095125D03*
X0112369Y0097705D03*
X0110689Y0097705D03*
X0109879Y0098125D03*
X0117019Y0091765D03*
X0117019Y0091735D03*
X0117019Y0091705D03*
X0119959Y0095005D03*
X0119959Y0095035D03*
X0119989Y0095065D03*
X0119989Y0095095D03*
X0120199Y0095875D03*
X0120199Y0095905D03*
X0121699Y0097705D03*
X0124189Y0098125D03*
X0124399Y0089455D03*
D161*
X0120199Y0089455D03*
X0117049Y0102175D03*
D162*
X0112369Y0097675D03*
X0114139Y0094885D03*
X0114139Y0094855D03*
X0114169Y0094825D03*
X0114169Y0094795D03*
X0113239Y0093475D03*
X0113239Y0093445D03*
X0110689Y0091645D03*
X0110689Y0091615D03*
X0109609Y0089485D03*
X0117019Y0091615D03*
X0117019Y0091645D03*
X0119869Y0094765D03*
X0119899Y0094825D03*
X0119899Y0094855D03*
X0120199Y0095965D03*
X0120199Y0095995D03*
X0120199Y0096025D03*
X0120829Y0093505D03*
X0120829Y0093475D03*
X0120829Y0093445D03*
X0124489Y0089515D03*
D163*
X0113854Y0089485D03*
D164*
X0120199Y0089485D03*
D165*
X0123364Y0091645D03*
X0123364Y0091675D03*
X0123364Y0091705D03*
X0124444Y0089485D03*
X0120814Y0093385D03*
X0120814Y0093415D03*
X0119914Y0094885D03*
X0119914Y0094915D03*
X0119944Y0094945D03*
X0119944Y0094975D03*
X0120184Y0095935D03*
X0121684Y0097675D03*
X0123364Y0097705D03*
X0117034Y0091675D03*
X0114124Y0094915D03*
X0114124Y0094945D03*
X0114094Y0094975D03*
X0114094Y0095005D03*
X0113854Y0095905D03*
X0113854Y0095935D03*
X0113854Y0095965D03*
X0113854Y0095995D03*
X0110674Y0091675D03*
D166*
X0110674Y0091585D03*
X0110674Y0091555D03*
X0109594Y0089515D03*
X0113224Y0093505D03*
X0113224Y0093535D03*
X0114184Y0094735D03*
X0114184Y0094765D03*
X0112384Y0097645D03*
X0110674Y0097735D03*
X0117034Y0091585D03*
X0117034Y0091555D03*
X0119824Y0094645D03*
X0119884Y0094795D03*
X0120184Y0096055D03*
X0121684Y0097645D03*
D167*
X0117034Y0102205D03*
X0113854Y0089515D03*
D168*
X0120199Y0089515D03*
D169*
X0117019Y0091495D03*
X0117019Y0091525D03*
X0119779Y0094525D03*
X0119839Y0094675D03*
X0120199Y0096085D03*
X0120199Y0096115D03*
X0121669Y0097615D03*
X0124279Y0098095D03*
X0120829Y0093565D03*
X0120829Y0093535D03*
X0124549Y0089575D03*
X0114229Y0094615D03*
X0114229Y0094645D03*
X0110689Y0091525D03*
X0110689Y0091495D03*
X0109549Y0089545D03*
D170*
X0113869Y0089545D03*
X0120199Y0089545D03*
D171*
X0123364Y0091525D03*
X0123364Y0091555D03*
X0123364Y0091585D03*
X0123364Y0091615D03*
X0124504Y0089545D03*
X0119854Y0094705D03*
X0119854Y0094735D03*
X0123364Y0097735D03*
X0114214Y0094705D03*
X0114214Y0094675D03*
X0113854Y0096025D03*
X0113854Y0096055D03*
X0113854Y0096085D03*
D172*
X0113854Y0096115D03*
X0113854Y0096145D03*
X0113854Y0096175D03*
X0113854Y0096205D03*
X0114274Y0094525D03*
X0114274Y0094495D03*
X0114304Y0094465D03*
X0114304Y0094435D03*
X0114304Y0094405D03*
X0113224Y0093595D03*
X0110674Y0091465D03*
X0109504Y0089605D03*
X0109534Y0089575D03*
X0117034Y0091465D03*
X0119734Y0094405D03*
X0119764Y0094465D03*
X0119764Y0094495D03*
X0119794Y0094555D03*
X0120844Y0093625D03*
X0120844Y0093595D03*
X0120184Y0096145D03*
X0123364Y0097765D03*
X0123364Y0091495D03*
X0123364Y0091465D03*
X0123364Y0091435D03*
X0124594Y0089635D03*
X0124564Y0089605D03*
X0112384Y0097615D03*
X0109774Y0098095D03*
D173*
X0117034Y0102235D03*
X0113854Y0089575D03*
D174*
X0113854Y0089605D03*
D175*
X0120184Y0089605D03*
D176*
X0117019Y0091405D03*
X0117019Y0091435D03*
X0119689Y0094255D03*
X0119689Y0094285D03*
X0119719Y0094315D03*
X0119719Y0094345D03*
X0119719Y0094375D03*
X0119749Y0094435D03*
X0120199Y0096175D03*
X0120199Y0096205D03*
X0120199Y0096235D03*
X0121669Y0097585D03*
X0114349Y0094315D03*
X0114349Y0094285D03*
X0114319Y0094345D03*
X0114319Y0094375D03*
X0113209Y0093655D03*
X0113209Y0093625D03*
X0110689Y0091435D03*
X0110689Y0091405D03*
X0109459Y0089665D03*
X0109489Y0089635D03*
X0110689Y0097765D03*
X0112399Y0097585D03*
X0124609Y0089695D03*
X0124609Y0089665D03*
X0124639Y0089725D03*
D177*
X0120184Y0089635D03*
X0113854Y0089635D03*
D178*
X0120199Y0089665D03*
X0117019Y0097975D03*
D179*
X0113854Y0096295D03*
X0113854Y0096265D03*
X0113854Y0096235D03*
X0114364Y0094255D03*
X0114364Y0094225D03*
X0114394Y0094195D03*
X0114394Y0094165D03*
X0113194Y0093685D03*
X0110674Y0091375D03*
X0110674Y0091345D03*
X0109384Y0089785D03*
X0109414Y0089725D03*
X0109444Y0089695D03*
X0117034Y0091345D03*
X0117034Y0091375D03*
X0119644Y0094135D03*
X0119644Y0094165D03*
X0119674Y0094195D03*
X0119674Y0094225D03*
X0120844Y0093685D03*
X0120844Y0093655D03*
X0120184Y0096265D03*
X0121654Y0097555D03*
X0124324Y0098065D03*
X0123364Y0091405D03*
X0123364Y0091375D03*
X0123364Y0091345D03*
X0123364Y0091315D03*
X0124774Y0089965D03*
X0124744Y0089905D03*
X0124714Y0089845D03*
X0124684Y0089815D03*
X0124684Y0089785D03*
X0124654Y0089755D03*
D180*
X0120214Y0089695D03*
X0113854Y0089695D03*
D181*
X0113824Y0089725D03*
X0117034Y0097885D03*
D182*
X0117019Y0097855D03*
X0120229Y0089725D03*
D183*
X0113824Y0089755D03*
D184*
X0120229Y0089755D03*
X0117019Y0097825D03*
D185*
X0117019Y0097765D03*
X0120229Y0089785D03*
X0113809Y0089785D03*
D186*
X0113809Y0089815D03*
X0120259Y0089815D03*
X0117019Y0097705D03*
D187*
X0119629Y0094105D03*
X0119629Y0094075D03*
X0114439Y0094075D03*
X0114439Y0094045D03*
X0110689Y0091315D03*
X0110689Y0091285D03*
X0109039Y0090565D03*
X0109129Y0090325D03*
X0109189Y0090175D03*
X0109279Y0089995D03*
X0109279Y0089965D03*
X0109339Y0089875D03*
X0109339Y0089845D03*
X0110689Y0097795D03*
X0109729Y0098065D03*
X0125239Y0091255D03*
X0125179Y0091045D03*
X0125089Y0090775D03*
X0125089Y0090745D03*
X0125029Y0090595D03*
X0125029Y0090565D03*
X0124939Y0090355D03*
X0124939Y0090325D03*
X0124879Y0090205D03*
X0124879Y0090175D03*
X0124789Y0090025D03*
X0124789Y0089995D03*
X0124729Y0089875D03*
D188*
X0113794Y0089845D03*
D189*
X0120259Y0089845D03*
X0117019Y0097645D03*
X0117019Y0097675D03*
D190*
X0120274Y0089875D03*
D191*
X0113764Y0089905D03*
D192*
X0120289Y0089905D03*
X0117019Y0097525D03*
X0117019Y0097555D03*
D193*
X0113764Y0089935D03*
D194*
X0120289Y0089935D03*
X0117019Y0097465D03*
X0117019Y0097495D03*
D195*
X0117034Y0097435D03*
X0120304Y0089965D03*
X0113764Y0089965D03*
D196*
X0115894Y0090475D03*
X0117034Y0089995D03*
X0118144Y0090445D03*
X0118174Y0090505D03*
X0123364Y0089995D03*
X0125704Y0095095D03*
X0125254Y0096685D03*
X0121474Y0096685D03*
X0121024Y0095095D03*
X0113854Y0097615D03*
X0112564Y0096685D03*
X0113044Y0095095D03*
X0113044Y0095065D03*
X0108814Y0096685D03*
X0108334Y0095095D03*
X0108334Y0095065D03*
X0110674Y0089995D03*
D197*
X0113749Y0089995D03*
X0117019Y0097405D03*
X0111469Y0098215D03*
X0122599Y0098215D03*
D198*
X0120304Y0089995D03*
D199*
X0123364Y0091225D03*
X0123364Y0091255D03*
X0123364Y0091285D03*
X0125074Y0090715D03*
X0125104Y0090805D03*
X0125164Y0090985D03*
X0125164Y0091015D03*
X0125194Y0091075D03*
X0125194Y0091105D03*
X0125224Y0091195D03*
X0125224Y0091225D03*
X0125254Y0091285D03*
X0125254Y0091315D03*
X0125314Y0091495D03*
X0125314Y0091525D03*
X0125314Y0091555D03*
X0125344Y0091615D03*
X0125344Y0091645D03*
X0125344Y0091675D03*
X0125374Y0091735D03*
X0125374Y0091765D03*
X0125374Y0091795D03*
X0125404Y0091885D03*
X0125044Y0090625D03*
X0125014Y0090535D03*
X0124954Y0090385D03*
X0124894Y0090235D03*
X0119554Y0093895D03*
X0119614Y0094045D03*
X0121654Y0097525D03*
X0123364Y0097795D03*
X0114454Y0094015D03*
X0114454Y0093985D03*
X0113194Y0093775D03*
X0113194Y0093745D03*
X0113854Y0096325D03*
X0113854Y0096355D03*
X0113854Y0096385D03*
X0112414Y0097525D03*
X0108694Y0091735D03*
X0108724Y0091615D03*
X0108754Y0091495D03*
X0108814Y0091285D03*
X0108814Y0091255D03*
X0108844Y0091195D03*
X0108844Y0091165D03*
X0108844Y0091135D03*
X0108874Y0091105D03*
X0108874Y0091075D03*
X0108874Y0091045D03*
X0108904Y0090985D03*
X0108904Y0090955D03*
X0108904Y0090925D03*
X0108964Y0090805D03*
X0108964Y0090775D03*
X0108964Y0090745D03*
X0108994Y0090715D03*
X0108994Y0090685D03*
X0108994Y0090655D03*
X0109024Y0090625D03*
X0109024Y0090595D03*
X0109054Y0090535D03*
X0109054Y0090505D03*
X0109114Y0090385D03*
X0109114Y0090355D03*
X0109144Y0090295D03*
X0109144Y0090265D03*
X0109174Y0090235D03*
X0109174Y0090205D03*
X0109204Y0090145D03*
X0109264Y0090025D03*
X0110674Y0091255D03*
D200*
X0110689Y0090025D03*
X0115819Y0090595D03*
X0115849Y0090565D03*
X0115849Y0090535D03*
X0115879Y0090505D03*
X0117019Y0090025D03*
X0118159Y0090475D03*
X0118189Y0090535D03*
X0118219Y0090565D03*
X0123349Y0090025D03*
X0121009Y0095035D03*
X0121009Y0095065D03*
X0121489Y0096715D03*
X0120199Y0097585D03*
X0120199Y0097615D03*
X0125239Y0096715D03*
X0125719Y0095065D03*
X0125719Y0095035D03*
X0112549Y0096715D03*
X0108799Y0096715D03*
D201*
X0108814Y0096745D03*
X0112564Y0096745D03*
X0113854Y0097555D03*
X0113854Y0097585D03*
X0113044Y0095035D03*
X0113044Y0095005D03*
X0115774Y0090685D03*
X0115804Y0090625D03*
X0118264Y0090655D03*
X0123364Y0090055D03*
X0125224Y0096745D03*
X0121504Y0096745D03*
X0110674Y0090055D03*
D202*
X0113734Y0090055D03*
X0117034Y0097315D03*
X0111394Y0098185D03*
X0117034Y0102355D03*
X0122674Y0098185D03*
D203*
X0125734Y0095005D03*
X0118234Y0090625D03*
X0118234Y0090595D03*
X0117034Y0090055D03*
X0108334Y0095005D03*
X0108334Y0095035D03*
D204*
X0117019Y0097255D03*
X0117019Y0097285D03*
X0120319Y0090055D03*
D205*
X0117034Y0091255D03*
X0114484Y0093925D03*
X0114484Y0093955D03*
X0119584Y0093955D03*
X0119584Y0093985D03*
X0120184Y0096355D03*
X0124384Y0098035D03*
X0125284Y0091435D03*
X0125284Y0091405D03*
X0125284Y0091375D03*
X0125134Y0090895D03*
X0124984Y0090475D03*
X0117034Y0102595D03*
X0108784Y0091405D03*
X0108784Y0091375D03*
X0108934Y0090895D03*
X0108934Y0090865D03*
X0108934Y0090835D03*
X0109084Y0090475D03*
X0109084Y0090445D03*
X0109084Y0090415D03*
X0109234Y0090085D03*
D206*
X0110689Y0090085D03*
X0115729Y0090775D03*
X0115789Y0090655D03*
X0118279Y0090685D03*
X0121489Y0096775D03*
X0125239Y0096775D03*
X0108829Y0096775D03*
D207*
X0111334Y0098155D03*
X0117034Y0097225D03*
X0120334Y0090085D03*
X0113734Y0090085D03*
D208*
X0115759Y0090715D03*
X0117019Y0090085D03*
X0118309Y0090745D03*
X0121009Y0094975D03*
X0121009Y0095005D03*
X0120199Y0097525D03*
X0120199Y0097555D03*
X0125719Y0094975D03*
X0113059Y0094975D03*
X0113059Y0094945D03*
X0112549Y0096775D03*
X0108319Y0094975D03*
X0108319Y0094945D03*
D209*
X0108814Y0096805D03*
X0112534Y0096805D03*
X0113854Y0097495D03*
X0113854Y0097525D03*
X0115684Y0090865D03*
X0115714Y0090805D03*
X0115744Y0090745D03*
X0117034Y0090115D03*
X0118294Y0090715D03*
X0118324Y0090775D03*
X0118354Y0090835D03*
X0123364Y0090115D03*
X0123364Y0090085D03*
X0125734Y0094915D03*
X0125734Y0094945D03*
X0125224Y0096805D03*
X0125224Y0096835D03*
X0121504Y0096805D03*
X0120994Y0094945D03*
X0120994Y0094915D03*
X0110674Y0090115D03*
D210*
X0113719Y0090115D03*
X0117019Y0097195D03*
D211*
X0117034Y0097165D03*
X0113704Y0090145D03*
X0120334Y0090115D03*
D212*
X0118399Y0090925D03*
X0118369Y0090865D03*
X0118339Y0090805D03*
X0117019Y0090145D03*
X0115699Y0090835D03*
X0115669Y0090895D03*
X0115639Y0090955D03*
X0113059Y0094885D03*
X0113059Y0094915D03*
X0112549Y0096835D03*
X0108829Y0096835D03*
X0108319Y0094915D03*
X0108319Y0094885D03*
X0110689Y0090145D03*
X0120199Y0097465D03*
X0120199Y0097495D03*
X0121519Y0096835D03*
X0125749Y0094885D03*
D213*
X0120349Y0090145D03*
X0117019Y0097105D03*
X0117019Y0097135D03*
D214*
X0113854Y0097435D03*
X0113854Y0097465D03*
X0112534Y0096865D03*
X0113074Y0094855D03*
X0113074Y0094825D03*
X0108844Y0096865D03*
X0108304Y0094855D03*
X0108304Y0094825D03*
X0110674Y0090175D03*
X0115624Y0090985D03*
X0115654Y0090925D03*
X0117034Y0090175D03*
X0118384Y0090895D03*
X0118414Y0090955D03*
X0118444Y0091015D03*
X0123364Y0090205D03*
X0123364Y0090175D03*
X0123364Y0090145D03*
X0120994Y0094825D03*
X0120994Y0094855D03*
X0120994Y0094885D03*
X0121504Y0096865D03*
X0125224Y0096865D03*
X0125734Y0094855D03*
D215*
X0117034Y0097075D03*
X0113704Y0090175D03*
D216*
X0120349Y0090175D03*
X0117019Y0097015D03*
X0117019Y0097045D03*
D217*
X0120199Y0097405D03*
X0120199Y0097435D03*
X0121519Y0096895D03*
X0120979Y0094795D03*
X0118489Y0091105D03*
X0118429Y0090985D03*
X0117019Y0090205D03*
X0115579Y0091075D03*
X0110689Y0090205D03*
X0112519Y0096895D03*
X0110689Y0097975D03*
X0108829Y0096895D03*
X0125749Y0094825D03*
X0125749Y0094795D03*
D218*
X0113689Y0090205D03*
D219*
X0120364Y0090205D03*
X0120364Y0090235D03*
D220*
X0118534Y0091225D03*
X0117034Y0090235D03*
X0115534Y0091165D03*
X0115534Y0091195D03*
X0113074Y0094765D03*
X0113074Y0094795D03*
X0112534Y0096925D03*
X0108844Y0096925D03*
X0110674Y0090235D03*
X0120184Y0097375D03*
X0121534Y0096925D03*
X0120994Y0094765D03*
X0125194Y0096925D03*
D221*
X0117019Y0096925D03*
X0117019Y0096955D03*
X0113689Y0090235D03*
D222*
X0115564Y0091105D03*
X0115564Y0091135D03*
X0118504Y0091135D03*
X0118504Y0091165D03*
X0123364Y0090265D03*
X0123364Y0090235D03*
X0125764Y0094765D03*
X0123364Y0097975D03*
X0113854Y0097405D03*
X0113854Y0097375D03*
X0108304Y0094795D03*
X0108304Y0094765D03*
D223*
X0108289Y0094735D03*
X0108289Y0094705D03*
X0108859Y0096955D03*
X0112519Y0096955D03*
X0113089Y0094735D03*
X0113089Y0094705D03*
X0115459Y0091345D03*
X0115489Y0091285D03*
X0115489Y0091255D03*
X0115519Y0091225D03*
X0117019Y0090295D03*
X0117019Y0090265D03*
X0118519Y0091195D03*
X0118549Y0091255D03*
X0118579Y0091315D03*
X0120979Y0094705D03*
X0120979Y0094735D03*
X0121519Y0096955D03*
X0120199Y0097345D03*
X0125209Y0096955D03*
X0125749Y0094735D03*
X0110689Y0090295D03*
X0110689Y0090265D03*
D224*
X0113674Y0090265D03*
X0117034Y0096895D03*
X0120364Y0090265D03*
D225*
X0120379Y0090295D03*
X0117019Y0096835D03*
X0117019Y0096865D03*
X0113689Y0090295D03*
D226*
X0115474Y0091315D03*
X0115444Y0091375D03*
X0118564Y0091285D03*
X0118594Y0091345D03*
X0118594Y0091375D03*
X0118624Y0091405D03*
X0120964Y0094645D03*
X0120964Y0094675D03*
X0121534Y0096985D03*
X0120184Y0097315D03*
X0125194Y0096985D03*
X0125764Y0094705D03*
X0125764Y0094675D03*
X0123364Y0090325D03*
X0123364Y0090295D03*
X0113074Y0094675D03*
X0112504Y0096985D03*
X0113854Y0097285D03*
X0113854Y0097315D03*
X0113854Y0097345D03*
X0108904Y0097075D03*
X0108874Y0097015D03*
X0108844Y0096985D03*
X0108274Y0094675D03*
D227*
X0108289Y0094645D03*
X0108889Y0097045D03*
X0108919Y0097105D03*
X0112519Y0097015D03*
X0113089Y0094645D03*
X0113089Y0094615D03*
X0115399Y0091495D03*
X0115399Y0091465D03*
X0115429Y0091435D03*
X0115429Y0091405D03*
X0117019Y0090355D03*
X0117019Y0090325D03*
X0118639Y0091435D03*
X0118639Y0091465D03*
X0118669Y0091525D03*
X0120199Y0097255D03*
X0120199Y0097285D03*
X0121549Y0097015D03*
X0125149Y0097075D03*
X0125179Y0097045D03*
X0125179Y0097015D03*
X0125779Y0094645D03*
X0110689Y0090355D03*
X0110689Y0090325D03*
D228*
X0113674Y0090325D03*
X0117034Y0096805D03*
D229*
X0117019Y0096775D03*
X0117019Y0096745D03*
X0120379Y0090325D03*
D230*
X0113659Y0090355D03*
D231*
X0117034Y0096715D03*
X0120394Y0090355D03*
D232*
X0118654Y0091495D03*
X0115354Y0091585D03*
X0113104Y0094585D03*
X0112504Y0097045D03*
X0113854Y0097225D03*
X0113854Y0097255D03*
X0108994Y0097225D03*
X0108964Y0097165D03*
X0108274Y0094615D03*
X0108274Y0094585D03*
X0108274Y0094555D03*
X0110674Y0090385D03*
X0120964Y0094585D03*
X0120964Y0094615D03*
X0125764Y0094615D03*
X0125104Y0097165D03*
X0123364Y0090415D03*
X0123364Y0090385D03*
X0123364Y0090355D03*
D233*
X0120409Y0090385D03*
X0117019Y0096655D03*
X0117019Y0096685D03*
X0113659Y0090385D03*
D234*
X0115384Y0091525D03*
X0115384Y0091555D03*
X0117034Y0090385D03*
X0118684Y0091555D03*
X0118684Y0091585D03*
X0121534Y0097045D03*
X0125134Y0097105D03*
X0108934Y0097135D03*
D235*
X0108979Y0097195D03*
X0109039Y0097285D03*
X0108289Y0094525D03*
X0108289Y0094495D03*
X0108289Y0094465D03*
X0110689Y0090415D03*
X0113089Y0094555D03*
X0112489Y0097075D03*
X0115339Y0091645D03*
X0115339Y0091615D03*
X0118729Y0091645D03*
X0118729Y0091675D03*
X0125779Y0094525D03*
X0125779Y0094555D03*
X0125779Y0094585D03*
X0125089Y0097195D03*
D236*
X0125059Y0097225D03*
X0125119Y0097135D03*
X0121549Y0097075D03*
X0120199Y0097195D03*
X0120199Y0097225D03*
X0120949Y0094555D03*
X0120949Y0094525D03*
X0118759Y0091735D03*
X0118699Y0091615D03*
X0117019Y0090415D03*
X0115309Y0091675D03*
X0115309Y0091705D03*
X0109009Y0097255D03*
D237*
X0109054Y0097315D03*
X0109084Y0097375D03*
X0110674Y0097945D03*
X0113854Y0097195D03*
X0113854Y0097165D03*
X0113854Y0097135D03*
X0113104Y0094525D03*
X0113104Y0094495D03*
X0115264Y0091825D03*
X0115264Y0091795D03*
X0115294Y0091765D03*
X0115294Y0091735D03*
X0117034Y0090445D03*
X0118744Y0091705D03*
X0118774Y0091765D03*
X0118774Y0091795D03*
X0118804Y0091855D03*
X0123364Y0090475D03*
X0123364Y0090445D03*
X0125764Y0094435D03*
X0125764Y0094465D03*
X0125764Y0094495D03*
X0125044Y0097255D03*
X0125014Y0097285D03*
X0125014Y0097315D03*
X0123364Y0097945D03*
X0121564Y0097105D03*
X0120184Y0097165D03*
X0110674Y0090445D03*
X0108274Y0094435D03*
D238*
X0113659Y0090445D03*
X0117019Y0096565D03*
X0117019Y0096595D03*
X0117049Y0102415D03*
X0120409Y0090445D03*
D239*
X0118789Y0091825D03*
X0118819Y0091885D03*
X0118819Y0091915D03*
X0118849Y0091975D03*
X0117019Y0090505D03*
X0117019Y0090475D03*
X0115249Y0091855D03*
X0115249Y0091885D03*
X0115219Y0091915D03*
X0115219Y0091945D03*
X0113119Y0094465D03*
X0112489Y0097105D03*
X0112489Y0097135D03*
X0109129Y0097435D03*
X0109099Y0097405D03*
X0109069Y0097345D03*
X0108289Y0094405D03*
X0108289Y0094375D03*
X0108289Y0094345D03*
X0108289Y0094315D03*
X0110689Y0090505D03*
X0110689Y0090475D03*
X0120199Y0097105D03*
X0120199Y0097135D03*
X0120949Y0094495D03*
X0120949Y0094465D03*
X0125779Y0094405D03*
X0124999Y0097345D03*
X0124969Y0097375D03*
D240*
X0113644Y0090475D03*
D241*
X0113629Y0090505D03*
X0117019Y0096475D03*
X0117019Y0096505D03*
X0120409Y0090475D03*
D242*
X0120424Y0090505D03*
X0120424Y0090535D03*
X0117034Y0096445D03*
D243*
X0113854Y0097075D03*
X0113854Y0097105D03*
X0113104Y0094435D03*
X0115174Y0092035D03*
X0115174Y0092005D03*
X0115204Y0091975D03*
X0117034Y0090535D03*
X0118834Y0091945D03*
X0118864Y0092005D03*
X0120934Y0094405D03*
X0120934Y0094435D03*
X0121564Y0097135D03*
X0121564Y0097165D03*
X0124924Y0097435D03*
X0124954Y0097405D03*
X0125764Y0094375D03*
X0125764Y0094345D03*
X0125764Y0094315D03*
X0125764Y0094285D03*
X0125764Y0094255D03*
X0123364Y0090565D03*
X0123364Y0090535D03*
X0123364Y0090505D03*
X0110674Y0090535D03*
X0108304Y0094195D03*
X0108304Y0094225D03*
X0108304Y0094255D03*
X0108304Y0094285D03*
X0109144Y0097465D03*
X0109174Y0097495D03*
D244*
X0117019Y0096415D03*
X0117019Y0096385D03*
X0117019Y0096355D03*
X0113629Y0090565D03*
X0113629Y0090535D03*
D245*
X0115129Y0092125D03*
X0115129Y0092155D03*
X0117019Y0090595D03*
X0117019Y0090565D03*
X0118879Y0092035D03*
X0118879Y0092065D03*
X0118939Y0092185D03*
X0120199Y0097045D03*
X0120199Y0097075D03*
X0124849Y0097555D03*
X0124879Y0097495D03*
X0125749Y0094225D03*
X0125749Y0094195D03*
X0125749Y0094165D03*
X0125749Y0094135D03*
X0113119Y0094375D03*
X0113119Y0094405D03*
X0112489Y0097165D03*
X0109219Y0097555D03*
X0109189Y0097525D03*
X0108319Y0094165D03*
X0108319Y0094135D03*
X0108319Y0094105D03*
X0108319Y0094075D03*
X0110689Y0090595D03*
X0110689Y0090565D03*
D246*
X0117034Y0096325D03*
X0120424Y0090565D03*
D247*
X0120439Y0090595D03*
X0117019Y0096265D03*
X0117019Y0096295D03*
X0113629Y0090595D03*
D248*
X0115114Y0092185D03*
X0115114Y0092215D03*
X0118954Y0092215D03*
X0118954Y0092245D03*
X0123364Y0090655D03*
X0123364Y0090625D03*
X0123364Y0090595D03*
X0121564Y0097195D03*
X0123364Y0097915D03*
X0124804Y0097615D03*
X0124864Y0097525D03*
X0113854Y0097045D03*
X0113854Y0097015D03*
X0113854Y0096985D03*
X0109264Y0097615D03*
D249*
X0109234Y0097585D03*
X0112474Y0097195D03*
X0113134Y0094345D03*
X0115084Y0092275D03*
X0115084Y0092245D03*
X0117034Y0090625D03*
X0118924Y0092155D03*
X0118984Y0092305D03*
X0120934Y0094345D03*
X0120934Y0094375D03*
X0120184Y0097015D03*
X0124834Y0097585D03*
X0125734Y0094105D03*
X0125734Y0094075D03*
X0125734Y0094045D03*
X0110674Y0090625D03*
D250*
X0113614Y0090625D03*
X0110674Y0096235D03*
X0117034Y0096235D03*
X0123364Y0096235D03*
X0123364Y0096205D03*
X0120454Y0090625D03*
D251*
X0118969Y0092275D03*
X0118999Y0092335D03*
X0118999Y0092365D03*
X0119029Y0092425D03*
X0120919Y0094285D03*
X0120919Y0094315D03*
X0120199Y0096955D03*
X0120199Y0096985D03*
X0121579Y0097225D03*
X0125749Y0094015D03*
X0117019Y0090655D03*
X0115069Y0092305D03*
X0115069Y0092335D03*
X0115039Y0092365D03*
X0115039Y0092395D03*
X0113119Y0094315D03*
X0112459Y0097225D03*
X0110689Y0097915D03*
X0109309Y0097675D03*
X0109279Y0097645D03*
X0108319Y0094045D03*
X0108319Y0094015D03*
X0108319Y0093985D03*
X0108319Y0093955D03*
X0108319Y0093925D03*
X0110689Y0090685D03*
X0110689Y0090655D03*
D252*
X0113599Y0090655D03*
X0110689Y0096145D03*
X0110689Y0096175D03*
X0110689Y0096205D03*
X0110689Y0096265D03*
X0117019Y0096205D03*
X0117019Y0096175D03*
X0117019Y0096145D03*
X0120439Y0090655D03*
D253*
X0119014Y0092395D03*
X0119044Y0092455D03*
X0119044Y0092485D03*
X0119074Y0092545D03*
X0117034Y0090685D03*
X0115024Y0092425D03*
X0115024Y0092455D03*
X0114994Y0092485D03*
X0114994Y0092515D03*
X0113134Y0094255D03*
X0113134Y0094285D03*
X0113854Y0096895D03*
X0113854Y0096925D03*
X0113854Y0096955D03*
X0112474Y0097255D03*
X0109354Y0097735D03*
X0109324Y0097705D03*
X0108334Y0093895D03*
X0108334Y0093865D03*
X0108334Y0093835D03*
X0108334Y0093805D03*
X0120184Y0096925D03*
X0121594Y0097255D03*
X0124744Y0097675D03*
X0124774Y0097645D03*
X0125734Y0093985D03*
X0125734Y0093955D03*
X0125734Y0093925D03*
X0125734Y0093895D03*
X0123364Y0090715D03*
X0123364Y0090685D03*
D254*
X0125719Y0093775D03*
X0125719Y0093805D03*
X0125719Y0093835D03*
X0125719Y0093865D03*
X0124729Y0097705D03*
X0124699Y0097735D03*
X0120919Y0094255D03*
X0120919Y0094225D03*
X0119119Y0092665D03*
X0119089Y0092605D03*
X0119089Y0092575D03*
X0119059Y0092515D03*
X0117019Y0090745D03*
X0117019Y0090715D03*
X0114979Y0092545D03*
X0114979Y0092575D03*
X0114949Y0092605D03*
X0114949Y0092635D03*
X0113149Y0094225D03*
X0112459Y0097285D03*
X0109369Y0097765D03*
X0108349Y0093775D03*
X0108349Y0093745D03*
X0108349Y0093715D03*
X0108349Y0093685D03*
X0110689Y0090745D03*
X0110689Y0090715D03*
X0120199Y0096865D03*
X0120199Y0096895D03*
D255*
X0117019Y0096085D03*
X0117019Y0096055D03*
X0113599Y0090715D03*
D256*
X0110674Y0096025D03*
X0120454Y0090745D03*
X0120454Y0090715D03*
X0123364Y0095995D03*
X0123364Y0096025D03*
X0123364Y0096055D03*
X0123364Y0096325D03*
X0123364Y0096355D03*
D257*
X0117034Y0096025D03*
X0113584Y0090745D03*
D258*
X0114904Y0092725D03*
X0114904Y0092755D03*
X0113854Y0096805D03*
X0113854Y0096835D03*
X0113854Y0096865D03*
X0112444Y0097315D03*
X0109414Y0097795D03*
X0108364Y0093655D03*
X0108364Y0093625D03*
X0108364Y0093595D03*
X0108364Y0093565D03*
X0110674Y0090775D03*
X0119104Y0092635D03*
X0120904Y0094165D03*
X0120904Y0094195D03*
X0121594Y0097285D03*
X0121594Y0097315D03*
X0123364Y0097885D03*
X0124654Y0097795D03*
X0125704Y0093745D03*
X0125704Y0093715D03*
X0125704Y0093685D03*
X0125704Y0093655D03*
X0125704Y0093625D03*
X0123364Y0090805D03*
X0123364Y0090775D03*
X0123364Y0090745D03*
D259*
X0120469Y0090775D03*
X0123349Y0095965D03*
X0117019Y0095965D03*
X0117019Y0095995D03*
X0117019Y0095935D03*
X0113599Y0090775D03*
X0110689Y0095935D03*
X0110689Y0095965D03*
X0110689Y0095995D03*
X0110689Y0096355D03*
D260*
X0113134Y0094195D03*
X0114934Y0092695D03*
X0114934Y0092665D03*
X0117034Y0090775D03*
X0119134Y0092695D03*
X0119134Y0092725D03*
X0120184Y0096835D03*
X0124684Y0097765D03*
D261*
X0125689Y0093595D03*
X0125689Y0093565D03*
X0125689Y0093535D03*
X0125689Y0093505D03*
X0119179Y0092845D03*
X0119179Y0092815D03*
X0114889Y0092815D03*
X0114889Y0092785D03*
X0110689Y0090835D03*
X0110689Y0090805D03*
X0108379Y0093445D03*
X0108379Y0093475D03*
X0108379Y0093505D03*
X0108379Y0093535D03*
X0109429Y0097825D03*
X0110689Y0097885D03*
D262*
X0110674Y0096385D03*
X0110674Y0095905D03*
X0113584Y0090805D03*
X0117034Y0095905D03*
X0123364Y0095905D03*
X0123364Y0095935D03*
X0123364Y0095875D03*
X0123364Y0096385D03*
D263*
X0120199Y0096775D03*
X0120199Y0096805D03*
X0119149Y0092785D03*
X0119149Y0092755D03*
X0117019Y0090835D03*
X0117019Y0090805D03*
X0114859Y0092845D03*
X0114859Y0092875D03*
X0113149Y0094135D03*
X0113149Y0094165D03*
D264*
X0110689Y0095815D03*
X0110689Y0095845D03*
X0110689Y0095875D03*
X0110689Y0096415D03*
X0113569Y0090835D03*
X0117019Y0095845D03*
X0117019Y0095875D03*
X0120469Y0090835D03*
X0120469Y0090805D03*
D265*
X0119194Y0092875D03*
X0119194Y0092905D03*
X0119224Y0092935D03*
X0119224Y0092965D03*
X0119254Y0093055D03*
X0120904Y0094075D03*
X0120904Y0094105D03*
X0120904Y0094135D03*
X0120184Y0096745D03*
X0121594Y0097345D03*
X0124594Y0097855D03*
X0124624Y0097825D03*
X0125674Y0093475D03*
X0125674Y0093445D03*
X0125674Y0093415D03*
X0125674Y0093385D03*
X0123364Y0090895D03*
X0123364Y0090865D03*
X0123364Y0090835D03*
X0117034Y0090865D03*
X0114844Y0092905D03*
X0114844Y0092935D03*
X0114814Y0092965D03*
X0114814Y0092995D03*
X0113164Y0094075D03*
X0113164Y0094105D03*
X0113854Y0096715D03*
X0113854Y0096745D03*
X0113854Y0096775D03*
X0112444Y0097345D03*
X0109474Y0097855D03*
X0108394Y0093415D03*
X0108394Y0093385D03*
X0108394Y0093355D03*
X0108394Y0093325D03*
X0108394Y0093295D03*
X0110674Y0090865D03*
D266*
X0113584Y0090865D03*
X0110674Y0095785D03*
X0117034Y0095785D03*
X0117034Y0095815D03*
X0120484Y0090865D03*
D267*
X0119239Y0092995D03*
X0119239Y0093025D03*
X0119269Y0093085D03*
X0119269Y0093115D03*
X0119299Y0093175D03*
X0120889Y0094045D03*
X0120199Y0096685D03*
X0120199Y0096715D03*
X0121609Y0097375D03*
X0125659Y0093355D03*
X0125659Y0093325D03*
X0125659Y0093295D03*
X0125659Y0093265D03*
X0117019Y0090925D03*
X0117019Y0090895D03*
X0114799Y0093025D03*
X0114799Y0093055D03*
X0114769Y0093085D03*
X0114769Y0093115D03*
X0112429Y0097375D03*
X0109489Y0097885D03*
X0108409Y0093265D03*
X0108409Y0093235D03*
X0108409Y0093205D03*
X0108409Y0093175D03*
X0108439Y0093055D03*
X0110689Y0090925D03*
X0110689Y0090895D03*
D268*
X0113569Y0090895D03*
X0110689Y0095725D03*
X0110689Y0095755D03*
X0110689Y0096445D03*
X0110689Y0096475D03*
X0117019Y0095755D03*
X0117019Y0095725D03*
D269*
X0117034Y0095695D03*
X0120484Y0090925D03*
X0120484Y0090895D03*
X0123364Y0095635D03*
X0123364Y0095665D03*
X0123364Y0095695D03*
X0123364Y0095725D03*
X0123364Y0096475D03*
X0123364Y0096505D03*
X0113554Y0090925D03*
X0110674Y0095665D03*
X0110674Y0095695D03*
D270*
X0110674Y0097855D03*
X0109534Y0097915D03*
X0113854Y0096685D03*
X0113854Y0096655D03*
X0113854Y0096625D03*
X0113164Y0094045D03*
X0113164Y0094015D03*
X0114724Y0093265D03*
X0114724Y0093235D03*
X0114754Y0093205D03*
X0114754Y0093175D03*
X0114754Y0093145D03*
X0117034Y0090985D03*
X0117034Y0090955D03*
X0119284Y0093145D03*
X0119314Y0093205D03*
X0119314Y0093235D03*
X0119344Y0093295D03*
X0120904Y0094015D03*
X0120184Y0096655D03*
X0121624Y0097405D03*
X0123364Y0097855D03*
X0124534Y0097915D03*
X0124564Y0097885D03*
X0125644Y0093235D03*
X0125644Y0093205D03*
X0125644Y0093175D03*
X0125644Y0093145D03*
X0125614Y0093055D03*
X0125614Y0093025D03*
X0125614Y0092995D03*
X0123364Y0090985D03*
X0123364Y0090955D03*
X0123364Y0090925D03*
X0110674Y0090955D03*
X0108454Y0092935D03*
X0108454Y0092965D03*
X0108454Y0092995D03*
X0108454Y0093025D03*
X0108424Y0093085D03*
X0108424Y0093115D03*
X0108424Y0093145D03*
D271*
X0110689Y0095605D03*
X0110689Y0095635D03*
X0110689Y0096505D03*
X0113569Y0090955D03*
X0117019Y0095605D03*
X0117019Y0095635D03*
X0117019Y0095665D03*
X0120499Y0090955D03*
D272*
X0119329Y0093265D03*
X0119389Y0093415D03*
X0120889Y0093955D03*
X0120889Y0093985D03*
X0120199Y0096595D03*
X0120199Y0096625D03*
X0114679Y0093385D03*
X0114679Y0093355D03*
X0113179Y0093955D03*
X0113179Y0093985D03*
X0112429Y0097405D03*
X0112429Y0097435D03*
X0109549Y0097945D03*
X0108469Y0092905D03*
X0108469Y0092875D03*
X0108469Y0092845D03*
X0108469Y0092815D03*
X0110689Y0091045D03*
X0110689Y0091015D03*
X0110689Y0090985D03*
X0117019Y0091015D03*
X0123349Y0091015D03*
X0125599Y0092875D03*
X0125599Y0092905D03*
X0125599Y0092935D03*
X0125599Y0092965D03*
X0125629Y0093085D03*
X0125629Y0093115D03*
X0124489Y0097945D03*
D273*
X0123364Y0096535D03*
X0123364Y0095605D03*
X0123364Y0095575D03*
X0123364Y0095545D03*
X0123364Y0095515D03*
X0117034Y0095575D03*
X0113554Y0090985D03*
X0110674Y0095575D03*
X0110674Y0096535D03*
D274*
X0117019Y0095545D03*
X0117019Y0095515D03*
X0117019Y0095485D03*
X0120499Y0091015D03*
X0120499Y0090985D03*
D275*
X0120859Y0093775D03*
X0120859Y0093805D03*
X0119569Y0093925D03*
X0119539Y0093865D03*
X0119539Y0093835D03*
X0119509Y0093775D03*
X0120199Y0096385D03*
X0120199Y0096415D03*
X0120199Y0096445D03*
X0121639Y0097495D03*
X0125479Y0092245D03*
X0125449Y0092125D03*
X0125449Y0092095D03*
X0125449Y0092065D03*
X0125419Y0092005D03*
X0125419Y0091975D03*
X0125419Y0091945D03*
X0125419Y0091915D03*
X0125389Y0091855D03*
X0125389Y0091825D03*
X0125359Y0091705D03*
X0125329Y0091585D03*
X0117019Y0091225D03*
X0117019Y0091195D03*
X0114529Y0093775D03*
X0114529Y0093805D03*
X0114529Y0093835D03*
X0114499Y0093865D03*
X0114499Y0093895D03*
X0113179Y0093805D03*
X0113869Y0096415D03*
X0109669Y0098035D03*
X0108619Y0092065D03*
X0108649Y0091945D03*
X0108649Y0091915D03*
X0108649Y0091885D03*
X0108679Y0091825D03*
X0108679Y0091795D03*
X0108679Y0091765D03*
X0108709Y0091705D03*
X0108709Y0091675D03*
X0108709Y0091645D03*
X0108739Y0091585D03*
X0108739Y0091555D03*
X0108739Y0091525D03*
X0108769Y0091465D03*
X0108769Y0091435D03*
X0108799Y0091345D03*
X0108799Y0091315D03*
X0108829Y0091225D03*
X0108889Y0091015D03*
X0110689Y0091195D03*
X0110689Y0091225D03*
D276*
X0113539Y0091015D03*
X0110689Y0095485D03*
X0110689Y0095515D03*
X0110689Y0095545D03*
X0110689Y0096565D03*
D277*
X0115609Y0091045D03*
X0115609Y0091015D03*
X0118459Y0091045D03*
X0118459Y0091075D03*
X0125209Y0096895D03*
D278*
X0123364Y0096595D03*
X0123364Y0096565D03*
X0123364Y0095485D03*
X0123364Y0095455D03*
X0123364Y0095425D03*
X0120514Y0091075D03*
X0120514Y0091045D03*
X0113554Y0091045D03*
X0110674Y0095455D03*
D279*
X0109594Y0097975D03*
X0108484Y0092785D03*
X0108484Y0092755D03*
X0108484Y0092725D03*
X0108484Y0092695D03*
X0110674Y0091075D03*
X0114634Y0093475D03*
X0114634Y0093505D03*
X0117034Y0091075D03*
X0117034Y0091045D03*
X0119374Y0093385D03*
X0120874Y0093895D03*
X0120874Y0093925D03*
X0120184Y0096565D03*
X0121624Y0097435D03*
X0125584Y0092845D03*
X0125584Y0092815D03*
X0125584Y0092785D03*
X0125584Y0092755D03*
D280*
X0125554Y0092665D03*
X0125554Y0092635D03*
X0123364Y0091105D03*
X0123364Y0091075D03*
X0123364Y0091045D03*
X0119404Y0093445D03*
X0119404Y0093475D03*
X0114664Y0093445D03*
X0114664Y0093415D03*
X0113164Y0093925D03*
X0113854Y0096535D03*
X0113854Y0096565D03*
X0113854Y0096595D03*
X0108514Y0092665D03*
X0108514Y0092635D03*
X0108514Y0092605D03*
X0108514Y0092575D03*
D281*
X0110689Y0095365D03*
X0110689Y0095395D03*
X0110689Y0095425D03*
X0110689Y0096595D03*
X0113539Y0091105D03*
X0113539Y0091075D03*
X0117019Y0095365D03*
X0117019Y0095395D03*
X0117019Y0095425D03*
D282*
X0114589Y0093625D03*
X0114589Y0093595D03*
X0114619Y0093565D03*
X0114619Y0093535D03*
X0113179Y0093865D03*
X0113179Y0093895D03*
X0112429Y0097465D03*
X0110689Y0097825D03*
X0109639Y0098005D03*
X0108529Y0092545D03*
X0108529Y0092515D03*
X0108529Y0092485D03*
X0108529Y0092455D03*
X0108559Y0092425D03*
X0108559Y0092395D03*
X0108559Y0092365D03*
X0108559Y0092335D03*
X0108589Y0092215D03*
X0110689Y0091135D03*
X0110689Y0091105D03*
X0117019Y0091105D03*
X0117019Y0091135D03*
X0119419Y0093505D03*
X0119419Y0093535D03*
X0119449Y0093565D03*
X0119449Y0093595D03*
X0120199Y0096505D03*
X0120199Y0096535D03*
X0121639Y0097465D03*
X0124459Y0097975D03*
X0125569Y0092725D03*
X0125569Y0092695D03*
X0125539Y0092605D03*
X0125539Y0092575D03*
X0125539Y0092545D03*
X0125539Y0092515D03*
X0125509Y0092425D03*
X0125509Y0092395D03*
D283*
X0123364Y0095305D03*
X0123364Y0095335D03*
X0123364Y0095365D03*
X0123364Y0095395D03*
X0123364Y0096625D03*
X0120514Y0091105D03*
X0117034Y0095335D03*
X0113524Y0091135D03*
X0110674Y0095335D03*
X0110674Y0096625D03*
D284*
X0110689Y0096655D03*
X0110689Y0095305D03*
X0110689Y0095275D03*
X0110689Y0095245D03*
X0117019Y0095245D03*
X0117019Y0095275D03*
X0117019Y0095305D03*
X0120529Y0091165D03*
X0120529Y0091135D03*
D285*
X0119464Y0093625D03*
X0119464Y0093655D03*
X0119494Y0093685D03*
X0119494Y0093715D03*
X0119494Y0093745D03*
X0119524Y0093805D03*
X0120874Y0093835D03*
X0120874Y0093865D03*
X0120184Y0096475D03*
X0123364Y0097825D03*
X0124414Y0098005D03*
X0125524Y0092485D03*
X0125524Y0092455D03*
X0125494Y0092365D03*
X0125494Y0092335D03*
X0125494Y0092305D03*
X0125494Y0092275D03*
X0125464Y0092215D03*
X0125464Y0092185D03*
X0125464Y0092155D03*
X0125434Y0092035D03*
X0123364Y0091195D03*
X0123364Y0091165D03*
X0123364Y0091135D03*
X0117034Y0091165D03*
X0114574Y0093655D03*
X0114574Y0093685D03*
X0114544Y0093715D03*
X0114544Y0093745D03*
X0113194Y0093835D03*
X0113854Y0096445D03*
X0113854Y0096475D03*
X0113854Y0096505D03*
X0112414Y0097495D03*
X0108574Y0092305D03*
X0108574Y0092275D03*
X0108574Y0092245D03*
X0108604Y0092185D03*
X0108604Y0092155D03*
X0108604Y0092125D03*
X0108604Y0092095D03*
X0108634Y0092035D03*
X0108634Y0092005D03*
X0108634Y0091975D03*
X0108664Y0091855D03*
X0110674Y0091165D03*
D286*
X0113524Y0091165D03*
X0113524Y0091195D03*
X0110674Y0095215D03*
X0117034Y0095215D03*
D287*
X0117019Y0095185D03*
X0117019Y0095155D03*
X0117019Y0095125D03*
X0120529Y0091225D03*
X0120529Y0091195D03*
X0110689Y0095125D03*
X0110689Y0095155D03*
X0110689Y0095185D03*
X0110689Y0096685D03*
D288*
X0113509Y0091225D03*
D289*
X0113524Y0091255D03*
X0110674Y0095095D03*
X0110674Y0096715D03*
X0117034Y0095095D03*
X0120544Y0091255D03*
X0123364Y0095065D03*
X0123364Y0095095D03*
X0123364Y0095125D03*
X0123364Y0095155D03*
X0123364Y0096715D03*
D290*
X0123379Y0096745D03*
X0117019Y0095065D03*
X0117019Y0095035D03*
X0117019Y0095005D03*
X0113509Y0091285D03*
X0110689Y0095005D03*
X0110689Y0095035D03*
X0110689Y0095065D03*
X0110689Y0096745D03*
D291*
X0110674Y0094975D03*
X0113494Y0091315D03*
X0117034Y0094975D03*
X0120544Y0091315D03*
X0120544Y0091285D03*
X0123364Y0094945D03*
X0123364Y0094975D03*
X0123364Y0095005D03*
X0123364Y0095035D03*
X0123364Y0096775D03*
D292*
X0123349Y0094915D03*
X0120559Y0091375D03*
X0120559Y0091345D03*
X0117019Y0094885D03*
X0117019Y0094915D03*
X0117019Y0094945D03*
X0113509Y0091345D03*
D293*
X0113494Y0091375D03*
X0113494Y0091405D03*
X0110674Y0094855D03*
X0110674Y0096805D03*
X0123364Y0096805D03*
X0123364Y0094885D03*
X0123364Y0094855D03*
X0123364Y0094825D03*
X0123364Y0094795D03*
D294*
X0120559Y0091405D03*
X0117019Y0094765D03*
X0117019Y0094795D03*
X0117019Y0094825D03*
X0113479Y0091435D03*
X0110689Y0094765D03*
X0110689Y0094795D03*
X0110689Y0094825D03*
X0110689Y0096835D03*
D295*
X0110689Y0096865D03*
X0110689Y0094705D03*
X0110689Y0094675D03*
X0110689Y0094645D03*
X0113479Y0091495D03*
X0117019Y0094645D03*
X0117019Y0094675D03*
X0117019Y0094705D03*
D296*
X0117034Y0094615D03*
X0117034Y0094585D03*
X0120574Y0091525D03*
X0120574Y0091495D03*
X0110674Y0094585D03*
X0110674Y0094615D03*
X0110674Y0096895D03*
D297*
X0113464Y0091525D03*
X0123364Y0094555D03*
X0123364Y0094585D03*
X0123364Y0094615D03*
X0123364Y0094645D03*
X0123364Y0096895D03*
D298*
X0120589Y0091585D03*
X0120589Y0091555D03*
X0117019Y0094525D03*
X0117019Y0094555D03*
X0113479Y0091555D03*
X0110689Y0094525D03*
X0110689Y0094555D03*
X0110689Y0096925D03*
D299*
X0110674Y0094495D03*
X0110674Y0094465D03*
X0113464Y0091615D03*
X0113464Y0091585D03*
X0117034Y0094465D03*
X0117034Y0094495D03*
X0123364Y0094495D03*
X0123364Y0094525D03*
X0123364Y0094465D03*
X0123364Y0094435D03*
X0123364Y0096925D03*
X0123364Y0096955D03*
D300*
X0120589Y0091645D03*
X0120589Y0091615D03*
X0117019Y0094405D03*
X0117019Y0094435D03*
X0113449Y0091645D03*
X0110689Y0094375D03*
X0110689Y0094405D03*
X0110689Y0094435D03*
X0110689Y0096955D03*
D301*
X0110674Y0096985D03*
X0110674Y0094345D03*
X0113464Y0091675D03*
X0117034Y0094345D03*
X0117034Y0094375D03*
X0120604Y0091675D03*
X0123364Y0094315D03*
X0123364Y0094345D03*
X0123364Y0094375D03*
X0123364Y0094405D03*
X0123364Y0096985D03*
D302*
X0117019Y0094315D03*
X0117019Y0094285D03*
X0117019Y0094255D03*
X0113449Y0091735D03*
X0113449Y0091705D03*
D303*
X0110674Y0094225D03*
X0112114Y0098125D03*
X0121924Y0098125D03*
X0123364Y0097015D03*
X0123364Y0094285D03*
X0123364Y0094255D03*
X0123364Y0094225D03*
X0123364Y0094195D03*
X0120604Y0091735D03*
X0120604Y0091705D03*
D304*
X0120814Y0093325D03*
X0120814Y0093355D03*
X0120004Y0095125D03*
X0120004Y0095155D03*
X0123364Y0091825D03*
X0123364Y0091795D03*
X0123364Y0091765D03*
X0123364Y0091735D03*
X0114004Y0095215D03*
X0114004Y0095245D03*
X0113854Y0095785D03*
X0113854Y0095815D03*
X0113854Y0095845D03*
X0113854Y0095875D03*
X0113254Y0093325D03*
X0110674Y0091795D03*
D305*
X0113434Y0091765D03*
X0117034Y0094225D03*
D306*
X0117019Y0094195D03*
X0117019Y0094165D03*
X0117019Y0094135D03*
X0120619Y0091795D03*
X0120619Y0091765D03*
X0123379Y0097045D03*
X0110689Y0097045D03*
X0110689Y0094195D03*
X0110689Y0094165D03*
X0110689Y0094135D03*
D307*
X0110674Y0094105D03*
X0113434Y0091825D03*
X0113434Y0091795D03*
X0117034Y0094105D03*
X0123364Y0094105D03*
X0123364Y0094135D03*
X0123364Y0094165D03*
X0123364Y0094075D03*
X0123364Y0094045D03*
X0123364Y0097075D03*
D308*
X0120184Y0095845D03*
X0120034Y0095215D03*
X0120034Y0095185D03*
X0117034Y0091795D03*
X0114034Y0095155D03*
X0114034Y0095185D03*
D309*
X0113989Y0095275D03*
X0113989Y0095305D03*
X0113239Y0093295D03*
X0110689Y0091855D03*
X0110689Y0091825D03*
X0110689Y0097675D03*
X0112339Y0097735D03*
X0120079Y0095335D03*
X0120079Y0095305D03*
D310*
X0120049Y0095275D03*
X0120049Y0095245D03*
X0120109Y0095395D03*
X0120199Y0095755D03*
X0120199Y0095785D03*
X0120199Y0095815D03*
X0121699Y0097735D03*
X0120799Y0093295D03*
X0120799Y0093265D03*
X0117019Y0091855D03*
X0117019Y0091825D03*
X0113959Y0095335D03*
X0113959Y0095365D03*
D311*
X0117019Y0094075D03*
X0117019Y0094045D03*
X0117019Y0094015D03*
X0113419Y0091855D03*
X0110689Y0094015D03*
X0110689Y0094045D03*
X0110689Y0094075D03*
X0110689Y0097075D03*
X0120619Y0091855D03*
X0120619Y0091825D03*
D312*
X0120634Y0091885D03*
X0120634Y0091915D03*
X0117034Y0093955D03*
X0117034Y0093985D03*
X0113434Y0091885D03*
X0110674Y0093985D03*
X0110674Y0097105D03*
D313*
X0110689Y0097135D03*
X0110689Y0093955D03*
X0110689Y0093925D03*
X0110689Y0093895D03*
X0113419Y0091945D03*
X0113419Y0091915D03*
X0117019Y0093895D03*
X0117019Y0093925D03*
D314*
X0117019Y0091975D03*
X0117019Y0091945D03*
X0113269Y0093205D03*
X0113899Y0095515D03*
X0113899Y0095545D03*
X0113869Y0095575D03*
X0113869Y0095605D03*
X0112339Y0097765D03*
X0110689Y0097645D03*
X0110689Y0091975D03*
X0110689Y0091945D03*
X0120139Y0095485D03*
X0120169Y0095545D03*
X0120169Y0095575D03*
X0120199Y0095635D03*
X0120199Y0095665D03*
X0120199Y0095695D03*
X0120799Y0093235D03*
X0120799Y0093205D03*
D315*
X0120784Y0093175D03*
X0120784Y0093145D03*
X0120184Y0095605D03*
X0121714Y0097795D03*
X0123364Y0097645D03*
X0123364Y0092065D03*
X0123364Y0092035D03*
X0123364Y0092005D03*
X0123364Y0091975D03*
X0117034Y0092005D03*
X0117034Y0092035D03*
X0113254Y0093175D03*
X0113854Y0095635D03*
X0113854Y0095665D03*
X0112324Y0097795D03*
X0110674Y0092005D03*
D316*
X0110689Y0093745D03*
X0110689Y0093775D03*
X0110689Y0093805D03*
X0113419Y0092005D03*
X0117019Y0093775D03*
X0117019Y0093805D03*
X0120649Y0092035D03*
X0120649Y0092005D03*
X0123379Y0097165D03*
X0121879Y0098095D03*
X0117049Y0102535D03*
X0110689Y0097165D03*
D317*
X0110689Y0097615D03*
X0113269Y0093145D03*
X0113269Y0093115D03*
X0110689Y0092095D03*
X0110689Y0092065D03*
X0110689Y0092035D03*
X0117019Y0092065D03*
X0117019Y0092095D03*
D318*
X0117034Y0093715D03*
X0117034Y0093745D03*
X0113404Y0092065D03*
X0113404Y0092035D03*
X0110674Y0093715D03*
X0123364Y0093715D03*
X0123364Y0093745D03*
X0123364Y0093775D03*
X0123364Y0093685D03*
X0123364Y0097195D03*
D319*
X0124909Y0097465D03*
X0118909Y0092125D03*
X0118909Y0092095D03*
X0115159Y0092095D03*
X0115159Y0092065D03*
D320*
X0117019Y0093625D03*
X0117019Y0093655D03*
X0117019Y0093685D03*
X0120649Y0092095D03*
X0120649Y0092065D03*
D321*
X0113389Y0092095D03*
X0110689Y0093625D03*
X0110689Y0093655D03*
X0110689Y0093685D03*
X0110689Y0097195D03*
D322*
X0112324Y0097825D03*
X0113284Y0093085D03*
X0110674Y0092125D03*
X0117034Y0092125D03*
X0120784Y0093085D03*
X0120784Y0093115D03*
D323*
X0120664Y0092155D03*
X0120664Y0092125D03*
X0123364Y0093565D03*
X0123364Y0093595D03*
X0123364Y0093625D03*
X0123364Y0093655D03*
X0123364Y0097225D03*
X0113404Y0092125D03*
X0110674Y0093595D03*
X0110674Y0097225D03*
D324*
X0110689Y0093565D03*
X0110689Y0093535D03*
X0110689Y0093505D03*
X0113389Y0092185D03*
X0113389Y0092155D03*
X0117019Y0093505D03*
X0117019Y0093535D03*
X0117019Y0093565D03*
X0123349Y0093535D03*
X0121849Y0098065D03*
D325*
X0123364Y0097255D03*
X0123364Y0093505D03*
X0123364Y0093475D03*
X0123364Y0093445D03*
X0123364Y0093415D03*
X0120664Y0092215D03*
X0120664Y0092185D03*
X0117034Y0093475D03*
X0113374Y0092215D03*
X0110674Y0093475D03*
X0110674Y0097255D03*
X0112204Y0098065D03*
D326*
X0110674Y0097585D03*
X0113284Y0093025D03*
X0113284Y0092995D03*
X0110674Y0092245D03*
X0117034Y0092245D03*
X0123364Y0092245D03*
X0123364Y0092275D03*
X0123364Y0092215D03*
X0123364Y0097585D03*
X0121744Y0097855D03*
D327*
X0120679Y0092275D03*
X0120679Y0092245D03*
X0117019Y0093385D03*
X0117019Y0093415D03*
X0117019Y0093445D03*
X0113389Y0092245D03*
X0110689Y0093385D03*
X0110689Y0093415D03*
X0110689Y0093445D03*
X0110689Y0097285D03*
D328*
X0112309Y0097855D03*
X0113299Y0092965D03*
X0110689Y0092335D03*
X0110689Y0092305D03*
X0110689Y0092275D03*
X0117019Y0092275D03*
X0117019Y0092305D03*
X0117019Y0092335D03*
X0120769Y0092965D03*
X0120769Y0092995D03*
X0123349Y0092305D03*
D329*
X0117034Y0093325D03*
X0117034Y0093355D03*
X0113374Y0092305D03*
X0113374Y0092275D03*
X0110674Y0093355D03*
D330*
X0110689Y0093325D03*
X0110689Y0093295D03*
X0110689Y0093265D03*
X0110689Y0097315D03*
X0112219Y0098035D03*
X0117019Y0093295D03*
X0117019Y0093265D03*
X0120679Y0092335D03*
X0120679Y0092305D03*
X0121819Y0098035D03*
D331*
X0113359Y0092335D03*
D332*
X0110674Y0092365D03*
X0110674Y0097555D03*
X0120754Y0092935D03*
X0120754Y0092905D03*
X0123364Y0092395D03*
X0123364Y0092365D03*
X0123364Y0092335D03*
X0123364Y0097555D03*
D333*
X0123364Y0097345D03*
X0123364Y0097315D03*
X0123364Y0093265D03*
X0123364Y0093235D03*
X0123364Y0093205D03*
X0123364Y0093175D03*
X0120694Y0092365D03*
X0117034Y0093205D03*
X0117034Y0093235D03*
X0113374Y0092365D03*
X0110674Y0093205D03*
X0110674Y0093235D03*
D334*
X0113284Y0092935D03*
X0117034Y0092365D03*
D335*
X0110689Y0092395D03*
X0110689Y0092425D03*
X0110689Y0092455D03*
D336*
X0110689Y0093115D03*
X0110689Y0093145D03*
X0110689Y0093175D03*
X0113359Y0092425D03*
X0113359Y0092395D03*
X0117019Y0093145D03*
X0117019Y0093175D03*
X0120709Y0092395D03*
X0110689Y0097345D03*
D337*
X0112309Y0097885D03*
X0113299Y0092905D03*
X0113299Y0092875D03*
X0117019Y0092455D03*
X0117019Y0092425D03*
X0117019Y0092395D03*
X0121759Y0097885D03*
D338*
X0121804Y0098005D03*
X0123364Y0097375D03*
X0123364Y0093145D03*
X0123364Y0093115D03*
X0123364Y0093085D03*
X0123364Y0093055D03*
X0120694Y0092425D03*
X0117034Y0093085D03*
X0117034Y0093115D03*
X0113344Y0092455D03*
X0110674Y0093085D03*
D339*
X0110674Y0092485D03*
X0113314Y0092845D03*
X0117034Y0092485D03*
X0120754Y0092845D03*
X0120754Y0092875D03*
X0123364Y0092515D03*
X0123364Y0092485D03*
X0123364Y0092455D03*
X0123364Y0092425D03*
X0123364Y0097525D03*
X0110674Y0097525D03*
D340*
X0112249Y0098005D03*
X0113359Y0092485D03*
X0117019Y0092995D03*
X0117019Y0093025D03*
X0117019Y0093055D03*
X0120709Y0092485D03*
X0120709Y0092455D03*
D341*
X0120739Y0092785D03*
X0120739Y0092815D03*
X0121759Y0097915D03*
X0117019Y0092575D03*
X0117019Y0092545D03*
X0117019Y0092515D03*
X0113299Y0092815D03*
X0110689Y0092575D03*
X0110689Y0092545D03*
X0110689Y0092515D03*
X0112279Y0097915D03*
D342*
X0110674Y0092965D03*
X0113344Y0092545D03*
X0113344Y0092515D03*
X0120724Y0092515D03*
X0123364Y0092935D03*
X0123364Y0092965D03*
X0123364Y0092995D03*
X0123364Y0093025D03*
X0123364Y0097405D03*
D343*
X0121789Y0097975D03*
X0120709Y0092575D03*
X0120709Y0092545D03*
X0117019Y0092875D03*
X0117019Y0092905D03*
X0117019Y0092935D03*
X0113329Y0092575D03*
X0110689Y0092875D03*
X0110689Y0092905D03*
X0110689Y0092935D03*
X0110689Y0097405D03*
D344*
X0110674Y0097495D03*
X0110674Y0092605D03*
X0113314Y0092755D03*
X0113314Y0092785D03*
X0117034Y0092605D03*
X0123364Y0092605D03*
X0123364Y0092635D03*
X0123364Y0092575D03*
X0123364Y0092545D03*
X0123364Y0097495D03*
D345*
X0123364Y0097435D03*
X0123364Y0092905D03*
X0123364Y0092875D03*
X0123364Y0092845D03*
X0123364Y0092815D03*
X0120724Y0092635D03*
X0120724Y0092605D03*
X0117034Y0092845D03*
X0113344Y0092605D03*
X0110674Y0092845D03*
X0110674Y0097435D03*
X0112264Y0097975D03*
D346*
X0113329Y0092725D03*
X0110689Y0092695D03*
X0110689Y0092665D03*
X0110689Y0092635D03*
X0117019Y0092635D03*
X0117019Y0092665D03*
X0117019Y0092695D03*
X0120739Y0092725D03*
X0120739Y0092755D03*
X0123349Y0092665D03*
D347*
X0120724Y0092665D03*
X0120724Y0092695D03*
X0121774Y0097945D03*
X0117034Y0102565D03*
X0110674Y0097465D03*
X0110674Y0092725D03*
X0117034Y0092725D03*
D348*
X0113314Y0092695D03*
X0112264Y0097945D03*
X0123364Y0097465D03*
X0123364Y0092785D03*
X0123364Y0092755D03*
X0123364Y0092725D03*
X0123364Y0092695D03*
D349*
X0117034Y0092965D03*
D350*
X0110689Y0092995D03*
X0110689Y0093025D03*
X0110689Y0093055D03*
X0110689Y0097375D03*
D351*
X0114709Y0093325D03*
X0114709Y0093295D03*
X0119359Y0093325D03*
X0119359Y0093355D03*
D352*
X0123364Y0093355D03*
X0123364Y0093385D03*
X0123364Y0093325D03*
X0123364Y0093295D03*
X0123364Y0097285D03*
D353*
X0119809Y0094615D03*
X0119809Y0094585D03*
X0114259Y0094585D03*
X0114259Y0094555D03*
X0113209Y0093565D03*
D354*
X0117034Y0093595D03*
D355*
X0123364Y0093925D03*
X0123364Y0093955D03*
X0123364Y0093985D03*
X0123364Y0094015D03*
X0123364Y0097105D03*
D356*
X0110689Y0097015D03*
X0110689Y0094315D03*
X0110689Y0094285D03*
X0110689Y0094255D03*
D357*
X0117034Y0094855D03*
D358*
X0110689Y0094885D03*
X0110689Y0094915D03*
X0110689Y0094945D03*
X0110689Y0096775D03*
D359*
X0123364Y0096685D03*
X0123364Y0096655D03*
X0123364Y0095275D03*
X0123364Y0095245D03*
X0123364Y0095215D03*
X0123364Y0095185D03*
D360*
X0123364Y0095755D03*
X0123364Y0095785D03*
X0123364Y0095815D03*
X0123364Y0095845D03*
X0123364Y0096415D03*
X0123364Y0096445D03*
D361*
X0110689Y0096325D03*
X0110689Y0096295D03*
X0110689Y0096085D03*
X0110689Y0096055D03*
D362*
X0117034Y0096535D03*
D363*
X0117034Y0097375D03*
D364*
X0117034Y0097735D03*
D365*
X0117034Y0097915D03*
D366*
X0117019Y0097945D03*
X0117049Y0102265D03*
D367*
X0117019Y0098005D03*
D368*
X0117019Y0098035D03*
D369*
X0117034Y0098065D03*
D370*
X0117034Y0098095D03*
D371*
X0117034Y0098125D03*
D372*
X0117034Y0098155D03*
D373*
X0122704Y0098155D03*
D374*
X0117019Y0098185D03*
D375*
X0117019Y0098215D03*
D376*
X0117019Y0098305D03*
D377*
X0117019Y0099205D03*
D378*
X0117034Y0100375D03*
D379*
X0117034Y0100525D03*
D380*
X0117034Y0100675D03*
D381*
X0117034Y0100765D03*
D382*
X0117034Y0100855D03*
D383*
X0117034Y0100945D03*
D384*
X0117034Y0101005D03*
D385*
X0117049Y0101125D03*
D386*
X0117034Y0101185D03*
D387*
X0117034Y0101245D03*
D388*
X0117034Y0101335D03*
D389*
X0117034Y0101455D03*
D390*
X0117034Y0101605D03*
D391*
X0117034Y0101635D03*
D392*
X0117034Y0101665D03*
D393*
X0117034Y0101695D03*
D394*
X0117049Y0101845D03*
D395*
X0117034Y0101875D03*
D396*
X0117034Y0101935D03*
D397*
X0117034Y0101995D03*
D398*
X0117034Y0102085D03*
D399*
X0117049Y0102145D03*
D400*
X0117034Y0102325D03*
D401*
X0127454Y0076085D03*
X0105504Y0072235D03*
X0104704Y0072535D03*
D402*
X0104879Y0072485D03*
X0106129Y0072485D03*
X0109479Y0072235D03*
D403*
X0105504Y0072285D03*
D404*
X0109429Y0072285D03*
X0128879Y0072285D03*
D405*
X0129429Y0072535D03*
X0129429Y0072585D03*
X0129429Y0072635D03*
X0129429Y0072685D03*
X0129429Y0072735D03*
X0129429Y0072785D03*
X0129429Y0072835D03*
X0129429Y0072885D03*
X0129429Y0072935D03*
X0129429Y0072985D03*
X0129429Y0073035D03*
X0129429Y0073085D03*
X0129429Y0073135D03*
X0129429Y0073185D03*
X0129429Y0073235D03*
X0129429Y0073285D03*
X0129429Y0073335D03*
X0129429Y0073385D03*
X0129429Y0073435D03*
X0129429Y0073485D03*
X0129429Y0073535D03*
X0129429Y0073585D03*
X0129429Y0073635D03*
X0129429Y0073685D03*
X0129429Y0073735D03*
X0129429Y0073785D03*
X0129429Y0073835D03*
X0129429Y0073885D03*
X0129429Y0073935D03*
X0129429Y0073985D03*
X0129429Y0074035D03*
X0129429Y0074085D03*
X0129429Y0074135D03*
X0129429Y0074185D03*
X0129429Y0074235D03*
X0129429Y0074285D03*
X0129429Y0074335D03*
X0129429Y0074385D03*
X0129429Y0074435D03*
X0129429Y0074485D03*
X0129429Y0074535D03*
X0129429Y0074585D03*
X0129429Y0074635D03*
X0129429Y0074685D03*
X0129429Y0074735D03*
X0129429Y0074785D03*
X0129429Y0074835D03*
X0129429Y0074885D03*
X0129429Y0074935D03*
X0129429Y0074985D03*
X0129429Y0075035D03*
X0129429Y0075085D03*
X0129429Y0075135D03*
X0129429Y0075185D03*
X0129429Y0075235D03*
X0129429Y0075285D03*
X0129429Y0075335D03*
X0129429Y0075385D03*
X0129429Y0075435D03*
X0129429Y0075485D03*
X0129429Y0075535D03*
X0129429Y0075585D03*
X0129429Y0075635D03*
X0129429Y0075685D03*
X0129429Y0075735D03*
X0129429Y0075785D03*
X0129429Y0075835D03*
X0129429Y0075885D03*
X0129429Y0075935D03*
X0129429Y0075985D03*
X0129429Y0076035D03*
X0129429Y0076085D03*
X0129429Y0076135D03*
X0126679Y0075235D03*
X0126629Y0075085D03*
X0126629Y0075035D03*
X0126579Y0074885D03*
X0126579Y0074835D03*
X0126579Y0074785D03*
X0126579Y0074735D03*
X0126579Y0074685D03*
X0126579Y0074085D03*
X0126579Y0074035D03*
X0126579Y0073985D03*
X0126579Y0073935D03*
X0126579Y0073885D03*
X0126629Y0073735D03*
X0126629Y0073685D03*
X0126679Y0073535D03*
X0126729Y0073385D03*
X0126779Y0073285D03*
X0124729Y0073285D03*
X0124729Y0073335D03*
X0124729Y0073385D03*
X0124729Y0073435D03*
X0124729Y0073485D03*
X0124729Y0073535D03*
X0124729Y0073585D03*
X0124729Y0073635D03*
X0124729Y0073685D03*
X0124729Y0073735D03*
X0124729Y0073785D03*
X0124729Y0073835D03*
X0124729Y0073885D03*
X0124729Y0073935D03*
X0124729Y0073985D03*
X0124729Y0074035D03*
X0124729Y0074335D03*
X0124729Y0074385D03*
X0124729Y0074435D03*
X0124729Y0074485D03*
X0124729Y0074535D03*
X0124729Y0074585D03*
X0124729Y0074635D03*
X0124729Y0074685D03*
X0124729Y0074735D03*
X0124729Y0074785D03*
X0124729Y0074835D03*
X0124729Y0074885D03*
X0124729Y0074935D03*
X0124729Y0074985D03*
X0124729Y0075035D03*
X0124729Y0075085D03*
X0124729Y0075135D03*
X0124729Y0075185D03*
X0124729Y0075235D03*
X0124729Y0075285D03*
X0124729Y0075335D03*
X0124729Y0075385D03*
X0124729Y0075435D03*
X0124729Y0075485D03*
X0124729Y0075535D03*
X0124729Y0075585D03*
X0124729Y0075635D03*
X0124729Y0075685D03*
X0124729Y0075735D03*
X0124729Y0075785D03*
X0124729Y0075835D03*
X0124729Y0075885D03*
X0124729Y0075935D03*
X0124729Y0075985D03*
X0124729Y0076035D03*
X0124729Y0076085D03*
X0124729Y0076135D03*
X0122579Y0075685D03*
X0122579Y0075635D03*
X0122529Y0075435D03*
X0122529Y0075385D03*
X0122529Y0075335D03*
X0122529Y0075285D03*
X0122529Y0075235D03*
X0122529Y0075185D03*
X0122529Y0075135D03*
X0122529Y0075085D03*
X0122529Y0075035D03*
X0122579Y0074985D03*
X0122579Y0074935D03*
X0122579Y0074885D03*
X0122629Y0074835D03*
X0122629Y0074785D03*
X0122679Y0074685D03*
X0122729Y0074635D03*
X0123329Y0073985D03*
X0123179Y0073735D03*
X0123029Y0073485D03*
X0122879Y0073235D03*
X0121179Y0072585D03*
X0121179Y0072535D03*
X0121229Y0072435D03*
X0121279Y0072335D03*
X0121279Y0072285D03*
X0121129Y0072685D03*
X0121079Y0072785D03*
X0121079Y0072835D03*
X0121029Y0072935D03*
X0120979Y0073035D03*
X0120979Y0073085D03*
X0120929Y0073185D03*
X0120879Y0073285D03*
X0120879Y0073335D03*
X0120829Y0073435D03*
X0120779Y0073535D03*
X0120779Y0073585D03*
X0120729Y0073635D03*
X0120729Y0073685D03*
X0120579Y0074035D03*
X0120579Y0074085D03*
X0120529Y0074135D03*
X0120529Y0074185D03*
X0120479Y0074285D03*
X0120479Y0074335D03*
X0120429Y0074385D03*
X0120429Y0074435D03*
X0120379Y0074535D03*
X0120379Y0074585D03*
X0120329Y0074635D03*
X0120329Y0074685D03*
X0120329Y0074735D03*
X0120279Y0074785D03*
X0120279Y0074835D03*
X0120229Y0074885D03*
X0120229Y0074935D03*
X0120229Y0074985D03*
X0120179Y0075035D03*
X0120179Y0075085D03*
X0120129Y0075135D03*
X0120129Y0075185D03*
X0120129Y0075235D03*
X0120079Y0075285D03*
X0120079Y0075335D03*
X0120029Y0075385D03*
X0120029Y0075435D03*
X0120029Y0075485D03*
X0119979Y0075535D03*
X0119979Y0075585D03*
X0119929Y0075685D03*
X0119929Y0075735D03*
X0119879Y0075835D03*
X0119529Y0075885D03*
X0119529Y0075935D03*
X0119479Y0075835D03*
X0119479Y0075785D03*
X0119429Y0075685D03*
X0119429Y0075635D03*
X0119379Y0075585D03*
X0119379Y0075535D03*
X0119379Y0075485D03*
X0119329Y0075435D03*
X0119329Y0075385D03*
X0119279Y0075335D03*
X0119279Y0075285D03*
X0119279Y0075235D03*
X0119229Y0075185D03*
X0119229Y0075135D03*
X0119179Y0075035D03*
X0119179Y0074985D03*
X0119129Y0074935D03*
X0119129Y0074885D03*
X0119079Y0074785D03*
X0119079Y0074735D03*
X0119029Y0074635D03*
X0119029Y0074585D03*
X0118979Y0074535D03*
X0118979Y0074485D03*
X0118929Y0074385D03*
X0118929Y0074335D03*
X0118879Y0074235D03*
X0118829Y0074135D03*
X0118829Y0074085D03*
X0118629Y0073585D03*
X0118579Y0073485D03*
X0118529Y0073335D03*
X0118479Y0073235D03*
X0118479Y0073185D03*
X0118429Y0073085D03*
X0118379Y0072935D03*
X0118329Y0072835D03*
X0118279Y0072685D03*
X0118229Y0072585D03*
X0118179Y0072435D03*
X0118129Y0072335D03*
X0115329Y0073485D03*
X0115329Y0073535D03*
X0115329Y0073585D03*
X0115379Y0073635D03*
X0115379Y0073685D03*
X0115429Y0073735D03*
X0115429Y0073785D03*
X0115429Y0073835D03*
X0115479Y0073885D03*
X0115479Y0073935D03*
X0115529Y0073985D03*
X0115529Y0074035D03*
X0115529Y0074085D03*
X0115579Y0074135D03*
X0115579Y0074185D03*
X0115629Y0074235D03*
X0115629Y0074285D03*
X0115629Y0074335D03*
X0115679Y0074385D03*
X0115679Y0074435D03*
X0115729Y0074485D03*
X0115729Y0074535D03*
X0115779Y0074635D03*
X0115779Y0074685D03*
X0115829Y0074735D03*
X0115829Y0074785D03*
X0115879Y0074885D03*
X0115879Y0074935D03*
X0115929Y0074985D03*
X0115929Y0075035D03*
X0115979Y0075135D03*
X0115979Y0075185D03*
X0116029Y0075235D03*
X0116029Y0075285D03*
X0116079Y0075335D03*
X0116079Y0075385D03*
X0116079Y0075435D03*
X0116129Y0075485D03*
X0116129Y0075535D03*
X0116179Y0075585D03*
X0116179Y0075635D03*
X0116179Y0075685D03*
X0116229Y0075735D03*
X0116229Y0075785D03*
X0116279Y0075835D03*
X0116279Y0075885D03*
X0116279Y0075935D03*
X0116329Y0075985D03*
X0116329Y0076035D03*
X0113779Y0075085D03*
X0113779Y0075035D03*
X0113829Y0074935D03*
X0113879Y0074835D03*
X0113929Y0074735D03*
X0113929Y0074685D03*
X0113979Y0074585D03*
X0114029Y0074485D03*
X0114029Y0074435D03*
X0114079Y0074335D03*
X0114129Y0074235D03*
X0114129Y0074185D03*
X0114179Y0074085D03*
X0114229Y0073985D03*
X0114229Y0073935D03*
X0114279Y0073835D03*
X0114329Y0073735D03*
X0114329Y0073685D03*
X0114379Y0073585D03*
X0114429Y0073485D03*
X0114429Y0073435D03*
X0114479Y0073335D03*
X0114529Y0073235D03*
X0114529Y0073185D03*
X0114579Y0073085D03*
X0114629Y0072985D03*
X0114679Y0072835D03*
X0115029Y0072835D03*
X0115029Y0072785D03*
X0115079Y0072885D03*
X0115079Y0072935D03*
X0115129Y0073035D03*
X0115129Y0073085D03*
X0115179Y0073135D03*
X0115179Y0073185D03*
X0115229Y0073235D03*
X0115229Y0073285D03*
X0115229Y0073335D03*
X0115279Y0073385D03*
X0115279Y0073435D03*
X0114879Y0072435D03*
X0114879Y0072385D03*
X0113079Y0072385D03*
X0113079Y0072435D03*
X0113079Y0072485D03*
X0113079Y0072535D03*
X0113079Y0072585D03*
X0113079Y0072635D03*
X0113079Y0072685D03*
X0113079Y0072735D03*
X0113079Y0072785D03*
X0113079Y0072835D03*
X0113079Y0072885D03*
X0113079Y0072935D03*
X0113079Y0072985D03*
X0113079Y0073035D03*
X0113079Y0073085D03*
X0113079Y0073135D03*
X0113079Y0073185D03*
X0113079Y0073235D03*
X0113079Y0073285D03*
X0113079Y0073335D03*
X0113079Y0073385D03*
X0113079Y0073435D03*
X0113079Y0073485D03*
X0113079Y0073535D03*
X0113079Y0073585D03*
X0113079Y0073635D03*
X0113079Y0073685D03*
X0113079Y0073735D03*
X0113079Y0073785D03*
X0113079Y0073835D03*
X0113079Y0073885D03*
X0113079Y0073935D03*
X0113079Y0073985D03*
X0113079Y0074035D03*
X0113079Y0074085D03*
X0113079Y0074135D03*
X0113079Y0074185D03*
X0113079Y0074235D03*
X0113079Y0074285D03*
X0113079Y0074335D03*
X0113079Y0074385D03*
X0113079Y0074435D03*
X0113079Y0074485D03*
X0113079Y0074535D03*
X0113079Y0074585D03*
X0113079Y0074635D03*
X0113079Y0074685D03*
X0113079Y0074735D03*
X0113079Y0074785D03*
X0113079Y0074835D03*
X0113079Y0074885D03*
X0113079Y0074935D03*
X0113079Y0074985D03*
X0113079Y0075035D03*
X0113079Y0075085D03*
X0113079Y0075135D03*
X0113079Y0075185D03*
X0113079Y0075235D03*
X0113079Y0075285D03*
X0113079Y0075335D03*
X0113079Y0075385D03*
X0113079Y0075435D03*
X0113079Y0075485D03*
X0113079Y0075535D03*
X0113079Y0075585D03*
X0113079Y0075635D03*
X0113079Y0075685D03*
X0113079Y0075735D03*
X0113079Y0075785D03*
X0113079Y0075835D03*
X0113079Y0075885D03*
X0113379Y0076035D03*
X0113379Y0076085D03*
X0113429Y0075935D03*
X0113479Y0075835D03*
X0113479Y0075785D03*
X0113529Y0075685D03*
X0113579Y0075585D03*
X0113579Y0075535D03*
X0113629Y0075435D03*
X0113679Y0075335D03*
X0113679Y0075285D03*
X0113729Y0075185D03*
X0111229Y0074885D03*
X0111229Y0074835D03*
X0111229Y0074785D03*
X0111229Y0074735D03*
X0111279Y0074485D03*
X0111279Y0074435D03*
X0111279Y0074385D03*
X0111279Y0074335D03*
X0111279Y0074285D03*
X0111279Y0074235D03*
X0111279Y0074185D03*
X0111229Y0073935D03*
X0111229Y0073885D03*
X0111229Y0073835D03*
X0111229Y0073785D03*
X0111179Y0073635D03*
X0111179Y0073585D03*
X0111129Y0073435D03*
X0111079Y0073335D03*
X0111179Y0075035D03*
X0111179Y0075085D03*
X0111179Y0075135D03*
X0111129Y0075185D03*
X0111129Y0075235D03*
X0111079Y0075335D03*
X0111029Y0075435D03*
X0110979Y0075535D03*
X0109429Y0076485D03*
X0107029Y0075385D03*
X0106979Y0075485D03*
X0107079Y0075235D03*
X0107129Y0075135D03*
X0107129Y0075085D03*
X0107129Y0075035D03*
X0107179Y0074885D03*
X0107179Y0074835D03*
X0107179Y0074785D03*
X0107179Y0074735D03*
X0107179Y0074685D03*
X0107179Y0074635D03*
X0107229Y0074335D03*
X0107179Y0074085D03*
X0107179Y0074035D03*
X0107179Y0073985D03*
X0107179Y0073935D03*
X0107179Y0073885D03*
X0107179Y0073835D03*
X0107129Y0073685D03*
X0107129Y0073635D03*
X0107129Y0073585D03*
X0107079Y0073485D03*
X0107079Y0073435D03*
X0107029Y0073335D03*
X0106979Y0073235D03*
X0106929Y0073135D03*
X0104129Y0073035D03*
X0104029Y0073185D03*
X0103979Y0073285D03*
X0103979Y0073335D03*
X0103929Y0073435D03*
X0103929Y0073485D03*
X0103879Y0073585D03*
X0103879Y0073635D03*
X0103879Y0073685D03*
X0103829Y0073785D03*
X0103829Y0073835D03*
X0103829Y0073885D03*
X0103829Y0073935D03*
X0103829Y0073985D03*
X0103829Y0074035D03*
X0103779Y0074235D03*
X0103779Y0074285D03*
X0103779Y0074335D03*
X0103779Y0074385D03*
X0103779Y0074435D03*
X0103829Y0074685D03*
X0103829Y0074735D03*
X0103829Y0074785D03*
X0103829Y0074835D03*
X0103829Y0074885D03*
X0103829Y0074935D03*
X0103879Y0075035D03*
X0103879Y0075085D03*
X0103879Y0075135D03*
X0103929Y0075235D03*
X0103929Y0075285D03*
X0103979Y0075385D03*
X0104029Y0075485D03*
X0104079Y0075585D03*
X0113079Y0072335D03*
X0113079Y0072285D03*
X0119679Y0076285D03*
X0119679Y0076335D03*
X0124729Y0073235D03*
X0124729Y0073185D03*
X0124729Y0073135D03*
X0124729Y0073085D03*
X0124729Y0073035D03*
X0124729Y0072985D03*
X0124729Y0072935D03*
X0124729Y0072885D03*
X0124729Y0072835D03*
X0124729Y0072785D03*
X0124729Y0072735D03*
X0124729Y0072685D03*
X0124729Y0072635D03*
X0124729Y0072585D03*
X0124729Y0072535D03*
X0124729Y0072485D03*
X0124729Y0072435D03*
X0124729Y0072385D03*
X0124729Y0072335D03*
X0124729Y0072285D03*
D406*
X0119679Y0076385D03*
X0119679Y0076435D03*
X0114879Y0072285D03*
X0108529Y0076085D03*
D407*
X0108654Y0072535D03*
X0113054Y0075935D03*
X0113054Y0075985D03*
X0113054Y0076035D03*
X0113054Y0076085D03*
X0113404Y0075985D03*
X0113454Y0075885D03*
X0113504Y0075735D03*
X0113554Y0075635D03*
X0113604Y0075485D03*
X0113654Y0075385D03*
X0113704Y0075235D03*
X0113754Y0075135D03*
X0113804Y0074985D03*
X0113854Y0074885D03*
X0113904Y0074785D03*
X0113954Y0074635D03*
X0114004Y0074535D03*
X0114054Y0074385D03*
X0114104Y0074285D03*
X0114154Y0074135D03*
X0114204Y0074035D03*
X0114254Y0073885D03*
X0114304Y0073785D03*
X0114354Y0073635D03*
X0114404Y0073535D03*
X0114454Y0073385D03*
X0114504Y0073285D03*
X0114554Y0073135D03*
X0114604Y0073035D03*
X0114654Y0072935D03*
X0114654Y0072885D03*
X0114704Y0072785D03*
X0115104Y0072985D03*
X0114854Y0072335D03*
X0116654Y0072335D03*
X0116654Y0072385D03*
X0116654Y0072435D03*
X0116654Y0072485D03*
X0116654Y0072535D03*
X0116654Y0072585D03*
X0116654Y0072635D03*
X0116654Y0072685D03*
X0116654Y0072735D03*
X0116654Y0072785D03*
X0116654Y0072835D03*
X0116654Y0072885D03*
X0116654Y0072935D03*
X0116654Y0072985D03*
X0116654Y0073035D03*
X0116654Y0073085D03*
X0116654Y0073135D03*
X0116654Y0073185D03*
X0116654Y0073235D03*
X0116654Y0073285D03*
X0116654Y0073335D03*
X0116654Y0073385D03*
X0116654Y0073435D03*
X0116654Y0073485D03*
X0116654Y0073535D03*
X0116654Y0073585D03*
X0116654Y0073635D03*
X0116654Y0073685D03*
X0116654Y0073735D03*
X0116654Y0073785D03*
X0116654Y0073835D03*
X0116654Y0073885D03*
X0116654Y0073935D03*
X0116654Y0073985D03*
X0116654Y0074035D03*
X0116654Y0074085D03*
X0116654Y0074135D03*
X0116654Y0074185D03*
X0116654Y0074235D03*
X0116654Y0074285D03*
X0116654Y0074335D03*
X0116654Y0074385D03*
X0116654Y0074435D03*
X0116654Y0074485D03*
X0116654Y0074535D03*
X0116654Y0074585D03*
X0116654Y0074635D03*
X0116654Y0074685D03*
X0116654Y0074735D03*
X0116654Y0074785D03*
X0116654Y0074835D03*
X0116654Y0074885D03*
X0116654Y0074935D03*
X0116654Y0074985D03*
X0116654Y0075035D03*
X0116654Y0075085D03*
X0116654Y0075135D03*
X0116654Y0075185D03*
X0116654Y0075235D03*
X0116654Y0075285D03*
X0116654Y0075335D03*
X0116654Y0075385D03*
X0116654Y0075435D03*
X0116654Y0075485D03*
X0116654Y0075535D03*
X0116654Y0075585D03*
X0116654Y0075635D03*
X0116654Y0075685D03*
X0116654Y0075735D03*
X0116654Y0075785D03*
X0116654Y0075835D03*
X0116654Y0075885D03*
X0116654Y0075935D03*
X0116654Y0075985D03*
X0116654Y0076035D03*
X0115954Y0075085D03*
X0115854Y0074835D03*
X0115754Y0074585D03*
X0116654Y0072285D03*
X0119454Y0075735D03*
X0119854Y0075885D03*
X0119854Y0075935D03*
X0119904Y0075785D03*
X0119954Y0075635D03*
D408*
X0119204Y0075085D03*
X0119104Y0074835D03*
X0119054Y0074685D03*
X0118954Y0074435D03*
X0118904Y0074285D03*
X0118854Y0074185D03*
X0118804Y0074035D03*
X0118654Y0073685D03*
X0118654Y0073635D03*
X0118604Y0073535D03*
X0118554Y0073435D03*
X0118554Y0073385D03*
X0118504Y0073285D03*
X0118454Y0073135D03*
X0118404Y0073035D03*
X0118404Y0072985D03*
X0118354Y0072885D03*
X0118304Y0072785D03*
X0118304Y0072735D03*
X0118254Y0072635D03*
X0118204Y0072535D03*
X0118204Y0072485D03*
X0118154Y0072385D03*
X0118104Y0072285D03*
X0120804Y0073485D03*
X0120854Y0073385D03*
X0120904Y0073235D03*
X0120954Y0073135D03*
X0121004Y0072985D03*
X0121054Y0072885D03*
X0121104Y0072735D03*
X0121154Y0072635D03*
X0121204Y0072485D03*
X0121254Y0072385D03*
X0122304Y0072285D03*
X0122354Y0072335D03*
X0122354Y0072385D03*
X0122404Y0072435D03*
X0122454Y0072485D03*
X0122454Y0072535D03*
X0122504Y0072585D03*
X0122504Y0072635D03*
X0122554Y0072685D03*
X0122604Y0072735D03*
X0122604Y0072785D03*
X0122654Y0072835D03*
X0122654Y0072885D03*
X0122704Y0072935D03*
X0122754Y0072985D03*
X0122754Y0073035D03*
X0122804Y0073085D03*
X0122804Y0073135D03*
X0122854Y0073185D03*
X0122904Y0073285D03*
X0122954Y0073335D03*
X0122954Y0073385D03*
X0123004Y0073435D03*
X0123054Y0073535D03*
X0123104Y0073585D03*
X0123104Y0073635D03*
X0123154Y0073685D03*
X0123204Y0073785D03*
X0123254Y0073835D03*
X0123254Y0073885D03*
X0123304Y0073935D03*
X0123354Y0074035D03*
X0122754Y0074585D03*
X0122654Y0074735D03*
X0122554Y0075485D03*
X0122554Y0075535D03*
X0122554Y0075585D03*
X0122604Y0075735D03*
X0122654Y0075785D03*
X0122654Y0075835D03*
X0122704Y0075885D03*
X0120404Y0074485D03*
X0120504Y0074235D03*
X0114854Y0072485D03*
X0111154Y0073485D03*
X0111154Y0073535D03*
X0111204Y0073685D03*
X0111204Y0073735D03*
X0111254Y0073985D03*
X0111254Y0074035D03*
X0111254Y0074085D03*
X0111254Y0074135D03*
X0111254Y0074535D03*
X0111254Y0074585D03*
X0111254Y0074635D03*
X0111254Y0074685D03*
X0111204Y0074935D03*
X0111204Y0074985D03*
X0111104Y0075285D03*
X0111054Y0075385D03*
X0111004Y0075485D03*
X0110954Y0075585D03*
X0110904Y0075635D03*
X0110854Y0075735D03*
X0110804Y0075785D03*
X0110754Y0075835D03*
X0108604Y0076135D03*
X0107054Y0075335D03*
X0107054Y0075285D03*
X0107104Y0075185D03*
X0107154Y0074985D03*
X0107154Y0074935D03*
X0107204Y0074585D03*
X0107204Y0074535D03*
X0107204Y0074485D03*
X0107204Y0074435D03*
X0107204Y0074385D03*
X0107204Y0074285D03*
X0107204Y0074235D03*
X0107204Y0074185D03*
X0107204Y0074135D03*
X0107154Y0073785D03*
X0107154Y0073735D03*
X0107104Y0073535D03*
X0107054Y0073385D03*
X0107004Y0073285D03*
X0106954Y0073185D03*
X0106904Y0073085D03*
X0106854Y0073035D03*
X0106854Y0072985D03*
X0106804Y0072935D03*
X0106754Y0072885D03*
X0104254Y0072885D03*
X0104204Y0072935D03*
X0104154Y0072985D03*
X0104104Y0073085D03*
X0104054Y0073135D03*
X0104004Y0073235D03*
X0103954Y0073385D03*
X0103904Y0073535D03*
X0103854Y0073735D03*
X0103804Y0074085D03*
X0103804Y0074135D03*
X0103804Y0074185D03*
X0103804Y0074485D03*
X0103804Y0074535D03*
X0103804Y0074585D03*
X0103804Y0074635D03*
X0103854Y0074985D03*
X0103904Y0075185D03*
X0103954Y0075335D03*
X0104004Y0075435D03*
X0104054Y0075535D03*
X0104104Y0075635D03*
X0104154Y0075685D03*
X0104204Y0075785D03*
X0104254Y0075835D03*
X0104304Y0075885D03*
X0106754Y0075835D03*
X0106854Y0075685D03*
X0106904Y0075635D03*
X0106904Y0075585D03*
X0106954Y0075535D03*
X0107004Y0075435D03*
X0111054Y0073285D03*
X0111054Y0073235D03*
X0111004Y0073185D03*
X0111004Y0073135D03*
X0110954Y0073085D03*
X0110904Y0072985D03*
X0110854Y0072935D03*
X0111104Y0073385D03*
X0113104Y0076435D03*
X0126554Y0074635D03*
X0126554Y0074585D03*
X0126554Y0074535D03*
X0126554Y0074485D03*
X0126554Y0074435D03*
X0126554Y0074385D03*
X0126554Y0074335D03*
X0126554Y0074285D03*
X0126554Y0074235D03*
X0126554Y0074185D03*
X0126554Y0074135D03*
X0126604Y0073835D03*
X0126604Y0073785D03*
X0126654Y0073635D03*
X0126654Y0073585D03*
X0126704Y0073485D03*
X0126704Y0073435D03*
X0126754Y0073335D03*
X0126804Y0073235D03*
X0126854Y0073185D03*
X0126854Y0073135D03*
X0126904Y0073085D03*
X0126604Y0074935D03*
X0126604Y0074985D03*
X0126654Y0075135D03*
X0126654Y0075185D03*
X0126704Y0075285D03*
X0126704Y0075335D03*
X0126754Y0075385D03*
X0126754Y0075435D03*
X0126804Y0075485D03*
X0126854Y0075585D03*
D409*
X0109404Y0076385D03*
X0105504Y0072335D03*
D410*
X0109429Y0072335D03*
X0124029Y0074185D03*
X0128729Y0072335D03*
X0128729Y0076385D03*
D411*
X0124054Y0074135D03*
X0124054Y0074085D03*
X0105504Y0072385D03*
X0105504Y0076335D03*
D412*
X0105504Y0076285D03*
X0105504Y0072435D03*
X0109454Y0072385D03*
D413*
X0123929Y0074285D03*
X0123929Y0076285D03*
X0128629Y0076335D03*
X0128629Y0072385D03*
D414*
X0109504Y0072435D03*
D415*
X0123854Y0076185D03*
X0128554Y0076285D03*
X0128554Y0072435D03*
D416*
X0127429Y0072635D03*
X0110429Y0072585D03*
X0108829Y0072485D03*
X0106279Y0072535D03*
X0104629Y0076135D03*
X0108679Y0076185D03*
D417*
X0110154Y0072485D03*
X0127604Y0076135D03*
D418*
X0128504Y0072485D03*
X0119704Y0073985D03*
D419*
X0123079Y0076135D03*
X0127579Y0072585D03*
X0110329Y0072535D03*
X0110229Y0076185D03*
X0106229Y0076185D03*
X0104779Y0076185D03*
D420*
X0104329Y0075935D03*
X0104179Y0075735D03*
X0106679Y0075885D03*
X0106779Y0075785D03*
X0106829Y0075735D03*
X0106729Y0072835D03*
X0106679Y0072785D03*
X0106629Y0072735D03*
X0104379Y0072735D03*
X0104329Y0072785D03*
X0104279Y0072835D03*
X0110779Y0072835D03*
X0110829Y0072885D03*
X0110929Y0073035D03*
X0110879Y0075685D03*
X0114879Y0072535D03*
X0119679Y0076135D03*
X0119679Y0076185D03*
X0119679Y0076235D03*
X0122729Y0075935D03*
X0122829Y0074535D03*
X0122879Y0074485D03*
X0126829Y0075535D03*
X0126879Y0075635D03*
X0126929Y0075685D03*
X0126979Y0075735D03*
X0127029Y0075785D03*
X0126929Y0073035D03*
X0126979Y0072985D03*
X0127029Y0072935D03*
X0127079Y0072885D03*
D421*
X0127779Y0072535D03*
D422*
X0127354Y0072685D03*
X0127254Y0075985D03*
X0127354Y0076035D03*
X0122954Y0076085D03*
X0123054Y0074385D03*
X0119704Y0075985D03*
X0116504Y0076085D03*
X0116504Y0076135D03*
X0116504Y0076185D03*
X0113204Y0076185D03*
X0113204Y0076135D03*
X0110354Y0076135D03*
X0106354Y0076135D03*
X0106404Y0072585D03*
X0104604Y0072585D03*
X0114854Y0072735D03*
D423*
X0108529Y0072585D03*
X0108479Y0076035D03*
D424*
X0106654Y0075935D03*
X0106604Y0075985D03*
X0105504Y0076485D03*
X0104454Y0076035D03*
X0104404Y0075985D03*
X0104454Y0072685D03*
X0104504Y0072635D03*
X0106554Y0072685D03*
X0110604Y0072685D03*
X0110654Y0072735D03*
X0110704Y0072785D03*
X0110704Y0075885D03*
X0110654Y0075935D03*
X0110604Y0075985D03*
X0113154Y0076385D03*
X0116554Y0076385D03*
X0116554Y0076335D03*
X0114854Y0072585D03*
X0122954Y0074435D03*
X0122804Y0075985D03*
X0122854Y0076035D03*
X0127054Y0075835D03*
X0127154Y0072835D03*
X0127204Y0072785D03*
D425*
X0127279Y0072735D03*
X0127129Y0075885D03*
X0127179Y0075935D03*
X0119679Y0076035D03*
X0119679Y0076085D03*
X0116529Y0076235D03*
X0116529Y0076285D03*
X0113179Y0076285D03*
X0113179Y0076335D03*
X0113179Y0076235D03*
X0110529Y0076035D03*
X0110429Y0076085D03*
X0110529Y0072635D03*
X0106479Y0072635D03*
X0106529Y0076035D03*
X0106429Y0076085D03*
X0104529Y0076085D03*
X0114879Y0072685D03*
X0114879Y0072635D03*
D426*
X0119704Y0073735D03*
D427*
X0119679Y0073785D03*
X0128429Y0076185D03*
D428*
X0119704Y0073835D03*
D429*
X0119679Y0073885D03*
X0119679Y0073935D03*
X0128479Y0076235D03*
D430*
X0123979Y0074235D03*
D431*
X0123254Y0074335D03*
D432*
X0123879Y0076235D03*
X0109379Y0076285D03*
X0105479Y0076235D03*
D433*
X0109429Y0076235D03*
D434*
X0109404Y0076335D03*
X0124004Y0076335D03*
D435*
X0105504Y0076385D03*
D436*
X0124129Y0076385D03*
D437*
X0109404Y0076435D03*
X0105504Y0076435D03*
D438*
X0116704Y0076435D03*
X0124804Y0076435D03*
X0129454Y0076435D03*
D439*
X0090400Y0081184D02*
X0089916Y0080700D01*
X0088949Y0080700D01*
X0088465Y0081184D01*
X0088465Y0082151D01*
X0089433Y0082151D01*
X0090400Y0081184D02*
X0090400Y0083119D01*
X0089916Y0083602D01*
X0088949Y0083602D01*
X0088465Y0083119D01*
X0087453Y0081184D02*
X0086970Y0081184D01*
X0086970Y0080700D01*
X0087453Y0080700D01*
X0087453Y0081184D01*
X0087453Y0085500D02*
X0085519Y0085500D01*
X0086486Y0085500D02*
X0086486Y0088402D01*
X0087453Y0087435D01*
X0088465Y0087435D02*
X0088465Y0087919D01*
X0088949Y0088402D01*
X0089916Y0088402D01*
X0090400Y0087919D01*
X0088465Y0087435D02*
X0090400Y0085500D01*
X0088465Y0085500D01*
X0084507Y0085500D02*
X0082572Y0088402D01*
X0081560Y0087919D02*
X0081077Y0088402D01*
X0080109Y0088402D01*
X0079625Y0087919D01*
X0079625Y0087435D01*
X0080109Y0086951D01*
X0079625Y0086467D01*
X0079625Y0085984D01*
X0080109Y0085500D01*
X0081077Y0085500D01*
X0081560Y0085984D01*
X0080593Y0086951D02*
X0080109Y0086951D01*
X0078614Y0085500D02*
X0076679Y0088402D01*
X0075667Y0087435D02*
X0074700Y0088402D01*
X0074700Y0085500D01*
X0075667Y0085500D02*
X0073732Y0085500D01*
X0072721Y0085984D02*
X0072237Y0085500D01*
X0071270Y0085500D01*
X0070786Y0085984D01*
X0070786Y0087919D01*
X0071270Y0088402D01*
X0072237Y0088402D01*
X0072721Y0087919D01*
X0072721Y0087435D01*
X0072237Y0086951D01*
X0070786Y0086951D01*
X0071270Y0090300D02*
X0070786Y0090784D01*
X0070786Y0091267D01*
X0071270Y0091751D01*
X0072721Y0091751D01*
X0072721Y0090300D02*
X0072721Y0093202D01*
X0071270Y0093202D01*
X0070786Y0092719D01*
X0070786Y0092235D01*
X0071270Y0091751D01*
X0071270Y0090300D02*
X0072721Y0090300D01*
X0069774Y0090300D02*
X0069774Y0092235D01*
X0068807Y0092235D02*
X0068323Y0092235D01*
X0068807Y0092235D02*
X0069774Y0091267D01*
X0067319Y0091267D02*
X0065384Y0091267D01*
X0065384Y0091751D01*
X0065868Y0092235D01*
X0066835Y0092235D01*
X0067319Y0091751D01*
X0067319Y0090784D01*
X0066835Y0090300D01*
X0065868Y0090300D01*
X0064372Y0090784D02*
X0063889Y0091267D01*
X0062437Y0091267D01*
X0062437Y0091751D02*
X0062437Y0090300D01*
X0063889Y0090300D01*
X0064372Y0090784D01*
X0063889Y0092235D02*
X0062921Y0092235D01*
X0062437Y0091751D01*
X0061426Y0091267D02*
X0059975Y0092235D01*
X0058970Y0091751D02*
X0058970Y0090784D01*
X0058487Y0090300D01*
X0057519Y0090300D01*
X0057036Y0090784D01*
X0057036Y0091751D01*
X0057519Y0092235D01*
X0058487Y0092235D01*
X0058970Y0091751D01*
X0059975Y0090300D02*
X0061426Y0091267D01*
X0061426Y0090300D02*
X0061426Y0093202D01*
X0056024Y0092235D02*
X0056024Y0090784D01*
X0055540Y0090300D01*
X0054089Y0090300D01*
X0054089Y0092235D01*
X0053077Y0092235D02*
X0052110Y0092235D01*
X0052594Y0092719D02*
X0052594Y0090784D01*
X0052110Y0090300D01*
X0048167Y0090300D02*
X0046232Y0090300D01*
X0047199Y0090300D02*
X0047199Y0093202D01*
X0048167Y0092235D01*
X0045220Y0090784D02*
X0044736Y0090784D01*
X0044736Y0090300D01*
X0045220Y0090300D01*
X0045220Y0090784D01*
X0043747Y0090784D02*
X0043263Y0090300D01*
X0042296Y0090300D01*
X0041812Y0090784D01*
X0041812Y0091751D01*
X0042296Y0092235D01*
X0042779Y0092235D01*
X0043747Y0091751D01*
X0043747Y0093202D01*
X0041812Y0093202D01*
X0060964Y0082635D02*
X0062415Y0082635D01*
X0062899Y0082151D01*
X0062415Y0081667D01*
X0061448Y0081667D01*
X0060964Y0081184D01*
X0061448Y0080700D01*
X0062899Y0080700D01*
X0063903Y0082635D02*
X0064387Y0082635D01*
X0065355Y0081667D01*
X0065355Y0080700D02*
X0065355Y0082635D01*
X0066366Y0082151D02*
X0066366Y0081667D01*
X0068301Y0081667D01*
X0068301Y0081184D02*
X0068301Y0082151D01*
X0067817Y0082635D01*
X0066850Y0082635D01*
X0066366Y0082151D01*
X0066850Y0080700D02*
X0067817Y0080700D01*
X0068301Y0081184D01*
X0069313Y0080700D02*
X0070764Y0080700D01*
X0071248Y0081184D01*
X0071248Y0082151D01*
X0070764Y0082635D01*
X0069313Y0082635D01*
X0069313Y0083602D02*
X0069313Y0080700D01*
X0072259Y0080700D02*
X0072259Y0082151D01*
X0072743Y0082635D01*
X0074194Y0082635D01*
X0074194Y0080700D01*
X0075206Y0081667D02*
X0077141Y0081667D01*
X0077141Y0081184D02*
X0077141Y0082151D01*
X0076657Y0082635D01*
X0075689Y0082635D01*
X0075206Y0082151D01*
X0075206Y0081667D01*
X0075689Y0080700D02*
X0076657Y0080700D01*
X0077141Y0081184D01*
X0078152Y0081667D02*
X0080087Y0081667D01*
X0080087Y0081184D02*
X0080087Y0082151D01*
X0079603Y0082635D01*
X0078636Y0082635D01*
X0078152Y0082151D01*
X0078152Y0081667D01*
X0078636Y0080700D02*
X0079603Y0080700D01*
X0080087Y0081184D01*
X0081099Y0080700D02*
X0083034Y0080700D01*
X0083034Y0083602D01*
X0083056Y0090300D02*
X0082572Y0090784D01*
X0082572Y0092719D01*
X0083056Y0093202D01*
X0084023Y0093202D01*
X0084507Y0092719D01*
X0084507Y0092235D01*
X0084023Y0091751D01*
X0082572Y0091751D01*
X0081560Y0091751D02*
X0080109Y0091751D01*
X0079625Y0091267D01*
X0079625Y0090784D01*
X0080109Y0090300D01*
X0081077Y0090300D01*
X0081560Y0090784D01*
X0081560Y0091751D01*
X0080593Y0092719D01*
X0079625Y0093202D01*
X0083056Y0090300D02*
X0084023Y0090300D01*
X0084507Y0090784D01*
X0085519Y0090784D02*
X0085519Y0091751D01*
X0086486Y0091751D01*
X0087453Y0090784D02*
X0087453Y0092719D01*
X0086970Y0093202D01*
X0086002Y0093202D01*
X0085519Y0092719D01*
X0085519Y0090784D02*
X0086002Y0090300D01*
X0086970Y0090300D01*
X0087453Y0090784D01*
X0088465Y0090784D02*
X0088949Y0090300D01*
X0090400Y0090300D01*
X0090400Y0093202D01*
X0088949Y0093202D01*
X0088465Y0092719D01*
X0088465Y0092235D01*
X0088949Y0091751D01*
X0090400Y0091751D01*
X0088949Y0091751D02*
X0088465Y0091267D01*
X0088465Y0090784D01*
D440*
X0067533Y0130431D02*
X0068267Y0131165D01*
X0067533Y0131899D01*
X0066065Y0131899D01*
X0066065Y0132641D02*
X0068267Y0132641D01*
X0068267Y0133742D01*
X0067900Y0134109D01*
X0067166Y0134109D01*
X0066799Y0133742D01*
X0066799Y0132641D01*
X0067166Y0131899D02*
X0067166Y0130431D01*
X0067533Y0130431D02*
X0066065Y0130431D01*
X0065698Y0134851D02*
X0065698Y0136319D01*
X0066065Y0137061D02*
X0068267Y0137061D01*
X0068267Y0138162D01*
X0067900Y0138529D01*
X0067166Y0138529D01*
X0066799Y0138162D01*
X0066799Y0137061D01*
X0066799Y0137795D02*
X0066065Y0138529D01*
X0066065Y0139271D02*
X0066065Y0140739D01*
X0066065Y0141480D02*
X0067533Y0141480D01*
X0068267Y0142214D01*
X0067533Y0142948D01*
X0066065Y0142948D01*
X0066065Y0143690D02*
X0066065Y0144791D01*
X0066432Y0145158D01*
X0067900Y0145158D01*
X0068267Y0144791D01*
X0068267Y0143690D01*
X0066065Y0143690D01*
X0067166Y0142948D02*
X0067166Y0141480D01*
X0068267Y0140739D02*
X0068267Y0139271D01*
X0066065Y0139271D01*
X0067166Y0139271D02*
X0067166Y0140005D01*
X0067900Y0145900D02*
X0067166Y0146634D01*
X0066065Y0146634D01*
X0067166Y0146634D02*
X0067900Y0147368D01*
X0068267Y0147368D01*
X0068267Y0145900D02*
X0067900Y0145900D01*
X0060767Y0145164D02*
X0058565Y0145164D01*
X0058565Y0146632D01*
X0058565Y0147374D02*
X0058565Y0148841D01*
X0059666Y0148107D02*
X0059666Y0147374D01*
X0060767Y0147374D02*
X0058565Y0147374D01*
X0060767Y0147374D02*
X0060767Y0148841D01*
X0060400Y0144422D02*
X0060033Y0144422D01*
X0059666Y0144055D01*
X0059666Y0142954D01*
X0059666Y0142212D02*
X0059666Y0140744D01*
X0060033Y0140744D02*
X0060767Y0141478D01*
X0060033Y0142212D01*
X0058565Y0142212D01*
X0058565Y0142954D02*
X0058565Y0144055D01*
X0058932Y0144422D01*
X0059299Y0144422D01*
X0059666Y0144055D01*
X0060400Y0144422D02*
X0060767Y0144055D01*
X0060767Y0142954D01*
X0058565Y0142954D01*
X0058565Y0140744D02*
X0060033Y0140744D01*
X0060400Y0140002D02*
X0060767Y0139635D01*
X0060767Y0138901D01*
X0060400Y0138534D01*
X0060033Y0138534D01*
X0059666Y0138901D01*
X0059666Y0139635D01*
X0059299Y0140002D01*
X0058932Y0140002D01*
X0058565Y0139635D01*
X0058565Y0138901D01*
X0058932Y0138534D01*
X0058565Y0137795D02*
X0058565Y0137061D01*
X0058565Y0137428D02*
X0060767Y0137428D01*
X0060767Y0137061D02*
X0060767Y0137795D01*
X0060400Y0136319D02*
X0060767Y0135952D01*
X0060767Y0134851D01*
X0058565Y0134851D01*
X0058565Y0135952D01*
X0058932Y0136319D01*
X0060400Y0136319D01*
X0058198Y0134109D02*
X0058198Y0132641D01*
X0058565Y0131899D02*
X0060767Y0131899D01*
X0060767Y0130431D02*
X0058565Y0130431D01*
X0059299Y0131165D01*
X0058565Y0131899D01*
X0048202Y0121658D02*
X0047835Y0121658D01*
X0046367Y0120190D01*
X0046000Y0120190D01*
X0046000Y0119448D02*
X0046734Y0118714D01*
X0046734Y0119081D02*
X0046734Y0117980D01*
X0046000Y0117980D02*
X0048202Y0117980D01*
X0048202Y0119081D01*
X0047835Y0119448D01*
X0047101Y0119448D01*
X0046734Y0119081D01*
X0048202Y0120190D02*
X0048202Y0121658D01*
X0044702Y0121291D02*
X0043601Y0120190D01*
X0043601Y0121658D01*
X0042500Y0121291D02*
X0044702Y0121291D01*
X0044335Y0119448D02*
X0042867Y0119448D01*
X0042500Y0119081D01*
X0042500Y0118347D01*
X0042867Y0117980D01*
X0044335Y0117980D01*
X0044702Y0118347D01*
X0044702Y0119081D01*
X0044335Y0119448D01*
X0043234Y0118714D02*
X0042500Y0119448D01*
X0041202Y0119081D02*
X0040835Y0119448D01*
X0040101Y0119448D01*
X0039734Y0119081D01*
X0039734Y0117980D01*
X0039000Y0117980D02*
X0041202Y0117980D01*
X0041202Y0119081D01*
X0040835Y0120190D02*
X0040468Y0120190D01*
X0040101Y0120557D01*
X0040101Y0121291D01*
X0039734Y0121658D01*
X0039367Y0121658D01*
X0039000Y0121291D01*
X0039000Y0120557D01*
X0039367Y0120190D01*
X0039734Y0120190D01*
X0040101Y0120557D01*
X0040101Y0121291D02*
X0040468Y0121658D01*
X0040835Y0121658D01*
X0041202Y0121291D01*
X0041202Y0120557D01*
X0040835Y0120190D01*
X0039734Y0118714D02*
X0039000Y0119448D01*
X0039367Y0115658D02*
X0039734Y0115658D01*
X0040101Y0115291D01*
X0040101Y0114190D01*
X0039367Y0114190D01*
X0039000Y0114557D01*
X0039000Y0115291D01*
X0039367Y0115658D01*
X0040835Y0114924D02*
X0040101Y0114190D01*
X0040101Y0113448D02*
X0039734Y0113081D01*
X0039734Y0111980D01*
X0039000Y0111980D02*
X0041202Y0111980D01*
X0041202Y0113081D01*
X0040835Y0113448D01*
X0040101Y0113448D01*
X0039734Y0112714D02*
X0039000Y0113448D01*
X0040835Y0114924D02*
X0041202Y0115658D01*
X0042500Y0115658D02*
X0042500Y0114190D01*
X0043968Y0115658D01*
X0044335Y0115658D01*
X0044702Y0115291D01*
X0044702Y0114557D01*
X0044335Y0114190D01*
X0044335Y0113448D02*
X0042867Y0113448D01*
X0042500Y0113081D01*
X0042500Y0112347D01*
X0042867Y0111980D01*
X0044335Y0111980D01*
X0044702Y0112347D01*
X0044702Y0113081D01*
X0044335Y0113448D01*
X0043234Y0112714D02*
X0042500Y0113448D01*
X0046000Y0113448D02*
X0046734Y0112714D01*
X0046734Y0113081D02*
X0046734Y0111980D01*
X0046000Y0111980D02*
X0048202Y0111980D01*
X0048202Y0113081D01*
X0047835Y0113448D01*
X0047101Y0113448D01*
X0046734Y0113081D01*
X0047101Y0114190D02*
X0047468Y0114924D01*
X0047468Y0115291D01*
X0047101Y0115658D01*
X0046367Y0115658D01*
X0046000Y0115291D01*
X0046000Y0114557D01*
X0046367Y0114190D01*
X0047101Y0114190D02*
X0048202Y0114190D01*
X0048202Y0115658D01*
X0058585Y0178136D02*
X0060787Y0178136D01*
X0060787Y0179237D01*
X0060420Y0179604D01*
X0059686Y0179604D01*
X0059319Y0179237D01*
X0059319Y0178136D01*
X0058952Y0180346D02*
X0058585Y0180713D01*
X0058585Y0181447D01*
X0058952Y0181814D01*
X0059319Y0181814D01*
X0059686Y0181447D01*
X0059686Y0180713D01*
X0060053Y0180346D01*
X0060420Y0180346D01*
X0060787Y0180713D01*
X0060787Y0181447D01*
X0060420Y0181814D01*
X0060787Y0182556D02*
X0060053Y0183290D01*
X0060787Y0184024D01*
X0058585Y0184024D01*
X0058218Y0184766D02*
X0058218Y0186234D01*
X0058585Y0186976D02*
X0058585Y0187710D01*
X0058585Y0187343D02*
X0060787Y0187343D01*
X0060787Y0186976D02*
X0060787Y0187710D01*
X0060787Y0188449D02*
X0058585Y0189917D01*
X0060787Y0189917D01*
X0060787Y0190659D02*
X0060787Y0191760D01*
X0060420Y0192127D01*
X0058952Y0192127D01*
X0058585Y0191760D01*
X0058585Y0190659D01*
X0060787Y0190659D01*
X0060787Y0188449D02*
X0058585Y0188449D01*
X0058585Y0182556D02*
X0060787Y0182556D01*
X0020836Y0183976D02*
X0018634Y0183976D01*
X0019368Y0183976D02*
X0020836Y0185444D01*
X0020469Y0186186D02*
X0020836Y0186553D01*
X0020836Y0187287D01*
X0020469Y0187654D01*
X0020102Y0187654D01*
X0018634Y0186186D01*
X0018634Y0187654D01*
X0018634Y0185444D02*
X0019735Y0184343D01*
X0106200Y0182420D02*
X0106567Y0182420D01*
X0108035Y0183888D01*
X0108402Y0183888D01*
X0108402Y0182420D01*
X0108402Y0181678D02*
X0108402Y0180210D01*
X0107301Y0180210D01*
X0107668Y0180944D01*
X0107668Y0181311D01*
X0107301Y0181678D01*
X0106567Y0181678D01*
X0106200Y0181311D01*
X0106200Y0180577D01*
X0106567Y0180210D01*
X0106567Y0179468D02*
X0106200Y0179101D01*
X0106200Y0178367D01*
X0106567Y0178000D01*
X0108035Y0178000D01*
X0108402Y0178367D01*
X0108402Y0179101D01*
X0108035Y0179468D01*
X0116107Y0174534D02*
X0116107Y0173800D01*
X0116474Y0173433D01*
X0116107Y0172691D02*
X0116107Y0171224D01*
X0116107Y0171957D02*
X0118309Y0171957D01*
X0117575Y0171224D01*
X0118309Y0170482D02*
X0116474Y0170482D01*
X0116107Y0170115D01*
X0116107Y0169381D01*
X0116474Y0169014D01*
X0118309Y0169014D01*
X0117942Y0173433D02*
X0118309Y0173800D01*
X0118309Y0174534D01*
X0117942Y0174901D01*
X0117575Y0174901D01*
X0117208Y0174534D01*
X0116841Y0174901D01*
X0116474Y0174901D01*
X0116107Y0174534D01*
X0117208Y0174534D02*
X0117208Y0174167D01*
X0117589Y0154102D02*
X0118690Y0153001D01*
X0117222Y0153001D01*
X0117589Y0151900D02*
X0117589Y0154102D01*
X0119432Y0153735D02*
X0119799Y0154102D01*
X0120533Y0154102D01*
X0120900Y0153735D01*
X0120900Y0152267D01*
X0120533Y0151900D01*
X0119799Y0151900D01*
X0119432Y0152267D01*
X0119899Y0150502D02*
X0119532Y0150135D01*
X0119532Y0149401D01*
X0119899Y0149034D01*
X0121000Y0149034D01*
X0120266Y0149034D02*
X0119532Y0148300D01*
X0118790Y0148667D02*
X0118423Y0148300D01*
X0117689Y0148300D01*
X0117322Y0148667D01*
X0117322Y0149401D01*
X0117689Y0149768D01*
X0118056Y0149768D01*
X0118790Y0149401D01*
X0118790Y0150502D01*
X0117322Y0150502D01*
X0116580Y0149768D02*
X0115846Y0150502D01*
X0115846Y0148300D01*
X0116580Y0148300D02*
X0115112Y0148300D01*
X0117322Y0146635D02*
X0117322Y0146268D01*
X0117689Y0145901D01*
X0117322Y0145534D01*
X0117322Y0145167D01*
X0117689Y0144800D01*
X0118423Y0144800D01*
X0118790Y0145167D01*
X0119532Y0145167D02*
X0119899Y0144800D01*
X0120633Y0144800D01*
X0121000Y0145167D01*
X0121000Y0146635D01*
X0120633Y0147002D01*
X0119899Y0147002D01*
X0119532Y0146635D01*
X0118790Y0146635D02*
X0118423Y0147002D01*
X0117689Y0147002D01*
X0117322Y0146635D01*
X0117689Y0145901D02*
X0118056Y0145901D01*
X0117322Y0143602D02*
X0118790Y0143602D01*
X0118790Y0142501D01*
X0118056Y0142868D01*
X0117689Y0142868D01*
X0117322Y0142501D01*
X0117322Y0141767D01*
X0117689Y0141400D01*
X0118423Y0141400D01*
X0118790Y0141767D01*
X0119532Y0141400D02*
X0120266Y0142134D01*
X0119899Y0142134D02*
X0121000Y0142134D01*
X0121000Y0141400D02*
X0121000Y0143602D01*
X0119899Y0143602D01*
X0119532Y0143235D01*
X0119532Y0142501D01*
X0119899Y0142134D01*
X0119899Y0139802D02*
X0119532Y0139435D01*
X0119532Y0138701D01*
X0119899Y0138334D01*
X0121000Y0138334D01*
X0120266Y0138334D02*
X0119532Y0137600D01*
X0118790Y0137967D02*
X0118423Y0137600D01*
X0117689Y0137600D01*
X0117322Y0137967D01*
X0117322Y0138701D01*
X0117689Y0139068D01*
X0118056Y0139068D01*
X0118790Y0138701D01*
X0118790Y0139802D01*
X0117322Y0139802D01*
X0116580Y0139435D02*
X0116213Y0139802D01*
X0115479Y0139802D01*
X0115112Y0139435D01*
X0115112Y0139068D01*
X0115479Y0138701D01*
X0115112Y0138334D01*
X0115112Y0137967D01*
X0115479Y0137600D01*
X0116213Y0137600D01*
X0116580Y0137967D01*
X0115846Y0138701D02*
X0115479Y0138701D01*
X0115112Y0141400D02*
X0116580Y0141400D01*
X0115112Y0142868D01*
X0115112Y0143235D01*
X0115479Y0143602D01*
X0116213Y0143602D01*
X0116580Y0143235D01*
X0119899Y0139802D02*
X0121000Y0139802D01*
X0121000Y0137600D01*
X0120633Y0136002D02*
X0121000Y0135635D01*
X0121000Y0134167D01*
X0120633Y0133800D01*
X0119899Y0133800D01*
X0119532Y0134167D01*
X0118790Y0133800D02*
X0117322Y0135268D01*
X0117322Y0135635D01*
X0117689Y0136002D01*
X0118423Y0136002D01*
X0118790Y0135635D01*
X0119532Y0135635D02*
X0119899Y0136002D01*
X0120633Y0136002D01*
X0118790Y0133800D02*
X0117322Y0133800D01*
X0121000Y0148300D02*
X0121000Y0150502D01*
X0119899Y0150502D01*
D441*
X0092627Y0127942D02*
X0028414Y0127942D01*
X0028414Y0185658D01*
X0092627Y0185658D01*
X0092627Y0127942D01*
M02*
