G75*
%MOIN*%
%OFA0B0*%
%FSLAX25Y25*%
%IPPOS*%
%LPD*%
%AMOC8*
5,1,8,0,0,1.08239X$1,22.5*
%
%ADD10C,0.00000*%
%ADD11R,0.04331X0.03937*%
%ADD12R,0.03937X0.04331*%
%ADD13R,0.04724X0.03937*%
%ADD14R,0.07874X0.05315*%
%ADD15R,0.01378X0.01969*%
%ADD16R,0.05512X0.03937*%
D10*
X0026800Y0048050D02*
X0026800Y0245501D01*
X0146800Y0245501D01*
X0146800Y0048050D01*
X0026800Y0048050D01*
D11*
X0054300Y0098454D03*
X0054300Y0105146D03*
X0054300Y0113454D03*
X0054300Y0120146D03*
X0079300Y0120146D03*
X0079300Y0113454D03*
X0079300Y0105146D03*
X0079300Y0098454D03*
X0101054Y0127000D03*
X0107746Y0127000D03*
X0107546Y0151200D03*
X0100854Y0151200D03*
X0100854Y0167300D03*
X0107546Y0167300D03*
D12*
X0107546Y0159200D03*
X0100854Y0159200D03*
X0100900Y0175354D03*
X0100900Y0182046D03*
X0100954Y0143200D03*
X0107646Y0143200D03*
X0107646Y0135100D03*
X0100954Y0135100D03*
D13*
X0091800Y0140383D03*
X0091800Y0145383D03*
X0091800Y0150383D03*
X0091800Y0155383D03*
X0091800Y0160383D03*
X0091800Y0165383D03*
X0091800Y0170383D03*
X0091800Y0175383D03*
D14*
X0047706Y0185146D03*
X0047706Y0128454D03*
D15*
X0117841Y0158266D03*
X0120400Y0158266D03*
X0122959Y0158266D03*
X0122959Y0166534D03*
X0120400Y0166534D03*
X0117841Y0166534D03*
D16*
X0071131Y0120540D03*
X0071131Y0113060D03*
X0071131Y0105540D03*
X0071131Y0098060D03*
X0062469Y0101800D03*
X0062469Y0116800D03*
M02*
